G75*
%MOIN*%
%OFA0B0*%
%FSLAX25Y25*%
%IPPOS*%
%LPD*%
%AMOC8*
5,1,8,0,0,1.08239X$1,22.5*
%
%ADD10C,0.00000*%
%ADD11R,0.06600X0.06600*%
%ADD12C,0.06600*%
%ADD13C,0.13843*%
%ADD14C,0.06200*%
%ADD15OC8,0.06300*%
%ADD16C,0.06000*%
%ADD17C,0.07087*%
%ADD18C,0.01600*%
%ADD19C,0.03962*%
%ADD20C,0.25400*%
%ADD21C,0.04000*%
%ADD22C,0.07600*%
%ADD23C,0.19685*%
D10*
X0001800Y0001800D02*
X0001800Y0330501D01*
X0521721Y0330501D01*
X0521721Y0001800D01*
X0001800Y0001800D01*
D11*
X0111800Y0066800D03*
X0351800Y0066800D03*
X0351800Y0236800D03*
X0111800Y0236800D03*
D12*
X0121800Y0236800D03*
X0131800Y0236800D03*
X0141800Y0236800D03*
X0151800Y0236800D03*
X0161800Y0236800D03*
X0171800Y0236800D03*
X0171800Y0266800D03*
X0161800Y0266800D03*
X0151800Y0266800D03*
X0141800Y0266800D03*
X0131800Y0266800D03*
X0121800Y0266800D03*
X0111800Y0266800D03*
X0351800Y0266800D03*
X0361800Y0266800D03*
X0371800Y0266800D03*
X0381800Y0266800D03*
X0391800Y0266800D03*
X0401800Y0266800D03*
X0411800Y0266800D03*
X0411800Y0236800D03*
X0401800Y0236800D03*
X0391800Y0236800D03*
X0381800Y0236800D03*
X0371800Y0236800D03*
X0361800Y0236800D03*
X0361800Y0096800D03*
X0351800Y0096800D03*
X0371800Y0096800D03*
X0381800Y0096800D03*
X0391800Y0096800D03*
X0401800Y0096800D03*
X0411800Y0096800D03*
X0411800Y0066800D03*
X0401800Y0066800D03*
X0391800Y0066800D03*
X0381800Y0066800D03*
X0371800Y0066800D03*
X0361800Y0066800D03*
X0171800Y0066800D03*
X0161800Y0066800D03*
X0151800Y0066800D03*
X0141800Y0066800D03*
X0131800Y0066800D03*
X0121800Y0066800D03*
X0121800Y0096800D03*
X0111800Y0096800D03*
X0131800Y0096800D03*
X0141800Y0096800D03*
X0151800Y0096800D03*
X0161800Y0096800D03*
X0171800Y0096800D03*
D13*
X0171800Y0131800D03*
X0171800Y0201800D03*
X0351800Y0204300D03*
X0351800Y0129050D03*
D14*
X0336800Y0126800D03*
X0326800Y0126800D03*
X0316800Y0126800D03*
X0306800Y0126800D03*
X0296800Y0126800D03*
X0286800Y0126800D03*
X0276800Y0126800D03*
X0266800Y0126800D03*
X0256800Y0126800D03*
X0246800Y0126800D03*
X0236800Y0126800D03*
X0226800Y0126800D03*
X0216800Y0126800D03*
X0206800Y0126800D03*
X0196800Y0126800D03*
X0186800Y0126800D03*
X0226800Y0206800D03*
X0236800Y0206800D03*
X0246800Y0206800D03*
X0256800Y0206800D03*
X0266800Y0206800D03*
X0276800Y0206800D03*
X0286800Y0206800D03*
X0296800Y0206800D03*
X0306800Y0206800D03*
X0316800Y0206800D03*
X0326800Y0206800D03*
X0336800Y0206800D03*
D15*
X0326800Y0241800D03*
X0326800Y0261800D03*
X0086800Y0261800D03*
X0086800Y0241800D03*
X0086800Y0091800D03*
X0086800Y0071800D03*
X0326800Y0071800D03*
X0326800Y0091800D03*
D16*
X0119800Y0161800D02*
X0113800Y0161800D01*
X0113800Y0171800D02*
X0119800Y0171800D01*
D17*
X0111800Y0293257D02*
X0111800Y0300343D01*
X0092115Y0300343D02*
X0092115Y0293257D01*
X0071485Y0293257D02*
X0071485Y0300343D01*
X0051800Y0300343D02*
X0051800Y0293257D01*
X0032115Y0293257D02*
X0032115Y0300343D01*
X0131485Y0300343D02*
X0131485Y0293257D01*
X0152115Y0293257D02*
X0152115Y0300343D01*
X0171800Y0300343D02*
X0171800Y0293257D01*
X0191485Y0293257D02*
X0191485Y0300343D01*
X0212115Y0300343D02*
X0212115Y0293257D01*
X0231800Y0293257D02*
X0231800Y0300343D01*
X0251485Y0300343D02*
X0251485Y0293257D01*
X0272115Y0293257D02*
X0272115Y0300343D01*
X0291800Y0300343D02*
X0291800Y0293257D01*
X0311485Y0293257D02*
X0311485Y0300343D01*
X0332115Y0300343D02*
X0332115Y0293257D01*
X0351800Y0293257D02*
X0351800Y0300343D01*
X0371485Y0300343D02*
X0371485Y0293257D01*
X0392115Y0293257D02*
X0392115Y0300343D01*
X0411800Y0300343D02*
X0411800Y0293257D01*
X0431485Y0293257D02*
X0431485Y0300343D01*
X0452115Y0300343D02*
X0452115Y0293257D01*
X0471800Y0293257D02*
X0471800Y0300343D01*
X0491485Y0300343D02*
X0491485Y0293257D01*
X0491485Y0040343D02*
X0491485Y0033257D01*
X0471800Y0033257D02*
X0471800Y0040343D01*
X0452115Y0040343D02*
X0452115Y0033257D01*
X0431485Y0033257D02*
X0431485Y0040343D01*
X0411800Y0040343D02*
X0411800Y0033257D01*
X0392115Y0033257D02*
X0392115Y0040343D01*
X0371485Y0040343D02*
X0371485Y0033257D01*
X0351800Y0033257D02*
X0351800Y0040343D01*
X0332115Y0040343D02*
X0332115Y0033257D01*
X0311485Y0033257D02*
X0311485Y0040343D01*
X0291800Y0040343D02*
X0291800Y0033257D01*
X0272115Y0033257D02*
X0272115Y0040343D01*
X0251485Y0040343D02*
X0251485Y0033257D01*
X0231800Y0033257D02*
X0231800Y0040343D01*
X0212115Y0040343D02*
X0212115Y0033257D01*
X0191485Y0033257D02*
X0191485Y0040343D01*
X0171800Y0040343D02*
X0171800Y0033257D01*
X0152115Y0033257D02*
X0152115Y0040343D01*
X0131485Y0040343D02*
X0131485Y0033257D01*
X0111800Y0033257D02*
X0111800Y0040343D01*
X0092115Y0040343D02*
X0092115Y0033257D01*
X0071485Y0033257D02*
X0071485Y0040343D01*
X0051800Y0040343D02*
X0051800Y0033257D01*
X0032115Y0033257D02*
X0032115Y0040343D01*
D18*
X0038058Y0040164D02*
X0045857Y0040164D01*
X0045857Y0041526D02*
X0045857Y0032074D01*
X0046762Y0029890D01*
X0048433Y0028218D01*
X0050618Y0027313D01*
X0052982Y0027313D01*
X0055167Y0028218D01*
X0056838Y0029890D01*
X0057743Y0032074D01*
X0057743Y0032418D01*
X0063713Y0038387D01*
X0064200Y0039563D01*
X0064200Y0042075D01*
X0068725Y0046600D01*
X0077637Y0046600D01*
X0078813Y0047087D01*
X0079713Y0047987D01*
X0105525Y0073800D01*
X0124037Y0073800D01*
X0125213Y0074287D01*
X0126113Y0075187D01*
X0137525Y0086600D01*
X0138437Y0086600D01*
X0139613Y0087087D01*
X0140513Y0087987D01*
X0143713Y0091187D01*
X0143830Y0091471D01*
X0145029Y0091968D01*
X0146632Y0093571D01*
X0146819Y0094021D01*
X0146925Y0093813D01*
X0147452Y0093087D01*
X0148087Y0092452D01*
X0148813Y0091925D01*
X0149612Y0091518D01*
X0150465Y0091240D01*
X0151351Y0091100D01*
X0151500Y0091100D01*
X0151500Y0096500D01*
X0152100Y0096500D01*
X0152100Y0091100D01*
X0152249Y0091100D01*
X0153135Y0091240D01*
X0153988Y0091518D01*
X0154787Y0091925D01*
X0155513Y0092452D01*
X0156148Y0093087D01*
X0156675Y0093813D01*
X0156781Y0094021D01*
X0156968Y0093571D01*
X0158571Y0091968D01*
X0160666Y0091100D01*
X0162934Y0091100D01*
X0165029Y0091968D01*
X0166632Y0093571D01*
X0166800Y0093976D01*
X0166968Y0093571D01*
X0168571Y0091968D01*
X0170666Y0091100D01*
X0171975Y0091100D01*
X0177800Y0085275D01*
X0177800Y0065525D01*
X0177177Y0064902D01*
X0177360Y0065465D01*
X0177500Y0066351D01*
X0177500Y0066500D01*
X0172100Y0066500D01*
X0172100Y0067100D01*
X0171500Y0067100D01*
X0171500Y0072500D01*
X0171351Y0072500D01*
X0170465Y0072360D01*
X0169612Y0072082D01*
X0168813Y0071675D01*
X0168087Y0071148D01*
X0167452Y0070513D01*
X0166925Y0069787D01*
X0166819Y0069579D01*
X0166632Y0070029D01*
X0165029Y0071632D01*
X0162934Y0072500D01*
X0160666Y0072500D01*
X0158571Y0071632D01*
X0156968Y0070029D01*
X0156800Y0069624D01*
X0156632Y0070029D01*
X0155029Y0071632D01*
X0152934Y0072500D01*
X0150666Y0072500D01*
X0148571Y0071632D01*
X0146968Y0070029D01*
X0146781Y0069579D01*
X0146675Y0069787D01*
X0146148Y0070513D01*
X0145513Y0071148D01*
X0144787Y0071675D01*
X0143988Y0072082D01*
X0143135Y0072360D01*
X0142249Y0072500D01*
X0142100Y0072500D01*
X0142100Y0067100D01*
X0141500Y0067100D01*
X0141500Y0072500D01*
X0141351Y0072500D01*
X0140465Y0072360D01*
X0139612Y0072082D01*
X0138813Y0071675D01*
X0138087Y0071148D01*
X0137452Y0070513D01*
X0136925Y0069787D01*
X0136819Y0069579D01*
X0136632Y0070029D01*
X0135029Y0071632D01*
X0132934Y0072500D01*
X0130666Y0072500D01*
X0128571Y0071632D01*
X0126968Y0070029D01*
X0126800Y0069624D01*
X0126632Y0070029D01*
X0125029Y0071632D01*
X0122934Y0072500D01*
X0120666Y0072500D01*
X0118571Y0071632D01*
X0117463Y0070524D01*
X0117408Y0070800D01*
X0117227Y0071237D01*
X0116964Y0071630D01*
X0116630Y0071964D01*
X0116237Y0072227D01*
X0115800Y0072408D01*
X0115336Y0072500D01*
X0112100Y0072500D01*
X0112100Y0067100D01*
X0111500Y0067100D01*
X0111500Y0072500D01*
X0108264Y0072500D01*
X0107800Y0072408D01*
X0107363Y0072227D01*
X0106970Y0071964D01*
X0106636Y0071630D01*
X0106373Y0071237D01*
X0106192Y0070800D01*
X0106100Y0070336D01*
X0106100Y0067100D01*
X0111500Y0067100D01*
X0111500Y0066500D01*
X0112100Y0066500D01*
X0112100Y0061100D01*
X0115336Y0061100D01*
X0115800Y0061192D01*
X0116237Y0061373D01*
X0116630Y0061636D01*
X0116964Y0061970D01*
X0117227Y0062363D01*
X0117408Y0062800D01*
X0117463Y0063076D01*
X0118571Y0061968D01*
X0120666Y0061100D01*
X0122934Y0061100D01*
X0125029Y0061968D01*
X0126632Y0063571D01*
X0126800Y0063976D01*
X0126968Y0063571D01*
X0128571Y0061968D01*
X0130666Y0061100D01*
X0132934Y0061100D01*
X0135029Y0061968D01*
X0136632Y0063571D01*
X0136819Y0064021D01*
X0136925Y0063813D01*
X0137452Y0063087D01*
X0138087Y0062452D01*
X0138813Y0061925D01*
X0139612Y0061518D01*
X0140465Y0061240D01*
X0141351Y0061100D01*
X0141500Y0061100D01*
X0141500Y0066500D01*
X0142100Y0066500D01*
X0142100Y0061100D01*
X0142249Y0061100D01*
X0143135Y0061240D01*
X0143988Y0061518D01*
X0144787Y0061925D01*
X0145513Y0062452D01*
X0146148Y0063087D01*
X0146675Y0063813D01*
X0146781Y0064021D01*
X0146968Y0063571D01*
X0148571Y0061968D01*
X0150666Y0061100D01*
X0152934Y0061100D01*
X0155029Y0061968D01*
X0156632Y0063571D01*
X0156800Y0063976D01*
X0156968Y0063571D01*
X0158571Y0061968D01*
X0160666Y0061100D01*
X0162934Y0061100D01*
X0165029Y0061968D01*
X0166632Y0063571D01*
X0166819Y0064021D01*
X0166925Y0063813D01*
X0167452Y0063087D01*
X0168087Y0062452D01*
X0168813Y0061925D01*
X0169612Y0061518D01*
X0170465Y0061240D01*
X0171351Y0061100D01*
X0171500Y0061100D01*
X0171500Y0066500D01*
X0172100Y0066500D01*
X0172100Y0061100D01*
X0172249Y0061100D01*
X0173135Y0061240D01*
X0173698Y0061423D01*
X0165275Y0053000D01*
X0127563Y0053000D01*
X0126387Y0052513D01*
X0119987Y0046113D01*
X0119087Y0045213D01*
X0118600Y0044037D01*
X0118600Y0041525D01*
X0117743Y0040669D01*
X0117743Y0041526D01*
X0116838Y0043710D01*
X0115167Y0045382D01*
X0112982Y0046287D01*
X0110618Y0046287D01*
X0108433Y0045382D01*
X0106762Y0043710D01*
X0105857Y0041526D01*
X0105857Y0032074D01*
X0106762Y0029890D01*
X0108433Y0028218D01*
X0110618Y0027313D01*
X0112982Y0027313D01*
X0115167Y0028218D01*
X0116838Y0029890D01*
X0117743Y0032074D01*
X0117743Y0033800D01*
X0119237Y0033800D01*
X0120413Y0034287D01*
X0121313Y0035187D01*
X0124513Y0038387D01*
X0125000Y0039563D01*
X0125000Y0042075D01*
X0126450Y0043525D01*
X0126402Y0043458D01*
X0125977Y0042625D01*
X0125688Y0041735D01*
X0125542Y0040811D01*
X0125542Y0037181D01*
X0131104Y0037181D01*
X0131104Y0036419D01*
X0125542Y0036419D01*
X0125542Y0032789D01*
X0125688Y0031865D01*
X0125977Y0030975D01*
X0126402Y0030142D01*
X0126952Y0029385D01*
X0127613Y0028723D01*
X0128370Y0028174D01*
X0129204Y0027749D01*
X0130093Y0027460D01*
X0131017Y0027313D01*
X0131104Y0027313D01*
X0131104Y0036419D01*
X0131866Y0036419D01*
X0131866Y0027313D01*
X0131953Y0027313D01*
X0132877Y0027460D01*
X0133766Y0027749D01*
X0134600Y0028174D01*
X0135357Y0028723D01*
X0136018Y0029385D01*
X0136568Y0030142D01*
X0136993Y0030975D01*
X0137282Y0031865D01*
X0137428Y0032789D01*
X0137428Y0036419D01*
X0131866Y0036419D01*
X0131866Y0037181D01*
X0131104Y0037181D01*
X0131104Y0046287D01*
X0131017Y0046287D01*
X0130093Y0046140D01*
X0129204Y0045851D01*
X0128370Y0045426D01*
X0128304Y0045378D01*
X0129525Y0046600D01*
X0167237Y0046600D01*
X0168413Y0047087D01*
X0169313Y0047987D01*
X0183713Y0062387D01*
X0184200Y0063563D01*
X0184200Y0087237D01*
X0183713Y0088413D01*
X0183042Y0089083D01*
X0183492Y0089270D01*
X0184023Y0089800D01*
X0247237Y0089800D01*
X0248413Y0090287D01*
X0249313Y0091187D01*
X0278113Y0119987D01*
X0278600Y0121163D01*
X0278600Y0121592D01*
X0279915Y0122137D01*
X0281463Y0123684D01*
X0281800Y0124499D01*
X0282137Y0123684D01*
X0283684Y0122137D01*
X0285706Y0121300D01*
X0287894Y0121300D01*
X0289915Y0122137D01*
X0291463Y0123684D01*
X0291800Y0124499D01*
X0292137Y0123684D01*
X0293684Y0122137D01*
X0295706Y0121300D01*
X0297894Y0121300D01*
X0299915Y0122137D01*
X0301463Y0123684D01*
X0301800Y0124499D01*
X0302137Y0123684D01*
X0303684Y0122137D01*
X0304200Y0121924D01*
X0304200Y0121163D01*
X0304687Y0119987D01*
X0325487Y0099187D01*
X0326387Y0098287D01*
X0327563Y0097800D01*
X0330075Y0097800D01*
X0336200Y0091675D01*
X0336200Y0063563D01*
X0336687Y0062387D01*
X0343087Y0055987D01*
X0343987Y0055087D01*
X0345163Y0054600D01*
X0386437Y0054600D01*
X0387613Y0055087D01*
X0394115Y0061589D01*
X0395029Y0061968D01*
X0396632Y0063571D01*
X0396800Y0063976D01*
X0396968Y0063571D01*
X0398571Y0061968D01*
X0400666Y0061100D01*
X0402934Y0061100D01*
X0405029Y0061968D01*
X0406632Y0063571D01*
X0406819Y0064021D01*
X0406925Y0063813D01*
X0407452Y0063087D01*
X0408087Y0062452D01*
X0408813Y0061925D01*
X0409612Y0061518D01*
X0410465Y0061240D01*
X0411351Y0061100D01*
X0411500Y0061100D01*
X0411500Y0066500D01*
X0412100Y0066500D01*
X0412100Y0067100D01*
X0411500Y0067100D01*
X0411500Y0072500D01*
X0411351Y0072500D01*
X0410465Y0072360D01*
X0409612Y0072082D01*
X0408813Y0071675D01*
X0408087Y0071148D01*
X0407452Y0070513D01*
X0406925Y0069787D01*
X0406819Y0069579D01*
X0406632Y0070029D01*
X0405029Y0071632D01*
X0402934Y0072500D01*
X0400666Y0072500D01*
X0398571Y0071632D01*
X0396968Y0070029D01*
X0396800Y0069624D01*
X0396632Y0070029D01*
X0395029Y0071632D01*
X0392934Y0072500D01*
X0390666Y0072500D01*
X0388571Y0071632D01*
X0386968Y0070029D01*
X0386781Y0069579D01*
X0386675Y0069787D01*
X0386148Y0070513D01*
X0385513Y0071148D01*
X0384787Y0071675D01*
X0383988Y0072082D01*
X0383135Y0072360D01*
X0382249Y0072500D01*
X0382100Y0072500D01*
X0382100Y0067100D01*
X0381500Y0067100D01*
X0381500Y0072500D01*
X0381351Y0072500D01*
X0380465Y0072360D01*
X0379612Y0072082D01*
X0378813Y0071675D01*
X0378087Y0071148D01*
X0377452Y0070513D01*
X0376925Y0069787D01*
X0376819Y0069579D01*
X0376632Y0070029D01*
X0375029Y0071632D01*
X0372934Y0072500D01*
X0370666Y0072500D01*
X0368571Y0071632D01*
X0366968Y0070029D01*
X0366800Y0069624D01*
X0366632Y0070029D01*
X0365029Y0071632D01*
X0364796Y0071729D01*
X0364513Y0072413D01*
X0363613Y0073313D01*
X0345800Y0091125D01*
X0345800Y0095237D01*
X0345313Y0096413D01*
X0344413Y0097313D01*
X0339842Y0101883D01*
X0340292Y0102070D01*
X0340823Y0102600D01*
X0374875Y0102600D01*
X0377207Y0100268D01*
X0376968Y0100029D01*
X0376800Y0099624D01*
X0376632Y0100029D01*
X0375029Y0101632D01*
X0372934Y0102500D01*
X0370666Y0102500D01*
X0368571Y0101632D01*
X0366968Y0100029D01*
X0366781Y0099579D01*
X0366675Y0099787D01*
X0366148Y0100513D01*
X0365513Y0101148D01*
X0364787Y0101675D01*
X0363988Y0102082D01*
X0363135Y0102360D01*
X0362249Y0102500D01*
X0362100Y0102500D01*
X0362100Y0097100D01*
X0361500Y0097100D01*
X0361500Y0102500D01*
X0361351Y0102500D01*
X0360465Y0102360D01*
X0359612Y0102082D01*
X0358813Y0101675D01*
X0358087Y0101148D01*
X0357452Y0100513D01*
X0356925Y0099787D01*
X0356819Y0099579D01*
X0356632Y0100029D01*
X0355029Y0101632D01*
X0352934Y0102500D01*
X0350666Y0102500D01*
X0348571Y0101632D01*
X0346968Y0100029D01*
X0346100Y0097934D01*
X0346100Y0095666D01*
X0346968Y0093571D01*
X0348571Y0091968D01*
X0350666Y0091100D01*
X0352934Y0091100D01*
X0355029Y0091968D01*
X0356632Y0093571D01*
X0356819Y0094021D01*
X0356925Y0093813D01*
X0357452Y0093087D01*
X0358087Y0092452D01*
X0358813Y0091925D01*
X0359612Y0091518D01*
X0360465Y0091240D01*
X0361351Y0091100D01*
X0361500Y0091100D01*
X0361500Y0096500D01*
X0362100Y0096500D01*
X0362100Y0091100D01*
X0362249Y0091100D01*
X0363135Y0091240D01*
X0363988Y0091518D01*
X0364787Y0091925D01*
X0365513Y0092452D01*
X0366148Y0093087D01*
X0366675Y0093813D01*
X0366781Y0094021D01*
X0366968Y0093571D01*
X0368571Y0091968D01*
X0370666Y0091100D01*
X0372934Y0091100D01*
X0375029Y0091968D01*
X0376632Y0093571D01*
X0376800Y0093976D01*
X0376968Y0093571D01*
X0378571Y0091968D01*
X0380666Y0091100D01*
X0382934Y0091100D01*
X0385029Y0091968D01*
X0386632Y0093571D01*
X0386819Y0094021D01*
X0386925Y0093813D01*
X0387452Y0093087D01*
X0388087Y0092452D01*
X0388813Y0091925D01*
X0389612Y0091518D01*
X0390465Y0091240D01*
X0391351Y0091100D01*
X0391500Y0091100D01*
X0391500Y0096500D01*
X0392100Y0096500D01*
X0392100Y0091100D01*
X0392249Y0091100D01*
X0393135Y0091240D01*
X0393988Y0091518D01*
X0394787Y0091925D01*
X0395513Y0092452D01*
X0396148Y0093087D01*
X0396675Y0093813D01*
X0396781Y0094021D01*
X0396968Y0093571D01*
X0398571Y0091968D01*
X0400666Y0091100D01*
X0402934Y0091100D01*
X0405029Y0091968D01*
X0406632Y0093571D01*
X0406800Y0093976D01*
X0406968Y0093571D01*
X0408571Y0091968D01*
X0410666Y0091100D01*
X0411975Y0091100D01*
X0417800Y0085275D01*
X0417800Y0065525D01*
X0417177Y0064902D01*
X0417360Y0065465D01*
X0417500Y0066351D01*
X0417500Y0066500D01*
X0412100Y0066500D01*
X0412100Y0061100D01*
X0412249Y0061100D01*
X0413135Y0061240D01*
X0413698Y0061423D01*
X0405275Y0053000D01*
X0367563Y0053000D01*
X0366387Y0052513D01*
X0359987Y0046113D01*
X0359087Y0045213D01*
X0358600Y0044037D01*
X0358600Y0041525D01*
X0357743Y0040669D01*
X0357743Y0041526D01*
X0356838Y0043710D01*
X0355167Y0045382D01*
X0352982Y0046287D01*
X0350618Y0046287D01*
X0348433Y0045382D01*
X0346762Y0043710D01*
X0345857Y0041526D01*
X0345857Y0032074D01*
X0346762Y0029890D01*
X0348433Y0028218D01*
X0350618Y0027313D01*
X0352982Y0027313D01*
X0355167Y0028218D01*
X0356838Y0029890D01*
X0357743Y0032074D01*
X0357743Y0033800D01*
X0359237Y0033800D01*
X0360413Y0034287D01*
X0361313Y0035187D01*
X0364513Y0038387D01*
X0365000Y0039563D01*
X0365000Y0042075D01*
X0366450Y0043525D01*
X0366402Y0043458D01*
X0365977Y0042625D01*
X0365688Y0041735D01*
X0365542Y0040811D01*
X0365542Y0037181D01*
X0371104Y0037181D01*
X0371104Y0036419D01*
X0365542Y0036419D01*
X0365542Y0032789D01*
X0365688Y0031865D01*
X0365977Y0030975D01*
X0366402Y0030142D01*
X0366952Y0029385D01*
X0367613Y0028723D01*
X0368370Y0028174D01*
X0369204Y0027749D01*
X0370093Y0027460D01*
X0371017Y0027313D01*
X0371104Y0027313D01*
X0371104Y0036419D01*
X0371866Y0036419D01*
X0371866Y0027313D01*
X0371953Y0027313D01*
X0372877Y0027460D01*
X0373766Y0027749D01*
X0374600Y0028174D01*
X0375357Y0028723D01*
X0376018Y0029385D01*
X0376568Y0030142D01*
X0376993Y0030975D01*
X0377282Y0031865D01*
X0377428Y0032789D01*
X0377428Y0036419D01*
X0371866Y0036419D01*
X0371866Y0037181D01*
X0371104Y0037181D01*
X0371104Y0046287D01*
X0371017Y0046287D01*
X0370093Y0046140D01*
X0369204Y0045851D01*
X0368370Y0045426D01*
X0368304Y0045378D01*
X0369525Y0046600D01*
X0407237Y0046600D01*
X0408413Y0047087D01*
X0409313Y0047987D01*
X0423713Y0062387D01*
X0424200Y0063563D01*
X0424200Y0087237D01*
X0423713Y0088413D01*
X0422813Y0089313D01*
X0417195Y0094930D01*
X0417500Y0095666D01*
X0417500Y0097934D01*
X0416632Y0100029D01*
X0415029Y0101632D01*
X0412934Y0102500D01*
X0410666Y0102500D01*
X0408571Y0101632D01*
X0406968Y0100029D01*
X0406800Y0099624D01*
X0406632Y0100029D01*
X0405029Y0101632D01*
X0402934Y0102500D01*
X0400666Y0102500D01*
X0398571Y0101632D01*
X0396968Y0100029D01*
X0396781Y0099579D01*
X0396675Y0099787D01*
X0396148Y0100513D01*
X0395513Y0101148D01*
X0394787Y0101675D01*
X0393988Y0102082D01*
X0393135Y0102360D01*
X0392249Y0102500D01*
X0392100Y0102500D01*
X0392100Y0097100D01*
X0391500Y0097100D01*
X0391500Y0102500D01*
X0391351Y0102500D01*
X0390465Y0102360D01*
X0389612Y0102082D01*
X0388813Y0101675D01*
X0388087Y0101148D01*
X0387452Y0100513D01*
X0386925Y0099787D01*
X0386819Y0099579D01*
X0386632Y0100029D01*
X0385029Y0101632D01*
X0384030Y0102046D01*
X0383713Y0102813D01*
X0378913Y0107613D01*
X0378013Y0108513D01*
X0376837Y0109000D01*
X0340823Y0109000D01*
X0340292Y0109530D01*
X0338675Y0110200D01*
X0336925Y0110200D01*
X0336200Y0109900D01*
X0336200Y0117275D01*
X0338913Y0119987D01*
X0339400Y0121163D01*
X0339400Y0121924D01*
X0339915Y0122137D01*
X0341463Y0123684D01*
X0342300Y0125706D01*
X0342300Y0127894D01*
X0341463Y0129915D01*
X0339915Y0131463D01*
X0337894Y0132300D01*
X0335706Y0132300D01*
X0333684Y0131463D01*
X0332137Y0129915D01*
X0331800Y0129101D01*
X0331463Y0129915D01*
X0329915Y0131463D01*
X0327894Y0132300D01*
X0325706Y0132300D01*
X0323684Y0131463D01*
X0322137Y0129915D01*
X0321800Y0129101D01*
X0321463Y0129915D01*
X0319915Y0131463D01*
X0317894Y0132300D01*
X0315706Y0132300D01*
X0313684Y0131463D01*
X0312137Y0129915D01*
X0311800Y0129101D01*
X0311463Y0129915D01*
X0309915Y0131463D01*
X0307894Y0132300D01*
X0305706Y0132300D01*
X0303684Y0131463D01*
X0302137Y0129915D01*
X0301800Y0129101D01*
X0301463Y0129915D01*
X0299915Y0131463D01*
X0297894Y0132300D01*
X0295706Y0132300D01*
X0293684Y0131463D01*
X0292137Y0129915D01*
X0291800Y0129101D01*
X0291463Y0129915D01*
X0289915Y0131463D01*
X0287894Y0132300D01*
X0285706Y0132300D01*
X0283684Y0131463D01*
X0282137Y0129915D01*
X0281800Y0129101D01*
X0281463Y0129915D01*
X0279915Y0131463D01*
X0277894Y0132300D01*
X0275706Y0132300D01*
X0273684Y0131463D01*
X0272137Y0129915D01*
X0271800Y0129101D01*
X0271463Y0129915D01*
X0269915Y0131463D01*
X0267894Y0132300D01*
X0265706Y0132300D01*
X0263684Y0131463D01*
X0262137Y0129915D01*
X0261800Y0129101D01*
X0261463Y0129915D01*
X0259915Y0131463D01*
X0257894Y0132300D01*
X0255706Y0132300D01*
X0253684Y0131463D01*
X0252137Y0129915D01*
X0251800Y0129101D01*
X0251463Y0129915D01*
X0249915Y0131463D01*
X0247894Y0132300D01*
X0245706Y0132300D01*
X0243684Y0131463D01*
X0242137Y0129915D01*
X0241800Y0129101D01*
X0241463Y0129915D01*
X0239915Y0131463D01*
X0237894Y0132300D01*
X0235706Y0132300D01*
X0233684Y0131463D01*
X0232137Y0129915D01*
X0231800Y0129101D01*
X0231463Y0129915D01*
X0229915Y0131463D01*
X0227894Y0132300D01*
X0225706Y0132300D01*
X0223684Y0131463D01*
X0222137Y0129915D01*
X0221800Y0129101D01*
X0221504Y0129683D01*
X0220995Y0130383D01*
X0220383Y0130995D01*
X0219683Y0131504D01*
X0218911Y0131897D01*
X0218088Y0132165D01*
X0217233Y0132300D01*
X0216886Y0132300D01*
X0216886Y0126886D01*
X0216714Y0126886D01*
X0216714Y0132300D01*
X0216367Y0132300D01*
X0215512Y0132165D01*
X0214689Y0131897D01*
X0213917Y0131504D01*
X0213217Y0130995D01*
X0212605Y0130383D01*
X0212096Y0129683D01*
X0211800Y0129101D01*
X0211463Y0129915D01*
X0209915Y0131463D01*
X0207894Y0132300D01*
X0205706Y0132300D01*
X0203684Y0131463D01*
X0202137Y0129915D01*
X0201800Y0129101D01*
X0201463Y0129915D01*
X0199915Y0131463D01*
X0197894Y0132300D01*
X0195706Y0132300D01*
X0193684Y0131463D01*
X0192137Y0129915D01*
X0191800Y0129101D01*
X0191463Y0129915D01*
X0189915Y0131463D01*
X0187894Y0132300D01*
X0185706Y0132300D01*
X0183684Y0131463D01*
X0182137Y0129915D01*
X0181300Y0127894D01*
X0181300Y0125706D01*
X0182137Y0123684D01*
X0183684Y0122137D01*
X0185706Y0121300D01*
X0187894Y0121300D01*
X0189915Y0122137D01*
X0191463Y0123684D01*
X0191800Y0124499D01*
X0192137Y0123684D01*
X0193684Y0122137D01*
X0195706Y0121300D01*
X0197894Y0121300D01*
X0199915Y0122137D01*
X0201463Y0123684D01*
X0201800Y0124499D01*
X0202137Y0123684D01*
X0203684Y0122137D01*
X0205706Y0121300D01*
X0207894Y0121300D01*
X0209915Y0122137D01*
X0211463Y0123684D01*
X0211800Y0124499D01*
X0212096Y0123917D01*
X0212605Y0123217D01*
X0213217Y0122605D01*
X0213917Y0122096D01*
X0214689Y0121703D01*
X0215512Y0121435D01*
X0216367Y0121300D01*
X0216714Y0121300D01*
X0216714Y0126714D01*
X0216886Y0126714D01*
X0216886Y0121300D01*
X0217233Y0121300D01*
X0218088Y0121435D01*
X0218911Y0121703D01*
X0219683Y0122096D01*
X0220383Y0122605D01*
X0220995Y0123217D01*
X0221504Y0123917D01*
X0221800Y0124499D01*
X0222137Y0123684D01*
X0223684Y0122137D01*
X0225706Y0121300D01*
X0227894Y0121300D01*
X0229915Y0122137D01*
X0231463Y0123684D01*
X0231800Y0124499D01*
X0232137Y0123684D01*
X0233684Y0122137D01*
X0235706Y0121300D01*
X0237894Y0121300D01*
X0239915Y0122137D01*
X0241463Y0123684D01*
X0241800Y0124499D01*
X0242137Y0123684D01*
X0243684Y0122137D01*
X0245706Y0121300D01*
X0247894Y0121300D01*
X0249915Y0122137D01*
X0251463Y0123684D01*
X0251800Y0124499D01*
X0252137Y0123684D01*
X0253684Y0122137D01*
X0255706Y0121300D01*
X0257894Y0121300D01*
X0259915Y0122137D01*
X0261463Y0123684D01*
X0261800Y0124499D01*
X0262137Y0123684D01*
X0263684Y0122137D01*
X0265706Y0121300D01*
X0267894Y0121300D01*
X0269915Y0122137D01*
X0271463Y0123684D01*
X0271800Y0124499D01*
X0272137Y0123684D01*
X0272200Y0123622D01*
X0272200Y0123125D01*
X0245275Y0096200D01*
X0184023Y0096200D01*
X0183492Y0096730D01*
X0181875Y0097400D01*
X0180125Y0097400D01*
X0178508Y0096730D01*
X0177500Y0095723D01*
X0177500Y0097934D01*
X0176632Y0100029D01*
X0175029Y0101632D01*
X0172934Y0102500D01*
X0170666Y0102500D01*
X0168571Y0101632D01*
X0166968Y0100029D01*
X0166800Y0099624D01*
X0166632Y0100029D01*
X0165029Y0101632D01*
X0162934Y0102500D01*
X0160666Y0102500D01*
X0158571Y0101632D01*
X0156968Y0100029D01*
X0156781Y0099579D01*
X0156675Y0099787D01*
X0156148Y0100513D01*
X0155513Y0101148D01*
X0154787Y0101675D01*
X0153988Y0102082D01*
X0153135Y0102360D01*
X0152249Y0102500D01*
X0152100Y0102500D01*
X0152100Y0097100D01*
X0151500Y0097100D01*
X0151500Y0102500D01*
X0151351Y0102500D01*
X0150465Y0102360D01*
X0149612Y0102082D01*
X0148813Y0101675D01*
X0148087Y0101148D01*
X0147452Y0100513D01*
X0146925Y0099787D01*
X0146819Y0099579D01*
X0146632Y0100029D01*
X0145029Y0101632D01*
X0142934Y0102500D01*
X0140666Y0102500D01*
X0138571Y0101632D01*
X0136968Y0100029D01*
X0136800Y0099624D01*
X0136632Y0100029D01*
X0135029Y0101632D01*
X0132934Y0102500D01*
X0130666Y0102500D01*
X0128571Y0101632D01*
X0126968Y0100029D01*
X0126781Y0099579D01*
X0126675Y0099787D01*
X0126148Y0100513D01*
X0125513Y0101148D01*
X0124787Y0101675D01*
X0123988Y0102082D01*
X0123135Y0102360D01*
X0122249Y0102500D01*
X0122100Y0102500D01*
X0122100Y0097100D01*
X0121500Y0097100D01*
X0121500Y0102500D01*
X0121351Y0102500D01*
X0120465Y0102360D01*
X0119612Y0102082D01*
X0118813Y0101675D01*
X0118087Y0101148D01*
X0117452Y0100513D01*
X0116925Y0099787D01*
X0116819Y0099579D01*
X0116632Y0100029D01*
X0115029Y0101632D01*
X0112934Y0102500D01*
X0110666Y0102500D01*
X0108571Y0101632D01*
X0106968Y0100029D01*
X0106100Y0097934D01*
X0106100Y0095666D01*
X0106968Y0093571D01*
X0108571Y0091968D01*
X0110666Y0091100D01*
X0112934Y0091100D01*
X0115029Y0091968D01*
X0116632Y0093571D01*
X0116819Y0094021D01*
X0116925Y0093813D01*
X0117452Y0093087D01*
X0118087Y0092452D01*
X0118813Y0091925D01*
X0119612Y0091518D01*
X0120465Y0091240D01*
X0121351Y0091100D01*
X0121500Y0091100D01*
X0121500Y0096500D01*
X0122100Y0096500D01*
X0122100Y0091100D01*
X0122249Y0091100D01*
X0123135Y0091240D01*
X0123988Y0091518D01*
X0124787Y0091925D01*
X0125513Y0092452D01*
X0126148Y0093087D01*
X0126675Y0093813D01*
X0126781Y0094021D01*
X0126968Y0093571D01*
X0128571Y0091968D01*
X0130666Y0091100D01*
X0132934Y0091100D01*
X0133003Y0091129D01*
X0122075Y0080200D01*
X0103563Y0080200D01*
X0102387Y0079713D01*
X0092350Y0069675D01*
X0092350Y0071800D01*
X0092350Y0074099D01*
X0089099Y0077350D01*
X0086800Y0077350D01*
X0086800Y0071800D01*
X0086800Y0071800D01*
X0092350Y0071800D01*
X0086800Y0071800D01*
X0086800Y0071800D01*
X0086800Y0066250D01*
X0088925Y0066250D01*
X0075675Y0053000D01*
X0066763Y0053000D01*
X0065587Y0052513D01*
X0059187Y0046113D01*
X0058287Y0045213D01*
X0057800Y0044037D01*
X0057800Y0041525D01*
X0057743Y0041469D01*
X0057743Y0041526D01*
X0056838Y0043710D01*
X0055167Y0045382D01*
X0052982Y0046287D01*
X0050618Y0046287D01*
X0048433Y0045382D01*
X0046762Y0043710D01*
X0045857Y0041526D01*
X0045955Y0041763D02*
X0037960Y0041763D01*
X0038058Y0041526D02*
X0037153Y0043710D01*
X0035482Y0045382D01*
X0033297Y0046287D01*
X0030933Y0046287D01*
X0028748Y0045382D01*
X0027076Y0043710D01*
X0026172Y0041526D01*
X0026172Y0038653D01*
X0025915Y0038033D01*
X0025915Y0025000D01*
X0025000Y0025000D01*
X0025000Y0154557D01*
X0032805Y0154557D01*
X0035972Y0152729D01*
X0039812Y0151700D01*
X0043788Y0151700D01*
X0047628Y0152729D01*
X0051072Y0154717D01*
X0053883Y0157528D01*
X0055871Y0160972D01*
X0056900Y0164812D01*
X0056900Y0168788D01*
X0055871Y0172628D01*
X0053883Y0176072D01*
X0051072Y0178883D01*
X0047628Y0180871D01*
X0043788Y0181900D01*
X0039812Y0181900D01*
X0035972Y0180871D01*
X0032805Y0179043D01*
X0025000Y0179043D01*
X0025000Y0308600D01*
X0065285Y0308600D01*
X0065285Y0295567D01*
X0065542Y0294947D01*
X0065542Y0292074D01*
X0066447Y0289890D01*
X0068118Y0288218D01*
X0070303Y0287313D01*
X0072667Y0287313D01*
X0074852Y0288218D01*
X0076524Y0289890D01*
X0077000Y0291040D01*
X0077000Y0271125D01*
X0064200Y0283925D01*
X0064200Y0293637D01*
X0063713Y0294813D01*
X0062813Y0295713D01*
X0057743Y0300782D01*
X0057743Y0301526D01*
X0056838Y0303710D01*
X0055167Y0305382D01*
X0052982Y0306287D01*
X0050618Y0306287D01*
X0048433Y0305382D01*
X0046762Y0303710D01*
X0045857Y0301526D01*
X0045857Y0292074D01*
X0046762Y0289890D01*
X0048433Y0288218D01*
X0050618Y0287313D01*
X0052982Y0287313D01*
X0055167Y0288218D01*
X0056838Y0289890D01*
X0057643Y0291832D01*
X0057800Y0291675D01*
X0057800Y0281963D01*
X0058287Y0280787D01*
X0073600Y0265475D01*
X0073600Y0261163D01*
X0074087Y0259987D01*
X0084087Y0249987D01*
X0084987Y0249087D01*
X0086163Y0248600D01*
X0125475Y0248600D01*
X0128600Y0245475D01*
X0128600Y0241644D01*
X0128571Y0241632D01*
X0126968Y0240029D01*
X0126800Y0239624D01*
X0126632Y0240029D01*
X0125029Y0241632D01*
X0122934Y0242500D01*
X0120666Y0242500D01*
X0118571Y0241632D01*
X0117463Y0240524D01*
X0117408Y0240800D01*
X0117227Y0241237D01*
X0116964Y0241630D01*
X0116630Y0241964D01*
X0116237Y0242227D01*
X0115800Y0242408D01*
X0115336Y0242500D01*
X0112100Y0242500D01*
X0112100Y0237100D01*
X0111500Y0237100D01*
X0111500Y0242500D01*
X0108264Y0242500D01*
X0107800Y0242408D01*
X0107363Y0242227D01*
X0106970Y0241964D01*
X0106636Y0241630D01*
X0106373Y0241237D01*
X0106192Y0240800D01*
X0106100Y0240336D01*
X0106100Y0237100D01*
X0111500Y0237100D01*
X0111500Y0236500D01*
X0112100Y0236500D01*
X0112100Y0231100D01*
X0115336Y0231100D01*
X0115800Y0231192D01*
X0116237Y0231373D01*
X0116630Y0231636D01*
X0116964Y0231970D01*
X0117227Y0232363D01*
X0117408Y0232800D01*
X0117463Y0233076D01*
X0118571Y0231968D01*
X0120666Y0231100D01*
X0122934Y0231100D01*
X0125029Y0231968D01*
X0126632Y0233571D01*
X0126800Y0233976D01*
X0126968Y0233571D01*
X0128571Y0231968D01*
X0130666Y0231100D01*
X0132934Y0231100D01*
X0135029Y0231968D01*
X0136632Y0233571D01*
X0136819Y0234021D01*
X0136925Y0233813D01*
X0137452Y0233087D01*
X0138087Y0232452D01*
X0138813Y0231925D01*
X0139612Y0231518D01*
X0140465Y0231240D01*
X0141351Y0231100D01*
X0141500Y0231100D01*
X0141500Y0236500D01*
X0142100Y0236500D01*
X0142100Y0231100D01*
X0142249Y0231100D01*
X0143135Y0231240D01*
X0143988Y0231518D01*
X0144787Y0231925D01*
X0145513Y0232452D01*
X0146148Y0233087D01*
X0146675Y0233813D01*
X0146781Y0234021D01*
X0146968Y0233571D01*
X0148571Y0231968D01*
X0150168Y0231306D01*
X0150387Y0231087D01*
X0156787Y0224687D01*
X0157963Y0224200D01*
X0261275Y0224200D01*
X0273800Y0211675D01*
X0273800Y0211510D01*
X0273684Y0211463D01*
X0272137Y0209915D01*
X0271800Y0209101D01*
X0271463Y0209915D01*
X0269915Y0211463D01*
X0267894Y0212300D01*
X0265706Y0212300D01*
X0263684Y0211463D01*
X0262137Y0209915D01*
X0261800Y0209101D01*
X0261463Y0209915D01*
X0259915Y0211463D01*
X0257894Y0212300D01*
X0255706Y0212300D01*
X0253684Y0211463D01*
X0252137Y0209915D01*
X0251800Y0209101D01*
X0251463Y0209915D01*
X0249915Y0211463D01*
X0247894Y0212300D01*
X0245706Y0212300D01*
X0243684Y0211463D01*
X0242137Y0209915D01*
X0241800Y0209101D01*
X0241463Y0209915D01*
X0239915Y0211463D01*
X0237894Y0212300D01*
X0235706Y0212300D01*
X0233684Y0211463D01*
X0232137Y0209915D01*
X0231800Y0209101D01*
X0231463Y0209915D01*
X0229915Y0211463D01*
X0227894Y0212300D01*
X0225706Y0212300D01*
X0223684Y0211463D01*
X0222137Y0209915D01*
X0221300Y0207894D01*
X0221300Y0205706D01*
X0222137Y0203684D01*
X0223684Y0202137D01*
X0225706Y0201300D01*
X0227894Y0201300D01*
X0229915Y0202137D01*
X0231463Y0203684D01*
X0231800Y0204499D01*
X0232137Y0203684D01*
X0233684Y0202137D01*
X0235706Y0201300D01*
X0237894Y0201300D01*
X0239915Y0202137D01*
X0241463Y0203684D01*
X0241800Y0204499D01*
X0242137Y0203684D01*
X0243684Y0202137D01*
X0245706Y0201300D01*
X0247894Y0201300D01*
X0249915Y0202137D01*
X0251463Y0203684D01*
X0251800Y0204499D01*
X0252137Y0203684D01*
X0253684Y0202137D01*
X0255706Y0201300D01*
X0257894Y0201300D01*
X0259915Y0202137D01*
X0261463Y0203684D01*
X0261800Y0204499D01*
X0262137Y0203684D01*
X0263684Y0202137D01*
X0265706Y0201300D01*
X0267894Y0201300D01*
X0269915Y0202137D01*
X0271463Y0203684D01*
X0271800Y0204499D01*
X0272137Y0203684D01*
X0273684Y0202137D01*
X0275706Y0201300D01*
X0277894Y0201300D01*
X0279915Y0202137D01*
X0281463Y0203684D01*
X0281800Y0204499D01*
X0282137Y0203684D01*
X0283684Y0202137D01*
X0285706Y0201300D01*
X0287894Y0201300D01*
X0289915Y0202137D01*
X0291463Y0203684D01*
X0291800Y0204499D01*
X0292137Y0203684D01*
X0293684Y0202137D01*
X0295706Y0201300D01*
X0297894Y0201300D01*
X0299915Y0202137D01*
X0301463Y0203684D01*
X0301800Y0204499D01*
X0302137Y0203684D01*
X0303684Y0202137D01*
X0305706Y0201300D01*
X0307894Y0201300D01*
X0309915Y0202137D01*
X0311463Y0203684D01*
X0311800Y0204499D01*
X0312137Y0203684D01*
X0313684Y0202137D01*
X0315706Y0201300D01*
X0317894Y0201300D01*
X0319915Y0202137D01*
X0321463Y0203684D01*
X0321800Y0204499D01*
X0322137Y0203684D01*
X0323684Y0202137D01*
X0325706Y0201300D01*
X0327894Y0201300D01*
X0329915Y0202137D01*
X0331463Y0203684D01*
X0331800Y0204499D01*
X0332137Y0203684D01*
X0333684Y0202137D01*
X0335706Y0201300D01*
X0337894Y0201300D01*
X0339915Y0202137D01*
X0341463Y0203684D01*
X0342300Y0205706D01*
X0342300Y0207894D01*
X0341463Y0209915D01*
X0339915Y0211463D01*
X0337894Y0212300D01*
X0335706Y0212300D01*
X0333684Y0211463D01*
X0332137Y0209915D01*
X0331800Y0209101D01*
X0331463Y0209915D01*
X0329915Y0211463D01*
X0329800Y0211511D01*
X0329800Y0211675D01*
X0335925Y0217800D01*
X0408837Y0217800D01*
X0410013Y0218287D01*
X0422813Y0231087D01*
X0423713Y0231987D01*
X0424200Y0233163D01*
X0424200Y0240837D01*
X0423713Y0242013D01*
X0405000Y0260725D01*
X0405000Y0261956D01*
X0405029Y0261968D01*
X0406632Y0263571D01*
X0406800Y0263976D01*
X0406968Y0263571D01*
X0408571Y0261968D01*
X0410666Y0261100D01*
X0412934Y0261100D01*
X0415029Y0261968D01*
X0416632Y0263571D01*
X0417500Y0265666D01*
X0417500Y0267934D01*
X0416632Y0270029D01*
X0415029Y0271632D01*
X0412934Y0272500D01*
X0410666Y0272500D01*
X0408571Y0271632D01*
X0406968Y0270029D01*
X0406800Y0269624D01*
X0406632Y0270029D01*
X0405029Y0271632D01*
X0402934Y0272500D01*
X0400666Y0272500D01*
X0398571Y0271632D01*
X0396968Y0270029D01*
X0396781Y0269579D01*
X0396675Y0269787D01*
X0396148Y0270513D01*
X0395513Y0271148D01*
X0394787Y0271675D01*
X0393988Y0272082D01*
X0393135Y0272360D01*
X0392249Y0272500D01*
X0392100Y0272500D01*
X0392100Y0267100D01*
X0391500Y0267100D01*
X0391500Y0272500D01*
X0391351Y0272500D01*
X0390465Y0272360D01*
X0389612Y0272082D01*
X0388813Y0271675D01*
X0388087Y0271148D01*
X0387452Y0270513D01*
X0386925Y0269787D01*
X0386819Y0269579D01*
X0386632Y0270029D01*
X0385029Y0271632D01*
X0382934Y0272500D01*
X0380666Y0272500D01*
X0378571Y0271632D01*
X0376968Y0270029D01*
X0376800Y0269624D01*
X0376632Y0270029D01*
X0375029Y0271632D01*
X0372934Y0272500D01*
X0370666Y0272500D01*
X0368571Y0271632D01*
X0366968Y0270029D01*
X0366781Y0269579D01*
X0366675Y0269787D01*
X0366148Y0270513D01*
X0365513Y0271148D01*
X0364787Y0271675D01*
X0363988Y0272082D01*
X0363135Y0272360D01*
X0362249Y0272500D01*
X0362100Y0272500D01*
X0362100Y0267100D01*
X0361500Y0267100D01*
X0361500Y0272500D01*
X0361351Y0272500D01*
X0360465Y0272360D01*
X0359612Y0272082D01*
X0358813Y0271675D01*
X0358087Y0271148D01*
X0357452Y0270513D01*
X0356925Y0269787D01*
X0356819Y0269579D01*
X0356632Y0270029D01*
X0355029Y0271632D01*
X0352934Y0272500D01*
X0350666Y0272500D01*
X0348571Y0271632D01*
X0346968Y0270029D01*
X0346100Y0267934D01*
X0346100Y0265666D01*
X0346968Y0263571D01*
X0348571Y0261968D01*
X0350666Y0261100D01*
X0352934Y0261100D01*
X0355029Y0261968D01*
X0356632Y0263571D01*
X0356819Y0264021D01*
X0356925Y0263813D01*
X0357452Y0263087D01*
X0358087Y0262452D01*
X0358813Y0261925D01*
X0359612Y0261518D01*
X0360465Y0261240D01*
X0361351Y0261100D01*
X0361500Y0261100D01*
X0361500Y0266500D01*
X0362100Y0266500D01*
X0362100Y0261100D01*
X0362249Y0261100D01*
X0363135Y0261240D01*
X0363988Y0261518D01*
X0364787Y0261925D01*
X0365513Y0262452D01*
X0366148Y0263087D01*
X0366675Y0263813D01*
X0366781Y0264021D01*
X0366968Y0263571D01*
X0368571Y0261968D01*
X0370666Y0261100D01*
X0372934Y0261100D01*
X0375029Y0261968D01*
X0376632Y0263571D01*
X0376800Y0263976D01*
X0376968Y0263571D01*
X0378571Y0261968D01*
X0380666Y0261100D01*
X0382934Y0261100D01*
X0385029Y0261968D01*
X0386632Y0263571D01*
X0386819Y0264021D01*
X0386925Y0263813D01*
X0387452Y0263087D01*
X0388087Y0262452D01*
X0388813Y0261925D01*
X0389612Y0261518D01*
X0390465Y0261240D01*
X0391351Y0261100D01*
X0391500Y0261100D01*
X0391500Y0266500D01*
X0392100Y0266500D01*
X0392100Y0261100D01*
X0392249Y0261100D01*
X0393135Y0261240D01*
X0393988Y0261518D01*
X0394787Y0261925D01*
X0395513Y0262452D01*
X0396148Y0263087D01*
X0396675Y0263813D01*
X0396781Y0264021D01*
X0396968Y0263571D01*
X0398571Y0261968D01*
X0398600Y0261956D01*
X0398600Y0258763D01*
X0399087Y0257587D01*
X0399987Y0256687D01*
X0417800Y0238875D01*
X0417800Y0235125D01*
X0416870Y0234196D01*
X0417082Y0234612D01*
X0417360Y0235465D01*
X0417500Y0236351D01*
X0417500Y0236500D01*
X0412100Y0236500D01*
X0412100Y0237100D01*
X0411500Y0237100D01*
X0411500Y0242500D01*
X0411351Y0242500D01*
X0410465Y0242360D01*
X0409612Y0242082D01*
X0408813Y0241675D01*
X0408087Y0241148D01*
X0407452Y0240513D01*
X0406925Y0239787D01*
X0406819Y0239579D01*
X0406632Y0240029D01*
X0405029Y0241632D01*
X0405000Y0241644D01*
X0405000Y0244037D01*
X0404513Y0245213D01*
X0390113Y0259613D01*
X0389213Y0260513D01*
X0388037Y0261000D01*
X0348725Y0261000D01*
X0345800Y0263925D01*
X0345800Y0291675D01*
X0345957Y0291832D01*
X0346762Y0289890D01*
X0348433Y0288218D01*
X0350618Y0287313D01*
X0352982Y0287313D01*
X0355167Y0288218D01*
X0356838Y0289890D01*
X0357743Y0292074D01*
X0357743Y0301526D01*
X0356838Y0303710D01*
X0355167Y0305382D01*
X0352982Y0306287D01*
X0350618Y0306287D01*
X0348433Y0305382D01*
X0346762Y0303710D01*
X0345857Y0301526D01*
X0345857Y0300782D01*
X0339887Y0294813D01*
X0339400Y0293637D01*
X0339400Y0265525D01*
X0339400Y0265525D01*
X0339400Y0266437D01*
X0338913Y0267613D01*
X0321313Y0285213D01*
X0320413Y0286113D01*
X0319237Y0286600D01*
X0308725Y0286600D01*
X0304200Y0291125D01*
X0304200Y0293637D01*
X0303713Y0294813D01*
X0297743Y0300782D01*
X0297743Y0301526D01*
X0296838Y0303710D01*
X0295167Y0305382D01*
X0292982Y0306287D01*
X0290618Y0306287D01*
X0288433Y0305382D01*
X0286762Y0303710D01*
X0285857Y0301526D01*
X0285857Y0292074D01*
X0286762Y0289890D01*
X0288433Y0288218D01*
X0290618Y0287313D01*
X0292982Y0287313D01*
X0295167Y0288218D01*
X0296838Y0289890D01*
X0297643Y0291832D01*
X0297800Y0291675D01*
X0297800Y0289163D01*
X0298287Y0287987D01*
X0299187Y0287087D01*
X0305587Y0280687D01*
X0306763Y0280200D01*
X0317275Y0280200D01*
X0333000Y0264475D01*
X0333000Y0263563D01*
X0333487Y0262387D01*
X0334387Y0261487D01*
X0343987Y0251887D01*
X0345163Y0251400D01*
X0355675Y0251400D01*
X0364787Y0242287D01*
X0365963Y0241800D01*
X0368475Y0241800D01*
X0368621Y0241653D01*
X0368571Y0241632D01*
X0366968Y0240029D01*
X0366800Y0239624D01*
X0366632Y0240029D01*
X0365029Y0241632D01*
X0362934Y0242500D01*
X0360666Y0242500D01*
X0358571Y0241632D01*
X0357463Y0240524D01*
X0357408Y0240800D01*
X0357227Y0241237D01*
X0356964Y0241630D01*
X0356630Y0241964D01*
X0356237Y0242227D01*
X0355800Y0242408D01*
X0355336Y0242500D01*
X0352100Y0242500D01*
X0352100Y0237100D01*
X0351500Y0237100D01*
X0351500Y0242500D01*
X0348264Y0242500D01*
X0347800Y0242408D01*
X0347363Y0242227D01*
X0346970Y0241964D01*
X0346636Y0241630D01*
X0346373Y0241237D01*
X0346192Y0240800D01*
X0346100Y0240336D01*
X0346100Y0237100D01*
X0351500Y0237100D01*
X0351500Y0236500D01*
X0352100Y0236500D01*
X0352100Y0231100D01*
X0355336Y0231100D01*
X0355800Y0231192D01*
X0356237Y0231373D01*
X0356630Y0231636D01*
X0356964Y0231970D01*
X0357227Y0232363D01*
X0357408Y0232800D01*
X0357463Y0233076D01*
X0358571Y0231968D01*
X0358600Y0231956D01*
X0358600Y0231925D01*
X0357275Y0230600D01*
X0322763Y0230600D01*
X0321587Y0230113D01*
X0320687Y0229213D01*
X0303087Y0211613D01*
X0302600Y0210437D01*
X0302600Y0210378D01*
X0302137Y0209915D01*
X0301800Y0209101D01*
X0301463Y0209915D01*
X0299915Y0211463D01*
X0297894Y0212300D01*
X0295706Y0212300D01*
X0293684Y0211463D01*
X0292137Y0209915D01*
X0291800Y0209101D01*
X0291463Y0209915D01*
X0289915Y0211463D01*
X0289800Y0211511D01*
X0289800Y0213637D01*
X0289313Y0214813D01*
X0244513Y0259613D01*
X0243613Y0260513D01*
X0242437Y0261000D01*
X0166325Y0261000D01*
X0165193Y0262132D01*
X0166632Y0263571D01*
X0166800Y0263976D01*
X0166968Y0263571D01*
X0168571Y0261968D01*
X0170666Y0261100D01*
X0172934Y0261100D01*
X0175029Y0261968D01*
X0176632Y0263571D01*
X0177500Y0265666D01*
X0177500Y0267934D01*
X0176632Y0270029D01*
X0175029Y0271632D01*
X0172934Y0272500D01*
X0170666Y0272500D01*
X0168571Y0271632D01*
X0166968Y0270029D01*
X0166800Y0269624D01*
X0166632Y0270029D01*
X0165029Y0271632D01*
X0162934Y0272500D01*
X0160666Y0272500D01*
X0158571Y0271632D01*
X0156968Y0270029D01*
X0156781Y0269579D01*
X0156675Y0269787D01*
X0156148Y0270513D01*
X0155513Y0271148D01*
X0154787Y0271675D01*
X0153988Y0272082D01*
X0153135Y0272360D01*
X0152249Y0272500D01*
X0152100Y0272500D01*
X0152100Y0267100D01*
X0151500Y0267100D01*
X0151500Y0272500D01*
X0151351Y0272500D01*
X0150465Y0272360D01*
X0149612Y0272082D01*
X0148813Y0271675D01*
X0148087Y0271148D01*
X0147452Y0270513D01*
X0146925Y0269787D01*
X0146819Y0269579D01*
X0146632Y0270029D01*
X0145800Y0270861D01*
X0145800Y0274075D01*
X0151925Y0280200D01*
X0215237Y0280200D01*
X0216413Y0280687D01*
X0224413Y0288687D01*
X0225313Y0289587D01*
X0225800Y0290763D01*
X0225800Y0291675D01*
X0225957Y0291832D01*
X0226762Y0289890D01*
X0228433Y0288218D01*
X0230618Y0287313D01*
X0232982Y0287313D01*
X0235167Y0288218D01*
X0236838Y0289890D01*
X0237743Y0292074D01*
X0237743Y0301526D01*
X0236838Y0303710D01*
X0235167Y0305382D01*
X0232982Y0306287D01*
X0230618Y0306287D01*
X0228433Y0305382D01*
X0226762Y0303710D01*
X0225857Y0301526D01*
X0225857Y0300782D01*
X0219887Y0294813D01*
X0219400Y0293637D01*
X0219400Y0292725D01*
X0217595Y0290920D01*
X0217623Y0290975D01*
X0217912Y0291865D01*
X0218058Y0292789D01*
X0218058Y0296419D01*
X0212496Y0296419D01*
X0212496Y0297181D01*
X0218058Y0297181D01*
X0218058Y0300811D01*
X0217912Y0301735D01*
X0217623Y0302625D01*
X0217198Y0303458D01*
X0216648Y0304215D01*
X0215987Y0304877D01*
X0215230Y0305426D01*
X0214396Y0305851D01*
X0213507Y0306140D01*
X0212583Y0306287D01*
X0212496Y0306287D01*
X0212496Y0297181D01*
X0211734Y0297181D01*
X0211734Y0306287D01*
X0211647Y0306287D01*
X0210723Y0306140D01*
X0209834Y0305851D01*
X0209000Y0305426D01*
X0208243Y0304877D01*
X0207582Y0304215D01*
X0207032Y0303458D01*
X0206607Y0302625D01*
X0206318Y0301735D01*
X0206172Y0300811D01*
X0206172Y0297181D01*
X0211734Y0297181D01*
X0211734Y0296419D01*
X0212496Y0296419D01*
X0212496Y0287313D01*
X0212583Y0287313D01*
X0213507Y0287460D01*
X0214396Y0287749D01*
X0214451Y0287777D01*
X0213275Y0286600D01*
X0149963Y0286600D01*
X0148787Y0286113D01*
X0147887Y0285213D01*
X0139887Y0277213D01*
X0139400Y0276037D01*
X0139400Y0271976D01*
X0138571Y0271632D01*
X0136968Y0270029D01*
X0136800Y0269624D01*
X0136632Y0270029D01*
X0135029Y0271632D01*
X0132934Y0272500D01*
X0130666Y0272500D01*
X0128571Y0271632D01*
X0126968Y0270029D01*
X0126781Y0269579D01*
X0126675Y0269787D01*
X0126148Y0270513D01*
X0125513Y0271148D01*
X0124787Y0271675D01*
X0123988Y0272082D01*
X0123135Y0272360D01*
X0122249Y0272500D01*
X0122100Y0272500D01*
X0122100Y0267100D01*
X0121500Y0267100D01*
X0121500Y0272500D01*
X0121351Y0272500D01*
X0120465Y0272360D01*
X0119612Y0272082D01*
X0118813Y0271675D01*
X0118087Y0271148D01*
X0117452Y0270513D01*
X0116925Y0269787D01*
X0116819Y0269579D01*
X0116632Y0270029D01*
X0115029Y0271632D01*
X0112934Y0272500D01*
X0110666Y0272500D01*
X0108571Y0271632D01*
X0106968Y0270029D01*
X0106100Y0267934D01*
X0106100Y0265666D01*
X0106968Y0263571D01*
X0108571Y0261968D01*
X0110666Y0261100D01*
X0112934Y0261100D01*
X0115029Y0261968D01*
X0116632Y0263571D01*
X0116819Y0264021D01*
X0116925Y0263813D01*
X0117452Y0263087D01*
X0118087Y0262452D01*
X0118813Y0261925D01*
X0119612Y0261518D01*
X0120465Y0261240D01*
X0121351Y0261100D01*
X0121500Y0261100D01*
X0121500Y0266500D01*
X0122100Y0266500D01*
X0122100Y0261100D01*
X0122249Y0261100D01*
X0123135Y0261240D01*
X0123988Y0261518D01*
X0124787Y0261925D01*
X0125513Y0262452D01*
X0126148Y0263087D01*
X0126675Y0263813D01*
X0126781Y0264021D01*
X0126968Y0263571D01*
X0128571Y0261968D01*
X0130666Y0261100D01*
X0132934Y0261100D01*
X0135029Y0261968D01*
X0136632Y0263571D01*
X0136800Y0263976D01*
X0136968Y0263571D01*
X0138571Y0261968D01*
X0140666Y0261100D01*
X0142934Y0261100D01*
X0145029Y0261968D01*
X0146632Y0263571D01*
X0146819Y0264021D01*
X0146925Y0263813D01*
X0147452Y0263087D01*
X0148087Y0262452D01*
X0148813Y0261925D01*
X0149612Y0261518D01*
X0150465Y0261240D01*
X0151351Y0261100D01*
X0151500Y0261100D01*
X0151500Y0266500D01*
X0152100Y0266500D01*
X0152100Y0261100D01*
X0152249Y0261100D01*
X0153135Y0261240D01*
X0153988Y0261518D01*
X0154787Y0261925D01*
X0155513Y0262452D01*
X0156148Y0263087D01*
X0156675Y0263813D01*
X0156781Y0264021D01*
X0156968Y0263571D01*
X0158571Y0261968D01*
X0158600Y0261956D01*
X0158600Y0260363D01*
X0159087Y0259187D01*
X0159987Y0258287D01*
X0163187Y0255087D01*
X0164363Y0254600D01*
X0240475Y0254600D01*
X0283400Y0211675D01*
X0283400Y0211178D01*
X0282137Y0209915D01*
X0281800Y0209101D01*
X0281463Y0209915D01*
X0280200Y0211178D01*
X0280200Y0213637D01*
X0279713Y0214813D01*
X0265313Y0229213D01*
X0264413Y0230113D01*
X0263237Y0230600D01*
X0159925Y0230600D01*
X0156727Y0233799D01*
X0156800Y0233976D01*
X0156968Y0233571D01*
X0158571Y0231968D01*
X0160666Y0231100D01*
X0162934Y0231100D01*
X0165029Y0231968D01*
X0166632Y0233571D01*
X0166819Y0234021D01*
X0166925Y0233813D01*
X0167452Y0233087D01*
X0168087Y0232452D01*
X0168813Y0231925D01*
X0169612Y0231518D01*
X0170465Y0231240D01*
X0171351Y0231100D01*
X0171500Y0231100D01*
X0171500Y0236500D01*
X0172100Y0236500D01*
X0172100Y0237100D01*
X0171500Y0237100D01*
X0171500Y0242500D01*
X0171351Y0242500D01*
X0170465Y0242360D01*
X0169612Y0242082D01*
X0168813Y0241675D01*
X0168087Y0241148D01*
X0167452Y0240513D01*
X0166925Y0239787D01*
X0166819Y0239579D01*
X0166632Y0240029D01*
X0165029Y0241632D01*
X0165000Y0241644D01*
X0165000Y0244037D01*
X0164513Y0245213D01*
X0150113Y0259613D01*
X0149213Y0260513D01*
X0148037Y0261000D01*
X0108725Y0261000D01*
X0105800Y0263925D01*
X0105800Y0291675D01*
X0105957Y0291832D01*
X0106762Y0289890D01*
X0108433Y0288218D01*
X0110618Y0287313D01*
X0112982Y0287313D01*
X0115167Y0288218D01*
X0116838Y0289890D01*
X0117743Y0292074D01*
X0117743Y0301526D01*
X0116838Y0303710D01*
X0115167Y0305382D01*
X0112982Y0306287D01*
X0110618Y0306287D01*
X0108433Y0305382D01*
X0106762Y0303710D01*
X0105857Y0301526D01*
X0105857Y0300782D01*
X0099887Y0294813D01*
X0099400Y0293637D01*
X0099400Y0261963D01*
X0099887Y0260787D01*
X0100787Y0259887D01*
X0105587Y0255087D01*
X0105798Y0255000D01*
X0088125Y0255000D01*
X0086875Y0256250D01*
X0089099Y0256250D01*
X0092350Y0259501D01*
X0092350Y0264099D01*
X0089099Y0267350D01*
X0086375Y0267350D01*
X0083400Y0270325D01*
X0083400Y0294037D01*
X0082913Y0295213D01*
X0082013Y0296113D01*
X0079513Y0298613D01*
X0078613Y0299513D01*
X0077685Y0299897D01*
X0077685Y0308600D01*
X0125285Y0308600D01*
X0125285Y0295567D01*
X0125542Y0294947D01*
X0125542Y0292074D01*
X0126447Y0289890D01*
X0128118Y0288218D01*
X0130303Y0287313D01*
X0132667Y0287313D01*
X0134852Y0288218D01*
X0136524Y0289890D01*
X0137428Y0292074D01*
X0137428Y0294947D01*
X0137685Y0295567D01*
X0137685Y0308600D01*
X0185285Y0308600D01*
X0185285Y0295567D01*
X0185542Y0294947D01*
X0185542Y0292074D01*
X0186447Y0289890D01*
X0188118Y0288218D01*
X0190303Y0287313D01*
X0192667Y0287313D01*
X0194852Y0288218D01*
X0196524Y0289890D01*
X0197428Y0292074D01*
X0197428Y0294947D01*
X0197685Y0295567D01*
X0197685Y0308600D01*
X0245285Y0308600D01*
X0245285Y0295567D01*
X0245542Y0294947D01*
X0245542Y0292074D01*
X0246447Y0289890D01*
X0248118Y0288218D01*
X0250303Y0287313D01*
X0252667Y0287313D01*
X0254852Y0288218D01*
X0256524Y0289890D01*
X0257428Y0292074D01*
X0257428Y0294947D01*
X0257685Y0295567D01*
X0257685Y0308600D01*
X0305285Y0308600D01*
X0305285Y0295567D01*
X0305542Y0294947D01*
X0305542Y0292074D01*
X0306447Y0289890D01*
X0308118Y0288218D01*
X0310303Y0287313D01*
X0312667Y0287313D01*
X0314852Y0288218D01*
X0316524Y0289890D01*
X0317428Y0292074D01*
X0317428Y0294947D01*
X0317685Y0295567D01*
X0317685Y0308600D01*
X0365285Y0308600D01*
X0365285Y0295567D01*
X0365542Y0294947D01*
X0365542Y0292074D01*
X0366447Y0289890D01*
X0368118Y0288218D01*
X0370303Y0287313D01*
X0372667Y0287313D01*
X0374852Y0288218D01*
X0376524Y0289890D01*
X0377428Y0292074D01*
X0377428Y0294947D01*
X0377685Y0295567D01*
X0377685Y0308600D01*
X0425285Y0308600D01*
X0425285Y0295567D01*
X0425542Y0294947D01*
X0425542Y0292074D01*
X0426447Y0289890D01*
X0428118Y0288218D01*
X0430303Y0287313D01*
X0432667Y0287313D01*
X0434852Y0288218D01*
X0436524Y0289890D01*
X0437428Y0292074D01*
X0437428Y0294947D01*
X0437685Y0295567D01*
X0437685Y0308600D01*
X0485285Y0308600D01*
X0485285Y0295567D01*
X0485542Y0294947D01*
X0485542Y0292074D01*
X0486447Y0289890D01*
X0488118Y0288218D01*
X0490303Y0287313D01*
X0492667Y0287313D01*
X0494852Y0288218D01*
X0496524Y0289890D01*
X0497428Y0292074D01*
X0497428Y0294947D01*
X0497685Y0295567D01*
X0497685Y0308600D01*
X0498600Y0308600D01*
X0498600Y0025000D01*
X0458315Y0025000D01*
X0458315Y0038033D01*
X0458058Y0038653D01*
X0458058Y0041526D01*
X0457153Y0043710D01*
X0455482Y0045382D01*
X0453297Y0046287D01*
X0450933Y0046287D01*
X0448748Y0045382D01*
X0447076Y0043710D01*
X0446172Y0041526D01*
X0446172Y0038653D01*
X0445915Y0038033D01*
X0445915Y0025000D01*
X0398315Y0025000D01*
X0398315Y0038033D01*
X0398058Y0038653D01*
X0398058Y0041526D01*
X0397153Y0043710D01*
X0395482Y0045382D01*
X0393297Y0046287D01*
X0390933Y0046287D01*
X0388748Y0045382D01*
X0387076Y0043710D01*
X0386172Y0041526D01*
X0386172Y0038653D01*
X0385915Y0038033D01*
X0385915Y0025000D01*
X0338315Y0025000D01*
X0338315Y0038033D01*
X0338058Y0038653D01*
X0338058Y0041526D01*
X0337153Y0043710D01*
X0335482Y0045382D01*
X0333297Y0046287D01*
X0330933Y0046287D01*
X0328748Y0045382D01*
X0327076Y0043710D01*
X0326172Y0041526D01*
X0326172Y0038653D01*
X0325915Y0038033D01*
X0325915Y0025000D01*
X0278315Y0025000D01*
X0278315Y0038033D01*
X0278058Y0038653D01*
X0278058Y0041526D01*
X0277153Y0043710D01*
X0275482Y0045382D01*
X0273297Y0046287D01*
X0270933Y0046287D01*
X0268748Y0045382D01*
X0267076Y0043710D01*
X0266172Y0041526D01*
X0266172Y0038653D01*
X0265915Y0038033D01*
X0265915Y0025000D01*
X0218315Y0025000D01*
X0218315Y0038033D01*
X0218058Y0038653D01*
X0218058Y0041526D01*
X0217153Y0043710D01*
X0215482Y0045382D01*
X0213297Y0046287D01*
X0210933Y0046287D01*
X0208748Y0045382D01*
X0207076Y0043710D01*
X0206172Y0041526D01*
X0206172Y0038653D01*
X0205915Y0038033D01*
X0205915Y0025000D01*
X0158315Y0025000D01*
X0158315Y0038033D01*
X0158058Y0038653D01*
X0158058Y0041526D01*
X0157153Y0043710D01*
X0155482Y0045382D01*
X0153297Y0046287D01*
X0150933Y0046287D01*
X0148748Y0045382D01*
X0147076Y0043710D01*
X0146172Y0041526D01*
X0146172Y0038653D01*
X0145915Y0038033D01*
X0145915Y0025000D01*
X0098315Y0025000D01*
X0098315Y0038033D01*
X0098058Y0038653D01*
X0098058Y0041526D01*
X0097153Y0043710D01*
X0095482Y0045382D01*
X0093297Y0046287D01*
X0090933Y0046287D01*
X0088748Y0045382D01*
X0087076Y0043710D01*
X0086172Y0041526D01*
X0086172Y0038653D01*
X0085915Y0038033D01*
X0085915Y0025000D01*
X0038315Y0025000D01*
X0038315Y0038033D01*
X0038058Y0038653D01*
X0038058Y0041526D01*
X0037298Y0043361D02*
X0046617Y0043361D01*
X0048011Y0044960D02*
X0035904Y0044960D01*
X0028326Y0044960D02*
X0025000Y0044960D01*
X0025000Y0046558D02*
X0059633Y0046558D01*
X0058182Y0044960D02*
X0055589Y0044960D01*
X0056983Y0043361D02*
X0057800Y0043361D01*
X0057800Y0041763D02*
X0057645Y0041763D01*
X0061000Y0040200D02*
X0054600Y0033800D01*
X0053000Y0033800D01*
X0051400Y0035400D01*
X0051800Y0036800D01*
X0045857Y0036967D02*
X0038315Y0036967D01*
X0038315Y0035369D02*
X0045857Y0035369D01*
X0045857Y0033770D02*
X0038315Y0033770D01*
X0038315Y0032172D02*
X0045857Y0032172D01*
X0046479Y0030573D02*
X0038315Y0030573D01*
X0038315Y0028975D02*
X0047677Y0028975D01*
X0050466Y0027376D02*
X0038315Y0027376D01*
X0038315Y0025778D02*
X0085915Y0025778D01*
X0085915Y0027376D02*
X0072349Y0027376D01*
X0071953Y0027313D02*
X0072877Y0027460D01*
X0073766Y0027749D01*
X0074600Y0028174D01*
X0075357Y0028723D01*
X0076018Y0029385D01*
X0076568Y0030142D01*
X0076993Y0030975D01*
X0077282Y0031865D01*
X0077428Y0032789D01*
X0077428Y0036419D01*
X0071866Y0036419D01*
X0071866Y0027313D01*
X0071953Y0027313D01*
X0071866Y0027376D02*
X0071104Y0027376D01*
X0071104Y0027313D02*
X0071104Y0036419D01*
X0065542Y0036419D01*
X0065542Y0032789D01*
X0065688Y0031865D01*
X0065977Y0030975D01*
X0066402Y0030142D01*
X0066952Y0029385D01*
X0067613Y0028723D01*
X0068370Y0028174D01*
X0069204Y0027749D01*
X0070093Y0027460D01*
X0071017Y0027313D01*
X0071104Y0027313D01*
X0070621Y0027376D02*
X0053134Y0027376D01*
X0055923Y0028975D02*
X0067362Y0028975D01*
X0066182Y0030573D02*
X0057121Y0030573D01*
X0057743Y0032172D02*
X0065639Y0032172D01*
X0065542Y0033770D02*
X0059096Y0033770D01*
X0060694Y0035369D02*
X0065542Y0035369D01*
X0065542Y0037181D02*
X0071104Y0037181D01*
X0071104Y0036419D01*
X0071866Y0036419D01*
X0071866Y0037181D01*
X0071104Y0037181D01*
X0071104Y0046287D01*
X0071017Y0046287D01*
X0070093Y0046140D01*
X0069204Y0045851D01*
X0068370Y0045426D01*
X0067613Y0044877D01*
X0066952Y0044215D01*
X0066402Y0043458D01*
X0065977Y0042625D01*
X0065688Y0041735D01*
X0065542Y0040811D01*
X0065542Y0037181D01*
X0065542Y0038566D02*
X0063787Y0038566D01*
X0064200Y0040164D02*
X0065542Y0040164D01*
X0065697Y0041763D02*
X0064200Y0041763D01*
X0065487Y0043361D02*
X0066352Y0043361D01*
X0067085Y0044960D02*
X0067728Y0044960D01*
X0068684Y0046558D02*
X0120433Y0046558D01*
X0118982Y0044960D02*
X0115589Y0044960D01*
X0116983Y0043361D02*
X0118600Y0043361D01*
X0118600Y0041763D02*
X0117645Y0041763D01*
X0121800Y0040200D02*
X0118600Y0037000D01*
X0112200Y0037000D01*
X0111800Y0036800D01*
X0105857Y0036967D02*
X0098315Y0036967D01*
X0098315Y0035369D02*
X0105857Y0035369D01*
X0105857Y0033770D02*
X0098315Y0033770D01*
X0098315Y0032172D02*
X0105857Y0032172D01*
X0106479Y0030573D02*
X0098315Y0030573D01*
X0098315Y0028975D02*
X0107677Y0028975D01*
X0110466Y0027376D02*
X0098315Y0027376D01*
X0098315Y0025778D02*
X0145915Y0025778D01*
X0145915Y0027376D02*
X0132349Y0027376D01*
X0131866Y0027376D02*
X0131104Y0027376D01*
X0130621Y0027376D02*
X0113134Y0027376D01*
X0115923Y0028975D02*
X0127362Y0028975D01*
X0126182Y0030573D02*
X0117121Y0030573D01*
X0117743Y0032172D02*
X0125639Y0032172D01*
X0125542Y0033770D02*
X0117743Y0033770D01*
X0121494Y0035369D02*
X0125542Y0035369D01*
X0123093Y0036967D02*
X0131104Y0036967D01*
X0131866Y0036967D02*
X0145915Y0036967D01*
X0145915Y0035369D02*
X0137428Y0035369D01*
X0137428Y0033770D02*
X0145915Y0033770D01*
X0145915Y0032172D02*
X0137331Y0032172D01*
X0136788Y0030573D02*
X0145915Y0030573D01*
X0145915Y0028975D02*
X0135608Y0028975D01*
X0131866Y0028975D02*
X0131104Y0028975D01*
X0131104Y0030573D02*
X0131866Y0030573D01*
X0131866Y0032172D02*
X0131104Y0032172D01*
X0131104Y0033770D02*
X0131866Y0033770D01*
X0131866Y0035369D02*
X0131104Y0035369D01*
X0131866Y0037181D02*
X0137428Y0037181D01*
X0137428Y0040811D01*
X0137282Y0041735D01*
X0136993Y0042625D01*
X0136568Y0043458D01*
X0136018Y0044215D01*
X0135357Y0044877D01*
X0134600Y0045426D01*
X0133766Y0045851D01*
X0132877Y0046140D01*
X0131953Y0046287D01*
X0131866Y0046287D01*
X0131866Y0037181D01*
X0131866Y0038566D02*
X0131104Y0038566D01*
X0131104Y0040164D02*
X0131866Y0040164D01*
X0131866Y0041763D02*
X0131104Y0041763D01*
X0131104Y0043361D02*
X0131866Y0043361D01*
X0131866Y0044960D02*
X0131104Y0044960D01*
X0129484Y0046558D02*
X0360433Y0046558D01*
X0358982Y0044960D02*
X0355589Y0044960D01*
X0356983Y0043361D02*
X0358600Y0043361D01*
X0358600Y0041763D02*
X0357645Y0041763D01*
X0361800Y0040200D02*
X0358600Y0037000D01*
X0352200Y0037000D01*
X0351800Y0036800D01*
X0345857Y0036967D02*
X0338315Y0036967D01*
X0338315Y0035369D02*
X0345857Y0035369D01*
X0345857Y0033770D02*
X0338315Y0033770D01*
X0338315Y0032172D02*
X0345857Y0032172D01*
X0346479Y0030573D02*
X0338315Y0030573D01*
X0338315Y0028975D02*
X0347677Y0028975D01*
X0350466Y0027376D02*
X0338315Y0027376D01*
X0338315Y0025778D02*
X0385915Y0025778D01*
X0385915Y0027376D02*
X0372349Y0027376D01*
X0371866Y0027376D02*
X0371104Y0027376D01*
X0370621Y0027376D02*
X0353134Y0027376D01*
X0355923Y0028975D02*
X0367362Y0028975D01*
X0366182Y0030573D02*
X0357121Y0030573D01*
X0357743Y0032172D02*
X0365639Y0032172D01*
X0365542Y0033770D02*
X0357743Y0033770D01*
X0361494Y0035369D02*
X0365542Y0035369D01*
X0363093Y0036967D02*
X0371104Y0036967D01*
X0371866Y0036967D02*
X0385915Y0036967D01*
X0385915Y0035369D02*
X0377428Y0035369D01*
X0377428Y0033770D02*
X0385915Y0033770D01*
X0385915Y0032172D02*
X0377331Y0032172D01*
X0376788Y0030573D02*
X0385915Y0030573D01*
X0385915Y0028975D02*
X0375608Y0028975D01*
X0371866Y0028975D02*
X0371104Y0028975D01*
X0371104Y0030573D02*
X0371866Y0030573D01*
X0371866Y0032172D02*
X0371104Y0032172D01*
X0371104Y0033770D02*
X0371866Y0033770D01*
X0371866Y0035369D02*
X0371104Y0035369D01*
X0371866Y0037181D02*
X0377428Y0037181D01*
X0377428Y0040811D01*
X0377282Y0041735D01*
X0376993Y0042625D01*
X0376568Y0043458D01*
X0376018Y0044215D01*
X0375357Y0044877D01*
X0374600Y0045426D01*
X0373766Y0045851D01*
X0372877Y0046140D01*
X0371953Y0046287D01*
X0371866Y0046287D01*
X0371866Y0037181D01*
X0371866Y0038566D02*
X0371104Y0038566D01*
X0371104Y0040164D02*
X0371866Y0040164D01*
X0371866Y0041763D02*
X0371104Y0041763D01*
X0371104Y0043361D02*
X0371866Y0043361D01*
X0371866Y0044960D02*
X0371104Y0044960D01*
X0369484Y0046558D02*
X0498600Y0046558D01*
X0498600Y0044960D02*
X0495242Y0044960D01*
X0495357Y0044877D02*
X0494600Y0045426D01*
X0493766Y0045851D01*
X0492877Y0046140D01*
X0491953Y0046287D01*
X0491866Y0046287D01*
X0491866Y0037181D01*
X0491104Y0037181D01*
X0491104Y0036419D01*
X0485542Y0036419D01*
X0485542Y0032789D01*
X0485688Y0031865D01*
X0485977Y0030975D01*
X0486402Y0030142D01*
X0486952Y0029385D01*
X0487613Y0028723D01*
X0488370Y0028174D01*
X0489204Y0027749D01*
X0490093Y0027460D01*
X0491017Y0027313D01*
X0491104Y0027313D01*
X0491104Y0036419D01*
X0491866Y0036419D01*
X0491866Y0027313D01*
X0491953Y0027313D01*
X0492877Y0027460D01*
X0493766Y0027749D01*
X0494600Y0028174D01*
X0495357Y0028723D01*
X0496018Y0029385D01*
X0496568Y0030142D01*
X0496993Y0030975D01*
X0497282Y0031865D01*
X0497428Y0032789D01*
X0497428Y0036419D01*
X0491866Y0036419D01*
X0491866Y0037181D01*
X0497428Y0037181D01*
X0497428Y0040811D01*
X0497282Y0041735D01*
X0496993Y0042625D01*
X0496568Y0043458D01*
X0496018Y0044215D01*
X0495357Y0044877D01*
X0496618Y0043361D02*
X0498600Y0043361D01*
X0498600Y0041763D02*
X0497273Y0041763D01*
X0497428Y0040164D02*
X0498600Y0040164D01*
X0498600Y0038566D02*
X0497428Y0038566D01*
X0498600Y0036967D02*
X0491866Y0036967D01*
X0491104Y0036967D02*
X0477743Y0036967D01*
X0477743Y0035369D02*
X0485542Y0035369D01*
X0485542Y0033770D02*
X0477743Y0033770D01*
X0477743Y0032172D02*
X0485639Y0032172D01*
X0486182Y0030573D02*
X0477121Y0030573D01*
X0476838Y0029890D02*
X0477743Y0032074D01*
X0477743Y0041526D01*
X0476838Y0043710D01*
X0475167Y0045382D01*
X0472982Y0046287D01*
X0470618Y0046287D01*
X0468433Y0045382D01*
X0466762Y0043710D01*
X0465857Y0041526D01*
X0465857Y0032074D01*
X0466762Y0029890D01*
X0468433Y0028218D01*
X0470618Y0027313D01*
X0472982Y0027313D01*
X0475167Y0028218D01*
X0476838Y0029890D01*
X0475923Y0028975D02*
X0487362Y0028975D01*
X0490621Y0027376D02*
X0473134Y0027376D01*
X0470466Y0027376D02*
X0458315Y0027376D01*
X0458315Y0025778D02*
X0498600Y0025778D01*
X0498600Y0027376D02*
X0492349Y0027376D01*
X0491866Y0027376D02*
X0491104Y0027376D01*
X0491104Y0028975D02*
X0491866Y0028975D01*
X0491866Y0030573D02*
X0491104Y0030573D01*
X0491104Y0032172D02*
X0491866Y0032172D01*
X0491866Y0033770D02*
X0491104Y0033770D01*
X0491104Y0035369D02*
X0491866Y0035369D01*
X0491104Y0037181D02*
X0485542Y0037181D01*
X0485542Y0040811D01*
X0485688Y0041735D01*
X0485977Y0042625D01*
X0486402Y0043458D01*
X0486952Y0044215D01*
X0487613Y0044877D01*
X0488370Y0045426D01*
X0489204Y0045851D01*
X0490093Y0046140D01*
X0491017Y0046287D01*
X0491104Y0046287D01*
X0491104Y0037181D01*
X0491104Y0038566D02*
X0491866Y0038566D01*
X0491866Y0040164D02*
X0491104Y0040164D01*
X0491104Y0041763D02*
X0491866Y0041763D01*
X0491866Y0043361D02*
X0491104Y0043361D01*
X0491104Y0044960D02*
X0491866Y0044960D01*
X0487728Y0044960D02*
X0475589Y0044960D01*
X0476983Y0043361D02*
X0486352Y0043361D01*
X0485697Y0041763D02*
X0477645Y0041763D01*
X0477743Y0040164D02*
X0485542Y0040164D01*
X0485542Y0038566D02*
X0477743Y0038566D01*
X0468011Y0044960D02*
X0455904Y0044960D01*
X0457298Y0043361D02*
X0466617Y0043361D01*
X0465955Y0041763D02*
X0457960Y0041763D01*
X0458058Y0040164D02*
X0465857Y0040164D01*
X0465857Y0038566D02*
X0458094Y0038566D01*
X0458315Y0036967D02*
X0465857Y0036967D01*
X0465857Y0035369D02*
X0458315Y0035369D01*
X0458315Y0033770D02*
X0465857Y0033770D01*
X0465857Y0032172D02*
X0458315Y0032172D01*
X0458315Y0030573D02*
X0466479Y0030573D01*
X0467677Y0028975D02*
X0458315Y0028975D01*
X0445915Y0028975D02*
X0435608Y0028975D01*
X0435357Y0028723D02*
X0436018Y0029385D01*
X0436568Y0030142D01*
X0436993Y0030975D01*
X0437282Y0031865D01*
X0437428Y0032789D01*
X0437428Y0036419D01*
X0431866Y0036419D01*
X0431866Y0027313D01*
X0431953Y0027313D01*
X0432877Y0027460D01*
X0433766Y0027749D01*
X0434600Y0028174D01*
X0435357Y0028723D01*
X0436788Y0030573D02*
X0445915Y0030573D01*
X0445915Y0032172D02*
X0437331Y0032172D01*
X0437428Y0033770D02*
X0445915Y0033770D01*
X0445915Y0035369D02*
X0437428Y0035369D01*
X0437428Y0037181D02*
X0431866Y0037181D01*
X0431104Y0037181D01*
X0431104Y0036419D01*
X0425542Y0036419D01*
X0425542Y0032789D01*
X0425688Y0031865D01*
X0425977Y0030975D01*
X0426402Y0030142D01*
X0426952Y0029385D01*
X0427613Y0028723D01*
X0428370Y0028174D01*
X0429204Y0027749D01*
X0430093Y0027460D01*
X0431017Y0027313D01*
X0431104Y0027313D01*
X0431104Y0036419D01*
X0431866Y0036419D01*
X0431866Y0037181D01*
X0431866Y0046287D01*
X0431953Y0046287D01*
X0432877Y0046140D01*
X0433766Y0045851D01*
X0434600Y0045426D01*
X0435357Y0044877D01*
X0436018Y0044215D01*
X0436568Y0043458D01*
X0436993Y0042625D01*
X0437282Y0041735D01*
X0437428Y0040811D01*
X0437428Y0037181D01*
X0437428Y0038566D02*
X0446136Y0038566D01*
X0446172Y0040164D02*
X0437428Y0040164D01*
X0437273Y0041763D02*
X0446270Y0041763D01*
X0446932Y0043361D02*
X0436618Y0043361D01*
X0435242Y0044960D02*
X0448326Y0044960D01*
X0445915Y0036967D02*
X0431866Y0036967D01*
X0431104Y0036967D02*
X0417743Y0036967D01*
X0417743Y0035369D02*
X0425542Y0035369D01*
X0425542Y0033770D02*
X0417743Y0033770D01*
X0417743Y0032172D02*
X0425639Y0032172D01*
X0426182Y0030573D02*
X0417121Y0030573D01*
X0416838Y0029890D02*
X0417743Y0032074D01*
X0417743Y0041526D01*
X0416838Y0043710D01*
X0415167Y0045382D01*
X0412982Y0046287D01*
X0410618Y0046287D01*
X0408433Y0045382D01*
X0406762Y0043710D01*
X0405857Y0041526D01*
X0405857Y0032074D01*
X0406762Y0029890D01*
X0408433Y0028218D01*
X0410618Y0027313D01*
X0412982Y0027313D01*
X0415167Y0028218D01*
X0416838Y0029890D01*
X0415923Y0028975D02*
X0427362Y0028975D01*
X0430621Y0027376D02*
X0413134Y0027376D01*
X0410466Y0027376D02*
X0398315Y0027376D01*
X0398315Y0025778D02*
X0445915Y0025778D01*
X0445915Y0027376D02*
X0432349Y0027376D01*
X0431866Y0027376D02*
X0431104Y0027376D01*
X0431104Y0028975D02*
X0431866Y0028975D01*
X0431866Y0030573D02*
X0431104Y0030573D01*
X0431104Y0032172D02*
X0431866Y0032172D01*
X0431866Y0033770D02*
X0431104Y0033770D01*
X0431104Y0035369D02*
X0431866Y0035369D01*
X0431104Y0037181D02*
X0425542Y0037181D01*
X0425542Y0040811D01*
X0425688Y0041735D01*
X0425977Y0042625D01*
X0426402Y0043458D01*
X0426952Y0044215D01*
X0427613Y0044877D01*
X0428370Y0045426D01*
X0429204Y0045851D01*
X0430093Y0046140D01*
X0431017Y0046287D01*
X0431104Y0046287D01*
X0431104Y0037181D01*
X0431104Y0038566D02*
X0431866Y0038566D01*
X0431866Y0040164D02*
X0431104Y0040164D01*
X0431104Y0041763D02*
X0431866Y0041763D01*
X0431866Y0043361D02*
X0431104Y0043361D01*
X0431104Y0044960D02*
X0431866Y0044960D01*
X0427728Y0044960D02*
X0415589Y0044960D01*
X0416983Y0043361D02*
X0426352Y0043361D01*
X0425697Y0041763D02*
X0417645Y0041763D01*
X0417743Y0040164D02*
X0425542Y0040164D01*
X0425542Y0038566D02*
X0417743Y0038566D01*
X0408011Y0044960D02*
X0395904Y0044960D01*
X0397298Y0043361D02*
X0406617Y0043361D01*
X0405955Y0041763D02*
X0397960Y0041763D01*
X0398058Y0040164D02*
X0405857Y0040164D01*
X0405857Y0038566D02*
X0398094Y0038566D01*
X0398315Y0036967D02*
X0405857Y0036967D01*
X0405857Y0035369D02*
X0398315Y0035369D01*
X0398315Y0033770D02*
X0405857Y0033770D01*
X0405857Y0032172D02*
X0398315Y0032172D01*
X0398315Y0030573D02*
X0406479Y0030573D01*
X0407677Y0028975D02*
X0398315Y0028975D01*
X0386136Y0038566D02*
X0377428Y0038566D01*
X0377428Y0040164D02*
X0386172Y0040164D01*
X0386270Y0041763D02*
X0377273Y0041763D01*
X0376618Y0043361D02*
X0386932Y0043361D01*
X0388326Y0044960D02*
X0375242Y0044960D01*
X0368200Y0049800D02*
X0361800Y0043400D01*
X0361800Y0040200D01*
X0365000Y0040164D02*
X0365542Y0040164D01*
X0365542Y0038566D02*
X0364587Y0038566D01*
X0365000Y0041763D02*
X0365697Y0041763D01*
X0366287Y0043361D02*
X0366352Y0043361D01*
X0362031Y0048157D02*
X0169482Y0048157D01*
X0170618Y0046287D02*
X0168433Y0045382D01*
X0166762Y0043710D01*
X0165857Y0041526D01*
X0165857Y0032074D01*
X0166762Y0029890D01*
X0168433Y0028218D01*
X0170618Y0027313D01*
X0172982Y0027313D01*
X0175167Y0028218D01*
X0176838Y0029890D01*
X0177743Y0032074D01*
X0177743Y0041526D01*
X0176838Y0043710D01*
X0175167Y0045382D01*
X0172982Y0046287D01*
X0170618Y0046287D01*
X0168011Y0044960D02*
X0155904Y0044960D01*
X0157298Y0043361D02*
X0166617Y0043361D01*
X0165955Y0041763D02*
X0157960Y0041763D01*
X0158058Y0040164D02*
X0165857Y0040164D01*
X0165857Y0038566D02*
X0158094Y0038566D01*
X0158315Y0036967D02*
X0165857Y0036967D01*
X0165857Y0035369D02*
X0158315Y0035369D01*
X0158315Y0033770D02*
X0165857Y0033770D01*
X0165857Y0032172D02*
X0158315Y0032172D01*
X0158315Y0030573D02*
X0166479Y0030573D01*
X0167677Y0028975D02*
X0158315Y0028975D01*
X0158315Y0027376D02*
X0170466Y0027376D01*
X0173134Y0027376D02*
X0190621Y0027376D01*
X0191017Y0027313D02*
X0191104Y0027313D01*
X0191104Y0036419D01*
X0185542Y0036419D01*
X0185542Y0032789D01*
X0185688Y0031865D01*
X0185977Y0030975D01*
X0186402Y0030142D01*
X0186952Y0029385D01*
X0187613Y0028723D01*
X0188370Y0028174D01*
X0189204Y0027749D01*
X0190093Y0027460D01*
X0191017Y0027313D01*
X0191104Y0027376D02*
X0191866Y0027376D01*
X0191866Y0027313D02*
X0191953Y0027313D01*
X0192877Y0027460D01*
X0193766Y0027749D01*
X0194600Y0028174D01*
X0195357Y0028723D01*
X0196018Y0029385D01*
X0196568Y0030142D01*
X0196993Y0030975D01*
X0197282Y0031865D01*
X0197428Y0032789D01*
X0197428Y0036419D01*
X0191866Y0036419D01*
X0191866Y0027313D01*
X0192349Y0027376D02*
X0205915Y0027376D01*
X0205915Y0025778D02*
X0158315Y0025778D01*
X0175923Y0028975D02*
X0187362Y0028975D01*
X0186182Y0030573D02*
X0177121Y0030573D01*
X0177743Y0032172D02*
X0185639Y0032172D01*
X0185542Y0033770D02*
X0177743Y0033770D01*
X0177743Y0035369D02*
X0185542Y0035369D01*
X0185542Y0037181D02*
X0191104Y0037181D01*
X0191104Y0036419D01*
X0191866Y0036419D01*
X0191866Y0037181D01*
X0191104Y0037181D01*
X0191104Y0046287D01*
X0191017Y0046287D01*
X0190093Y0046140D01*
X0189204Y0045851D01*
X0188370Y0045426D01*
X0187613Y0044877D01*
X0186952Y0044215D01*
X0186402Y0043458D01*
X0185977Y0042625D01*
X0185688Y0041735D01*
X0185542Y0040811D01*
X0185542Y0037181D01*
X0185542Y0038566D02*
X0177743Y0038566D01*
X0177743Y0040164D02*
X0185542Y0040164D01*
X0185697Y0041763D02*
X0177645Y0041763D01*
X0176983Y0043361D02*
X0186352Y0043361D01*
X0187728Y0044960D02*
X0175589Y0044960D01*
X0171081Y0049755D02*
X0363630Y0049755D01*
X0365228Y0051354D02*
X0172679Y0051354D01*
X0174278Y0052952D02*
X0367448Y0052952D01*
X0368200Y0049800D02*
X0406600Y0049800D01*
X0421000Y0064200D01*
X0421000Y0086600D01*
X0413000Y0094600D01*
X0413000Y0096200D01*
X0411800Y0096800D01*
X0415753Y0100908D02*
X0498600Y0100908D01*
X0498600Y0102506D02*
X0383840Y0102506D01*
X0382421Y0104105D02*
X0498600Y0104105D01*
X0498600Y0105703D02*
X0380822Y0105703D01*
X0379224Y0107302D02*
X0498600Y0107302D01*
X0498600Y0108900D02*
X0377077Y0108900D01*
X0376200Y0105800D02*
X0337800Y0105800D01*
X0340729Y0102506D02*
X0374968Y0102506D01*
X0375753Y0100908D02*
X0376567Y0100908D01*
X0381000Y0101000D02*
X0376200Y0105800D01*
X0381000Y0101000D02*
X0381000Y0097800D01*
X0381800Y0096800D01*
X0385753Y0100908D02*
X0387847Y0100908D01*
X0391500Y0100908D02*
X0392100Y0100908D01*
X0392100Y0099309D02*
X0391500Y0099309D01*
X0391500Y0097711D02*
X0392100Y0097711D01*
X0392100Y0096112D02*
X0391500Y0096112D01*
X0391500Y0094514D02*
X0392100Y0094514D01*
X0392100Y0092915D02*
X0391500Y0092915D01*
X0391500Y0091317D02*
X0392100Y0091317D01*
X0393370Y0091317D02*
X0400143Y0091317D01*
X0397624Y0092915D02*
X0395976Y0092915D01*
X0390230Y0091317D02*
X0383457Y0091317D01*
X0385976Y0092915D02*
X0387624Y0092915D01*
X0380143Y0091317D02*
X0373457Y0091317D01*
X0375976Y0092915D02*
X0377624Y0092915D01*
X0370143Y0091317D02*
X0363370Y0091317D01*
X0362100Y0091317D02*
X0361500Y0091317D01*
X0360230Y0091317D02*
X0353457Y0091317D01*
X0355976Y0092915D02*
X0357624Y0092915D01*
X0361500Y0092915D02*
X0362100Y0092915D01*
X0362100Y0094514D02*
X0361500Y0094514D01*
X0361500Y0096112D02*
X0362100Y0096112D01*
X0362100Y0097711D02*
X0361500Y0097711D01*
X0361500Y0099309D02*
X0362100Y0099309D01*
X0362100Y0100908D02*
X0361500Y0100908D01*
X0357847Y0100908D02*
X0355753Y0100908D01*
X0347847Y0100908D02*
X0340818Y0100908D01*
X0342416Y0099309D02*
X0346670Y0099309D01*
X0346100Y0097711D02*
X0344015Y0097711D01*
X0345437Y0096112D02*
X0346100Y0096112D01*
X0345800Y0094514D02*
X0346577Y0094514D01*
X0345800Y0092915D02*
X0347624Y0092915D01*
X0345800Y0091317D02*
X0350143Y0091317D01*
X0347207Y0089718D02*
X0413356Y0089718D01*
X0414955Y0088120D02*
X0348806Y0088120D01*
X0350404Y0086521D02*
X0416553Y0086521D01*
X0417800Y0084923D02*
X0352003Y0084923D01*
X0353601Y0083324D02*
X0417800Y0083324D01*
X0417800Y0081726D02*
X0355200Y0081726D01*
X0356798Y0080127D02*
X0417800Y0080127D01*
X0417800Y0078529D02*
X0358397Y0078529D01*
X0359995Y0076930D02*
X0417800Y0076930D01*
X0417800Y0075332D02*
X0361594Y0075332D01*
X0363192Y0073733D02*
X0417800Y0073733D01*
X0417800Y0072134D02*
X0413828Y0072134D01*
X0413988Y0072082D02*
X0413135Y0072360D01*
X0412249Y0072500D01*
X0412100Y0072500D01*
X0412100Y0067100D01*
X0417500Y0067100D01*
X0417500Y0067249D01*
X0417360Y0068135D01*
X0417082Y0068988D01*
X0416675Y0069787D01*
X0416148Y0070513D01*
X0415513Y0071148D01*
X0414787Y0071675D01*
X0413988Y0072082D01*
X0412100Y0072134D02*
X0411500Y0072134D01*
X0411500Y0070536D02*
X0412100Y0070536D01*
X0412100Y0068937D02*
X0411500Y0068937D01*
X0411500Y0067339D02*
X0412100Y0067339D01*
X0412100Y0065740D02*
X0411500Y0065740D01*
X0411500Y0064142D02*
X0412100Y0064142D01*
X0412100Y0062543D02*
X0411500Y0062543D01*
X0413219Y0060945D02*
X0393470Y0060945D01*
X0391872Y0059346D02*
X0411621Y0059346D01*
X0410022Y0057748D02*
X0390273Y0057748D01*
X0388675Y0056149D02*
X0408424Y0056149D01*
X0406825Y0054551D02*
X0175876Y0054551D01*
X0177475Y0056149D02*
X0342925Y0056149D01*
X0343087Y0055987D02*
X0343087Y0055987D01*
X0341327Y0057748D02*
X0179073Y0057748D01*
X0180672Y0059346D02*
X0339728Y0059346D01*
X0338130Y0060945D02*
X0182270Y0060945D01*
X0183777Y0062543D02*
X0336623Y0062543D01*
X0336200Y0064142D02*
X0184200Y0064142D01*
X0184200Y0065740D02*
X0336200Y0065740D01*
X0336200Y0067339D02*
X0330188Y0067339D01*
X0329099Y0066250D02*
X0332350Y0069501D01*
X0332350Y0071800D01*
X0332350Y0074099D01*
X0329099Y0077350D01*
X0326800Y0077350D01*
X0326800Y0071800D01*
X0326800Y0071800D01*
X0332350Y0071800D01*
X0326800Y0071800D01*
X0326800Y0071800D01*
X0326800Y0071800D01*
X0321250Y0071800D01*
X0321250Y0074099D01*
X0324501Y0077350D01*
X0326800Y0077350D01*
X0326800Y0071800D01*
X0326800Y0066250D01*
X0329099Y0066250D01*
X0326800Y0066250D02*
X0326800Y0071800D01*
X0326800Y0071800D01*
X0321250Y0071800D01*
X0321250Y0069501D01*
X0324501Y0066250D01*
X0326800Y0066250D01*
X0326800Y0067339D02*
X0326800Y0067339D01*
X0326800Y0068937D02*
X0326800Y0068937D01*
X0326800Y0070536D02*
X0326800Y0070536D01*
X0326800Y0072134D02*
X0326800Y0072134D01*
X0326800Y0073733D02*
X0326800Y0073733D01*
X0326800Y0075332D02*
X0326800Y0075332D01*
X0326800Y0076930D02*
X0326800Y0076930D01*
X0329519Y0076930D02*
X0336200Y0076930D01*
X0336200Y0075332D02*
X0331117Y0075332D01*
X0332350Y0073733D02*
X0336200Y0073733D01*
X0336200Y0072134D02*
X0332350Y0072134D01*
X0332350Y0070536D02*
X0336200Y0070536D01*
X0336200Y0068937D02*
X0331786Y0068937D01*
X0339400Y0064200D02*
X0345800Y0057800D01*
X0385800Y0057800D01*
X0393800Y0065800D01*
X0392200Y0067400D01*
X0391800Y0066800D01*
X0389784Y0072134D02*
X0383828Y0072134D01*
X0382100Y0072134D02*
X0381500Y0072134D01*
X0381500Y0070536D02*
X0382100Y0070536D01*
X0382100Y0068937D02*
X0381500Y0068937D01*
X0381500Y0067339D02*
X0382100Y0067339D01*
X0382100Y0066500D02*
X0382100Y0061100D01*
X0382249Y0061100D01*
X0383135Y0061240D01*
X0383988Y0061518D01*
X0384787Y0061925D01*
X0385513Y0062452D01*
X0386148Y0063087D01*
X0386675Y0063813D01*
X0386781Y0064021D01*
X0386968Y0063571D01*
X0387007Y0063532D01*
X0384475Y0061000D01*
X0347125Y0061000D01*
X0342600Y0065525D01*
X0342600Y0085275D01*
X0355384Y0072491D01*
X0355336Y0072500D01*
X0352100Y0072500D01*
X0352100Y0067100D01*
X0351500Y0067100D01*
X0351500Y0072500D01*
X0348264Y0072500D01*
X0347800Y0072408D01*
X0347363Y0072227D01*
X0346970Y0071964D01*
X0346636Y0071630D01*
X0346373Y0071237D01*
X0346192Y0070800D01*
X0346100Y0070336D01*
X0346100Y0067100D01*
X0351500Y0067100D01*
X0351500Y0066500D01*
X0352100Y0066500D01*
X0352100Y0061100D01*
X0355336Y0061100D01*
X0355800Y0061192D01*
X0356237Y0061373D01*
X0356630Y0061636D01*
X0356964Y0061970D01*
X0357227Y0062363D01*
X0357408Y0062800D01*
X0357463Y0063076D01*
X0358571Y0061968D01*
X0360666Y0061100D01*
X0362934Y0061100D01*
X0365029Y0061968D01*
X0366632Y0063571D01*
X0366800Y0063976D01*
X0366968Y0063571D01*
X0368571Y0061968D01*
X0370666Y0061100D01*
X0372934Y0061100D01*
X0375029Y0061968D01*
X0376632Y0063571D01*
X0376819Y0064021D01*
X0376925Y0063813D01*
X0377452Y0063087D01*
X0378087Y0062452D01*
X0378813Y0061925D01*
X0379612Y0061518D01*
X0380465Y0061240D01*
X0381351Y0061100D01*
X0381500Y0061100D01*
X0381500Y0066500D01*
X0382100Y0066500D01*
X0382100Y0065740D02*
X0381500Y0065740D01*
X0381500Y0064142D02*
X0382100Y0064142D01*
X0382100Y0062543D02*
X0381500Y0062543D01*
X0377996Y0062543D02*
X0375604Y0062543D01*
X0367996Y0062543D02*
X0365604Y0062543D01*
X0357996Y0062543D02*
X0357302Y0062543D01*
X0352100Y0062543D02*
X0351500Y0062543D01*
X0351500Y0061100D02*
X0351500Y0066500D01*
X0346100Y0066500D01*
X0346100Y0063264D01*
X0346192Y0062800D01*
X0346373Y0062363D01*
X0346636Y0061970D01*
X0346970Y0061636D01*
X0347363Y0061373D01*
X0347800Y0061192D01*
X0348264Y0061100D01*
X0351500Y0061100D01*
X0351500Y0064142D02*
X0352100Y0064142D01*
X0352100Y0065740D02*
X0351500Y0065740D01*
X0351500Y0067339D02*
X0352100Y0067339D01*
X0352100Y0068937D02*
X0351500Y0068937D01*
X0351500Y0070536D02*
X0352100Y0070536D01*
X0352100Y0072134D02*
X0351500Y0072134D01*
X0354141Y0073733D02*
X0342600Y0073733D01*
X0342600Y0072134D02*
X0347225Y0072134D01*
X0346140Y0070536D02*
X0342600Y0070536D01*
X0342600Y0068937D02*
X0346100Y0068937D01*
X0346100Y0067339D02*
X0342600Y0067339D01*
X0342600Y0065740D02*
X0346100Y0065740D01*
X0346100Y0064142D02*
X0343984Y0064142D01*
X0345582Y0062543D02*
X0346298Y0062543D01*
X0339400Y0064200D02*
X0339400Y0093000D01*
X0331400Y0101000D01*
X0328200Y0101000D01*
X0307400Y0121800D01*
X0307400Y0126600D01*
X0306800Y0126800D01*
X0310752Y0122974D02*
X0311463Y0123684D01*
X0311800Y0124499D01*
X0312137Y0123684D01*
X0313684Y0122137D01*
X0315706Y0121300D01*
X0317894Y0121300D01*
X0319915Y0122137D01*
X0321463Y0123684D01*
X0321800Y0124499D01*
X0322137Y0123684D01*
X0323684Y0122137D01*
X0325706Y0121300D01*
X0327894Y0121300D01*
X0329915Y0122137D01*
X0331463Y0123684D01*
X0331800Y0124499D01*
X0332137Y0123684D01*
X0332848Y0122974D01*
X0331187Y0121313D01*
X0330287Y0120413D01*
X0329800Y0119237D01*
X0329800Y0104200D01*
X0329525Y0104200D01*
X0310752Y0122974D01*
X0311065Y0123287D02*
X0312535Y0123287D01*
X0312037Y0121688D02*
X0314768Y0121688D01*
X0313636Y0120090D02*
X0330153Y0120090D01*
X0329800Y0118491D02*
X0315234Y0118491D01*
X0316833Y0116893D02*
X0329800Y0116893D01*
X0329800Y0115294D02*
X0318431Y0115294D01*
X0320030Y0113696D02*
X0329800Y0113696D01*
X0329800Y0112097D02*
X0321628Y0112097D01*
X0323227Y0110499D02*
X0329800Y0110499D01*
X0329800Y0108900D02*
X0324825Y0108900D01*
X0326424Y0107302D02*
X0329800Y0107302D01*
X0329800Y0105703D02*
X0328022Y0105703D01*
X0333000Y0104200D02*
X0342600Y0094600D01*
X0342600Y0089800D01*
X0361800Y0070600D01*
X0361800Y0066800D01*
X0366125Y0070536D02*
X0367475Y0070536D01*
X0369784Y0072134D02*
X0364628Y0072134D01*
X0373816Y0072134D02*
X0379772Y0072134D01*
X0377475Y0070536D02*
X0376125Y0070536D01*
X0386125Y0070536D02*
X0387475Y0070536D01*
X0393816Y0072134D02*
X0399784Y0072134D01*
X0397475Y0070536D02*
X0396125Y0070536D01*
X0403816Y0072134D02*
X0409772Y0072134D01*
X0407475Y0070536D02*
X0406125Y0070536D01*
X0416125Y0070536D02*
X0417800Y0070536D01*
X0417800Y0068937D02*
X0417099Y0068937D01*
X0417486Y0067339D02*
X0417800Y0067339D01*
X0417800Y0065740D02*
X0417403Y0065740D01*
X0422270Y0060945D02*
X0498600Y0060945D01*
X0498600Y0062543D02*
X0423777Y0062543D01*
X0424200Y0064142D02*
X0498600Y0064142D01*
X0498600Y0065740D02*
X0424200Y0065740D01*
X0424200Y0067339D02*
X0498600Y0067339D01*
X0498600Y0068937D02*
X0424200Y0068937D01*
X0424200Y0070536D02*
X0498600Y0070536D01*
X0498600Y0072134D02*
X0424200Y0072134D01*
X0424200Y0073733D02*
X0498600Y0073733D01*
X0498600Y0075332D02*
X0424200Y0075332D01*
X0424200Y0076930D02*
X0498600Y0076930D01*
X0498600Y0078529D02*
X0424200Y0078529D01*
X0424200Y0080127D02*
X0498600Y0080127D01*
X0498600Y0081726D02*
X0424200Y0081726D01*
X0424200Y0083324D02*
X0498600Y0083324D01*
X0498600Y0084923D02*
X0424200Y0084923D01*
X0424200Y0086521D02*
X0498600Y0086521D01*
X0498600Y0088120D02*
X0423834Y0088120D01*
X0422407Y0089718D02*
X0498600Y0089718D01*
X0498600Y0091317D02*
X0420809Y0091317D01*
X0419210Y0092915D02*
X0498600Y0092915D01*
X0498600Y0094514D02*
X0417612Y0094514D01*
X0417500Y0096112D02*
X0498600Y0096112D01*
X0498600Y0097711D02*
X0417500Y0097711D01*
X0416930Y0099309D02*
X0498600Y0099309D01*
X0501800Y0099309D02*
X0516921Y0099309D01*
X0516921Y0097711D02*
X0501800Y0097711D01*
X0501800Y0096112D02*
X0516921Y0096112D01*
X0516921Y0094514D02*
X0501800Y0094514D01*
X0501800Y0092915D02*
X0516921Y0092915D01*
X0516921Y0091317D02*
X0501800Y0091317D01*
X0501800Y0089718D02*
X0516921Y0089718D01*
X0516921Y0088120D02*
X0501800Y0088120D01*
X0501800Y0086521D02*
X0516921Y0086521D01*
X0516921Y0084923D02*
X0501800Y0084923D01*
X0501800Y0083324D02*
X0516921Y0083324D01*
X0516921Y0081726D02*
X0501800Y0081726D01*
X0501800Y0080127D02*
X0516921Y0080127D01*
X0516921Y0078529D02*
X0501800Y0078529D01*
X0501800Y0076930D02*
X0516921Y0076930D01*
X0516921Y0075332D02*
X0501800Y0075332D01*
X0501800Y0073733D02*
X0516921Y0073733D01*
X0516921Y0072134D02*
X0501800Y0072134D01*
X0501800Y0070536D02*
X0516921Y0070536D01*
X0516921Y0068937D02*
X0501800Y0068937D01*
X0501800Y0067339D02*
X0516921Y0067339D01*
X0516921Y0065740D02*
X0501800Y0065740D01*
X0501800Y0064142D02*
X0516921Y0064142D01*
X0516921Y0062543D02*
X0501800Y0062543D01*
X0501800Y0060945D02*
X0516921Y0060945D01*
X0516921Y0059346D02*
X0501800Y0059346D01*
X0501800Y0057748D02*
X0516921Y0057748D01*
X0516921Y0056149D02*
X0501800Y0056149D01*
X0501800Y0054551D02*
X0516921Y0054551D01*
X0516921Y0052952D02*
X0501800Y0052952D01*
X0501800Y0051354D02*
X0516921Y0051354D01*
X0516921Y0049755D02*
X0501800Y0049755D01*
X0501800Y0048157D02*
X0516921Y0048157D01*
X0516921Y0046558D02*
X0501800Y0046558D01*
X0501800Y0044960D02*
X0516921Y0044960D01*
X0516921Y0043361D02*
X0501800Y0043361D01*
X0501800Y0041763D02*
X0516921Y0041763D01*
X0516921Y0040164D02*
X0501800Y0040164D01*
X0501800Y0038566D02*
X0516921Y0038566D01*
X0516921Y0036967D02*
X0501800Y0036967D01*
X0501800Y0035369D02*
X0516921Y0035369D01*
X0516921Y0033770D02*
X0501800Y0033770D01*
X0501800Y0032172D02*
X0516921Y0032172D01*
X0516921Y0030573D02*
X0501800Y0030573D01*
X0501800Y0028975D02*
X0516921Y0028975D01*
X0516921Y0027376D02*
X0501800Y0027376D01*
X0501800Y0025778D02*
X0516921Y0025778D01*
X0516921Y0024179D02*
X0501800Y0024179D01*
X0501800Y0022581D02*
X0516921Y0022581D01*
X0516921Y0021800D02*
X0516921Y0006600D01*
X0016800Y0006600D01*
X0016800Y0021800D01*
X0516921Y0021800D01*
X0516921Y0020982D02*
X0016800Y0020982D01*
X0016800Y0019384D02*
X0516921Y0019384D01*
X0501800Y0019384D01*
X0501800Y0020982D02*
X0516921Y0020982D01*
X0516921Y0017785D02*
X0016800Y0017785D01*
X0016800Y0016187D02*
X0516921Y0016187D01*
X0501800Y0016187D01*
X0501800Y0017785D02*
X0516921Y0017785D01*
X0516921Y0014588D02*
X0016800Y0014588D01*
X0016800Y0012990D02*
X0516921Y0012990D01*
X0501800Y0012990D01*
X0501800Y0014588D02*
X0516921Y0014588D01*
X0516921Y0011391D02*
X0016800Y0011391D01*
X0016800Y0009793D02*
X0516921Y0009793D01*
X0501800Y0009793D01*
X0501800Y0011391D02*
X0516921Y0011391D01*
X0516921Y0008194D02*
X0016800Y0008194D01*
X0021800Y0008194D02*
X0006600Y0008194D01*
X0006600Y0006600D02*
X0006600Y0325701D01*
X0021800Y0325701D01*
X0021800Y0006600D01*
X0006600Y0006600D01*
X0006600Y0009793D02*
X0021800Y0009793D01*
X0021800Y0011391D02*
X0006600Y0011391D01*
X0006800Y0011800D02*
X0031800Y0011800D01*
X0021800Y0012990D02*
X0006600Y0012990D01*
X0006600Y0014588D02*
X0021800Y0014588D01*
X0021800Y0016187D02*
X0006600Y0016187D01*
X0006600Y0017785D02*
X0021800Y0017785D01*
X0021800Y0019384D02*
X0006600Y0019384D01*
X0006600Y0020982D02*
X0021800Y0020982D01*
X0021800Y0022581D02*
X0006600Y0022581D01*
X0006600Y0024179D02*
X0021800Y0024179D01*
X0021800Y0025778D02*
X0006600Y0025778D01*
X0006600Y0027376D02*
X0021800Y0027376D01*
X0021800Y0028975D02*
X0006600Y0028975D01*
X0006600Y0030573D02*
X0021800Y0030573D01*
X0021800Y0032172D02*
X0006600Y0032172D01*
X0006600Y0033770D02*
X0021800Y0033770D01*
X0021800Y0035369D02*
X0006600Y0035369D01*
X0006600Y0036967D02*
X0021800Y0036967D01*
X0021800Y0038566D02*
X0006600Y0038566D01*
X0006600Y0040164D02*
X0021800Y0040164D01*
X0021800Y0041763D02*
X0006600Y0041763D01*
X0006600Y0043361D02*
X0021800Y0043361D01*
X0021800Y0044960D02*
X0006600Y0044960D01*
X0006600Y0046558D02*
X0021800Y0046558D01*
X0021800Y0048157D02*
X0006600Y0048157D01*
X0006600Y0049755D02*
X0021800Y0049755D01*
X0021800Y0051354D02*
X0006600Y0051354D01*
X0006600Y0052952D02*
X0021800Y0052952D01*
X0021800Y0054551D02*
X0006600Y0054551D01*
X0006600Y0056149D02*
X0021800Y0056149D01*
X0021800Y0057748D02*
X0006600Y0057748D01*
X0006600Y0059346D02*
X0021800Y0059346D01*
X0021800Y0060945D02*
X0006600Y0060945D01*
X0006600Y0062543D02*
X0021800Y0062543D01*
X0021800Y0064142D02*
X0006600Y0064142D01*
X0006600Y0065740D02*
X0021800Y0065740D01*
X0021800Y0067339D02*
X0006600Y0067339D01*
X0006600Y0068937D02*
X0021800Y0068937D01*
X0021800Y0070536D02*
X0006600Y0070536D01*
X0006600Y0072134D02*
X0021800Y0072134D01*
X0021800Y0073733D02*
X0006600Y0073733D01*
X0006600Y0075332D02*
X0021800Y0075332D01*
X0021800Y0076930D02*
X0006600Y0076930D01*
X0006600Y0078529D02*
X0021800Y0078529D01*
X0021800Y0080127D02*
X0006600Y0080127D01*
X0006600Y0081726D02*
X0021800Y0081726D01*
X0021800Y0083324D02*
X0006600Y0083324D01*
X0006600Y0084923D02*
X0021800Y0084923D01*
X0021800Y0086521D02*
X0006600Y0086521D01*
X0006600Y0088120D02*
X0021800Y0088120D01*
X0021800Y0089718D02*
X0006600Y0089718D01*
X0006600Y0091317D02*
X0021800Y0091317D01*
X0021800Y0092915D02*
X0006600Y0092915D01*
X0006600Y0094514D02*
X0021800Y0094514D01*
X0021800Y0096112D02*
X0006600Y0096112D01*
X0006600Y0097711D02*
X0021800Y0097711D01*
X0021800Y0099309D02*
X0006600Y0099309D01*
X0006600Y0100908D02*
X0021800Y0100908D01*
X0021800Y0102506D02*
X0006600Y0102506D01*
X0006600Y0104105D02*
X0021800Y0104105D01*
X0021800Y0105703D02*
X0006600Y0105703D01*
X0006600Y0107302D02*
X0021800Y0107302D01*
X0021800Y0108900D02*
X0006600Y0108900D01*
X0006600Y0110499D02*
X0021800Y0110499D01*
X0021800Y0112097D02*
X0006600Y0112097D01*
X0006600Y0113696D02*
X0021800Y0113696D01*
X0021800Y0115294D02*
X0006600Y0115294D01*
X0006600Y0116893D02*
X0021800Y0116893D01*
X0021800Y0118491D02*
X0006600Y0118491D01*
X0006600Y0120090D02*
X0021800Y0120090D01*
X0021800Y0121688D02*
X0006600Y0121688D01*
X0006600Y0123287D02*
X0021800Y0123287D01*
X0021800Y0124885D02*
X0006600Y0124885D01*
X0006600Y0126484D02*
X0021800Y0126484D01*
X0021800Y0128082D02*
X0006600Y0128082D01*
X0006600Y0129681D02*
X0021800Y0129681D01*
X0021800Y0131279D02*
X0006600Y0131279D01*
X0006600Y0132878D02*
X0021800Y0132878D01*
X0021800Y0134476D02*
X0006600Y0134476D01*
X0006600Y0136075D02*
X0021800Y0136075D01*
X0021800Y0137673D02*
X0006600Y0137673D01*
X0006600Y0139272D02*
X0021800Y0139272D01*
X0021800Y0140870D02*
X0006600Y0140870D01*
X0006600Y0142469D02*
X0021800Y0142469D01*
X0021800Y0144068D02*
X0006600Y0144068D01*
X0006600Y0145666D02*
X0021800Y0145666D01*
X0021800Y0147265D02*
X0006600Y0147265D01*
X0006600Y0148863D02*
X0021800Y0148863D01*
X0021800Y0150462D02*
X0006600Y0150462D01*
X0006600Y0152060D02*
X0021800Y0152060D01*
X0021800Y0153659D02*
X0006600Y0153659D01*
X0006600Y0155257D02*
X0021800Y0155257D01*
X0021800Y0156856D02*
X0006600Y0156856D01*
X0006600Y0158454D02*
X0021800Y0158454D01*
X0021800Y0160053D02*
X0006600Y0160053D01*
X0006600Y0161651D02*
X0021800Y0161651D01*
X0021800Y0163250D02*
X0006600Y0163250D01*
X0006600Y0164848D02*
X0021800Y0164848D01*
X0021800Y0166447D02*
X0006600Y0166447D01*
X0006600Y0168045D02*
X0021800Y0168045D01*
X0021800Y0169644D02*
X0006600Y0169644D01*
X0006600Y0171242D02*
X0021800Y0171242D01*
X0021800Y0172841D02*
X0006600Y0172841D01*
X0006600Y0174439D02*
X0021800Y0174439D01*
X0021800Y0176038D02*
X0006600Y0176038D01*
X0006600Y0177636D02*
X0021800Y0177636D01*
X0021800Y0179235D02*
X0006600Y0179235D01*
X0006600Y0180833D02*
X0021800Y0180833D01*
X0021800Y0182432D02*
X0006600Y0182432D01*
X0006600Y0184030D02*
X0021800Y0184030D01*
X0021800Y0185629D02*
X0006600Y0185629D01*
X0006600Y0187227D02*
X0021800Y0187227D01*
X0021800Y0188826D02*
X0006600Y0188826D01*
X0006600Y0190424D02*
X0021800Y0190424D01*
X0021800Y0192023D02*
X0006600Y0192023D01*
X0006600Y0193621D02*
X0021800Y0193621D01*
X0021800Y0195220D02*
X0006600Y0195220D01*
X0006600Y0196818D02*
X0021800Y0196818D01*
X0021800Y0198417D02*
X0006600Y0198417D01*
X0006600Y0200015D02*
X0021800Y0200015D01*
X0021800Y0201614D02*
X0006600Y0201614D01*
X0006600Y0203212D02*
X0021800Y0203212D01*
X0021800Y0204811D02*
X0006600Y0204811D01*
X0006600Y0206409D02*
X0021800Y0206409D01*
X0021800Y0208008D02*
X0006600Y0208008D01*
X0006600Y0209606D02*
X0021800Y0209606D01*
X0021800Y0211205D02*
X0006600Y0211205D01*
X0006600Y0212803D02*
X0021800Y0212803D01*
X0021800Y0214402D02*
X0006600Y0214402D01*
X0006600Y0216001D02*
X0021800Y0216001D01*
X0021800Y0217599D02*
X0006600Y0217599D01*
X0006600Y0219198D02*
X0021800Y0219198D01*
X0021800Y0220796D02*
X0006600Y0220796D01*
X0006600Y0222395D02*
X0021800Y0222395D01*
X0021800Y0223993D02*
X0006600Y0223993D01*
X0006600Y0225592D02*
X0021800Y0225592D01*
X0021800Y0227190D02*
X0006600Y0227190D01*
X0006600Y0228789D02*
X0021800Y0228789D01*
X0021800Y0230387D02*
X0006600Y0230387D01*
X0006600Y0231986D02*
X0021800Y0231986D01*
X0021800Y0233584D02*
X0006600Y0233584D01*
X0006600Y0235183D02*
X0021800Y0235183D01*
X0021800Y0236781D02*
X0006600Y0236781D01*
X0006600Y0238380D02*
X0021800Y0238380D01*
X0021800Y0239978D02*
X0006600Y0239978D01*
X0006600Y0241577D02*
X0021800Y0241577D01*
X0021800Y0243175D02*
X0006600Y0243175D01*
X0006600Y0244774D02*
X0021800Y0244774D01*
X0021800Y0246372D02*
X0006600Y0246372D01*
X0006600Y0247971D02*
X0021800Y0247971D01*
X0021800Y0249569D02*
X0006600Y0249569D01*
X0006600Y0251168D02*
X0021800Y0251168D01*
X0021800Y0252766D02*
X0006600Y0252766D01*
X0006600Y0254365D02*
X0021800Y0254365D01*
X0021800Y0255963D02*
X0006600Y0255963D01*
X0006600Y0257562D02*
X0021800Y0257562D01*
X0021800Y0259160D02*
X0006600Y0259160D01*
X0006600Y0260759D02*
X0021800Y0260759D01*
X0021800Y0262357D02*
X0006600Y0262357D01*
X0006600Y0263956D02*
X0021800Y0263956D01*
X0021800Y0265554D02*
X0006600Y0265554D01*
X0006600Y0267153D02*
X0021800Y0267153D01*
X0021800Y0268751D02*
X0006600Y0268751D01*
X0006600Y0270350D02*
X0021800Y0270350D01*
X0021800Y0271948D02*
X0006600Y0271948D01*
X0006600Y0273547D02*
X0021800Y0273547D01*
X0021800Y0275145D02*
X0006600Y0275145D01*
X0006600Y0276744D02*
X0021800Y0276744D01*
X0021800Y0278342D02*
X0006600Y0278342D01*
X0006600Y0279941D02*
X0021800Y0279941D01*
X0021800Y0281539D02*
X0006600Y0281539D01*
X0006600Y0283138D02*
X0021800Y0283138D01*
X0021800Y0284737D02*
X0006600Y0284737D01*
X0006600Y0286335D02*
X0021800Y0286335D01*
X0021800Y0287934D02*
X0006600Y0287934D01*
X0006600Y0289532D02*
X0021800Y0289532D01*
X0021800Y0291131D02*
X0006600Y0291131D01*
X0006600Y0292729D02*
X0021800Y0292729D01*
X0021800Y0294328D02*
X0006600Y0294328D01*
X0006600Y0295926D02*
X0021800Y0295926D01*
X0021800Y0297525D02*
X0006600Y0297525D01*
X0006600Y0299123D02*
X0021800Y0299123D01*
X0021800Y0300722D02*
X0006600Y0300722D01*
X0006600Y0302320D02*
X0021800Y0302320D01*
X0021800Y0303919D02*
X0006600Y0303919D01*
X0006600Y0305517D02*
X0021800Y0305517D01*
X0021800Y0307116D02*
X0006600Y0307116D01*
X0006600Y0308714D02*
X0021800Y0308714D01*
X0021800Y0310313D02*
X0006600Y0310313D01*
X0006600Y0311911D02*
X0021800Y0311911D01*
X0021800Y0313510D02*
X0006600Y0313510D01*
X0006600Y0315108D02*
X0021800Y0315108D01*
X0021800Y0316707D02*
X0006600Y0316707D01*
X0006600Y0318305D02*
X0021800Y0318305D01*
X0021800Y0319904D02*
X0006600Y0319904D01*
X0006600Y0321502D02*
X0021800Y0321502D01*
X0021800Y0323101D02*
X0006600Y0323101D01*
X0006600Y0324699D02*
X0021800Y0324699D01*
X0016800Y0324699D02*
X0516921Y0324699D01*
X0501800Y0324699D01*
X0501800Y0325701D02*
X0516921Y0325701D01*
X0516921Y0006600D01*
X0501800Y0006600D01*
X0501800Y0325701D01*
X0501800Y0323101D02*
X0516921Y0323101D01*
X0016800Y0323101D01*
X0016800Y0321502D02*
X0516921Y0321502D01*
X0501800Y0321502D01*
X0501800Y0319904D02*
X0516921Y0319904D01*
X0016800Y0319904D01*
X0016800Y0318305D02*
X0516921Y0318305D01*
X0501800Y0318305D01*
X0501800Y0316707D02*
X0516921Y0316707D01*
X0016800Y0316707D01*
X0016800Y0315108D02*
X0516921Y0315108D01*
X0501800Y0315108D01*
X0501800Y0313510D02*
X0516921Y0313510D01*
X0016800Y0313510D01*
X0016800Y0311911D02*
X0516921Y0311911D01*
X0501800Y0311911D01*
X0501800Y0310313D02*
X0516921Y0310313D01*
X0516921Y0311800D02*
X0016800Y0311800D01*
X0016800Y0325701D01*
X0516921Y0325701D01*
X0516921Y0311800D01*
X0516921Y0308714D02*
X0501800Y0308714D01*
X0501800Y0307116D02*
X0516921Y0307116D01*
X0516921Y0305517D02*
X0501800Y0305517D01*
X0501800Y0303919D02*
X0516921Y0303919D01*
X0516921Y0302320D02*
X0501800Y0302320D01*
X0501800Y0300722D02*
X0516921Y0300722D01*
X0516921Y0299123D02*
X0501800Y0299123D01*
X0501800Y0297525D02*
X0516921Y0297525D01*
X0516921Y0295926D02*
X0501800Y0295926D01*
X0501800Y0294328D02*
X0516921Y0294328D01*
X0516921Y0292729D02*
X0501800Y0292729D01*
X0501800Y0291131D02*
X0516921Y0291131D01*
X0516921Y0289532D02*
X0501800Y0289532D01*
X0501800Y0287934D02*
X0516921Y0287934D01*
X0516921Y0286335D02*
X0501800Y0286335D01*
X0501800Y0284737D02*
X0516921Y0284737D01*
X0516921Y0283138D02*
X0501800Y0283138D01*
X0501800Y0281539D02*
X0516921Y0281539D01*
X0516921Y0279941D02*
X0501800Y0279941D01*
X0501800Y0278342D02*
X0516921Y0278342D01*
X0516921Y0276744D02*
X0501800Y0276744D01*
X0501800Y0275145D02*
X0516921Y0275145D01*
X0516921Y0273547D02*
X0501800Y0273547D01*
X0501800Y0271948D02*
X0516921Y0271948D01*
X0516921Y0270350D02*
X0501800Y0270350D01*
X0501800Y0268751D02*
X0516921Y0268751D01*
X0516921Y0267153D02*
X0501800Y0267153D01*
X0501800Y0265554D02*
X0516921Y0265554D01*
X0516921Y0263956D02*
X0501800Y0263956D01*
X0501800Y0262357D02*
X0516921Y0262357D01*
X0516921Y0260759D02*
X0501800Y0260759D01*
X0501800Y0259160D02*
X0516921Y0259160D01*
X0516921Y0257562D02*
X0501800Y0257562D01*
X0501800Y0255963D02*
X0516921Y0255963D01*
X0516921Y0254365D02*
X0501800Y0254365D01*
X0501800Y0252766D02*
X0516921Y0252766D01*
X0516921Y0251168D02*
X0501800Y0251168D01*
X0501800Y0249569D02*
X0516921Y0249569D01*
X0516921Y0247971D02*
X0501800Y0247971D01*
X0501800Y0246372D02*
X0516921Y0246372D01*
X0516921Y0244774D02*
X0501800Y0244774D01*
X0501800Y0243175D02*
X0516921Y0243175D01*
X0516921Y0241577D02*
X0501800Y0241577D01*
X0501800Y0239978D02*
X0516921Y0239978D01*
X0516921Y0238380D02*
X0501800Y0238380D01*
X0501800Y0236781D02*
X0516921Y0236781D01*
X0516921Y0235183D02*
X0501800Y0235183D01*
X0501800Y0233584D02*
X0516921Y0233584D01*
X0516921Y0231986D02*
X0501800Y0231986D01*
X0501800Y0230387D02*
X0516921Y0230387D01*
X0516921Y0228789D02*
X0501800Y0228789D01*
X0501800Y0227190D02*
X0516921Y0227190D01*
X0516921Y0225592D02*
X0501800Y0225592D01*
X0501800Y0223993D02*
X0516921Y0223993D01*
X0516921Y0222395D02*
X0501800Y0222395D01*
X0501800Y0220796D02*
X0516921Y0220796D01*
X0516921Y0219198D02*
X0501800Y0219198D01*
X0501800Y0217599D02*
X0516921Y0217599D01*
X0516921Y0216001D02*
X0501800Y0216001D01*
X0501800Y0214402D02*
X0516921Y0214402D01*
X0516921Y0212803D02*
X0501800Y0212803D01*
X0501800Y0211205D02*
X0516921Y0211205D01*
X0516921Y0209606D02*
X0501800Y0209606D01*
X0501800Y0208008D02*
X0516921Y0208008D01*
X0516921Y0206409D02*
X0501800Y0206409D01*
X0501800Y0204811D02*
X0516921Y0204811D01*
X0516921Y0203212D02*
X0501800Y0203212D01*
X0501800Y0201614D02*
X0516921Y0201614D01*
X0516921Y0200015D02*
X0501800Y0200015D01*
X0501800Y0198417D02*
X0516921Y0198417D01*
X0516921Y0196818D02*
X0501800Y0196818D01*
X0501800Y0195220D02*
X0516921Y0195220D01*
X0516921Y0193621D02*
X0501800Y0193621D01*
X0501800Y0192023D02*
X0516921Y0192023D01*
X0516921Y0190424D02*
X0501800Y0190424D01*
X0501800Y0188826D02*
X0516921Y0188826D01*
X0516921Y0187227D02*
X0501800Y0187227D01*
X0501800Y0185629D02*
X0516921Y0185629D01*
X0516921Y0184030D02*
X0501800Y0184030D01*
X0501800Y0182432D02*
X0516921Y0182432D01*
X0516921Y0180833D02*
X0501800Y0180833D01*
X0501800Y0179235D02*
X0516921Y0179235D01*
X0516921Y0177636D02*
X0501800Y0177636D01*
X0501800Y0176038D02*
X0516921Y0176038D01*
X0516921Y0174439D02*
X0501800Y0174439D01*
X0501800Y0172841D02*
X0516921Y0172841D01*
X0516921Y0171242D02*
X0501800Y0171242D01*
X0501800Y0169644D02*
X0516921Y0169644D01*
X0516921Y0168045D02*
X0501800Y0168045D01*
X0501800Y0166447D02*
X0516921Y0166447D01*
X0516921Y0164848D02*
X0501800Y0164848D01*
X0501800Y0163250D02*
X0516921Y0163250D01*
X0516921Y0161651D02*
X0501800Y0161651D01*
X0501800Y0160053D02*
X0516921Y0160053D01*
X0516921Y0158454D02*
X0501800Y0158454D01*
X0501800Y0156856D02*
X0516921Y0156856D01*
X0516921Y0155257D02*
X0501800Y0155257D01*
X0501800Y0153659D02*
X0516921Y0153659D01*
X0516921Y0152060D02*
X0501800Y0152060D01*
X0501800Y0150462D02*
X0516921Y0150462D01*
X0516921Y0148863D02*
X0501800Y0148863D01*
X0501800Y0147265D02*
X0516921Y0147265D01*
X0516921Y0145666D02*
X0501800Y0145666D01*
X0501800Y0144068D02*
X0516921Y0144068D01*
X0516921Y0142469D02*
X0501800Y0142469D01*
X0501800Y0140870D02*
X0516921Y0140870D01*
X0516921Y0139272D02*
X0501800Y0139272D01*
X0501800Y0137673D02*
X0516921Y0137673D01*
X0516921Y0136075D02*
X0501800Y0136075D01*
X0501800Y0134476D02*
X0516921Y0134476D01*
X0516921Y0132878D02*
X0501800Y0132878D01*
X0501800Y0131279D02*
X0516921Y0131279D01*
X0516921Y0129681D02*
X0501800Y0129681D01*
X0501800Y0128082D02*
X0516921Y0128082D01*
X0516921Y0126484D02*
X0501800Y0126484D01*
X0501800Y0124885D02*
X0516921Y0124885D01*
X0516921Y0123287D02*
X0501800Y0123287D01*
X0501800Y0121688D02*
X0516921Y0121688D01*
X0516921Y0120090D02*
X0501800Y0120090D01*
X0501800Y0118491D02*
X0516921Y0118491D01*
X0516921Y0116893D02*
X0501800Y0116893D01*
X0501800Y0115294D02*
X0516921Y0115294D01*
X0516921Y0113696D02*
X0501800Y0113696D01*
X0501800Y0112097D02*
X0516921Y0112097D01*
X0516921Y0110499D02*
X0501800Y0110499D01*
X0501800Y0108900D02*
X0516921Y0108900D01*
X0516921Y0107302D02*
X0501800Y0107302D01*
X0501800Y0105703D02*
X0516921Y0105703D01*
X0516921Y0104105D02*
X0501800Y0104105D01*
X0501800Y0102506D02*
X0516921Y0102506D01*
X0516921Y0100908D02*
X0501800Y0100908D01*
X0498600Y0110499D02*
X0336200Y0110499D01*
X0336200Y0112097D02*
X0498600Y0112097D01*
X0498600Y0113696D02*
X0336200Y0113696D01*
X0336200Y0115294D02*
X0498600Y0115294D01*
X0498600Y0116893D02*
X0336200Y0116893D01*
X0337417Y0118491D02*
X0498600Y0118491D01*
X0498600Y0120090D02*
X0354526Y0120090D01*
X0353654Y0119729D02*
X0357080Y0121148D01*
X0359702Y0123770D01*
X0361121Y0127196D01*
X0361121Y0130904D01*
X0359702Y0134330D01*
X0357080Y0136952D01*
X0353654Y0138371D01*
X0349946Y0138371D01*
X0346520Y0136952D01*
X0343898Y0134330D01*
X0342479Y0130904D01*
X0342479Y0127196D01*
X0343898Y0123770D01*
X0346520Y0121148D01*
X0349946Y0119729D01*
X0353654Y0119729D01*
X0357621Y0121688D02*
X0498600Y0121688D01*
X0498600Y0123287D02*
X0359219Y0123287D01*
X0360164Y0124885D02*
X0498600Y0124885D01*
X0498600Y0126484D02*
X0360826Y0126484D01*
X0361121Y0128082D02*
X0498600Y0128082D01*
X0498600Y0129681D02*
X0361121Y0129681D01*
X0360966Y0131279D02*
X0498600Y0131279D01*
X0498600Y0132878D02*
X0360304Y0132878D01*
X0359556Y0134476D02*
X0498600Y0134476D01*
X0498600Y0136075D02*
X0357957Y0136075D01*
X0355339Y0137673D02*
X0498600Y0137673D01*
X0498600Y0139272D02*
X0177510Y0139272D01*
X0177080Y0139702D02*
X0173654Y0141121D01*
X0169946Y0141121D01*
X0166520Y0139702D01*
X0163898Y0137080D01*
X0162479Y0133654D01*
X0162479Y0129946D01*
X0163898Y0126520D01*
X0166520Y0123898D01*
X0169946Y0122479D01*
X0173654Y0122479D01*
X0177080Y0123898D01*
X0179702Y0126520D01*
X0181121Y0129946D01*
X0181121Y0133654D01*
X0179702Y0137080D01*
X0177080Y0139702D01*
X0179109Y0137673D02*
X0348261Y0137673D01*
X0345643Y0136075D02*
X0180119Y0136075D01*
X0180781Y0134476D02*
X0344044Y0134476D01*
X0343296Y0132878D02*
X0181121Y0132878D01*
X0181121Y0131279D02*
X0183501Y0131279D01*
X0182040Y0129681D02*
X0181011Y0129681D01*
X0181378Y0128082D02*
X0180349Y0128082D01*
X0179666Y0126484D02*
X0181300Y0126484D01*
X0181640Y0124885D02*
X0178068Y0124885D01*
X0175605Y0123287D02*
X0182535Y0123287D01*
X0184768Y0121688D02*
X0025000Y0121688D01*
X0025000Y0120090D02*
X0269164Y0120090D01*
X0268832Y0121688D02*
X0270763Y0121688D01*
X0271065Y0123287D02*
X0272200Y0123287D01*
X0275400Y0121800D02*
X0275400Y0126600D01*
X0276800Y0126800D01*
X0280099Y0131279D02*
X0283501Y0131279D01*
X0282040Y0129681D02*
X0281560Y0129681D01*
X0273501Y0131279D02*
X0270099Y0131279D01*
X0271560Y0129681D02*
X0272040Y0129681D01*
X0263501Y0131279D02*
X0260099Y0131279D01*
X0261560Y0129681D02*
X0262040Y0129681D01*
X0262535Y0123287D02*
X0261065Y0123287D01*
X0258832Y0121688D02*
X0264768Y0121688D01*
X0267566Y0118491D02*
X0025000Y0118491D01*
X0025000Y0116893D02*
X0265967Y0116893D01*
X0264369Y0115294D02*
X0025000Y0115294D01*
X0025000Y0113696D02*
X0262770Y0113696D01*
X0261172Y0112097D02*
X0025000Y0112097D01*
X0025000Y0110499D02*
X0259573Y0110499D01*
X0257975Y0108900D02*
X0025000Y0108900D01*
X0025000Y0107302D02*
X0256376Y0107302D01*
X0254778Y0105703D02*
X0025000Y0105703D01*
X0025000Y0104105D02*
X0253179Y0104105D01*
X0251581Y0102506D02*
X0025000Y0102506D01*
X0025000Y0100908D02*
X0107847Y0100908D01*
X0106670Y0099309D02*
X0025000Y0099309D01*
X0025000Y0097711D02*
X0106100Y0097711D01*
X0106100Y0096112D02*
X0090337Y0096112D01*
X0089099Y0097350D02*
X0092350Y0094099D01*
X0092350Y0089501D01*
X0089099Y0086250D01*
X0084501Y0086250D01*
X0081250Y0089501D01*
X0081250Y0094099D01*
X0084501Y0097350D01*
X0089099Y0097350D01*
X0091935Y0094514D02*
X0106577Y0094514D01*
X0107624Y0092915D02*
X0092350Y0092915D01*
X0092350Y0091317D02*
X0110143Y0091317D01*
X0113457Y0091317D02*
X0120230Y0091317D01*
X0121500Y0091317D02*
X0122100Y0091317D01*
X0123370Y0091317D02*
X0130143Y0091317D01*
X0131593Y0089718D02*
X0092350Y0089718D01*
X0090968Y0088120D02*
X0129994Y0088120D01*
X0128396Y0086521D02*
X0089370Y0086521D01*
X0084230Y0086521D02*
X0025000Y0086521D01*
X0025000Y0084923D02*
X0126797Y0084923D01*
X0125199Y0083324D02*
X0025000Y0083324D01*
X0025000Y0081726D02*
X0123600Y0081726D01*
X0123400Y0077000D02*
X0104200Y0077000D01*
X0077000Y0049800D01*
X0067400Y0049800D01*
X0061000Y0043400D01*
X0061000Y0040200D01*
X0062293Y0036967D02*
X0071104Y0036967D01*
X0071866Y0036967D02*
X0085915Y0036967D01*
X0085915Y0035369D02*
X0077428Y0035369D01*
X0077428Y0033770D02*
X0085915Y0033770D01*
X0085915Y0032172D02*
X0077331Y0032172D01*
X0076788Y0030573D02*
X0085915Y0030573D01*
X0085915Y0028975D02*
X0075608Y0028975D01*
X0071866Y0028975D02*
X0071104Y0028975D01*
X0071104Y0030573D02*
X0071866Y0030573D01*
X0071866Y0032172D02*
X0071104Y0032172D01*
X0071104Y0033770D02*
X0071866Y0033770D01*
X0071866Y0035369D02*
X0071104Y0035369D01*
X0071866Y0037181D02*
X0077428Y0037181D01*
X0077428Y0040811D01*
X0077282Y0041735D01*
X0076993Y0042625D01*
X0076568Y0043458D01*
X0076018Y0044215D01*
X0075357Y0044877D01*
X0074600Y0045426D01*
X0073766Y0045851D01*
X0072877Y0046140D01*
X0071953Y0046287D01*
X0071866Y0046287D01*
X0071866Y0037181D01*
X0071866Y0038566D02*
X0071104Y0038566D01*
X0071104Y0040164D02*
X0071866Y0040164D01*
X0071866Y0041763D02*
X0071104Y0041763D01*
X0071104Y0043361D02*
X0071866Y0043361D01*
X0071866Y0044960D02*
X0071104Y0044960D01*
X0075242Y0044960D02*
X0088326Y0044960D01*
X0086932Y0043361D02*
X0076618Y0043361D01*
X0077273Y0041763D02*
X0086270Y0041763D01*
X0086172Y0040164D02*
X0077428Y0040164D01*
X0077428Y0038566D02*
X0086136Y0038566D01*
X0095904Y0044960D02*
X0108011Y0044960D01*
X0106617Y0043361D02*
X0097298Y0043361D01*
X0097960Y0041763D02*
X0105955Y0041763D01*
X0105857Y0040164D02*
X0098058Y0040164D01*
X0098094Y0038566D02*
X0105857Y0038566D01*
X0121800Y0040200D02*
X0121800Y0043400D01*
X0128200Y0049800D01*
X0166600Y0049800D01*
X0181000Y0064200D01*
X0181000Y0086600D01*
X0173000Y0094600D01*
X0173000Y0096200D01*
X0171800Y0096800D01*
X0175753Y0100908D02*
X0249982Y0100908D01*
X0248384Y0099309D02*
X0176930Y0099309D01*
X0177500Y0097711D02*
X0246785Y0097711D01*
X0252639Y0094514D02*
X0321665Y0094514D01*
X0321250Y0094099D02*
X0321250Y0089501D01*
X0324501Y0086250D01*
X0329099Y0086250D01*
X0332350Y0089501D01*
X0332350Y0094099D01*
X0329099Y0097350D01*
X0324501Y0097350D01*
X0321250Y0094099D01*
X0321250Y0092915D02*
X0251041Y0092915D01*
X0249442Y0091317D02*
X0321250Y0091317D01*
X0321250Y0089718D02*
X0183941Y0089718D01*
X0183834Y0088120D02*
X0322632Y0088120D01*
X0324230Y0086521D02*
X0184200Y0086521D01*
X0184200Y0084923D02*
X0336200Y0084923D01*
X0336200Y0086521D02*
X0329370Y0086521D01*
X0330968Y0088120D02*
X0336200Y0088120D01*
X0336200Y0089718D02*
X0332350Y0089718D01*
X0332350Y0091317D02*
X0336200Y0091317D01*
X0334959Y0092915D02*
X0332350Y0092915D01*
X0331935Y0094514D02*
X0333361Y0094514D01*
X0331762Y0096112D02*
X0330337Y0096112D01*
X0330164Y0097711D02*
X0255836Y0097711D01*
X0257435Y0099309D02*
X0325365Y0099309D01*
X0323767Y0100908D02*
X0259033Y0100908D01*
X0260632Y0102506D02*
X0322168Y0102506D01*
X0320570Y0104105D02*
X0262230Y0104105D01*
X0263829Y0105703D02*
X0318971Y0105703D01*
X0317373Y0107302D02*
X0265427Y0107302D01*
X0267026Y0108900D02*
X0315774Y0108900D01*
X0314176Y0110499D02*
X0268624Y0110499D01*
X0270223Y0112097D02*
X0312577Y0112097D01*
X0310979Y0113696D02*
X0271821Y0113696D01*
X0273420Y0115294D02*
X0309380Y0115294D01*
X0307782Y0116893D02*
X0275018Y0116893D01*
X0276617Y0118491D02*
X0306183Y0118491D01*
X0304645Y0120090D02*
X0278155Y0120090D01*
X0278832Y0121688D02*
X0284768Y0121688D01*
X0282535Y0123287D02*
X0281065Y0123287D01*
X0275400Y0121800D02*
X0246600Y0093000D01*
X0181000Y0093000D01*
X0177890Y0096112D02*
X0177500Y0096112D01*
X0170143Y0091317D02*
X0163457Y0091317D01*
X0165976Y0092915D02*
X0167624Y0092915D01*
X0173356Y0089718D02*
X0142244Y0089718D01*
X0143766Y0091317D02*
X0150230Y0091317D01*
X0151500Y0091317D02*
X0152100Y0091317D01*
X0153370Y0091317D02*
X0160143Y0091317D01*
X0157624Y0092915D02*
X0155976Y0092915D01*
X0152100Y0092915D02*
X0151500Y0092915D01*
X0151500Y0094514D02*
X0152100Y0094514D01*
X0152100Y0096112D02*
X0151500Y0096112D01*
X0151500Y0097711D02*
X0152100Y0097711D01*
X0152100Y0099309D02*
X0151500Y0099309D01*
X0151500Y0100908D02*
X0152100Y0100908D01*
X0155753Y0100908D02*
X0157847Y0100908D01*
X0165753Y0100908D02*
X0167847Y0100908D01*
X0174955Y0088120D02*
X0140645Y0088120D01*
X0137800Y0089800D02*
X0136200Y0089800D01*
X0123400Y0077000D01*
X0126257Y0075332D02*
X0177800Y0075332D01*
X0177800Y0076930D02*
X0127856Y0076930D01*
X0129454Y0078529D02*
X0177800Y0078529D01*
X0177800Y0080127D02*
X0131053Y0080127D01*
X0132651Y0081726D02*
X0177800Y0081726D01*
X0177800Y0083324D02*
X0134250Y0083324D01*
X0135848Y0084923D02*
X0177800Y0084923D01*
X0176553Y0086521D02*
X0137447Y0086521D01*
X0137800Y0089800D02*
X0141000Y0093000D01*
X0141000Y0096200D01*
X0141800Y0096800D01*
X0145753Y0100908D02*
X0147847Y0100908D01*
X0137847Y0100908D02*
X0135753Y0100908D01*
X0127847Y0100908D02*
X0125753Y0100908D01*
X0122100Y0100908D02*
X0121500Y0100908D01*
X0121500Y0099309D02*
X0122100Y0099309D01*
X0122100Y0097711D02*
X0121500Y0097711D01*
X0121500Y0096112D02*
X0122100Y0096112D01*
X0122100Y0094514D02*
X0121500Y0094514D01*
X0121500Y0092915D02*
X0122100Y0092915D01*
X0125976Y0092915D02*
X0127624Y0092915D01*
X0117624Y0092915D02*
X0115976Y0092915D01*
X0115753Y0100908D02*
X0117847Y0100908D01*
X0145976Y0092915D02*
X0147624Y0092915D01*
X0177800Y0073733D02*
X0105458Y0073733D01*
X0103860Y0072134D02*
X0107225Y0072134D01*
X0106140Y0070536D02*
X0102261Y0070536D01*
X0100663Y0068937D02*
X0106100Y0068937D01*
X0106100Y0067339D02*
X0099064Y0067339D01*
X0097466Y0065740D02*
X0106100Y0065740D01*
X0106100Y0066500D02*
X0106100Y0063264D01*
X0106192Y0062800D01*
X0106373Y0062363D01*
X0106636Y0061970D01*
X0106970Y0061636D01*
X0107363Y0061373D01*
X0107800Y0061192D01*
X0108264Y0061100D01*
X0111500Y0061100D01*
X0111500Y0066500D01*
X0106100Y0066500D01*
X0106100Y0064142D02*
X0095867Y0064142D01*
X0094269Y0062543D02*
X0106298Y0062543D01*
X0111500Y0062543D02*
X0112100Y0062543D01*
X0112100Y0064142D02*
X0111500Y0064142D01*
X0111500Y0065740D02*
X0112100Y0065740D01*
X0112100Y0067339D02*
X0111500Y0067339D01*
X0111500Y0068937D02*
X0112100Y0068937D01*
X0112100Y0070536D02*
X0111500Y0070536D01*
X0111500Y0072134D02*
X0112100Y0072134D01*
X0116375Y0072134D02*
X0119784Y0072134D01*
X0117475Y0070536D02*
X0117460Y0070536D01*
X0123816Y0072134D02*
X0129784Y0072134D01*
X0127475Y0070536D02*
X0126125Y0070536D01*
X0133816Y0072134D02*
X0139772Y0072134D01*
X0141500Y0072134D02*
X0142100Y0072134D01*
X0142100Y0070536D02*
X0141500Y0070536D01*
X0141500Y0068937D02*
X0142100Y0068937D01*
X0142100Y0067339D02*
X0141500Y0067339D01*
X0141500Y0065740D02*
X0142100Y0065740D01*
X0142100Y0064142D02*
X0141500Y0064142D01*
X0141500Y0062543D02*
X0142100Y0062543D01*
X0145604Y0062543D02*
X0147996Y0062543D01*
X0155604Y0062543D02*
X0157996Y0062543D01*
X0165604Y0062543D02*
X0167996Y0062543D01*
X0171500Y0062543D02*
X0172100Y0062543D01*
X0172100Y0064142D02*
X0171500Y0064142D01*
X0171500Y0065740D02*
X0172100Y0065740D01*
X0172100Y0067100D02*
X0177500Y0067100D01*
X0177500Y0067249D01*
X0177360Y0068135D01*
X0177082Y0068988D01*
X0176675Y0069787D01*
X0176148Y0070513D01*
X0175513Y0071148D01*
X0174787Y0071675D01*
X0173988Y0072082D01*
X0173135Y0072360D01*
X0172249Y0072500D01*
X0172100Y0072500D01*
X0172100Y0067100D01*
X0172100Y0067339D02*
X0171500Y0067339D01*
X0171500Y0068937D02*
X0172100Y0068937D01*
X0172100Y0070536D02*
X0171500Y0070536D01*
X0171500Y0072134D02*
X0172100Y0072134D01*
X0173828Y0072134D02*
X0177800Y0072134D01*
X0177800Y0070536D02*
X0176125Y0070536D01*
X0177099Y0068937D02*
X0177800Y0068937D01*
X0177800Y0067339D02*
X0177486Y0067339D01*
X0177403Y0065740D02*
X0177800Y0065740D01*
X0173219Y0060945D02*
X0092670Y0060945D01*
X0091072Y0059346D02*
X0171621Y0059346D01*
X0170022Y0057748D02*
X0089473Y0057748D01*
X0087875Y0056149D02*
X0168424Y0056149D01*
X0166825Y0054551D02*
X0086276Y0054551D01*
X0084678Y0052952D02*
X0127448Y0052952D01*
X0125228Y0051354D02*
X0083079Y0051354D01*
X0081481Y0049755D02*
X0123630Y0049755D01*
X0122031Y0048157D02*
X0079882Y0048157D01*
X0077225Y0054551D02*
X0025000Y0054551D01*
X0025000Y0056149D02*
X0078824Y0056149D01*
X0080422Y0057748D02*
X0025000Y0057748D01*
X0025000Y0059346D02*
X0082021Y0059346D01*
X0083619Y0060945D02*
X0025000Y0060945D01*
X0025000Y0062543D02*
X0085218Y0062543D01*
X0086816Y0064142D02*
X0025000Y0064142D01*
X0025000Y0065740D02*
X0088415Y0065740D01*
X0086800Y0066250D02*
X0086800Y0071800D01*
X0086800Y0071800D01*
X0086800Y0071800D01*
X0081250Y0071800D01*
X0081250Y0074099D01*
X0084501Y0077350D01*
X0086800Y0077350D01*
X0086800Y0071800D01*
X0081250Y0071800D01*
X0081250Y0069501D01*
X0084501Y0066250D01*
X0086800Y0066250D01*
X0086800Y0067339D02*
X0086800Y0067339D01*
X0086800Y0068937D02*
X0086800Y0068937D01*
X0086800Y0070536D02*
X0086800Y0070536D01*
X0086800Y0072134D02*
X0086800Y0072134D01*
X0086800Y0073733D02*
X0086800Y0073733D01*
X0086800Y0075332D02*
X0086800Y0075332D01*
X0086800Y0076930D02*
X0086800Y0076930D01*
X0089519Y0076930D02*
X0099605Y0076930D01*
X0101203Y0078529D02*
X0025000Y0078529D01*
X0025000Y0080127D02*
X0103387Y0080127D01*
X0098006Y0075332D02*
X0091117Y0075332D01*
X0092350Y0073733D02*
X0096408Y0073733D01*
X0094809Y0072134D02*
X0092350Y0072134D01*
X0092350Y0070536D02*
X0093211Y0070536D01*
X0083412Y0067339D02*
X0025000Y0067339D01*
X0025000Y0068937D02*
X0081814Y0068937D01*
X0081250Y0070536D02*
X0025000Y0070536D01*
X0025000Y0072134D02*
X0081250Y0072134D01*
X0081250Y0073733D02*
X0025000Y0073733D01*
X0025000Y0075332D02*
X0082483Y0075332D01*
X0084081Y0076930D02*
X0025000Y0076930D01*
X0025000Y0088120D02*
X0082632Y0088120D01*
X0081250Y0089718D02*
X0025000Y0089718D01*
X0025000Y0091317D02*
X0081250Y0091317D01*
X0081250Y0092915D02*
X0025000Y0092915D01*
X0025000Y0094514D02*
X0081665Y0094514D01*
X0083263Y0096112D02*
X0025000Y0096112D01*
X0025000Y0123287D02*
X0167995Y0123287D01*
X0165532Y0124885D02*
X0025000Y0124885D01*
X0025000Y0126484D02*
X0163934Y0126484D01*
X0163251Y0128082D02*
X0025000Y0128082D01*
X0025000Y0129681D02*
X0162588Y0129681D01*
X0162479Y0131279D02*
X0025000Y0131279D01*
X0025000Y0132878D02*
X0162479Y0132878D01*
X0162819Y0134476D02*
X0025000Y0134476D01*
X0025000Y0136075D02*
X0163481Y0136075D01*
X0164491Y0137673D02*
X0025000Y0137673D01*
X0025000Y0139272D02*
X0166090Y0139272D01*
X0169340Y0140870D02*
X0025000Y0140870D01*
X0025000Y0142469D02*
X0498600Y0142469D01*
X0498600Y0140870D02*
X0174260Y0140870D01*
X0190099Y0131279D02*
X0193501Y0131279D01*
X0192040Y0129681D02*
X0191560Y0129681D01*
X0191065Y0123287D02*
X0192535Y0123287D01*
X0194768Y0121688D02*
X0188832Y0121688D01*
X0198832Y0121688D02*
X0204768Y0121688D01*
X0202535Y0123287D02*
X0201065Y0123287D01*
X0208832Y0121688D02*
X0214734Y0121688D01*
X0216714Y0121688D02*
X0216886Y0121688D01*
X0216886Y0123287D02*
X0216714Y0123287D01*
X0216714Y0124885D02*
X0216886Y0124885D01*
X0216886Y0126484D02*
X0216714Y0126484D01*
X0216714Y0128082D02*
X0216886Y0128082D01*
X0216886Y0129681D02*
X0216714Y0129681D01*
X0216714Y0131279D02*
X0216886Y0131279D01*
X0219992Y0131279D02*
X0223501Y0131279D01*
X0222040Y0129681D02*
X0221505Y0129681D01*
X0230099Y0131279D02*
X0233501Y0131279D01*
X0232040Y0129681D02*
X0231560Y0129681D01*
X0240099Y0131279D02*
X0243501Y0131279D01*
X0242040Y0129681D02*
X0241560Y0129681D01*
X0250099Y0131279D02*
X0253501Y0131279D01*
X0252040Y0129681D02*
X0251560Y0129681D01*
X0251065Y0123287D02*
X0252535Y0123287D01*
X0254768Y0121688D02*
X0248832Y0121688D01*
X0244768Y0121688D02*
X0238832Y0121688D01*
X0241065Y0123287D02*
X0242535Y0123287D01*
X0234768Y0121688D02*
X0228832Y0121688D01*
X0231065Y0123287D02*
X0232535Y0123287D01*
X0224768Y0121688D02*
X0218866Y0121688D01*
X0221046Y0123287D02*
X0222535Y0123287D01*
X0212554Y0123287D02*
X0211065Y0123287D01*
X0211560Y0129681D02*
X0212095Y0129681D01*
X0213608Y0131279D02*
X0210099Y0131279D01*
X0203501Y0131279D02*
X0200099Y0131279D01*
X0201560Y0129681D02*
X0202040Y0129681D01*
X0254238Y0096112D02*
X0323263Y0096112D01*
X0333000Y0104200D02*
X0333000Y0118600D01*
X0336200Y0121800D01*
X0336200Y0126600D01*
X0336800Y0126800D01*
X0341960Y0124885D02*
X0343436Y0124885D01*
X0342774Y0126484D02*
X0342300Y0126484D01*
X0342222Y0128082D02*
X0342479Y0128082D01*
X0342479Y0129681D02*
X0341560Y0129681D01*
X0342634Y0131279D02*
X0340099Y0131279D01*
X0333501Y0131279D02*
X0330099Y0131279D01*
X0331560Y0129681D02*
X0332040Y0129681D01*
X0332535Y0123287D02*
X0331065Y0123287D01*
X0331563Y0121688D02*
X0328832Y0121688D01*
X0324768Y0121688D02*
X0318832Y0121688D01*
X0321065Y0123287D02*
X0322535Y0123287D01*
X0322040Y0129681D02*
X0321560Y0129681D01*
X0320099Y0131279D02*
X0323501Y0131279D01*
X0313501Y0131279D02*
X0310099Y0131279D01*
X0311560Y0129681D02*
X0312040Y0129681D01*
X0303501Y0131279D02*
X0300099Y0131279D01*
X0301560Y0129681D02*
X0302040Y0129681D01*
X0293501Y0131279D02*
X0290099Y0131279D01*
X0291560Y0129681D02*
X0292040Y0129681D01*
X0292535Y0123287D02*
X0291065Y0123287D01*
X0288832Y0121688D02*
X0294768Y0121688D01*
X0298832Y0121688D02*
X0304200Y0121688D01*
X0302535Y0123287D02*
X0301065Y0123287D01*
X0338955Y0120090D02*
X0349074Y0120090D01*
X0345979Y0121688D02*
X0339400Y0121688D01*
X0341065Y0123287D02*
X0344381Y0123287D01*
X0365753Y0100908D02*
X0367847Y0100908D01*
X0367624Y0092915D02*
X0365976Y0092915D01*
X0347747Y0080127D02*
X0342600Y0080127D01*
X0342600Y0078529D02*
X0349346Y0078529D01*
X0350944Y0076930D02*
X0342600Y0076930D01*
X0342600Y0075332D02*
X0352543Y0075332D01*
X0346149Y0081726D02*
X0342600Y0081726D01*
X0342600Y0083324D02*
X0344550Y0083324D01*
X0342952Y0084923D02*
X0342600Y0084923D01*
X0336200Y0083324D02*
X0184200Y0083324D01*
X0184200Y0081726D02*
X0336200Y0081726D01*
X0336200Y0080127D02*
X0184200Y0080127D01*
X0184200Y0078529D02*
X0336200Y0078529D01*
X0324081Y0076930D02*
X0184200Y0076930D01*
X0184200Y0075332D02*
X0322483Y0075332D01*
X0321250Y0073733D02*
X0184200Y0073733D01*
X0184200Y0072134D02*
X0321250Y0072134D01*
X0321250Y0070536D02*
X0184200Y0070536D01*
X0184200Y0068937D02*
X0321814Y0068937D01*
X0323412Y0067339D02*
X0184200Y0067339D01*
X0169772Y0072134D02*
X0163816Y0072134D01*
X0166125Y0070536D02*
X0167475Y0070536D01*
X0159784Y0072134D02*
X0153816Y0072134D01*
X0156125Y0070536D02*
X0157475Y0070536D01*
X0149784Y0072134D02*
X0143828Y0072134D01*
X0146125Y0070536D02*
X0147475Y0070536D01*
X0137475Y0070536D02*
X0136125Y0070536D01*
X0135604Y0062543D02*
X0137996Y0062543D01*
X0127996Y0062543D02*
X0125604Y0062543D01*
X0117996Y0062543D02*
X0117302Y0062543D01*
X0135242Y0044960D02*
X0148326Y0044960D01*
X0146932Y0043361D02*
X0136618Y0043361D01*
X0137273Y0041763D02*
X0146270Y0041763D01*
X0146172Y0040164D02*
X0137428Y0040164D01*
X0137428Y0038566D02*
X0146136Y0038566D01*
X0126352Y0043361D02*
X0126287Y0043361D01*
X0125697Y0041763D02*
X0125000Y0041763D01*
X0125000Y0040164D02*
X0125542Y0040164D01*
X0125542Y0038566D02*
X0124587Y0038566D01*
X0177743Y0036967D02*
X0191104Y0036967D01*
X0191866Y0036967D02*
X0205915Y0036967D01*
X0205915Y0035369D02*
X0197428Y0035369D01*
X0197428Y0033770D02*
X0205915Y0033770D01*
X0205915Y0032172D02*
X0197331Y0032172D01*
X0196788Y0030573D02*
X0205915Y0030573D01*
X0205915Y0028975D02*
X0195608Y0028975D01*
X0191866Y0028975D02*
X0191104Y0028975D01*
X0191104Y0030573D02*
X0191866Y0030573D01*
X0191866Y0032172D02*
X0191104Y0032172D01*
X0191104Y0033770D02*
X0191866Y0033770D01*
X0191866Y0035369D02*
X0191104Y0035369D01*
X0191866Y0037181D02*
X0197428Y0037181D01*
X0197428Y0040811D01*
X0197282Y0041735D01*
X0196993Y0042625D01*
X0196568Y0043458D01*
X0196018Y0044215D01*
X0195357Y0044877D01*
X0194600Y0045426D01*
X0193766Y0045851D01*
X0192877Y0046140D01*
X0191953Y0046287D01*
X0191866Y0046287D01*
X0191866Y0037181D01*
X0191866Y0038566D02*
X0191104Y0038566D01*
X0191104Y0040164D02*
X0191866Y0040164D01*
X0191866Y0041763D02*
X0191104Y0041763D01*
X0191104Y0043361D02*
X0191866Y0043361D01*
X0191866Y0044960D02*
X0191104Y0044960D01*
X0195242Y0044960D02*
X0208326Y0044960D01*
X0206932Y0043361D02*
X0196618Y0043361D01*
X0197273Y0041763D02*
X0206270Y0041763D01*
X0206172Y0040164D02*
X0197428Y0040164D01*
X0197428Y0038566D02*
X0206136Y0038566D01*
X0215904Y0044960D02*
X0228011Y0044960D01*
X0228433Y0045382D02*
X0226762Y0043710D01*
X0225857Y0041526D01*
X0225857Y0032074D01*
X0226762Y0029890D01*
X0228433Y0028218D01*
X0230618Y0027313D01*
X0232982Y0027313D01*
X0235167Y0028218D01*
X0236838Y0029890D01*
X0237743Y0032074D01*
X0237743Y0041526D01*
X0236838Y0043710D01*
X0235167Y0045382D01*
X0232982Y0046287D01*
X0230618Y0046287D01*
X0228433Y0045382D01*
X0226617Y0043361D02*
X0217298Y0043361D01*
X0217960Y0041763D02*
X0225955Y0041763D01*
X0225857Y0040164D02*
X0218058Y0040164D01*
X0218094Y0038566D02*
X0225857Y0038566D01*
X0225857Y0036967D02*
X0218315Y0036967D01*
X0218315Y0035369D02*
X0225857Y0035369D01*
X0225857Y0033770D02*
X0218315Y0033770D01*
X0218315Y0032172D02*
X0225857Y0032172D01*
X0226479Y0030573D02*
X0218315Y0030573D01*
X0218315Y0028975D02*
X0227677Y0028975D01*
X0230466Y0027376D02*
X0218315Y0027376D01*
X0218315Y0025778D02*
X0265915Y0025778D01*
X0265915Y0027376D02*
X0252349Y0027376D01*
X0251953Y0027313D02*
X0252877Y0027460D01*
X0253766Y0027749D01*
X0254600Y0028174D01*
X0255357Y0028723D01*
X0256018Y0029385D01*
X0256568Y0030142D01*
X0256993Y0030975D01*
X0257282Y0031865D01*
X0257428Y0032789D01*
X0257428Y0036419D01*
X0251866Y0036419D01*
X0251866Y0027313D01*
X0251953Y0027313D01*
X0251866Y0027376D02*
X0251104Y0027376D01*
X0251104Y0027313D02*
X0251104Y0036419D01*
X0245542Y0036419D01*
X0245542Y0032789D01*
X0245688Y0031865D01*
X0245977Y0030975D01*
X0246402Y0030142D01*
X0246952Y0029385D01*
X0247613Y0028723D01*
X0248370Y0028174D01*
X0249204Y0027749D01*
X0250093Y0027460D01*
X0251017Y0027313D01*
X0251104Y0027313D01*
X0250621Y0027376D02*
X0233134Y0027376D01*
X0235923Y0028975D02*
X0247362Y0028975D01*
X0246182Y0030573D02*
X0237121Y0030573D01*
X0237743Y0032172D02*
X0245639Y0032172D01*
X0245542Y0033770D02*
X0237743Y0033770D01*
X0237743Y0035369D02*
X0245542Y0035369D01*
X0245542Y0037181D02*
X0251104Y0037181D01*
X0251104Y0036419D01*
X0251866Y0036419D01*
X0251866Y0037181D01*
X0251104Y0037181D01*
X0251104Y0046287D01*
X0251017Y0046287D01*
X0250093Y0046140D01*
X0249204Y0045851D01*
X0248370Y0045426D01*
X0247613Y0044877D01*
X0246952Y0044215D01*
X0246402Y0043458D01*
X0245977Y0042625D01*
X0245688Y0041735D01*
X0245542Y0040811D01*
X0245542Y0037181D01*
X0245542Y0038566D02*
X0237743Y0038566D01*
X0237743Y0040164D02*
X0245542Y0040164D01*
X0245697Y0041763D02*
X0237645Y0041763D01*
X0236983Y0043361D02*
X0246352Y0043361D01*
X0247728Y0044960D02*
X0235589Y0044960D01*
X0237743Y0036967D02*
X0251104Y0036967D01*
X0251866Y0036967D02*
X0265915Y0036967D01*
X0265915Y0035369D02*
X0257428Y0035369D01*
X0257428Y0033770D02*
X0265915Y0033770D01*
X0265915Y0032172D02*
X0257331Y0032172D01*
X0256788Y0030573D02*
X0265915Y0030573D01*
X0265915Y0028975D02*
X0255608Y0028975D01*
X0251866Y0028975D02*
X0251104Y0028975D01*
X0251104Y0030573D02*
X0251866Y0030573D01*
X0251866Y0032172D02*
X0251104Y0032172D01*
X0251104Y0033770D02*
X0251866Y0033770D01*
X0251866Y0035369D02*
X0251104Y0035369D01*
X0251866Y0037181D02*
X0257428Y0037181D01*
X0257428Y0040811D01*
X0257282Y0041735D01*
X0256993Y0042625D01*
X0256568Y0043458D01*
X0256018Y0044215D01*
X0255357Y0044877D01*
X0254600Y0045426D01*
X0253766Y0045851D01*
X0252877Y0046140D01*
X0251953Y0046287D01*
X0251866Y0046287D01*
X0251866Y0037181D01*
X0251866Y0038566D02*
X0251104Y0038566D01*
X0251104Y0040164D02*
X0251866Y0040164D01*
X0251866Y0041763D02*
X0251104Y0041763D01*
X0251104Y0043361D02*
X0251866Y0043361D01*
X0251866Y0044960D02*
X0251104Y0044960D01*
X0255242Y0044960D02*
X0268326Y0044960D01*
X0266932Y0043361D02*
X0256618Y0043361D01*
X0257273Y0041763D02*
X0266270Y0041763D01*
X0266172Y0040164D02*
X0257428Y0040164D01*
X0257428Y0038566D02*
X0266136Y0038566D01*
X0275904Y0044960D02*
X0288011Y0044960D01*
X0288433Y0045382D02*
X0286762Y0043710D01*
X0285857Y0041526D01*
X0285857Y0032074D01*
X0286762Y0029890D01*
X0288433Y0028218D01*
X0290618Y0027313D01*
X0292982Y0027313D01*
X0295167Y0028218D01*
X0296838Y0029890D01*
X0297743Y0032074D01*
X0297743Y0041526D01*
X0296838Y0043710D01*
X0295167Y0045382D01*
X0292982Y0046287D01*
X0290618Y0046287D01*
X0288433Y0045382D01*
X0286617Y0043361D02*
X0277298Y0043361D01*
X0277960Y0041763D02*
X0285955Y0041763D01*
X0285857Y0040164D02*
X0278058Y0040164D01*
X0278094Y0038566D02*
X0285857Y0038566D01*
X0285857Y0036967D02*
X0278315Y0036967D01*
X0278315Y0035369D02*
X0285857Y0035369D01*
X0285857Y0033770D02*
X0278315Y0033770D01*
X0278315Y0032172D02*
X0285857Y0032172D01*
X0286479Y0030573D02*
X0278315Y0030573D01*
X0278315Y0028975D02*
X0287677Y0028975D01*
X0290466Y0027376D02*
X0278315Y0027376D01*
X0278315Y0025778D02*
X0325915Y0025778D01*
X0325915Y0027376D02*
X0312349Y0027376D01*
X0311953Y0027313D02*
X0312877Y0027460D01*
X0313766Y0027749D01*
X0314600Y0028174D01*
X0315357Y0028723D01*
X0316018Y0029385D01*
X0316568Y0030142D01*
X0316993Y0030975D01*
X0317282Y0031865D01*
X0317428Y0032789D01*
X0317428Y0036419D01*
X0311866Y0036419D01*
X0311866Y0027313D01*
X0311953Y0027313D01*
X0311866Y0027376D02*
X0311104Y0027376D01*
X0311104Y0027313D02*
X0311104Y0036419D01*
X0305542Y0036419D01*
X0305542Y0032789D01*
X0305688Y0031865D01*
X0305977Y0030975D01*
X0306402Y0030142D01*
X0306952Y0029385D01*
X0307613Y0028723D01*
X0308370Y0028174D01*
X0309204Y0027749D01*
X0310093Y0027460D01*
X0311017Y0027313D01*
X0311104Y0027313D01*
X0310621Y0027376D02*
X0293134Y0027376D01*
X0295923Y0028975D02*
X0307362Y0028975D01*
X0306182Y0030573D02*
X0297121Y0030573D01*
X0297743Y0032172D02*
X0305639Y0032172D01*
X0305542Y0033770D02*
X0297743Y0033770D01*
X0297743Y0035369D02*
X0305542Y0035369D01*
X0305542Y0037181D02*
X0311104Y0037181D01*
X0311104Y0036419D01*
X0311866Y0036419D01*
X0311866Y0037181D01*
X0311104Y0037181D01*
X0311104Y0046287D01*
X0311017Y0046287D01*
X0310093Y0046140D01*
X0309204Y0045851D01*
X0308370Y0045426D01*
X0307613Y0044877D01*
X0306952Y0044215D01*
X0306402Y0043458D01*
X0305977Y0042625D01*
X0305688Y0041735D01*
X0305542Y0040811D01*
X0305542Y0037181D01*
X0305542Y0038566D02*
X0297743Y0038566D01*
X0297743Y0040164D02*
X0305542Y0040164D01*
X0305697Y0041763D02*
X0297645Y0041763D01*
X0296983Y0043361D02*
X0306352Y0043361D01*
X0307728Y0044960D02*
X0295589Y0044960D01*
X0297743Y0036967D02*
X0311104Y0036967D01*
X0311866Y0036967D02*
X0325915Y0036967D01*
X0325915Y0035369D02*
X0317428Y0035369D01*
X0317428Y0033770D02*
X0325915Y0033770D01*
X0325915Y0032172D02*
X0317331Y0032172D01*
X0316788Y0030573D02*
X0325915Y0030573D01*
X0325915Y0028975D02*
X0315608Y0028975D01*
X0311866Y0028975D02*
X0311104Y0028975D01*
X0311104Y0030573D02*
X0311866Y0030573D01*
X0311866Y0032172D02*
X0311104Y0032172D01*
X0311104Y0033770D02*
X0311866Y0033770D01*
X0311866Y0035369D02*
X0311104Y0035369D01*
X0311866Y0037181D02*
X0317428Y0037181D01*
X0317428Y0040811D01*
X0317282Y0041735D01*
X0316993Y0042625D01*
X0316568Y0043458D01*
X0316018Y0044215D01*
X0315357Y0044877D01*
X0314600Y0045426D01*
X0313766Y0045851D01*
X0312877Y0046140D01*
X0311953Y0046287D01*
X0311866Y0046287D01*
X0311866Y0037181D01*
X0311866Y0038566D02*
X0311104Y0038566D01*
X0311104Y0040164D02*
X0311866Y0040164D01*
X0311866Y0041763D02*
X0311104Y0041763D01*
X0311104Y0043361D02*
X0311866Y0043361D01*
X0311866Y0044960D02*
X0311104Y0044960D01*
X0315242Y0044960D02*
X0328326Y0044960D01*
X0326932Y0043361D02*
X0316618Y0043361D01*
X0317273Y0041763D02*
X0326270Y0041763D01*
X0326172Y0040164D02*
X0317428Y0040164D01*
X0317428Y0038566D02*
X0326136Y0038566D01*
X0332115Y0036800D02*
X0333000Y0035400D01*
X0338094Y0038566D02*
X0345857Y0038566D01*
X0345857Y0040164D02*
X0338058Y0040164D01*
X0337960Y0041763D02*
X0345955Y0041763D01*
X0346617Y0043361D02*
X0337298Y0043361D01*
X0335904Y0044960D02*
X0348011Y0044960D01*
X0385604Y0062543D02*
X0386018Y0062543D01*
X0395604Y0062543D02*
X0397996Y0062543D01*
X0405604Y0062543D02*
X0407996Y0062543D01*
X0415876Y0054551D02*
X0498600Y0054551D01*
X0498600Y0056149D02*
X0417475Y0056149D01*
X0419073Y0057748D02*
X0498600Y0057748D01*
X0498600Y0059346D02*
X0420672Y0059346D01*
X0414278Y0052952D02*
X0498600Y0052952D01*
X0498600Y0051354D02*
X0412679Y0051354D01*
X0411081Y0049755D02*
X0498600Y0049755D01*
X0498600Y0048157D02*
X0409482Y0048157D01*
X0410143Y0091317D02*
X0403457Y0091317D01*
X0405976Y0092915D02*
X0407624Y0092915D01*
X0407847Y0100908D02*
X0405753Y0100908D01*
X0397847Y0100908D02*
X0395753Y0100908D01*
X0498600Y0144068D02*
X0025000Y0144068D01*
X0025000Y0145666D02*
X0498600Y0145666D01*
X0498600Y0147265D02*
X0025000Y0147265D01*
X0025000Y0148863D02*
X0498600Y0148863D01*
X0498600Y0150462D02*
X0025000Y0150462D01*
X0025000Y0152060D02*
X0038468Y0152060D01*
X0034362Y0153659D02*
X0025000Y0153659D01*
X0045132Y0152060D02*
X0498600Y0152060D01*
X0498600Y0153659D02*
X0049238Y0153659D01*
X0051612Y0155257D02*
X0498600Y0155257D01*
X0498600Y0156856D02*
X0121991Y0156856D01*
X0121873Y0156796D02*
X0122630Y0157182D01*
X0123318Y0157681D01*
X0123919Y0158282D01*
X0124418Y0158970D01*
X0124804Y0159727D01*
X0125067Y0160535D01*
X0125200Y0161375D01*
X0125200Y0161600D01*
X0117000Y0161600D01*
X0117000Y0162000D01*
X0125200Y0162000D01*
X0125200Y0162225D01*
X0125067Y0163065D01*
X0124804Y0163873D01*
X0124418Y0164630D01*
X0123919Y0165318D01*
X0123318Y0165919D01*
X0122630Y0166418D01*
X0121873Y0166804D01*
X0121860Y0166808D01*
X0122859Y0167222D01*
X0124378Y0168741D01*
X0125200Y0170726D01*
X0125200Y0172874D01*
X0124378Y0174859D01*
X0122859Y0176378D01*
X0120874Y0177200D01*
X0112726Y0177200D01*
X0110741Y0176378D01*
X0109222Y0174859D01*
X0108400Y0172874D01*
X0108400Y0170726D01*
X0109222Y0168741D01*
X0110741Y0167222D01*
X0111740Y0166808D01*
X0111727Y0166804D01*
X0110970Y0166418D01*
X0110282Y0165919D01*
X0109681Y0165318D01*
X0109182Y0164630D01*
X0108796Y0163873D01*
X0108533Y0163065D01*
X0108400Y0162225D01*
X0108400Y0162000D01*
X0116600Y0162000D01*
X0116600Y0161600D01*
X0117000Y0161600D01*
X0117000Y0156400D01*
X0120225Y0156400D01*
X0121065Y0156533D01*
X0121873Y0156796D01*
X0124044Y0158454D02*
X0498600Y0158454D01*
X0498600Y0160053D02*
X0124910Y0160053D01*
X0125007Y0163250D02*
X0498600Y0163250D01*
X0498600Y0164848D02*
X0124260Y0164848D01*
X0122575Y0166447D02*
X0498600Y0166447D01*
X0498600Y0168045D02*
X0123682Y0168045D01*
X0124752Y0169644D02*
X0498600Y0169644D01*
X0498600Y0171242D02*
X0125200Y0171242D01*
X0125200Y0172841D02*
X0498600Y0172841D01*
X0498600Y0174439D02*
X0124552Y0174439D01*
X0123199Y0176038D02*
X0498600Y0176038D01*
X0498600Y0177636D02*
X0052318Y0177636D01*
X0053903Y0176038D02*
X0110401Y0176038D01*
X0109048Y0174439D02*
X0054825Y0174439D01*
X0055748Y0172841D02*
X0108400Y0172841D01*
X0108400Y0171242D02*
X0056242Y0171242D01*
X0056671Y0169644D02*
X0108848Y0169644D01*
X0109918Y0168045D02*
X0056900Y0168045D01*
X0056900Y0166447D02*
X0111025Y0166447D01*
X0109340Y0164848D02*
X0056900Y0164848D01*
X0056481Y0163250D02*
X0108593Y0163250D01*
X0108400Y0161600D02*
X0108400Y0161375D01*
X0108533Y0160535D01*
X0108796Y0159727D01*
X0109182Y0158970D01*
X0109681Y0158282D01*
X0110282Y0157681D01*
X0110970Y0157182D01*
X0111727Y0156796D01*
X0112535Y0156533D01*
X0113375Y0156400D01*
X0116600Y0156400D01*
X0116600Y0161600D01*
X0108400Y0161600D01*
X0108690Y0160053D02*
X0055340Y0160053D01*
X0056053Y0161651D02*
X0116600Y0161651D01*
X0117000Y0161651D02*
X0498600Y0161651D01*
X0498600Y0179235D02*
X0050462Y0179235D01*
X0047694Y0180833D02*
X0498600Y0180833D01*
X0498600Y0182432D02*
X0025000Y0182432D01*
X0025000Y0184030D02*
X0498600Y0184030D01*
X0498600Y0185629D02*
X0025000Y0185629D01*
X0025000Y0187227D02*
X0498600Y0187227D01*
X0498600Y0188826D02*
X0025000Y0188826D01*
X0025000Y0190424D02*
X0498600Y0190424D01*
X0498600Y0192023D02*
X0025000Y0192023D01*
X0025000Y0193621D02*
X0167187Y0193621D01*
X0166520Y0193898D02*
X0169946Y0192479D01*
X0173654Y0192479D01*
X0177080Y0193898D01*
X0179702Y0196520D01*
X0181121Y0199946D01*
X0181121Y0203654D01*
X0179702Y0207080D01*
X0177080Y0209702D01*
X0173654Y0211121D01*
X0169946Y0211121D01*
X0166520Y0209702D01*
X0163898Y0207080D01*
X0162479Y0203654D01*
X0162479Y0199946D01*
X0163898Y0196520D01*
X0166520Y0193898D01*
X0165198Y0195220D02*
X0025000Y0195220D01*
X0025000Y0196818D02*
X0163774Y0196818D01*
X0163112Y0198417D02*
X0025000Y0198417D01*
X0025000Y0200015D02*
X0162479Y0200015D01*
X0162479Y0201614D02*
X0025000Y0201614D01*
X0025000Y0203212D02*
X0162479Y0203212D01*
X0162958Y0204811D02*
X0025000Y0204811D01*
X0025000Y0206409D02*
X0163620Y0206409D01*
X0164826Y0208008D02*
X0025000Y0208008D01*
X0025000Y0209606D02*
X0166424Y0209606D01*
X0177176Y0209606D02*
X0222009Y0209606D01*
X0221347Y0208008D02*
X0178774Y0208008D01*
X0179980Y0206409D02*
X0221300Y0206409D01*
X0221671Y0204811D02*
X0180642Y0204811D01*
X0181121Y0203212D02*
X0222609Y0203212D01*
X0224948Y0201614D02*
X0181121Y0201614D01*
X0181121Y0200015D02*
X0343485Y0200015D01*
X0343898Y0199020D02*
X0346520Y0196398D01*
X0349946Y0194979D01*
X0353654Y0194979D01*
X0357080Y0196398D01*
X0359702Y0199020D01*
X0361121Y0202446D01*
X0361121Y0206154D01*
X0359702Y0209580D01*
X0357080Y0212202D01*
X0353654Y0213621D01*
X0349946Y0213621D01*
X0346520Y0212202D01*
X0343898Y0209580D01*
X0342479Y0206154D01*
X0342479Y0202446D01*
X0343898Y0199020D01*
X0344501Y0198417D02*
X0180488Y0198417D01*
X0179826Y0196818D02*
X0346099Y0196818D01*
X0349364Y0195220D02*
X0178402Y0195220D01*
X0176413Y0193621D02*
X0498600Y0193621D01*
X0498600Y0195220D02*
X0354236Y0195220D01*
X0357501Y0196818D02*
X0498600Y0196818D01*
X0498600Y0198417D02*
X0359099Y0198417D01*
X0360115Y0200015D02*
X0498600Y0200015D01*
X0498600Y0201614D02*
X0360777Y0201614D01*
X0361121Y0203212D02*
X0498600Y0203212D01*
X0498600Y0204811D02*
X0361121Y0204811D01*
X0361015Y0206409D02*
X0498600Y0206409D01*
X0498600Y0208008D02*
X0360353Y0208008D01*
X0359676Y0209606D02*
X0498600Y0209606D01*
X0498600Y0211205D02*
X0358077Y0211205D01*
X0355628Y0212803D02*
X0498600Y0212803D01*
X0498600Y0214402D02*
X0332527Y0214402D01*
X0330929Y0212803D02*
X0347972Y0212803D01*
X0345523Y0211205D02*
X0340173Y0211205D01*
X0341591Y0209606D02*
X0343924Y0209606D01*
X0343247Y0208008D02*
X0342253Y0208008D01*
X0342300Y0206409D02*
X0342585Y0206409D01*
X0342479Y0204811D02*
X0341929Y0204811D01*
X0342479Y0203212D02*
X0340991Y0203212D01*
X0342823Y0201614D02*
X0338652Y0201614D01*
X0334948Y0201614D02*
X0328652Y0201614D01*
X0330991Y0203212D02*
X0332609Y0203212D01*
X0326800Y0206800D02*
X0326600Y0208200D01*
X0326600Y0213000D01*
X0334600Y0221000D01*
X0408200Y0221000D01*
X0421000Y0233800D01*
X0421000Y0240200D01*
X0401800Y0259400D01*
X0401800Y0266800D01*
X0398182Y0262357D02*
X0395383Y0262357D01*
X0396748Y0263956D02*
X0396808Y0263956D01*
X0398600Y0260759D02*
X0388619Y0260759D01*
X0388217Y0262357D02*
X0385418Y0262357D01*
X0386792Y0263956D02*
X0386852Y0263956D01*
X0391500Y0263956D02*
X0392100Y0263956D01*
X0392100Y0265554D02*
X0391500Y0265554D01*
X0391500Y0267153D02*
X0392100Y0267153D01*
X0392100Y0268751D02*
X0391500Y0268751D01*
X0391500Y0270350D02*
X0392100Y0270350D01*
X0392100Y0271948D02*
X0391500Y0271948D01*
X0389349Y0271948D02*
X0384265Y0271948D01*
X0386311Y0270350D02*
X0387334Y0270350D01*
X0379335Y0271948D02*
X0374265Y0271948D01*
X0376311Y0270350D02*
X0377289Y0270350D01*
X0376808Y0263956D02*
X0376792Y0263956D01*
X0375418Y0262357D02*
X0378182Y0262357D01*
X0387400Y0257800D02*
X0347400Y0257800D01*
X0342600Y0262600D01*
X0342600Y0293000D01*
X0349000Y0299400D01*
X0350600Y0299400D01*
X0352200Y0297800D01*
X0351800Y0296800D01*
X0357743Y0297525D02*
X0365285Y0297525D01*
X0365285Y0299123D02*
X0357743Y0299123D01*
X0357743Y0300722D02*
X0365285Y0300722D01*
X0365285Y0302320D02*
X0357414Y0302320D01*
X0356630Y0303919D02*
X0365285Y0303919D01*
X0365285Y0305517D02*
X0354840Y0305517D01*
X0348760Y0305517D02*
X0335052Y0305517D01*
X0335230Y0305426D02*
X0334396Y0305851D01*
X0333507Y0306140D01*
X0332583Y0306287D01*
X0332496Y0306287D01*
X0332496Y0297181D01*
X0338058Y0297181D01*
X0338058Y0300811D01*
X0337912Y0301735D01*
X0337623Y0302625D01*
X0337198Y0303458D01*
X0336648Y0304215D01*
X0335987Y0304877D01*
X0335230Y0305426D01*
X0336864Y0303919D02*
X0346970Y0303919D01*
X0346186Y0302320D02*
X0337722Y0302320D01*
X0338058Y0300722D02*
X0345796Y0300722D01*
X0344198Y0299123D02*
X0338058Y0299123D01*
X0338058Y0297525D02*
X0342599Y0297525D01*
X0341001Y0295926D02*
X0338058Y0295926D01*
X0338058Y0296419D02*
X0332496Y0296419D01*
X0332496Y0297181D01*
X0331734Y0297181D01*
X0331734Y0306287D01*
X0331647Y0306287D01*
X0330723Y0306140D01*
X0329834Y0305851D01*
X0329000Y0305426D01*
X0328243Y0304877D01*
X0327582Y0304215D01*
X0327032Y0303458D01*
X0326607Y0302625D01*
X0326318Y0301735D01*
X0326172Y0300811D01*
X0326172Y0297181D01*
X0331734Y0297181D01*
X0331734Y0296419D01*
X0332496Y0296419D01*
X0332496Y0287313D01*
X0332583Y0287313D01*
X0333507Y0287460D01*
X0334396Y0287749D01*
X0335230Y0288174D01*
X0335987Y0288723D01*
X0336648Y0289385D01*
X0337198Y0290142D01*
X0337623Y0290975D01*
X0337912Y0291865D01*
X0338058Y0292789D01*
X0338058Y0296419D01*
X0338058Y0294328D02*
X0339686Y0294328D01*
X0339400Y0292729D02*
X0338049Y0292729D01*
X0337673Y0291131D02*
X0339400Y0291131D01*
X0339400Y0289532D02*
X0336755Y0289532D01*
X0334759Y0287934D02*
X0339400Y0287934D01*
X0339400Y0286335D02*
X0319876Y0286335D01*
X0321789Y0284737D02*
X0339400Y0284737D01*
X0339400Y0283138D02*
X0323387Y0283138D01*
X0324986Y0281539D02*
X0339400Y0281539D01*
X0339400Y0279941D02*
X0326584Y0279941D01*
X0328183Y0278342D02*
X0339400Y0278342D01*
X0339400Y0276744D02*
X0329782Y0276744D01*
X0331380Y0275145D02*
X0339400Y0275145D01*
X0339400Y0273547D02*
X0332979Y0273547D01*
X0334577Y0271948D02*
X0339400Y0271948D01*
X0339400Y0270350D02*
X0336176Y0270350D01*
X0337774Y0268751D02*
X0339400Y0268751D01*
X0339400Y0267153D02*
X0339103Y0267153D01*
X0339400Y0265554D02*
X0339400Y0265554D01*
X0336200Y0265800D02*
X0318600Y0283400D01*
X0307400Y0283400D01*
X0301000Y0289800D01*
X0301000Y0293000D01*
X0294600Y0299400D01*
X0293000Y0299400D01*
X0291400Y0297800D01*
X0291800Y0296800D01*
X0285857Y0297525D02*
X0278058Y0297525D01*
X0278058Y0297181D02*
X0278058Y0300811D01*
X0277912Y0301735D01*
X0277623Y0302625D01*
X0277198Y0303458D01*
X0276648Y0304215D01*
X0275987Y0304877D01*
X0275230Y0305426D01*
X0274396Y0305851D01*
X0273507Y0306140D01*
X0272583Y0306287D01*
X0272496Y0306287D01*
X0272496Y0297181D01*
X0278058Y0297181D01*
X0278058Y0296419D02*
X0272496Y0296419D01*
X0272496Y0297181D01*
X0271734Y0297181D01*
X0271734Y0306287D01*
X0271647Y0306287D01*
X0270723Y0306140D01*
X0269834Y0305851D01*
X0269000Y0305426D01*
X0268243Y0304877D01*
X0267582Y0304215D01*
X0267032Y0303458D01*
X0266607Y0302625D01*
X0266318Y0301735D01*
X0266172Y0300811D01*
X0266172Y0297181D01*
X0271734Y0297181D01*
X0271734Y0296419D01*
X0272496Y0296419D01*
X0272496Y0287313D01*
X0272583Y0287313D01*
X0273507Y0287460D01*
X0274396Y0287749D01*
X0275230Y0288174D01*
X0275987Y0288723D01*
X0276648Y0289385D01*
X0277198Y0290142D01*
X0277623Y0290975D01*
X0277912Y0291865D01*
X0278058Y0292789D01*
X0278058Y0296419D01*
X0278058Y0295926D02*
X0285857Y0295926D01*
X0285857Y0294328D02*
X0278058Y0294328D01*
X0278049Y0292729D02*
X0285857Y0292729D01*
X0286248Y0291131D02*
X0277673Y0291131D01*
X0276755Y0289532D02*
X0287120Y0289532D01*
X0289121Y0287934D02*
X0274759Y0287934D01*
X0272496Y0287934D02*
X0271734Y0287934D01*
X0271734Y0287313D02*
X0271734Y0296419D01*
X0266172Y0296419D01*
X0266172Y0292789D01*
X0266318Y0291865D01*
X0266607Y0290975D01*
X0267032Y0290142D01*
X0267582Y0289385D01*
X0268243Y0288723D01*
X0269000Y0288174D01*
X0269834Y0287749D01*
X0270723Y0287460D01*
X0271647Y0287313D01*
X0271734Y0287313D01*
X0271734Y0289532D02*
X0272496Y0289532D01*
X0272496Y0291131D02*
X0271734Y0291131D01*
X0271734Y0292729D02*
X0272496Y0292729D01*
X0272496Y0294328D02*
X0271734Y0294328D01*
X0271734Y0295926D02*
X0272496Y0295926D01*
X0272496Y0297525D02*
X0271734Y0297525D01*
X0271734Y0299123D02*
X0272496Y0299123D01*
X0272496Y0300722D02*
X0271734Y0300722D01*
X0271734Y0302320D02*
X0272496Y0302320D01*
X0272496Y0303919D02*
X0271734Y0303919D01*
X0271734Y0305517D02*
X0272496Y0305517D01*
X0275052Y0305517D02*
X0288760Y0305517D01*
X0286970Y0303919D02*
X0276864Y0303919D01*
X0277722Y0302320D02*
X0286186Y0302320D01*
X0285857Y0300722D02*
X0278058Y0300722D01*
X0278058Y0299123D02*
X0285857Y0299123D01*
X0294840Y0305517D02*
X0305285Y0305517D01*
X0305285Y0303919D02*
X0296630Y0303919D01*
X0297414Y0302320D02*
X0305285Y0302320D01*
X0305285Y0300722D02*
X0297804Y0300722D01*
X0299402Y0299123D02*
X0305285Y0299123D01*
X0305285Y0297525D02*
X0301001Y0297525D01*
X0302599Y0295926D02*
X0305285Y0295926D01*
X0305542Y0294328D02*
X0303914Y0294328D01*
X0304200Y0292729D02*
X0305542Y0292729D01*
X0305933Y0291131D02*
X0304200Y0291131D01*
X0305793Y0289532D02*
X0306805Y0289532D01*
X0307392Y0287934D02*
X0308806Y0287934D01*
X0301538Y0284737D02*
X0220462Y0284737D01*
X0222060Y0286335D02*
X0299939Y0286335D01*
X0298341Y0287934D02*
X0294479Y0287934D01*
X0296480Y0289532D02*
X0297800Y0289532D01*
X0297800Y0291131D02*
X0297352Y0291131D01*
X0303137Y0283138D02*
X0218863Y0283138D01*
X0217265Y0281539D02*
X0304735Y0281539D01*
X0314164Y0287934D02*
X0329471Y0287934D01*
X0329834Y0287749D02*
X0330723Y0287460D01*
X0331647Y0287313D01*
X0331734Y0287313D01*
X0331734Y0296419D01*
X0326172Y0296419D01*
X0326172Y0292789D01*
X0326318Y0291865D01*
X0326607Y0290975D01*
X0327032Y0290142D01*
X0327582Y0289385D01*
X0328243Y0288723D01*
X0329000Y0288174D01*
X0329834Y0287749D01*
X0331734Y0287934D02*
X0332496Y0287934D01*
X0332496Y0289532D02*
X0331734Y0289532D01*
X0331734Y0291131D02*
X0332496Y0291131D01*
X0332496Y0292729D02*
X0331734Y0292729D01*
X0331734Y0294328D02*
X0332496Y0294328D01*
X0332496Y0295926D02*
X0331734Y0295926D01*
X0331734Y0297525D02*
X0332496Y0297525D01*
X0332496Y0299123D02*
X0331734Y0299123D01*
X0331734Y0300722D02*
X0332496Y0300722D01*
X0332496Y0302320D02*
X0331734Y0302320D01*
X0331734Y0303919D02*
X0332496Y0303919D01*
X0332496Y0305517D02*
X0331734Y0305517D01*
X0329178Y0305517D02*
X0317685Y0305517D01*
X0317685Y0303919D02*
X0327366Y0303919D01*
X0326508Y0302320D02*
X0317685Y0302320D01*
X0317685Y0300722D02*
X0326172Y0300722D01*
X0326172Y0299123D02*
X0317685Y0299123D01*
X0317685Y0297525D02*
X0326172Y0297525D01*
X0326172Y0295926D02*
X0317685Y0295926D01*
X0317428Y0294328D02*
X0326172Y0294328D01*
X0326181Y0292729D02*
X0317428Y0292729D01*
X0317037Y0291131D02*
X0326557Y0291131D01*
X0327475Y0289532D02*
X0316165Y0289532D01*
X0317534Y0279941D02*
X0151666Y0279941D01*
X0150068Y0278342D02*
X0319132Y0278342D01*
X0320731Y0276744D02*
X0148469Y0276744D01*
X0146871Y0275145D02*
X0322329Y0275145D01*
X0323928Y0273547D02*
X0145800Y0273547D01*
X0145800Y0271948D02*
X0149349Y0271948D01*
X0151500Y0271948D02*
X0152100Y0271948D01*
X0152100Y0270350D02*
X0151500Y0270350D01*
X0151500Y0268751D02*
X0152100Y0268751D01*
X0152100Y0267153D02*
X0151500Y0267153D01*
X0151500Y0265554D02*
X0152100Y0265554D01*
X0152100Y0263956D02*
X0151500Y0263956D01*
X0151500Y0262357D02*
X0152100Y0262357D01*
X0155383Y0262357D02*
X0158182Y0262357D01*
X0158600Y0260759D02*
X0148619Y0260759D01*
X0148217Y0262357D02*
X0145418Y0262357D01*
X0146792Y0263956D02*
X0146852Y0263956D01*
X0142600Y0267400D02*
X0141800Y0266800D01*
X0142600Y0267400D02*
X0142600Y0275400D01*
X0150600Y0283400D01*
X0214600Y0283400D01*
X0222600Y0291400D01*
X0222600Y0293000D01*
X0229000Y0299400D01*
X0230600Y0299400D01*
X0232200Y0297800D01*
X0231800Y0296800D01*
X0237743Y0297525D02*
X0245285Y0297525D01*
X0245285Y0299123D02*
X0237743Y0299123D01*
X0237743Y0300722D02*
X0245285Y0300722D01*
X0245285Y0302320D02*
X0237414Y0302320D01*
X0236630Y0303919D02*
X0245285Y0303919D01*
X0245285Y0305517D02*
X0234840Y0305517D01*
X0228760Y0305517D02*
X0215052Y0305517D01*
X0216864Y0303919D02*
X0226970Y0303919D01*
X0226186Y0302320D02*
X0217722Y0302320D01*
X0218058Y0300722D02*
X0225796Y0300722D01*
X0224198Y0299123D02*
X0218058Y0299123D01*
X0218058Y0297525D02*
X0222599Y0297525D01*
X0221001Y0295926D02*
X0218058Y0295926D01*
X0218058Y0294328D02*
X0219686Y0294328D01*
X0219400Y0292729D02*
X0218049Y0292729D01*
X0217805Y0291131D02*
X0217673Y0291131D01*
X0212496Y0291131D02*
X0211734Y0291131D01*
X0211734Y0292729D02*
X0212496Y0292729D01*
X0212496Y0294328D02*
X0211734Y0294328D01*
X0211734Y0295926D02*
X0212496Y0295926D01*
X0211734Y0296419D02*
X0211734Y0287313D01*
X0211647Y0287313D01*
X0210723Y0287460D01*
X0209834Y0287749D01*
X0209000Y0288174D01*
X0208243Y0288723D01*
X0207582Y0289385D01*
X0207032Y0290142D01*
X0206607Y0290975D01*
X0206318Y0291865D01*
X0206172Y0292789D01*
X0206172Y0296419D01*
X0211734Y0296419D01*
X0211734Y0297525D02*
X0212496Y0297525D01*
X0212496Y0299123D02*
X0211734Y0299123D01*
X0211734Y0300722D02*
X0212496Y0300722D01*
X0212496Y0302320D02*
X0211734Y0302320D01*
X0211734Y0303919D02*
X0212496Y0303919D01*
X0212496Y0305517D02*
X0211734Y0305517D01*
X0209178Y0305517D02*
X0197685Y0305517D01*
X0197685Y0303919D02*
X0207366Y0303919D01*
X0206508Y0302320D02*
X0197685Y0302320D01*
X0197685Y0300722D02*
X0206172Y0300722D01*
X0206172Y0299123D02*
X0197685Y0299123D01*
X0197685Y0297525D02*
X0206172Y0297525D01*
X0206172Y0295926D02*
X0197685Y0295926D01*
X0197428Y0294328D02*
X0206172Y0294328D01*
X0206181Y0292729D02*
X0197428Y0292729D01*
X0197037Y0291131D02*
X0206557Y0291131D01*
X0207475Y0289532D02*
X0196165Y0289532D01*
X0194164Y0287934D02*
X0209471Y0287934D01*
X0211734Y0287934D02*
X0212496Y0287934D01*
X0212496Y0289532D02*
X0211734Y0289532D01*
X0223659Y0287934D02*
X0229121Y0287934D01*
X0227120Y0289532D02*
X0225258Y0289532D01*
X0225800Y0291131D02*
X0226248Y0291131D01*
X0234479Y0287934D02*
X0248806Y0287934D01*
X0246805Y0289532D02*
X0236480Y0289532D01*
X0237352Y0291131D02*
X0245933Y0291131D01*
X0245542Y0292729D02*
X0237743Y0292729D01*
X0237743Y0294328D02*
X0245542Y0294328D01*
X0245285Y0295926D02*
X0237743Y0295926D01*
X0254164Y0287934D02*
X0269471Y0287934D01*
X0267475Y0289532D02*
X0256165Y0289532D01*
X0257037Y0291131D02*
X0266557Y0291131D01*
X0266181Y0292729D02*
X0257428Y0292729D01*
X0257428Y0294328D02*
X0266172Y0294328D01*
X0266172Y0295926D02*
X0257685Y0295926D01*
X0257685Y0297525D02*
X0266172Y0297525D01*
X0266172Y0299123D02*
X0257685Y0299123D01*
X0257685Y0300722D02*
X0266172Y0300722D01*
X0266508Y0302320D02*
X0257685Y0302320D01*
X0257685Y0303919D02*
X0267366Y0303919D01*
X0269178Y0305517D02*
X0257685Y0305517D01*
X0257685Y0307116D02*
X0305285Y0307116D01*
X0317685Y0307116D02*
X0365285Y0307116D01*
X0377685Y0307116D02*
X0425285Y0307116D01*
X0425285Y0305517D02*
X0414840Y0305517D01*
X0415167Y0305382D02*
X0412982Y0306287D01*
X0410618Y0306287D01*
X0408433Y0305382D01*
X0406762Y0303710D01*
X0405857Y0301526D01*
X0405857Y0292074D01*
X0406762Y0289890D01*
X0408433Y0288218D01*
X0410618Y0287313D01*
X0412982Y0287313D01*
X0415167Y0288218D01*
X0416838Y0289890D01*
X0417743Y0292074D01*
X0417743Y0301526D01*
X0416838Y0303710D01*
X0415167Y0305382D01*
X0416630Y0303919D02*
X0425285Y0303919D01*
X0425285Y0302320D02*
X0417414Y0302320D01*
X0417743Y0300722D02*
X0425285Y0300722D01*
X0425285Y0299123D02*
X0417743Y0299123D01*
X0417743Y0297525D02*
X0425285Y0297525D01*
X0425285Y0295926D02*
X0417743Y0295926D01*
X0417743Y0294328D02*
X0425542Y0294328D01*
X0425542Y0292729D02*
X0417743Y0292729D01*
X0417352Y0291131D02*
X0425933Y0291131D01*
X0426805Y0289532D02*
X0416480Y0289532D01*
X0414479Y0287934D02*
X0428806Y0287934D01*
X0434164Y0287934D02*
X0449471Y0287934D01*
X0449834Y0287749D02*
X0450723Y0287460D01*
X0451647Y0287313D01*
X0451734Y0287313D01*
X0451734Y0296419D01*
X0452496Y0296419D01*
X0452496Y0297181D01*
X0458058Y0297181D01*
X0458058Y0300811D01*
X0457912Y0301735D01*
X0457623Y0302625D01*
X0457198Y0303458D01*
X0456648Y0304215D01*
X0455987Y0304877D01*
X0455230Y0305426D01*
X0454396Y0305851D01*
X0453507Y0306140D01*
X0452583Y0306287D01*
X0452496Y0306287D01*
X0452496Y0297181D01*
X0451734Y0297181D01*
X0451734Y0306287D01*
X0451647Y0306287D01*
X0450723Y0306140D01*
X0449834Y0305851D01*
X0449000Y0305426D01*
X0448243Y0304877D01*
X0447582Y0304215D01*
X0447032Y0303458D01*
X0446607Y0302625D01*
X0446318Y0301735D01*
X0446172Y0300811D01*
X0446172Y0297181D01*
X0451734Y0297181D01*
X0451734Y0296419D01*
X0446172Y0296419D01*
X0446172Y0292789D01*
X0446318Y0291865D01*
X0446607Y0290975D01*
X0447032Y0290142D01*
X0447582Y0289385D01*
X0448243Y0288723D01*
X0449000Y0288174D01*
X0449834Y0287749D01*
X0451734Y0287934D02*
X0452496Y0287934D01*
X0452496Y0287313D02*
X0452583Y0287313D01*
X0453507Y0287460D01*
X0454396Y0287749D01*
X0455230Y0288174D01*
X0455987Y0288723D01*
X0456648Y0289385D01*
X0457198Y0290142D01*
X0457623Y0290975D01*
X0457912Y0291865D01*
X0458058Y0292789D01*
X0458058Y0296419D01*
X0452496Y0296419D01*
X0452496Y0287313D01*
X0452496Y0289532D02*
X0451734Y0289532D01*
X0451734Y0291131D02*
X0452496Y0291131D01*
X0452496Y0292729D02*
X0451734Y0292729D01*
X0451734Y0294328D02*
X0452496Y0294328D01*
X0452496Y0295926D02*
X0451734Y0295926D01*
X0451734Y0297525D02*
X0452496Y0297525D01*
X0452496Y0299123D02*
X0451734Y0299123D01*
X0451734Y0300722D02*
X0452496Y0300722D01*
X0452496Y0302320D02*
X0451734Y0302320D01*
X0451734Y0303919D02*
X0452496Y0303919D01*
X0452496Y0305517D02*
X0451734Y0305517D01*
X0449178Y0305517D02*
X0437685Y0305517D01*
X0437685Y0303919D02*
X0447366Y0303919D01*
X0446508Y0302320D02*
X0437685Y0302320D01*
X0437685Y0300722D02*
X0446172Y0300722D01*
X0446172Y0299123D02*
X0437685Y0299123D01*
X0437685Y0297525D02*
X0446172Y0297525D01*
X0446172Y0295926D02*
X0437685Y0295926D01*
X0437428Y0294328D02*
X0446172Y0294328D01*
X0446181Y0292729D02*
X0437428Y0292729D01*
X0437037Y0291131D02*
X0446557Y0291131D01*
X0447475Y0289532D02*
X0436165Y0289532D01*
X0454759Y0287934D02*
X0469121Y0287934D01*
X0468433Y0288218D02*
X0470618Y0287313D01*
X0472982Y0287313D01*
X0475167Y0288218D01*
X0476838Y0289890D01*
X0477743Y0292074D01*
X0477743Y0301526D01*
X0476838Y0303710D01*
X0475167Y0305382D01*
X0472982Y0306287D01*
X0470618Y0306287D01*
X0468433Y0305382D01*
X0466762Y0303710D01*
X0465857Y0301526D01*
X0465857Y0292074D01*
X0466762Y0289890D01*
X0468433Y0288218D01*
X0467120Y0289532D02*
X0456755Y0289532D01*
X0457673Y0291131D02*
X0466248Y0291131D01*
X0465857Y0292729D02*
X0458049Y0292729D01*
X0458058Y0294328D02*
X0465857Y0294328D01*
X0465857Y0295926D02*
X0458058Y0295926D01*
X0458058Y0297525D02*
X0465857Y0297525D01*
X0465857Y0299123D02*
X0458058Y0299123D01*
X0458058Y0300722D02*
X0465857Y0300722D01*
X0466186Y0302320D02*
X0457722Y0302320D01*
X0456864Y0303919D02*
X0466970Y0303919D01*
X0468760Y0305517D02*
X0455052Y0305517D01*
X0437685Y0307116D02*
X0485285Y0307116D01*
X0485285Y0305517D02*
X0474840Y0305517D01*
X0476630Y0303919D02*
X0485285Y0303919D01*
X0485285Y0302320D02*
X0477414Y0302320D01*
X0477743Y0300722D02*
X0485285Y0300722D01*
X0485285Y0299123D02*
X0477743Y0299123D01*
X0477743Y0297525D02*
X0485285Y0297525D01*
X0485285Y0295926D02*
X0477743Y0295926D01*
X0477743Y0294328D02*
X0485542Y0294328D01*
X0485542Y0292729D02*
X0477743Y0292729D01*
X0477352Y0291131D02*
X0485933Y0291131D01*
X0486805Y0289532D02*
X0476480Y0289532D01*
X0474479Y0287934D02*
X0488806Y0287934D01*
X0494164Y0287934D02*
X0498600Y0287934D01*
X0498600Y0289532D02*
X0496165Y0289532D01*
X0497037Y0291131D02*
X0498600Y0291131D01*
X0498600Y0292729D02*
X0497428Y0292729D01*
X0497428Y0294328D02*
X0498600Y0294328D01*
X0498600Y0295926D02*
X0497685Y0295926D01*
X0497685Y0297525D02*
X0498600Y0297525D01*
X0498600Y0299123D02*
X0497685Y0299123D01*
X0497685Y0300722D02*
X0498600Y0300722D01*
X0498600Y0302320D02*
X0497685Y0302320D01*
X0497685Y0303919D02*
X0498600Y0303919D01*
X0498600Y0305517D02*
X0497685Y0305517D01*
X0497685Y0307116D02*
X0498600Y0307116D01*
X0496800Y0321800D02*
X0511800Y0321800D01*
X0511800Y0291800D01*
X0498600Y0286335D02*
X0345800Y0286335D01*
X0345800Y0284737D02*
X0498600Y0284737D01*
X0498600Y0283138D02*
X0345800Y0283138D01*
X0345800Y0281539D02*
X0498600Y0281539D01*
X0498600Y0279941D02*
X0345800Y0279941D01*
X0345800Y0278342D02*
X0498600Y0278342D01*
X0498600Y0276744D02*
X0345800Y0276744D01*
X0345800Y0275145D02*
X0498600Y0275145D01*
X0498600Y0273547D02*
X0345800Y0273547D01*
X0345800Y0271948D02*
X0349335Y0271948D01*
X0347289Y0270350D02*
X0345800Y0270350D01*
X0345800Y0268751D02*
X0346439Y0268751D01*
X0346100Y0267153D02*
X0345800Y0267153D01*
X0345800Y0265554D02*
X0346146Y0265554D01*
X0345800Y0263956D02*
X0346808Y0263956D01*
X0347368Y0262357D02*
X0348182Y0262357D01*
X0355418Y0262357D02*
X0358217Y0262357D01*
X0356852Y0263956D02*
X0356792Y0263956D01*
X0361500Y0263956D02*
X0362100Y0263956D01*
X0362100Y0265554D02*
X0361500Y0265554D01*
X0361500Y0267153D02*
X0362100Y0267153D01*
X0362100Y0268751D02*
X0361500Y0268751D01*
X0361500Y0270350D02*
X0362100Y0270350D01*
X0362100Y0271948D02*
X0361500Y0271948D01*
X0359349Y0271948D02*
X0354265Y0271948D01*
X0356311Y0270350D02*
X0357334Y0270350D01*
X0364251Y0271948D02*
X0369335Y0271948D01*
X0367289Y0270350D02*
X0366266Y0270350D01*
X0366748Y0263956D02*
X0366808Y0263956D01*
X0368182Y0262357D02*
X0365383Y0262357D01*
X0362100Y0262357D02*
X0361500Y0262357D01*
X0361525Y0254600D02*
X0386075Y0254600D01*
X0398600Y0242075D01*
X0398600Y0241644D01*
X0398571Y0241632D01*
X0396968Y0240029D01*
X0396800Y0239624D01*
X0396632Y0240029D01*
X0395029Y0241632D01*
X0392934Y0242500D01*
X0390666Y0242500D01*
X0388571Y0241632D01*
X0386968Y0240029D01*
X0386781Y0239579D01*
X0386675Y0239787D01*
X0386148Y0240513D01*
X0385513Y0241148D01*
X0384787Y0241675D01*
X0383988Y0242082D01*
X0383135Y0242360D01*
X0382249Y0242500D01*
X0382100Y0242500D01*
X0382100Y0237100D01*
X0381500Y0237100D01*
X0381500Y0242500D01*
X0381351Y0242500D01*
X0380465Y0242360D01*
X0379612Y0242082D01*
X0378813Y0241675D01*
X0378087Y0241148D01*
X0377452Y0240513D01*
X0376925Y0239787D01*
X0376819Y0239579D01*
X0376632Y0240029D01*
X0376200Y0240461D01*
X0376200Y0242437D01*
X0375713Y0243613D01*
X0372513Y0246813D01*
X0371613Y0247713D01*
X0370437Y0248200D01*
X0367925Y0248200D01*
X0361525Y0254600D01*
X0361761Y0254365D02*
X0386310Y0254365D01*
X0387908Y0252766D02*
X0363359Y0252766D01*
X0364958Y0251168D02*
X0389507Y0251168D01*
X0391105Y0249569D02*
X0366556Y0249569D01*
X0366600Y0245000D02*
X0357000Y0254600D01*
X0345800Y0254600D01*
X0336200Y0264200D01*
X0336200Y0265800D01*
X0333000Y0263956D02*
X0332350Y0263956D01*
X0332350Y0264099D02*
X0329099Y0267350D01*
X0324501Y0267350D01*
X0321250Y0264099D01*
X0321250Y0259501D01*
X0324501Y0256250D01*
X0329099Y0256250D01*
X0332350Y0259501D01*
X0332350Y0264099D01*
X0331920Y0265554D02*
X0330894Y0265554D01*
X0330322Y0267153D02*
X0329296Y0267153D01*
X0328723Y0268751D02*
X0177161Y0268751D01*
X0177500Y0267153D02*
X0324304Y0267153D01*
X0322705Y0265554D02*
X0177454Y0265554D01*
X0176792Y0263956D02*
X0321250Y0263956D01*
X0321250Y0262357D02*
X0175418Y0262357D01*
X0168182Y0262357D02*
X0165418Y0262357D01*
X0166792Y0263956D02*
X0166808Y0263956D01*
X0161800Y0266800D02*
X0161800Y0261000D01*
X0165000Y0257800D01*
X0241800Y0257800D01*
X0286600Y0213000D01*
X0286600Y0208200D01*
X0286800Y0206800D01*
X0284948Y0201614D02*
X0278652Y0201614D01*
X0280991Y0203212D02*
X0282609Y0203212D01*
X0276800Y0206800D02*
X0277000Y0208200D01*
X0277000Y0213000D01*
X0262600Y0227400D01*
X0158600Y0227400D01*
X0152200Y0233800D01*
X0153800Y0235400D01*
X0152200Y0237000D01*
X0151800Y0236800D01*
X0146781Y0239579D02*
X0146675Y0239787D01*
X0146148Y0240513D01*
X0145513Y0241148D01*
X0144787Y0241675D01*
X0143988Y0242082D01*
X0143135Y0242360D01*
X0142249Y0242500D01*
X0142100Y0242500D01*
X0142100Y0237100D01*
X0141500Y0237100D01*
X0141500Y0242500D01*
X0141351Y0242500D01*
X0140465Y0242360D01*
X0139612Y0242082D01*
X0138813Y0241675D01*
X0138087Y0241148D01*
X0137452Y0240513D01*
X0136925Y0239787D01*
X0136819Y0239579D01*
X0136632Y0240029D01*
X0135029Y0241632D01*
X0135000Y0241644D01*
X0135000Y0247437D01*
X0134513Y0248613D01*
X0129513Y0253613D01*
X0128613Y0254513D01*
X0128402Y0254600D01*
X0146075Y0254600D01*
X0158600Y0242075D01*
X0158600Y0241644D01*
X0158571Y0241632D01*
X0156968Y0240029D01*
X0156800Y0239624D01*
X0156632Y0240029D01*
X0155029Y0241632D01*
X0152934Y0242500D01*
X0150666Y0242500D01*
X0148571Y0241632D01*
X0146968Y0240029D01*
X0146781Y0239579D01*
X0146947Y0239978D02*
X0146536Y0239978D01*
X0144923Y0241577D02*
X0148516Y0241577D01*
X0142100Y0241577D02*
X0141500Y0241577D01*
X0141500Y0239978D02*
X0142100Y0239978D01*
X0142100Y0238380D02*
X0141500Y0238380D01*
X0141500Y0235183D02*
X0142100Y0235183D01*
X0142100Y0233584D02*
X0141500Y0233584D01*
X0141500Y0231986D02*
X0142100Y0231986D01*
X0144871Y0231986D02*
X0148553Y0231986D01*
X0146962Y0233584D02*
X0146509Y0233584D01*
X0151087Y0230387D02*
X0025000Y0230387D01*
X0025000Y0228789D02*
X0152686Y0228789D01*
X0154284Y0227190D02*
X0025000Y0227190D01*
X0025000Y0225592D02*
X0155883Y0225592D01*
X0158540Y0231986D02*
X0158553Y0231986D01*
X0156962Y0233584D02*
X0156941Y0233584D01*
X0161800Y0236800D02*
X0161800Y0243400D01*
X0147400Y0257800D01*
X0107400Y0257800D01*
X0102600Y0262600D01*
X0102600Y0293000D01*
X0109000Y0299400D01*
X0110600Y0299400D01*
X0112200Y0297800D01*
X0111800Y0296800D01*
X0117743Y0297525D02*
X0125285Y0297525D01*
X0125285Y0299123D02*
X0117743Y0299123D01*
X0117743Y0300722D02*
X0125285Y0300722D01*
X0125285Y0302320D02*
X0117414Y0302320D01*
X0116630Y0303919D02*
X0125285Y0303919D01*
X0125285Y0305517D02*
X0114840Y0305517D01*
X0108760Y0305517D02*
X0095052Y0305517D01*
X0095230Y0305426D02*
X0094396Y0305851D01*
X0093507Y0306140D01*
X0092583Y0306287D01*
X0092496Y0306287D01*
X0092496Y0297181D01*
X0098058Y0297181D01*
X0098058Y0300811D01*
X0097912Y0301735D01*
X0097623Y0302625D01*
X0097198Y0303458D01*
X0096648Y0304215D01*
X0095987Y0304877D01*
X0095230Y0305426D01*
X0096864Y0303919D02*
X0106970Y0303919D01*
X0106186Y0302320D02*
X0097722Y0302320D01*
X0098058Y0300722D02*
X0105796Y0300722D01*
X0104198Y0299123D02*
X0098058Y0299123D01*
X0098058Y0297525D02*
X0102599Y0297525D01*
X0101001Y0295926D02*
X0098058Y0295926D01*
X0098058Y0296419D02*
X0092496Y0296419D01*
X0092496Y0297181D01*
X0091734Y0297181D01*
X0091734Y0306287D01*
X0091647Y0306287D01*
X0090723Y0306140D01*
X0089834Y0305851D01*
X0089000Y0305426D01*
X0088243Y0304877D01*
X0087582Y0304215D01*
X0087032Y0303458D01*
X0086607Y0302625D01*
X0086318Y0301735D01*
X0086172Y0300811D01*
X0086172Y0297181D01*
X0091734Y0297181D01*
X0091734Y0296419D01*
X0092496Y0296419D01*
X0092496Y0287313D01*
X0092583Y0287313D01*
X0093507Y0287460D01*
X0094396Y0287749D01*
X0095230Y0288174D01*
X0095987Y0288723D01*
X0096648Y0289385D01*
X0097198Y0290142D01*
X0097623Y0290975D01*
X0097912Y0291865D01*
X0098058Y0292789D01*
X0098058Y0296419D01*
X0098058Y0294328D02*
X0099686Y0294328D01*
X0099400Y0292729D02*
X0098049Y0292729D01*
X0097673Y0291131D02*
X0099400Y0291131D01*
X0099400Y0289532D02*
X0096755Y0289532D01*
X0094759Y0287934D02*
X0099400Y0287934D01*
X0099400Y0286335D02*
X0083400Y0286335D01*
X0083400Y0284737D02*
X0099400Y0284737D01*
X0099400Y0283138D02*
X0083400Y0283138D01*
X0083400Y0281539D02*
X0099400Y0281539D01*
X0099400Y0279941D02*
X0083400Y0279941D01*
X0083400Y0278342D02*
X0099400Y0278342D01*
X0099400Y0276744D02*
X0083400Y0276744D01*
X0083400Y0275145D02*
X0099400Y0275145D01*
X0099400Y0273547D02*
X0083400Y0273547D01*
X0083400Y0271948D02*
X0099400Y0271948D01*
X0099400Y0270350D02*
X0083400Y0270350D01*
X0084974Y0268751D02*
X0099400Y0268751D01*
X0099400Y0267153D02*
X0089296Y0267153D01*
X0090894Y0265554D02*
X0099400Y0265554D01*
X0099400Y0263956D02*
X0092350Y0263956D01*
X0092350Y0262357D02*
X0099400Y0262357D01*
X0099916Y0260759D02*
X0092350Y0260759D01*
X0092009Y0259160D02*
X0101514Y0259160D01*
X0103113Y0257562D02*
X0090411Y0257562D01*
X0087162Y0255963D02*
X0104711Y0255963D01*
X0107368Y0262357D02*
X0108182Y0262357D01*
X0106808Y0263956D02*
X0105800Y0263956D01*
X0105800Y0265554D02*
X0106146Y0265554D01*
X0106100Y0267153D02*
X0105800Y0267153D01*
X0105800Y0268751D02*
X0106439Y0268751D01*
X0105800Y0270350D02*
X0107289Y0270350D01*
X0105800Y0271948D02*
X0109335Y0271948D01*
X0105800Y0273547D02*
X0139400Y0273547D01*
X0139400Y0275145D02*
X0105800Y0275145D01*
X0105800Y0276744D02*
X0139693Y0276744D01*
X0141017Y0278342D02*
X0105800Y0278342D01*
X0105800Y0279941D02*
X0142615Y0279941D01*
X0144214Y0281539D02*
X0105800Y0281539D01*
X0105800Y0283138D02*
X0145813Y0283138D01*
X0147411Y0284737D02*
X0105800Y0284737D01*
X0105800Y0286335D02*
X0149324Y0286335D01*
X0149834Y0287749D02*
X0150723Y0287460D01*
X0151647Y0287313D01*
X0151734Y0287313D01*
X0151734Y0296419D01*
X0152496Y0296419D01*
X0152496Y0297181D01*
X0158058Y0297181D01*
X0158058Y0300811D01*
X0157912Y0301735D01*
X0157623Y0302625D01*
X0157198Y0303458D01*
X0156648Y0304215D01*
X0155987Y0304877D01*
X0155230Y0305426D01*
X0154396Y0305851D01*
X0153507Y0306140D01*
X0152583Y0306287D01*
X0152496Y0306287D01*
X0152496Y0297181D01*
X0151734Y0297181D01*
X0151734Y0306287D01*
X0151647Y0306287D01*
X0150723Y0306140D01*
X0149834Y0305851D01*
X0149000Y0305426D01*
X0148243Y0304877D01*
X0147582Y0304215D01*
X0147032Y0303458D01*
X0146607Y0302625D01*
X0146318Y0301735D01*
X0146172Y0300811D01*
X0146172Y0297181D01*
X0151734Y0297181D01*
X0151734Y0296419D01*
X0146172Y0296419D01*
X0146172Y0292789D01*
X0146318Y0291865D01*
X0146607Y0290975D01*
X0147032Y0290142D01*
X0147582Y0289385D01*
X0148243Y0288723D01*
X0149000Y0288174D01*
X0149834Y0287749D01*
X0149471Y0287934D02*
X0134164Y0287934D01*
X0136165Y0289532D02*
X0147475Y0289532D01*
X0146557Y0291131D02*
X0137037Y0291131D01*
X0137428Y0292729D02*
X0146181Y0292729D01*
X0146172Y0294328D02*
X0137428Y0294328D01*
X0137685Y0295926D02*
X0146172Y0295926D01*
X0146172Y0297525D02*
X0137685Y0297525D01*
X0137685Y0299123D02*
X0146172Y0299123D01*
X0146172Y0300722D02*
X0137685Y0300722D01*
X0137685Y0302320D02*
X0146508Y0302320D01*
X0147366Y0303919D02*
X0137685Y0303919D01*
X0137685Y0305517D02*
X0149178Y0305517D01*
X0151734Y0305517D02*
X0152496Y0305517D01*
X0152496Y0303919D02*
X0151734Y0303919D01*
X0151734Y0302320D02*
X0152496Y0302320D01*
X0152496Y0300722D02*
X0151734Y0300722D01*
X0151734Y0299123D02*
X0152496Y0299123D01*
X0152496Y0297525D02*
X0151734Y0297525D01*
X0152496Y0296419D02*
X0158058Y0296419D01*
X0158058Y0292789D01*
X0157912Y0291865D01*
X0157623Y0290975D01*
X0157198Y0290142D01*
X0156648Y0289385D01*
X0155987Y0288723D01*
X0155230Y0288174D01*
X0154396Y0287749D01*
X0153507Y0287460D01*
X0152583Y0287313D01*
X0152496Y0287313D01*
X0152496Y0296419D01*
X0152496Y0295926D02*
X0151734Y0295926D01*
X0151734Y0294328D02*
X0152496Y0294328D01*
X0152496Y0292729D02*
X0151734Y0292729D01*
X0151734Y0291131D02*
X0152496Y0291131D01*
X0152496Y0289532D02*
X0151734Y0289532D01*
X0151734Y0287934D02*
X0152496Y0287934D01*
X0154759Y0287934D02*
X0169121Y0287934D01*
X0168433Y0288218D02*
X0170618Y0287313D01*
X0172982Y0287313D01*
X0175167Y0288218D01*
X0176838Y0289890D01*
X0177743Y0292074D01*
X0177743Y0301526D01*
X0176838Y0303710D01*
X0175167Y0305382D01*
X0172982Y0306287D01*
X0170618Y0306287D01*
X0168433Y0305382D01*
X0166762Y0303710D01*
X0165857Y0301526D01*
X0165857Y0292074D01*
X0166762Y0289890D01*
X0168433Y0288218D01*
X0167120Y0289532D02*
X0156755Y0289532D01*
X0157673Y0291131D02*
X0166248Y0291131D01*
X0165857Y0292729D02*
X0158049Y0292729D01*
X0158058Y0294328D02*
X0165857Y0294328D01*
X0165857Y0295926D02*
X0158058Y0295926D01*
X0158058Y0297525D02*
X0165857Y0297525D01*
X0165857Y0299123D02*
X0158058Y0299123D01*
X0158058Y0300722D02*
X0165857Y0300722D01*
X0166186Y0302320D02*
X0157722Y0302320D01*
X0156864Y0303919D02*
X0166970Y0303919D01*
X0168760Y0305517D02*
X0155052Y0305517D01*
X0137685Y0307116D02*
X0185285Y0307116D01*
X0185285Y0305517D02*
X0174840Y0305517D01*
X0176630Y0303919D02*
X0185285Y0303919D01*
X0185285Y0302320D02*
X0177414Y0302320D01*
X0177743Y0300722D02*
X0185285Y0300722D01*
X0185285Y0299123D02*
X0177743Y0299123D01*
X0177743Y0297525D02*
X0185285Y0297525D01*
X0185285Y0295926D02*
X0177743Y0295926D01*
X0177743Y0294328D02*
X0185542Y0294328D01*
X0185542Y0292729D02*
X0177743Y0292729D01*
X0177352Y0291131D02*
X0185933Y0291131D01*
X0186805Y0289532D02*
X0176480Y0289532D01*
X0174479Y0287934D02*
X0188806Y0287934D01*
X0176311Y0270350D02*
X0327125Y0270350D01*
X0325526Y0271948D02*
X0174265Y0271948D01*
X0169335Y0271948D02*
X0164265Y0271948D01*
X0166311Y0270350D02*
X0167289Y0270350D01*
X0159335Y0271948D02*
X0154251Y0271948D01*
X0156266Y0270350D02*
X0157289Y0270350D01*
X0156808Y0263956D02*
X0156748Y0263956D01*
X0159114Y0259160D02*
X0150565Y0259160D01*
X0152164Y0257562D02*
X0160713Y0257562D01*
X0162311Y0255963D02*
X0153762Y0255963D01*
X0155361Y0254365D02*
X0240710Y0254365D01*
X0242308Y0252766D02*
X0156959Y0252766D01*
X0158558Y0251168D02*
X0243907Y0251168D01*
X0245505Y0249569D02*
X0160156Y0249569D01*
X0161755Y0247971D02*
X0247104Y0247971D01*
X0248702Y0246372D02*
X0163353Y0246372D01*
X0164695Y0244774D02*
X0250301Y0244774D01*
X0251899Y0243175D02*
X0165000Y0243175D01*
X0165084Y0241577D02*
X0168677Y0241577D01*
X0167064Y0239978D02*
X0166653Y0239978D01*
X0171500Y0239978D02*
X0172100Y0239978D01*
X0172100Y0238380D02*
X0171500Y0238380D01*
X0172100Y0237100D02*
X0172100Y0242500D01*
X0172249Y0242500D01*
X0173135Y0242360D01*
X0173988Y0242082D01*
X0174787Y0241675D01*
X0175513Y0241148D01*
X0176148Y0240513D01*
X0176675Y0239787D01*
X0177082Y0238988D01*
X0177360Y0238135D01*
X0177500Y0237249D01*
X0177500Y0237100D01*
X0172100Y0237100D01*
X0172100Y0236781D02*
X0258293Y0236781D01*
X0256695Y0238380D02*
X0177280Y0238380D01*
X0176536Y0239978D02*
X0255096Y0239978D01*
X0253498Y0241577D02*
X0174923Y0241577D01*
X0172100Y0241577D02*
X0171500Y0241577D01*
X0172100Y0236500D02*
X0177500Y0236500D01*
X0177500Y0236351D01*
X0177360Y0235465D01*
X0177082Y0234612D01*
X0176675Y0233813D01*
X0176148Y0233087D01*
X0175513Y0232452D01*
X0174787Y0231925D01*
X0173988Y0231518D01*
X0173135Y0231240D01*
X0172249Y0231100D01*
X0172100Y0231100D01*
X0172100Y0236500D01*
X0172100Y0235183D02*
X0171500Y0235183D01*
X0171500Y0233584D02*
X0172100Y0233584D01*
X0172100Y0231986D02*
X0171500Y0231986D01*
X0168729Y0231986D02*
X0165047Y0231986D01*
X0166638Y0233584D02*
X0167091Y0233584D01*
X0174871Y0231986D02*
X0263089Y0231986D01*
X0263750Y0230387D02*
X0264687Y0230387D01*
X0265737Y0228789D02*
X0266286Y0228789D01*
X0267335Y0227190D02*
X0267884Y0227190D01*
X0268934Y0225592D02*
X0269483Y0225592D01*
X0270532Y0223993D02*
X0271081Y0223993D01*
X0272131Y0222395D02*
X0272680Y0222395D01*
X0273729Y0220796D02*
X0274278Y0220796D01*
X0275328Y0219198D02*
X0275877Y0219198D01*
X0276926Y0217599D02*
X0277475Y0217599D01*
X0278525Y0216001D02*
X0279074Y0216001D01*
X0279883Y0214402D02*
X0280673Y0214402D01*
X0280200Y0212803D02*
X0282271Y0212803D01*
X0283400Y0211205D02*
X0280200Y0211205D01*
X0281591Y0209606D02*
X0282009Y0209606D01*
X0273427Y0211205D02*
X0270173Y0211205D01*
X0271591Y0209606D02*
X0272009Y0209606D01*
X0272671Y0212803D02*
X0025000Y0212803D01*
X0025000Y0211205D02*
X0223427Y0211205D01*
X0230173Y0211205D02*
X0233427Y0211205D01*
X0232009Y0209606D02*
X0231591Y0209606D01*
X0240173Y0211205D02*
X0243427Y0211205D01*
X0242009Y0209606D02*
X0241591Y0209606D01*
X0250173Y0211205D02*
X0253427Y0211205D01*
X0252009Y0209606D02*
X0251591Y0209606D01*
X0260173Y0211205D02*
X0263427Y0211205D01*
X0262009Y0209606D02*
X0261591Y0209606D01*
X0260991Y0203212D02*
X0262609Y0203212D01*
X0264948Y0201614D02*
X0258652Y0201614D01*
X0254948Y0201614D02*
X0248652Y0201614D01*
X0250991Y0203212D02*
X0252609Y0203212D01*
X0244948Y0201614D02*
X0238652Y0201614D01*
X0240991Y0203212D02*
X0242609Y0203212D01*
X0234948Y0201614D02*
X0228652Y0201614D01*
X0230991Y0203212D02*
X0232609Y0203212D01*
X0263080Y0222395D02*
X0025000Y0222395D01*
X0025000Y0223993D02*
X0261481Y0223993D01*
X0264678Y0220796D02*
X0025000Y0220796D01*
X0025000Y0219198D02*
X0266277Y0219198D01*
X0267875Y0217599D02*
X0025000Y0217599D01*
X0025000Y0216001D02*
X0269474Y0216001D01*
X0271073Y0214402D02*
X0025000Y0214402D01*
X0025000Y0231986D02*
X0106625Y0231986D01*
X0106636Y0231970D02*
X0106970Y0231636D01*
X0107363Y0231373D01*
X0107800Y0231192D01*
X0108264Y0231100D01*
X0111500Y0231100D01*
X0111500Y0236500D01*
X0106100Y0236500D01*
X0106100Y0233264D01*
X0106192Y0232800D01*
X0106373Y0232363D01*
X0106636Y0231970D01*
X0106100Y0233584D02*
X0025000Y0233584D01*
X0025000Y0235183D02*
X0106100Y0235183D01*
X0106100Y0238380D02*
X0091229Y0238380D01*
X0092350Y0239501D02*
X0092350Y0241800D01*
X0092350Y0244099D01*
X0089099Y0247350D01*
X0086800Y0247350D01*
X0086800Y0241800D01*
X0086800Y0241800D01*
X0092350Y0241800D01*
X0086800Y0241800D01*
X0086800Y0241800D01*
X0086800Y0241800D01*
X0081250Y0241800D01*
X0081250Y0244099D01*
X0084501Y0247350D01*
X0086800Y0247350D01*
X0086800Y0241800D01*
X0086800Y0236250D01*
X0089099Y0236250D01*
X0092350Y0239501D01*
X0092350Y0239978D02*
X0106100Y0239978D01*
X0106600Y0241577D02*
X0092350Y0241577D01*
X0092350Y0243175D02*
X0128600Y0243175D01*
X0128600Y0244774D02*
X0091675Y0244774D01*
X0090077Y0246372D02*
X0127702Y0246372D01*
X0126104Y0247971D02*
X0025000Y0247971D01*
X0025000Y0249569D02*
X0084505Y0249569D01*
X0082907Y0251168D02*
X0025000Y0251168D01*
X0025000Y0252766D02*
X0081308Y0252766D01*
X0079710Y0254365D02*
X0025000Y0254365D01*
X0025000Y0255963D02*
X0078111Y0255963D01*
X0076513Y0257562D02*
X0025000Y0257562D01*
X0025000Y0259160D02*
X0074914Y0259160D01*
X0073768Y0260759D02*
X0025000Y0260759D01*
X0025000Y0262357D02*
X0073600Y0262357D01*
X0073600Y0263956D02*
X0025000Y0263956D01*
X0025000Y0265554D02*
X0073520Y0265554D01*
X0071922Y0267153D02*
X0025000Y0267153D01*
X0025000Y0268751D02*
X0070323Y0268751D01*
X0068725Y0270350D02*
X0025000Y0270350D01*
X0025000Y0271948D02*
X0067126Y0271948D01*
X0065528Y0273547D02*
X0025000Y0273547D01*
X0025000Y0275145D02*
X0063929Y0275145D01*
X0062331Y0276744D02*
X0025000Y0276744D01*
X0025000Y0278342D02*
X0060732Y0278342D01*
X0059134Y0279941D02*
X0025000Y0279941D01*
X0025000Y0281539D02*
X0057976Y0281539D01*
X0057800Y0283138D02*
X0025000Y0283138D01*
X0025000Y0284737D02*
X0057800Y0284737D01*
X0057800Y0286335D02*
X0025000Y0286335D01*
X0025000Y0287934D02*
X0029471Y0287934D01*
X0029834Y0287749D02*
X0030723Y0287460D01*
X0031647Y0287313D01*
X0031734Y0287313D01*
X0031734Y0296419D01*
X0032496Y0296419D01*
X0032496Y0297181D01*
X0038058Y0297181D01*
X0038058Y0300811D01*
X0037912Y0301735D01*
X0037623Y0302625D01*
X0037198Y0303458D01*
X0036648Y0304215D01*
X0035987Y0304877D01*
X0035230Y0305426D01*
X0034396Y0305851D01*
X0033507Y0306140D01*
X0032583Y0306287D01*
X0032496Y0306287D01*
X0032496Y0297181D01*
X0031734Y0297181D01*
X0031734Y0306287D01*
X0031647Y0306287D01*
X0030723Y0306140D01*
X0029834Y0305851D01*
X0029000Y0305426D01*
X0028243Y0304877D01*
X0027582Y0304215D01*
X0027032Y0303458D01*
X0026607Y0302625D01*
X0026318Y0301735D01*
X0026172Y0300811D01*
X0026172Y0297181D01*
X0031734Y0297181D01*
X0031734Y0296419D01*
X0026172Y0296419D01*
X0026172Y0292789D01*
X0026318Y0291865D01*
X0026607Y0290975D01*
X0027032Y0290142D01*
X0027582Y0289385D01*
X0028243Y0288723D01*
X0029000Y0288174D01*
X0029834Y0287749D01*
X0031734Y0287934D02*
X0032496Y0287934D01*
X0032496Y0287313D02*
X0032583Y0287313D01*
X0033507Y0287460D01*
X0034396Y0287749D01*
X0035230Y0288174D01*
X0035987Y0288723D01*
X0036648Y0289385D01*
X0037198Y0290142D01*
X0037623Y0290975D01*
X0037912Y0291865D01*
X0038058Y0292789D01*
X0038058Y0296419D01*
X0032496Y0296419D01*
X0032496Y0287313D01*
X0032496Y0289532D02*
X0031734Y0289532D01*
X0031734Y0291131D02*
X0032496Y0291131D01*
X0032496Y0292729D02*
X0031734Y0292729D01*
X0031734Y0294328D02*
X0032496Y0294328D01*
X0032496Y0295926D02*
X0031734Y0295926D01*
X0031734Y0297525D02*
X0032496Y0297525D01*
X0032496Y0299123D02*
X0031734Y0299123D01*
X0031734Y0300722D02*
X0032496Y0300722D01*
X0032496Y0302320D02*
X0031734Y0302320D01*
X0031734Y0303919D02*
X0032496Y0303919D01*
X0032496Y0305517D02*
X0031734Y0305517D01*
X0029178Y0305517D02*
X0025000Y0305517D01*
X0025000Y0303919D02*
X0027366Y0303919D01*
X0026508Y0302320D02*
X0025000Y0302320D01*
X0025000Y0300722D02*
X0026172Y0300722D01*
X0026172Y0299123D02*
X0025000Y0299123D01*
X0025000Y0297525D02*
X0026172Y0297525D01*
X0026172Y0295926D02*
X0025000Y0295926D01*
X0025000Y0294328D02*
X0026172Y0294328D01*
X0026181Y0292729D02*
X0025000Y0292729D01*
X0025000Y0291131D02*
X0026557Y0291131D01*
X0027475Y0289532D02*
X0025000Y0289532D01*
X0034759Y0287934D02*
X0049121Y0287934D01*
X0047120Y0289532D02*
X0036755Y0289532D01*
X0037673Y0291131D02*
X0046248Y0291131D01*
X0045857Y0292729D02*
X0038049Y0292729D01*
X0038058Y0294328D02*
X0045857Y0294328D01*
X0045857Y0295926D02*
X0038058Y0295926D01*
X0038058Y0297525D02*
X0045857Y0297525D01*
X0045857Y0299123D02*
X0038058Y0299123D01*
X0038058Y0300722D02*
X0045857Y0300722D01*
X0046186Y0302320D02*
X0037722Y0302320D01*
X0036864Y0303919D02*
X0046970Y0303919D01*
X0048760Y0305517D02*
X0035052Y0305517D01*
X0025000Y0307116D02*
X0065285Y0307116D01*
X0065285Y0305517D02*
X0054840Y0305517D01*
X0056630Y0303919D02*
X0065285Y0303919D01*
X0065285Y0302320D02*
X0057414Y0302320D01*
X0057804Y0300722D02*
X0065285Y0300722D01*
X0065285Y0299123D02*
X0059402Y0299123D01*
X0061001Y0297525D02*
X0065285Y0297525D01*
X0065285Y0295926D02*
X0062599Y0295926D01*
X0063914Y0294328D02*
X0065542Y0294328D01*
X0065542Y0292729D02*
X0064200Y0292729D01*
X0064200Y0291131D02*
X0065933Y0291131D01*
X0066805Y0289532D02*
X0064200Y0289532D01*
X0064200Y0287934D02*
X0068806Y0287934D01*
X0064200Y0286335D02*
X0077000Y0286335D01*
X0077000Y0284737D02*
X0064200Y0284737D01*
X0064987Y0283138D02*
X0077000Y0283138D01*
X0077000Y0281539D02*
X0066586Y0281539D01*
X0068184Y0279941D02*
X0077000Y0279941D01*
X0077000Y0278342D02*
X0069783Y0278342D01*
X0071382Y0276744D02*
X0077000Y0276744D01*
X0077000Y0275145D02*
X0072980Y0275145D01*
X0074579Y0273547D02*
X0077000Y0273547D01*
X0077000Y0271948D02*
X0076177Y0271948D01*
X0080200Y0269000D02*
X0080200Y0293400D01*
X0076800Y0296800D01*
X0071485Y0296800D01*
X0077685Y0300722D02*
X0086172Y0300722D01*
X0086172Y0299123D02*
X0079002Y0299123D01*
X0080601Y0297525D02*
X0086172Y0297525D01*
X0086172Y0296419D02*
X0086172Y0292789D01*
X0086318Y0291865D01*
X0086607Y0290975D01*
X0087032Y0290142D01*
X0087582Y0289385D01*
X0088243Y0288723D01*
X0089000Y0288174D01*
X0089834Y0287749D01*
X0090723Y0287460D01*
X0091647Y0287313D01*
X0091734Y0287313D01*
X0091734Y0296419D01*
X0086172Y0296419D01*
X0086172Y0295926D02*
X0082199Y0295926D01*
X0083279Y0294328D02*
X0086172Y0294328D01*
X0086181Y0292729D02*
X0083400Y0292729D01*
X0083400Y0291131D02*
X0086557Y0291131D01*
X0087475Y0289532D02*
X0083400Y0289532D01*
X0083400Y0287934D02*
X0089471Y0287934D01*
X0091734Y0287934D02*
X0092496Y0287934D01*
X0092496Y0289532D02*
X0091734Y0289532D01*
X0091734Y0291131D02*
X0092496Y0291131D01*
X0092496Y0292729D02*
X0091734Y0292729D01*
X0091734Y0294328D02*
X0092496Y0294328D01*
X0092496Y0295926D02*
X0091734Y0295926D01*
X0091734Y0297525D02*
X0092496Y0297525D01*
X0092496Y0299123D02*
X0091734Y0299123D01*
X0091734Y0300722D02*
X0092496Y0300722D01*
X0092496Y0302320D02*
X0091734Y0302320D01*
X0091734Y0303919D02*
X0092496Y0303919D01*
X0092496Y0305517D02*
X0091734Y0305517D01*
X0089178Y0305517D02*
X0077685Y0305517D01*
X0077685Y0303919D02*
X0087366Y0303919D01*
X0086508Y0302320D02*
X0077685Y0302320D01*
X0077685Y0307116D02*
X0125285Y0307116D01*
X0125285Y0295926D02*
X0117743Y0295926D01*
X0117743Y0294328D02*
X0125542Y0294328D01*
X0125542Y0292729D02*
X0117743Y0292729D01*
X0117352Y0291131D02*
X0125933Y0291131D01*
X0126805Y0289532D02*
X0116480Y0289532D01*
X0114479Y0287934D02*
X0128806Y0287934D01*
X0109121Y0287934D02*
X0105800Y0287934D01*
X0105800Y0289532D02*
X0107120Y0289532D01*
X0106248Y0291131D02*
X0105800Y0291131D01*
X0114265Y0271948D02*
X0119349Y0271948D01*
X0121500Y0271948D02*
X0122100Y0271948D01*
X0122100Y0270350D02*
X0121500Y0270350D01*
X0121500Y0268751D02*
X0122100Y0268751D01*
X0122100Y0267153D02*
X0121500Y0267153D01*
X0121500Y0265554D02*
X0122100Y0265554D01*
X0122100Y0263956D02*
X0121500Y0263956D01*
X0121500Y0262357D02*
X0122100Y0262357D01*
X0125383Y0262357D02*
X0128182Y0262357D01*
X0126808Y0263956D02*
X0126748Y0263956D01*
X0135418Y0262357D02*
X0138182Y0262357D01*
X0136808Y0263956D02*
X0136792Y0263956D01*
X0136311Y0270350D02*
X0137289Y0270350D01*
X0139335Y0271948D02*
X0134265Y0271948D01*
X0129335Y0271948D02*
X0124251Y0271948D01*
X0126266Y0270350D02*
X0127289Y0270350D01*
X0117334Y0270350D02*
X0116311Y0270350D01*
X0116792Y0263956D02*
X0116852Y0263956D01*
X0118217Y0262357D02*
X0115418Y0262357D01*
X0128761Y0254365D02*
X0146310Y0254365D01*
X0147908Y0252766D02*
X0130359Y0252766D01*
X0129513Y0253613D02*
X0129513Y0253613D01*
X0126800Y0251800D02*
X0131800Y0246800D01*
X0131800Y0236800D01*
X0126947Y0239978D02*
X0126653Y0239978D01*
X0125084Y0241577D02*
X0128516Y0241577D01*
X0135084Y0241577D02*
X0138677Y0241577D01*
X0137064Y0239978D02*
X0136653Y0239978D01*
X0135000Y0243175D02*
X0157499Y0243175D01*
X0158516Y0241577D02*
X0155084Y0241577D01*
X0156653Y0239978D02*
X0156947Y0239978D01*
X0155901Y0244774D02*
X0135000Y0244774D01*
X0135000Y0246372D02*
X0154302Y0246372D01*
X0152704Y0247971D02*
X0134779Y0247971D01*
X0133556Y0249569D02*
X0151105Y0249569D01*
X0149507Y0251168D02*
X0131958Y0251168D01*
X0126800Y0251800D02*
X0086800Y0251800D01*
X0076800Y0261800D01*
X0076800Y0266800D01*
X0061000Y0282600D01*
X0061000Y0293000D01*
X0054600Y0299400D01*
X0053000Y0299400D01*
X0051400Y0297800D01*
X0051800Y0296800D01*
X0057352Y0291131D02*
X0057800Y0291131D01*
X0057800Y0289532D02*
X0056480Y0289532D01*
X0057800Y0287934D02*
X0054479Y0287934D01*
X0074164Y0287934D02*
X0077000Y0287934D01*
X0077000Y0289532D02*
X0076165Y0289532D01*
X0080200Y0269000D02*
X0086600Y0262600D01*
X0086800Y0261800D01*
X0086800Y0246372D02*
X0086800Y0246372D01*
X0086800Y0244774D02*
X0086800Y0244774D01*
X0086800Y0243175D02*
X0086800Y0243175D01*
X0086800Y0241800D02*
X0081250Y0241800D01*
X0081250Y0239501D01*
X0084501Y0236250D01*
X0086800Y0236250D01*
X0086800Y0241800D01*
X0086800Y0241800D01*
X0086800Y0241577D02*
X0086800Y0241577D01*
X0086800Y0239978D02*
X0086800Y0239978D01*
X0086800Y0238380D02*
X0086800Y0238380D01*
X0086800Y0236781D02*
X0086800Y0236781D01*
X0089630Y0236781D02*
X0111500Y0236781D01*
X0111500Y0235183D02*
X0112100Y0235183D01*
X0112100Y0233584D02*
X0111500Y0233584D01*
X0111500Y0231986D02*
X0112100Y0231986D01*
X0116975Y0231986D02*
X0118553Y0231986D01*
X0125047Y0231986D02*
X0128553Y0231986D01*
X0126962Y0233584D02*
X0126638Y0233584D01*
X0135047Y0231986D02*
X0138729Y0231986D01*
X0137091Y0233584D02*
X0136638Y0233584D01*
X0118516Y0241577D02*
X0117000Y0241577D01*
X0112100Y0241577D02*
X0111500Y0241577D01*
X0111500Y0239978D02*
X0112100Y0239978D01*
X0112100Y0238380D02*
X0111500Y0238380D01*
X0083970Y0236781D02*
X0025000Y0236781D01*
X0025000Y0238380D02*
X0082371Y0238380D01*
X0081250Y0239978D02*
X0025000Y0239978D01*
X0025000Y0241577D02*
X0081250Y0241577D01*
X0081250Y0243175D02*
X0025000Y0243175D01*
X0025000Y0244774D02*
X0081925Y0244774D01*
X0083523Y0246372D02*
X0025000Y0246372D01*
X0025000Y0180833D02*
X0035906Y0180833D01*
X0033138Y0179235D02*
X0025000Y0179235D01*
X0053210Y0156856D02*
X0111609Y0156856D01*
X0109556Y0158454D02*
X0054417Y0158454D01*
X0116600Y0158454D02*
X0117000Y0158454D01*
X0117000Y0156856D02*
X0116600Y0156856D01*
X0116600Y0160053D02*
X0117000Y0160053D01*
X0176509Y0233584D02*
X0261490Y0233584D01*
X0259892Y0235183D02*
X0177268Y0235183D01*
X0147334Y0270350D02*
X0146311Y0270350D01*
X0197685Y0307116D02*
X0245285Y0307116D01*
X0243019Y0260759D02*
X0321250Y0260759D01*
X0321591Y0259160D02*
X0244965Y0259160D01*
X0246564Y0257562D02*
X0323189Y0257562D01*
X0330411Y0257562D02*
X0338313Y0257562D01*
X0339911Y0255963D02*
X0248162Y0255963D01*
X0249761Y0254365D02*
X0341510Y0254365D01*
X0343108Y0252766D02*
X0251359Y0252766D01*
X0252958Y0251168D02*
X0355907Y0251168D01*
X0357505Y0249569D02*
X0254556Y0249569D01*
X0256155Y0247971D02*
X0359104Y0247971D01*
X0360702Y0246372D02*
X0330077Y0246372D01*
X0329099Y0247350D02*
X0332350Y0244099D01*
X0332350Y0241800D01*
X0326800Y0241800D01*
X0326800Y0241800D01*
X0326800Y0247350D01*
X0329099Y0247350D01*
X0326800Y0247350D02*
X0324501Y0247350D01*
X0321250Y0244099D01*
X0321250Y0241800D01*
X0326800Y0241800D01*
X0326800Y0241800D01*
X0326800Y0241800D01*
X0326800Y0247350D01*
X0326800Y0246372D02*
X0326800Y0246372D01*
X0326800Y0244774D02*
X0326800Y0244774D01*
X0326800Y0243175D02*
X0326800Y0243175D01*
X0326800Y0241800D02*
X0321250Y0241800D01*
X0321250Y0239501D01*
X0324501Y0236250D01*
X0326800Y0236250D01*
X0329099Y0236250D01*
X0332350Y0239501D01*
X0332350Y0241800D01*
X0326800Y0241800D01*
X0326800Y0236250D01*
X0326800Y0241800D01*
X0326800Y0241800D01*
X0326800Y0241577D02*
X0326800Y0241577D01*
X0326800Y0239978D02*
X0326800Y0239978D01*
X0326800Y0238380D02*
X0326800Y0238380D01*
X0326800Y0236781D02*
X0326800Y0236781D01*
X0329630Y0236781D02*
X0351500Y0236781D01*
X0351500Y0236500D02*
X0346100Y0236500D01*
X0346100Y0233264D01*
X0346192Y0232800D01*
X0346373Y0232363D01*
X0346636Y0231970D01*
X0346970Y0231636D01*
X0347363Y0231373D01*
X0347800Y0231192D01*
X0348264Y0231100D01*
X0351500Y0231100D01*
X0351500Y0236500D01*
X0351500Y0235183D02*
X0352100Y0235183D01*
X0352100Y0233584D02*
X0351500Y0233584D01*
X0351500Y0231986D02*
X0352100Y0231986D01*
X0356975Y0231986D02*
X0358553Y0231986D01*
X0361800Y0230600D02*
X0358600Y0227400D01*
X0323400Y0227400D01*
X0305800Y0209800D01*
X0305800Y0208200D01*
X0306800Y0206800D01*
X0304948Y0201614D02*
X0298652Y0201614D01*
X0300991Y0203212D02*
X0302609Y0203212D01*
X0308652Y0201614D02*
X0314948Y0201614D01*
X0312609Y0203212D02*
X0310991Y0203212D01*
X0316800Y0206800D02*
X0317000Y0208200D01*
X0317000Y0209800D01*
X0331400Y0224200D01*
X0381000Y0224200D01*
X0392200Y0235400D01*
X0391800Y0236800D01*
X0392425Y0231100D02*
X0392934Y0231100D01*
X0395029Y0231968D01*
X0396632Y0233571D01*
X0396800Y0233976D01*
X0396968Y0233571D01*
X0398571Y0231968D01*
X0400666Y0231100D01*
X0402934Y0231100D01*
X0405029Y0231968D01*
X0406632Y0233571D01*
X0406819Y0234021D01*
X0406925Y0233813D01*
X0407452Y0233087D01*
X0408087Y0232452D01*
X0408813Y0231925D01*
X0409612Y0231518D01*
X0410465Y0231240D01*
X0411351Y0231100D01*
X0411500Y0231100D01*
X0411500Y0236500D01*
X0412100Y0236500D01*
X0412100Y0231100D01*
X0412249Y0231100D01*
X0413135Y0231240D01*
X0413988Y0231518D01*
X0414404Y0231730D01*
X0406875Y0224200D01*
X0385525Y0224200D01*
X0392425Y0231100D01*
X0391713Y0230387D02*
X0413062Y0230387D01*
X0412100Y0231986D02*
X0411500Y0231986D01*
X0411500Y0233584D02*
X0412100Y0233584D01*
X0412100Y0235183D02*
X0411500Y0235183D01*
X0412100Y0236781D02*
X0417800Y0236781D01*
X0417500Y0237100D02*
X0412100Y0237100D01*
X0412100Y0242500D01*
X0412249Y0242500D01*
X0413135Y0242360D01*
X0413988Y0242082D01*
X0414787Y0241675D01*
X0415513Y0241148D01*
X0416148Y0240513D01*
X0416675Y0239787D01*
X0417082Y0238988D01*
X0417360Y0238135D01*
X0417500Y0237249D01*
X0417500Y0237100D01*
X0417280Y0238380D02*
X0417800Y0238380D01*
X0416696Y0239978D02*
X0416536Y0239978D01*
X0415098Y0241577D02*
X0414923Y0241577D01*
X0413499Y0243175D02*
X0405000Y0243175D01*
X0405084Y0241577D02*
X0408677Y0241577D01*
X0407064Y0239978D02*
X0406653Y0239978D01*
X0411500Y0239978D02*
X0412100Y0239978D01*
X0412100Y0238380D02*
X0411500Y0238380D01*
X0411500Y0241577D02*
X0412100Y0241577D01*
X0411901Y0244774D02*
X0404695Y0244774D01*
X0403353Y0246372D02*
X0410302Y0246372D01*
X0408704Y0247971D02*
X0401755Y0247971D01*
X0400156Y0249569D02*
X0407105Y0249569D01*
X0405507Y0251168D02*
X0398558Y0251168D01*
X0396959Y0252766D02*
X0403908Y0252766D01*
X0402310Y0254365D02*
X0395361Y0254365D01*
X0393762Y0255963D02*
X0400711Y0255963D01*
X0399113Y0257562D02*
X0392164Y0257562D01*
X0390565Y0259160D02*
X0398600Y0259160D01*
X0405000Y0260759D02*
X0498600Y0260759D01*
X0498600Y0262357D02*
X0415418Y0262357D01*
X0416792Y0263956D02*
X0498600Y0263956D01*
X0498600Y0265554D02*
X0417454Y0265554D01*
X0417500Y0267153D02*
X0498600Y0267153D01*
X0498600Y0268751D02*
X0417161Y0268751D01*
X0416311Y0270350D02*
X0498600Y0270350D01*
X0498600Y0271948D02*
X0414265Y0271948D01*
X0409335Y0271948D02*
X0404265Y0271948D01*
X0406311Y0270350D02*
X0407289Y0270350D01*
X0399335Y0271948D02*
X0394251Y0271948D01*
X0396266Y0270350D02*
X0397289Y0270350D01*
X0406792Y0263956D02*
X0406808Y0263956D01*
X0408182Y0262357D02*
X0405418Y0262357D01*
X0406565Y0259160D02*
X0498600Y0259160D01*
X0498600Y0257562D02*
X0408164Y0257562D01*
X0409762Y0255963D02*
X0498600Y0255963D01*
X0498600Y0254365D02*
X0411361Y0254365D01*
X0412959Y0252766D02*
X0498600Y0252766D01*
X0498600Y0251168D02*
X0414558Y0251168D01*
X0416156Y0249569D02*
X0498600Y0249569D01*
X0498600Y0247971D02*
X0417755Y0247971D01*
X0419353Y0246372D02*
X0498600Y0246372D01*
X0498600Y0244774D02*
X0420952Y0244774D01*
X0422550Y0243175D02*
X0498600Y0243175D01*
X0498600Y0241577D02*
X0423893Y0241577D01*
X0424200Y0239978D02*
X0498600Y0239978D01*
X0498600Y0238380D02*
X0424200Y0238380D01*
X0424200Y0236781D02*
X0498600Y0236781D01*
X0498600Y0235183D02*
X0424200Y0235183D01*
X0424200Y0233584D02*
X0498600Y0233584D01*
X0498600Y0231986D02*
X0423711Y0231986D01*
X0422113Y0230387D02*
X0498600Y0230387D01*
X0498600Y0228789D02*
X0420514Y0228789D01*
X0418916Y0227190D02*
X0498600Y0227190D01*
X0498600Y0225592D02*
X0417317Y0225592D01*
X0415719Y0223993D02*
X0498600Y0223993D01*
X0498600Y0222395D02*
X0414120Y0222395D01*
X0412522Y0220796D02*
X0498600Y0220796D01*
X0498600Y0219198D02*
X0410923Y0219198D01*
X0408266Y0225592D02*
X0386917Y0225592D01*
X0388516Y0227190D02*
X0409865Y0227190D01*
X0411463Y0228789D02*
X0390114Y0228789D01*
X0395047Y0231986D02*
X0398553Y0231986D01*
X0396962Y0233584D02*
X0396638Y0233584D01*
X0401800Y0236800D02*
X0401800Y0243400D01*
X0387400Y0257800D01*
X0390113Y0259613D02*
X0390113Y0259613D01*
X0391500Y0262357D02*
X0392100Y0262357D01*
X0392704Y0247971D02*
X0370990Y0247971D01*
X0372953Y0246372D02*
X0394302Y0246372D01*
X0395901Y0244774D02*
X0374552Y0244774D01*
X0375894Y0243175D02*
X0397499Y0243175D01*
X0398516Y0241577D02*
X0395084Y0241577D01*
X0396653Y0239978D02*
X0396947Y0239978D01*
X0388516Y0241577D02*
X0384923Y0241577D01*
X0386536Y0239978D02*
X0386947Y0239978D01*
X0382100Y0239978D02*
X0381500Y0239978D01*
X0381500Y0238380D02*
X0382100Y0238380D01*
X0382100Y0236500D02*
X0382100Y0231100D01*
X0382249Y0231100D01*
X0383135Y0231240D01*
X0383698Y0231423D01*
X0379675Y0227400D01*
X0363125Y0227400D01*
X0363613Y0227887D01*
X0364513Y0228787D01*
X0365000Y0229963D01*
X0365000Y0231956D01*
X0365029Y0231968D01*
X0366632Y0233571D01*
X0366800Y0233976D01*
X0366968Y0233571D01*
X0368571Y0231968D01*
X0370666Y0231100D01*
X0372934Y0231100D01*
X0375029Y0231968D01*
X0376632Y0233571D01*
X0376819Y0234021D01*
X0376925Y0233813D01*
X0377452Y0233087D01*
X0378087Y0232452D01*
X0378813Y0231925D01*
X0379612Y0231518D01*
X0380465Y0231240D01*
X0381351Y0231100D01*
X0381500Y0231100D01*
X0381500Y0236500D01*
X0382100Y0236500D01*
X0382100Y0235183D02*
X0381500Y0235183D01*
X0381500Y0233584D02*
X0382100Y0233584D01*
X0382100Y0231986D02*
X0381500Y0231986D01*
X0382662Y0230387D02*
X0365000Y0230387D01*
X0365047Y0231986D02*
X0368553Y0231986D01*
X0366962Y0233584D02*
X0366638Y0233584D01*
X0361800Y0233800D02*
X0361800Y0230600D01*
X0361800Y0233800D02*
X0360200Y0235400D01*
X0361800Y0237000D01*
X0361800Y0236800D01*
X0366653Y0239978D02*
X0366947Y0239978D01*
X0368516Y0241577D02*
X0365084Y0241577D01*
X0363899Y0243175D02*
X0332350Y0243175D01*
X0332350Y0241577D02*
X0346600Y0241577D01*
X0346100Y0239978D02*
X0332350Y0239978D01*
X0331229Y0238380D02*
X0346100Y0238380D01*
X0346100Y0235183D02*
X0268943Y0235183D01*
X0267344Y0236781D02*
X0323970Y0236781D01*
X0322371Y0238380D02*
X0265746Y0238380D01*
X0264147Y0239978D02*
X0321250Y0239978D01*
X0321250Y0241577D02*
X0262549Y0241577D01*
X0260950Y0243175D02*
X0321250Y0243175D01*
X0321925Y0244774D02*
X0259352Y0244774D01*
X0257753Y0246372D02*
X0323523Y0246372D01*
X0331675Y0244774D02*
X0362301Y0244774D01*
X0366600Y0245000D02*
X0369800Y0245000D01*
X0373000Y0241800D01*
X0373000Y0237000D01*
X0371800Y0236800D01*
X0376653Y0239978D02*
X0377064Y0239978D01*
X0376200Y0241577D02*
X0378677Y0241577D01*
X0381500Y0241577D02*
X0382100Y0241577D01*
X0377091Y0233584D02*
X0376638Y0233584D01*
X0375047Y0231986D02*
X0378729Y0231986D01*
X0381063Y0228789D02*
X0364513Y0228789D01*
X0352100Y0238380D02*
X0351500Y0238380D01*
X0351500Y0239978D02*
X0352100Y0239978D01*
X0352100Y0241577D02*
X0351500Y0241577D01*
X0357000Y0241577D02*
X0358516Y0241577D01*
X0346100Y0233584D02*
X0270541Y0233584D01*
X0272140Y0231986D02*
X0346625Y0231986D01*
X0335725Y0217599D02*
X0498600Y0217599D01*
X0498600Y0216001D02*
X0334126Y0216001D01*
X0333427Y0211205D02*
X0330173Y0211205D01*
X0331591Y0209606D02*
X0332009Y0209606D01*
X0324948Y0201614D02*
X0318652Y0201614D01*
X0320991Y0203212D02*
X0322609Y0203212D01*
X0304278Y0212803D02*
X0289800Y0212803D01*
X0289483Y0214402D02*
X0305877Y0214402D01*
X0307475Y0216001D02*
X0288125Y0216001D01*
X0286526Y0217599D02*
X0309074Y0217599D01*
X0310672Y0219198D02*
X0284928Y0219198D01*
X0283329Y0220796D02*
X0312271Y0220796D01*
X0313869Y0222395D02*
X0281731Y0222395D01*
X0280132Y0223993D02*
X0315468Y0223993D01*
X0317066Y0225592D02*
X0278534Y0225592D01*
X0276935Y0227190D02*
X0318665Y0227190D01*
X0320263Y0228789D02*
X0275337Y0228789D01*
X0273738Y0230387D02*
X0322250Y0230387D01*
X0302918Y0211205D02*
X0300173Y0211205D01*
X0301591Y0209606D02*
X0302009Y0209606D01*
X0293427Y0211205D02*
X0290173Y0211205D01*
X0291591Y0209606D02*
X0292009Y0209606D01*
X0292609Y0203212D02*
X0290991Y0203212D01*
X0288652Y0201614D02*
X0294948Y0201614D01*
X0274948Y0201614D02*
X0268652Y0201614D01*
X0270991Y0203212D02*
X0272609Y0203212D01*
X0332009Y0259160D02*
X0336714Y0259160D01*
X0335116Y0260759D02*
X0332350Y0260759D01*
X0332350Y0262357D02*
X0333517Y0262357D01*
X0345800Y0287934D02*
X0349121Y0287934D01*
X0347120Y0289532D02*
X0345800Y0289532D01*
X0345800Y0291131D02*
X0346248Y0291131D01*
X0354479Y0287934D02*
X0368806Y0287934D01*
X0366805Y0289532D02*
X0356480Y0289532D01*
X0357352Y0291131D02*
X0365933Y0291131D01*
X0365542Y0292729D02*
X0357743Y0292729D01*
X0357743Y0294328D02*
X0365542Y0294328D01*
X0365285Y0295926D02*
X0357743Y0295926D01*
X0374164Y0287934D02*
X0389471Y0287934D01*
X0389834Y0287749D02*
X0390723Y0287460D01*
X0391647Y0287313D01*
X0391734Y0287313D01*
X0391734Y0296419D01*
X0392496Y0296419D01*
X0392496Y0297181D01*
X0398058Y0297181D01*
X0398058Y0300811D01*
X0397912Y0301735D01*
X0397623Y0302625D01*
X0397198Y0303458D01*
X0396648Y0304215D01*
X0395987Y0304877D01*
X0395230Y0305426D01*
X0394396Y0305851D01*
X0393507Y0306140D01*
X0392583Y0306287D01*
X0392496Y0306287D01*
X0392496Y0297181D01*
X0391734Y0297181D01*
X0391734Y0306287D01*
X0391647Y0306287D01*
X0390723Y0306140D01*
X0389834Y0305851D01*
X0389000Y0305426D01*
X0388243Y0304877D01*
X0387582Y0304215D01*
X0387032Y0303458D01*
X0386607Y0302625D01*
X0386318Y0301735D01*
X0386172Y0300811D01*
X0386172Y0297181D01*
X0391734Y0297181D01*
X0391734Y0296419D01*
X0386172Y0296419D01*
X0386172Y0292789D01*
X0386318Y0291865D01*
X0386607Y0290975D01*
X0387032Y0290142D01*
X0387582Y0289385D01*
X0388243Y0288723D01*
X0389000Y0288174D01*
X0389834Y0287749D01*
X0391734Y0287934D02*
X0392496Y0287934D01*
X0392496Y0287313D02*
X0392583Y0287313D01*
X0393507Y0287460D01*
X0394396Y0287749D01*
X0395230Y0288174D01*
X0395987Y0288723D01*
X0396648Y0289385D01*
X0397198Y0290142D01*
X0397623Y0290975D01*
X0397912Y0291865D01*
X0398058Y0292789D01*
X0398058Y0296419D01*
X0392496Y0296419D01*
X0392496Y0287313D01*
X0392496Y0289532D02*
X0391734Y0289532D01*
X0391734Y0291131D02*
X0392496Y0291131D01*
X0392496Y0292729D02*
X0391734Y0292729D01*
X0391734Y0294328D02*
X0392496Y0294328D01*
X0392496Y0295926D02*
X0391734Y0295926D01*
X0391734Y0297525D02*
X0392496Y0297525D01*
X0392496Y0299123D02*
X0391734Y0299123D01*
X0391734Y0300722D02*
X0392496Y0300722D01*
X0392496Y0302320D02*
X0391734Y0302320D01*
X0391734Y0303919D02*
X0392496Y0303919D01*
X0392496Y0305517D02*
X0391734Y0305517D01*
X0389178Y0305517D02*
X0377685Y0305517D01*
X0377685Y0303919D02*
X0387366Y0303919D01*
X0386508Y0302320D02*
X0377685Y0302320D01*
X0377685Y0300722D02*
X0386172Y0300722D01*
X0386172Y0299123D02*
X0377685Y0299123D01*
X0377685Y0297525D02*
X0386172Y0297525D01*
X0386172Y0295926D02*
X0377685Y0295926D01*
X0377428Y0294328D02*
X0386172Y0294328D01*
X0386181Y0292729D02*
X0377428Y0292729D01*
X0377037Y0291131D02*
X0386557Y0291131D01*
X0387475Y0289532D02*
X0376165Y0289532D01*
X0394759Y0287934D02*
X0409121Y0287934D01*
X0407120Y0289532D02*
X0396755Y0289532D01*
X0397673Y0291131D02*
X0406248Y0291131D01*
X0405857Y0292729D02*
X0398049Y0292729D01*
X0398058Y0294328D02*
X0405857Y0294328D01*
X0405857Y0295926D02*
X0398058Y0295926D01*
X0398058Y0297525D02*
X0405857Y0297525D01*
X0405857Y0299123D02*
X0398058Y0299123D01*
X0398058Y0300722D02*
X0405857Y0300722D01*
X0406186Y0302320D02*
X0397722Y0302320D01*
X0396864Y0303919D02*
X0406970Y0303919D01*
X0408760Y0305517D02*
X0395052Y0305517D01*
X0406638Y0233584D02*
X0407091Y0233584D01*
X0408729Y0231986D02*
X0405047Y0231986D01*
X0417268Y0235183D02*
X0417800Y0235183D01*
X0511800Y0046800D02*
X0506800Y0011800D01*
X0481800Y0011800D01*
X0501800Y0008194D02*
X0516921Y0008194D01*
X0498600Y0028975D02*
X0495608Y0028975D01*
X0496788Y0030573D02*
X0498600Y0030573D01*
X0498600Y0032172D02*
X0497331Y0032172D01*
X0497428Y0033770D02*
X0498600Y0033770D01*
X0498600Y0035369D02*
X0497428Y0035369D01*
X0066648Y0052952D02*
X0025000Y0052952D01*
X0025000Y0051354D02*
X0064428Y0051354D01*
X0062830Y0049755D02*
X0025000Y0049755D01*
X0025000Y0048157D02*
X0061231Y0048157D01*
X0045857Y0038566D02*
X0038094Y0038566D01*
X0026932Y0043361D02*
X0025000Y0043361D01*
X0025000Y0041763D02*
X0026270Y0041763D01*
X0026172Y0040164D02*
X0025000Y0040164D01*
X0025000Y0038566D02*
X0026136Y0038566D01*
X0025915Y0036967D02*
X0025000Y0036967D01*
X0025000Y0035369D02*
X0025915Y0035369D01*
X0025915Y0033770D02*
X0025000Y0033770D01*
X0025000Y0032172D02*
X0025915Y0032172D01*
X0025915Y0030573D02*
X0025000Y0030573D01*
X0025000Y0028975D02*
X0025915Y0028975D01*
X0025915Y0027376D02*
X0025000Y0027376D01*
X0025000Y0025778D02*
X0025915Y0025778D01*
X0031800Y0321800D02*
X0011800Y0321800D01*
D19*
X0031800Y0271800D03*
X0031800Y0246800D03*
X0031800Y0221800D03*
X0031800Y0146800D03*
X0031800Y0121800D03*
X0031800Y0096800D03*
X0031800Y0071800D03*
X0194300Y0104300D03*
X0321800Y0119300D03*
X0491800Y0116800D03*
X0491800Y0141800D03*
X0491800Y0166800D03*
X0491800Y0191800D03*
X0491800Y0216800D03*
X0491800Y0241800D03*
X0491800Y0266800D03*
X0491800Y0091800D03*
X0491800Y0066800D03*
D20*
X0454556Y0080540D03*
X0454556Y0257706D03*
X0060855Y0257706D03*
X0040855Y0205540D03*
X0041800Y0166800D03*
X0060855Y0080540D03*
D21*
X0181000Y0093000D03*
X0337800Y0105800D03*
D22*
X0332115Y0036800D02*
X0332115Y0011800D01*
X0331800Y0011800D01*
X0391800Y0011800D02*
X0392115Y0011800D01*
X0392115Y0036800D01*
X0452115Y0036800D02*
X0452115Y0011800D01*
X0451800Y0011800D01*
X0272115Y0011800D02*
X0271800Y0011800D01*
X0272115Y0011800D02*
X0272115Y0036800D01*
X0212115Y0036800D02*
X0212115Y0011800D01*
X0211800Y0011800D01*
X0152115Y0011800D02*
X0151800Y0011800D01*
X0152115Y0011800D02*
X0152115Y0036800D01*
X0092115Y0036800D02*
X0092115Y0011800D01*
X0091800Y0011800D01*
X0032115Y0011800D02*
X0031800Y0011800D01*
X0032115Y0011800D02*
X0032115Y0036800D01*
X0071485Y0296800D02*
X0071485Y0316800D01*
X0071800Y0316800D01*
X0131485Y0316800D02*
X0131485Y0296800D01*
X0131485Y0316800D02*
X0131800Y0316800D01*
X0191485Y0321800D02*
X0191485Y0296800D01*
X0191485Y0321800D02*
X0191800Y0321800D01*
X0251485Y0316800D02*
X0251485Y0296800D01*
X0251485Y0316800D02*
X0251800Y0316800D01*
X0311485Y0316800D02*
X0311485Y0296800D01*
X0311485Y0316800D02*
X0311800Y0316800D01*
X0371485Y0316800D02*
X0371485Y0296800D01*
X0371485Y0316800D02*
X0371800Y0316800D01*
X0431485Y0321800D02*
X0431485Y0296800D01*
X0431485Y0321800D02*
X0431800Y0321800D01*
X0491485Y0316800D02*
X0491485Y0296800D01*
X0491485Y0316800D02*
X0491800Y0316800D01*
D23*
X0041800Y0166800D02*
X0016800Y0166800D01*
M02*
