%
M48
M72
T01C0.02362
T02C0.02400
T03C0.03200
T04C0.03543
T05C0.04000
T06C0.04400
T07C0.04724
T08C0.09843
T09C0.12598
%
T01
X31800Y71800
X31800Y96800
X31800Y121800
X31800Y146800
X31800Y221800
X31800Y246800
X31800Y271800
X194300Y104300
X321800Y119300
X491800Y116800
X491800Y141800
X491800Y166800
X491800Y191800
X491800Y216800
X491800Y241800
X491800Y266800
X491800Y91800
X491800Y66800
T02
X181000Y93000
X337800Y105800
T03
X86800Y71800
X86800Y91800
X86800Y241800
X86800Y261800
X326800Y261800
X326800Y241800
X326800Y91800
X326800Y71800
T04
X186800Y126800
X196800Y126800
X206800Y126800
X216800Y126800
X226800Y126800
X236800Y126800
X246800Y126800
X256800Y126800
X266800Y126800
X276800Y126800
X286800Y126800
X296800Y126800
X306800Y126800
X316800Y126800
X326800Y126800
X336800Y126800
X336800Y206800
X326800Y206800
X316800Y206800
X306800Y206800
X296800Y206800
X286800Y206800
X276800Y206800
X266800Y206800
X256800Y206800
X246800Y206800
X236800Y206800
X226800Y206800
T05
X116800Y171800
X116800Y161800
T06
X111800Y66800
X121800Y66800
X131800Y66800
X141800Y66800
X151800Y66800
X161800Y66800
X171800Y66800
X171800Y96800
X161800Y96800
X151800Y96800
X141800Y96800
X131800Y96800
X121800Y96800
X111800Y96800
X111800Y236800
X121800Y236800
X131800Y236800
X141800Y236800
X151800Y236800
X161800Y236800
X171800Y236800
X171800Y266800
X161800Y266800
X151800Y266800
X141800Y266800
X131800Y266800
X121800Y266800
X111800Y266800
X351800Y266800
X361800Y266800
X371800Y266800
X381800Y266800
X391800Y266800
X401800Y266800
X411800Y266800
X411800Y236800
X401800Y236800
X391800Y236800
X381800Y236800
X371800Y236800
X361800Y236800
X351800Y236800
X351800Y96800
X361800Y96800
X371800Y96800
X381800Y96800
X391800Y96800
X401800Y96800
X411800Y96800
X411800Y66800
X401800Y66800
X391800Y66800
X381800Y66800
X371800Y66800
X361800Y66800
X351800Y66800
T07
X32115Y36800
X51800Y36800
X71485Y36800
X92115Y36800
X111800Y36800
X131485Y36800
X152115Y36800
X171800Y36800
X191485Y36800
X212115Y36800
X231800Y36800
X251485Y36800
X272115Y36800
X291800Y36800
X311485Y36800
X332115Y36800
X351800Y36800
X371485Y36800
X392115Y36800
X411800Y36800
X431485Y36800
X452115Y36800
X471800Y36800
X491485Y36800
X491485Y296800
X471800Y296800
X452115Y296800
X431485Y296800
X411800Y296800
X392115Y296800
X371485Y296800
X351800Y296800
X332115Y296800
X311485Y296800
X291800Y296800
X272115Y296800
X251485Y296800
X231800Y296800
X212115Y296800
X191485Y296800
X171800Y296800
X152115Y296800
X131485Y296800
X111800Y296800
X92115Y296800
X71485Y296800
X51800Y296800
X32115Y296800
T08
X171800Y201800
X171800Y131800
X351800Y129050
X351800Y204300
T09
X60855Y257706
X40855Y205540
X41800Y166800
X60855Y80540
X454556Y80540
X454556Y257706
M30
