G75*
%MOIN*%
%OFA0B0*%
%FSLAX25Y25*%
%IPPOS*%
%LPD*%
%AMOC8*
5,1,8,0,0,1.08239X$1,22.5*
%
%ADD10C,0.00000*%
%ADD11R,0.06600X0.06600*%
%ADD12C,0.06600*%
%ADD13C,0.13843*%
%ADD14C,0.06200*%
%ADD15OC8,0.06300*%
%ADD16C,0.06000*%
%ADD17C,0.07087*%
%ADD18C,0.01600*%
%ADD19C,0.03962*%
%ADD20C,0.25400*%
%ADD21C,0.04000*%
D10*
X0001800Y0001800D02*
X0001800Y0330501D01*
X0521721Y0330501D01*
X0521721Y0001800D01*
X0001800Y0001800D01*
D11*
X0111800Y0066800D03*
X0351800Y0066800D03*
X0351800Y0236800D03*
X0111800Y0236800D03*
D12*
X0121800Y0236800D03*
X0131800Y0236800D03*
X0141800Y0236800D03*
X0151800Y0236800D03*
X0161800Y0236800D03*
X0171800Y0236800D03*
X0171800Y0266800D03*
X0161800Y0266800D03*
X0151800Y0266800D03*
X0141800Y0266800D03*
X0131800Y0266800D03*
X0121800Y0266800D03*
X0111800Y0266800D03*
X0351800Y0266800D03*
X0361800Y0266800D03*
X0371800Y0266800D03*
X0381800Y0266800D03*
X0391800Y0266800D03*
X0401800Y0266800D03*
X0411800Y0266800D03*
X0411800Y0236800D03*
X0401800Y0236800D03*
X0391800Y0236800D03*
X0381800Y0236800D03*
X0371800Y0236800D03*
X0361800Y0236800D03*
X0361800Y0096800D03*
X0351800Y0096800D03*
X0371800Y0096800D03*
X0381800Y0096800D03*
X0391800Y0096800D03*
X0401800Y0096800D03*
X0411800Y0096800D03*
X0411800Y0066800D03*
X0401800Y0066800D03*
X0391800Y0066800D03*
X0381800Y0066800D03*
X0371800Y0066800D03*
X0361800Y0066800D03*
X0171800Y0066800D03*
X0161800Y0066800D03*
X0151800Y0066800D03*
X0141800Y0066800D03*
X0131800Y0066800D03*
X0121800Y0066800D03*
X0121800Y0096800D03*
X0111800Y0096800D03*
X0131800Y0096800D03*
X0141800Y0096800D03*
X0151800Y0096800D03*
X0161800Y0096800D03*
X0171800Y0096800D03*
D13*
X0171800Y0131800D03*
X0171800Y0201800D03*
X0351800Y0204300D03*
X0351800Y0129050D03*
D14*
X0336800Y0126800D03*
X0326800Y0126800D03*
X0316800Y0126800D03*
X0306800Y0126800D03*
X0296800Y0126800D03*
X0286800Y0126800D03*
X0276800Y0126800D03*
X0266800Y0126800D03*
X0256800Y0126800D03*
X0246800Y0126800D03*
X0236800Y0126800D03*
X0226800Y0126800D03*
X0216800Y0126800D03*
X0206800Y0126800D03*
X0196800Y0126800D03*
X0186800Y0126800D03*
X0226800Y0206800D03*
X0236800Y0206800D03*
X0246800Y0206800D03*
X0256800Y0206800D03*
X0266800Y0206800D03*
X0276800Y0206800D03*
X0286800Y0206800D03*
X0296800Y0206800D03*
X0306800Y0206800D03*
X0316800Y0206800D03*
X0326800Y0206800D03*
X0336800Y0206800D03*
D15*
X0326800Y0241800D03*
X0326800Y0261800D03*
X0086800Y0261800D03*
X0086800Y0241800D03*
X0086800Y0091800D03*
X0086800Y0071800D03*
X0326800Y0071800D03*
X0326800Y0091800D03*
D16*
X0119800Y0161800D02*
X0113800Y0161800D01*
X0113800Y0171800D02*
X0119800Y0171800D01*
D17*
X0111800Y0293257D02*
X0111800Y0300343D01*
X0092115Y0300343D02*
X0092115Y0293257D01*
X0071485Y0293257D02*
X0071485Y0300343D01*
X0051800Y0300343D02*
X0051800Y0293257D01*
X0032115Y0293257D02*
X0032115Y0300343D01*
X0131485Y0300343D02*
X0131485Y0293257D01*
X0152115Y0293257D02*
X0152115Y0300343D01*
X0171800Y0300343D02*
X0171800Y0293257D01*
X0191485Y0293257D02*
X0191485Y0300343D01*
X0212115Y0300343D02*
X0212115Y0293257D01*
X0231800Y0293257D02*
X0231800Y0300343D01*
X0251485Y0300343D02*
X0251485Y0293257D01*
X0272115Y0293257D02*
X0272115Y0300343D01*
X0291800Y0300343D02*
X0291800Y0293257D01*
X0311485Y0293257D02*
X0311485Y0300343D01*
X0332115Y0300343D02*
X0332115Y0293257D01*
X0351800Y0293257D02*
X0351800Y0300343D01*
X0371485Y0300343D02*
X0371485Y0293257D01*
X0392115Y0293257D02*
X0392115Y0300343D01*
X0411800Y0300343D02*
X0411800Y0293257D01*
X0431485Y0293257D02*
X0431485Y0300343D01*
X0452115Y0300343D02*
X0452115Y0293257D01*
X0471800Y0293257D02*
X0471800Y0300343D01*
X0491485Y0300343D02*
X0491485Y0293257D01*
X0491485Y0040343D02*
X0491485Y0033257D01*
X0471800Y0033257D02*
X0471800Y0040343D01*
X0452115Y0040343D02*
X0452115Y0033257D01*
X0431485Y0033257D02*
X0431485Y0040343D01*
X0411800Y0040343D02*
X0411800Y0033257D01*
X0392115Y0033257D02*
X0392115Y0040343D01*
X0371485Y0040343D02*
X0371485Y0033257D01*
X0351800Y0033257D02*
X0351800Y0040343D01*
X0332115Y0040343D02*
X0332115Y0033257D01*
X0311485Y0033257D02*
X0311485Y0040343D01*
X0291800Y0040343D02*
X0291800Y0033257D01*
X0272115Y0033257D02*
X0272115Y0040343D01*
X0251485Y0040343D02*
X0251485Y0033257D01*
X0231800Y0033257D02*
X0231800Y0040343D01*
X0212115Y0040343D02*
X0212115Y0033257D01*
X0191485Y0033257D02*
X0191485Y0040343D01*
X0171800Y0040343D02*
X0171800Y0033257D01*
X0152115Y0033257D02*
X0152115Y0040343D01*
X0131485Y0040343D02*
X0131485Y0033257D01*
X0111800Y0033257D02*
X0111800Y0040343D01*
X0092115Y0040343D02*
X0092115Y0033257D01*
X0071485Y0033257D02*
X0071485Y0040343D01*
X0051800Y0040343D02*
X0051800Y0033257D01*
X0032115Y0033257D02*
X0032115Y0040343D01*
D18*
X0038058Y0040164D02*
X0045857Y0040164D01*
X0045857Y0041526D02*
X0046762Y0043710D01*
X0048433Y0045382D01*
X0050618Y0046287D01*
X0052982Y0046287D01*
X0055167Y0045382D01*
X0056838Y0043710D01*
X0057743Y0041526D01*
X0057743Y0032074D01*
X0056838Y0029890D01*
X0055167Y0028218D01*
X0052982Y0027313D01*
X0050618Y0027313D01*
X0048433Y0028218D01*
X0046762Y0029890D01*
X0045857Y0032074D01*
X0045857Y0041526D01*
X0045955Y0041763D02*
X0037960Y0041763D01*
X0038058Y0041526D02*
X0037153Y0043710D01*
X0035482Y0045382D01*
X0033297Y0046287D01*
X0030933Y0046287D01*
X0028748Y0045382D01*
X0027076Y0043710D01*
X0026172Y0041526D01*
X0026172Y0032074D01*
X0027076Y0029890D01*
X0028748Y0028218D01*
X0030933Y0027313D01*
X0033297Y0027313D01*
X0035482Y0028218D01*
X0037153Y0029890D01*
X0038058Y0032074D01*
X0038058Y0041526D01*
X0037298Y0043361D02*
X0046617Y0043361D01*
X0048011Y0044960D02*
X0035904Y0044960D01*
X0028326Y0044960D02*
X0006600Y0044960D01*
X0006600Y0046558D02*
X0077831Y0046558D01*
X0079430Y0044960D02*
X0075242Y0044960D01*
X0075357Y0044877D02*
X0074600Y0045426D01*
X0073766Y0045851D01*
X0072877Y0046140D01*
X0071953Y0046287D01*
X0071866Y0046287D01*
X0071866Y0037181D01*
X0071104Y0037181D01*
X0071104Y0036419D01*
X0065542Y0036419D01*
X0065542Y0032789D01*
X0065688Y0031865D01*
X0065977Y0030975D01*
X0066402Y0030142D01*
X0066952Y0029385D01*
X0067613Y0028723D01*
X0068370Y0028174D01*
X0069204Y0027749D01*
X0070093Y0027460D01*
X0071017Y0027313D01*
X0071104Y0027313D01*
X0071104Y0036419D01*
X0071866Y0036419D01*
X0071866Y0027313D01*
X0071953Y0027313D01*
X0072877Y0027460D01*
X0073766Y0027749D01*
X0074600Y0028174D01*
X0075357Y0028723D01*
X0076018Y0029385D01*
X0076568Y0030142D01*
X0076993Y0030975D01*
X0077282Y0031865D01*
X0077428Y0032789D01*
X0077428Y0036419D01*
X0071866Y0036419D01*
X0071866Y0037181D01*
X0077428Y0037181D01*
X0077428Y0040811D01*
X0077282Y0041735D01*
X0076993Y0042625D01*
X0076568Y0043458D01*
X0076018Y0044215D01*
X0075357Y0044877D01*
X0076618Y0043361D02*
X0081028Y0043361D01*
X0082627Y0041763D02*
X0077273Y0041763D01*
X0077428Y0040164D02*
X0084225Y0040164D01*
X0085824Y0038566D02*
X0077428Y0038566D01*
X0077428Y0035369D02*
X0086172Y0035369D01*
X0086172Y0036967D02*
X0071866Y0036967D01*
X0071104Y0036967D02*
X0057743Y0036967D01*
X0057743Y0035369D02*
X0065542Y0035369D01*
X0065542Y0033770D02*
X0057743Y0033770D01*
X0057743Y0032172D02*
X0065639Y0032172D01*
X0066182Y0030573D02*
X0057121Y0030573D01*
X0055923Y0028975D02*
X0067362Y0028975D01*
X0070621Y0027376D02*
X0053134Y0027376D01*
X0050466Y0027376D02*
X0033449Y0027376D01*
X0030781Y0027376D02*
X0006600Y0027376D01*
X0006600Y0025778D02*
X0160497Y0025778D01*
X0159087Y0027187D02*
X0165487Y0020787D01*
X0166387Y0019887D01*
X0167563Y0019400D01*
X0215237Y0019400D01*
X0216413Y0019887D01*
X0224413Y0027887D01*
X0225313Y0028787D01*
X0225800Y0029963D01*
X0225800Y0030875D01*
X0226192Y0031266D01*
X0226762Y0029890D01*
X0228433Y0028218D01*
X0230618Y0027313D01*
X0232982Y0027313D01*
X0235167Y0028218D01*
X0236838Y0029890D01*
X0237743Y0032074D01*
X0237743Y0041526D01*
X0236838Y0043710D01*
X0235167Y0045382D01*
X0232982Y0046287D01*
X0230618Y0046287D01*
X0228433Y0045382D01*
X0226762Y0043710D01*
X0225857Y0041526D01*
X0225857Y0039982D01*
X0219887Y0034013D01*
X0219400Y0032837D01*
X0219400Y0031925D01*
X0213275Y0025800D01*
X0169525Y0025800D01*
X0165000Y0030325D01*
X0165000Y0045275D01*
X0166704Y0043571D01*
X0165857Y0041526D01*
X0165857Y0032074D01*
X0166762Y0029890D01*
X0168433Y0028218D01*
X0170618Y0027313D01*
X0172982Y0027313D01*
X0175167Y0028218D01*
X0176838Y0029890D01*
X0177743Y0032074D01*
X0177743Y0041526D01*
X0176838Y0043710D01*
X0175167Y0045382D01*
X0173079Y0046247D01*
X0165000Y0054325D01*
X0165000Y0061956D01*
X0165029Y0061968D01*
X0166632Y0063571D01*
X0166819Y0064021D01*
X0166925Y0063813D01*
X0167452Y0063087D01*
X0168087Y0062452D01*
X0168813Y0061925D01*
X0169612Y0061518D01*
X0170465Y0061240D01*
X0171351Y0061100D01*
X0171500Y0061100D01*
X0171500Y0066500D01*
X0172100Y0066500D01*
X0172100Y0067100D01*
X0171500Y0067100D01*
X0171500Y0072500D01*
X0171351Y0072500D01*
X0170465Y0072360D01*
X0169612Y0072082D01*
X0168813Y0071675D01*
X0168087Y0071148D01*
X0167452Y0070513D01*
X0166925Y0069787D01*
X0166819Y0069579D01*
X0166632Y0070029D01*
X0165029Y0071632D01*
X0162934Y0072500D01*
X0160666Y0072500D01*
X0158571Y0071632D01*
X0156968Y0070029D01*
X0156800Y0069624D01*
X0156632Y0070029D01*
X0156393Y0070268D01*
X0159925Y0073800D01*
X0191237Y0073800D01*
X0192413Y0074287D01*
X0193313Y0075187D01*
X0238113Y0119987D01*
X0238600Y0121163D01*
X0238600Y0121592D01*
X0239915Y0122137D01*
X0241463Y0123684D01*
X0241800Y0124499D01*
X0242137Y0123684D01*
X0243684Y0122137D01*
X0245706Y0121300D01*
X0247894Y0121300D01*
X0249915Y0122137D01*
X0251463Y0123684D01*
X0251800Y0124499D01*
X0252137Y0123684D01*
X0253684Y0122137D01*
X0255706Y0121300D01*
X0257894Y0121300D01*
X0259915Y0122137D01*
X0261463Y0123684D01*
X0261800Y0124499D01*
X0262137Y0123684D01*
X0263684Y0122137D01*
X0265706Y0121300D01*
X0267894Y0121300D01*
X0269915Y0122137D01*
X0271463Y0123684D01*
X0271800Y0124499D01*
X0272137Y0123684D01*
X0273684Y0122137D01*
X0275706Y0121300D01*
X0277894Y0121300D01*
X0279915Y0122137D01*
X0281463Y0123684D01*
X0281800Y0124499D01*
X0282137Y0123684D01*
X0283684Y0122137D01*
X0285000Y0121592D01*
X0285000Y0121163D01*
X0285487Y0119987D01*
X0296687Y0108787D01*
X0297587Y0107887D01*
X0298763Y0107400D01*
X0325275Y0107400D01*
X0299187Y0081313D01*
X0298287Y0080413D01*
X0297800Y0079237D01*
X0297800Y0041525D01*
X0297743Y0041469D01*
X0297743Y0041526D01*
X0296838Y0043710D01*
X0295167Y0045382D01*
X0292982Y0046287D01*
X0290618Y0046287D01*
X0288433Y0045382D01*
X0286762Y0043710D01*
X0285857Y0041526D01*
X0285857Y0032074D01*
X0286762Y0029890D01*
X0288433Y0028218D01*
X0290618Y0027313D01*
X0292982Y0027313D01*
X0295167Y0028218D01*
X0296838Y0029890D01*
X0297743Y0032074D01*
X0297743Y0032418D01*
X0303713Y0038387D01*
X0304200Y0039563D01*
X0304200Y0077275D01*
X0329525Y0102600D01*
X0334777Y0102600D01*
X0335308Y0102070D01*
X0336925Y0101400D01*
X0338675Y0101400D01*
X0340292Y0102070D01*
X0341530Y0103308D01*
X0342200Y0104925D01*
X0342200Y0106675D01*
X0341900Y0107400D01*
X0358875Y0107400D01*
X0364404Y0101870D01*
X0363988Y0102082D01*
X0363135Y0102360D01*
X0362249Y0102500D01*
X0362100Y0102500D01*
X0362100Y0097100D01*
X0361500Y0097100D01*
X0361500Y0102500D01*
X0361351Y0102500D01*
X0360465Y0102360D01*
X0359612Y0102082D01*
X0358813Y0101675D01*
X0358087Y0101148D01*
X0357452Y0100513D01*
X0356925Y0099787D01*
X0356819Y0099579D01*
X0356632Y0100029D01*
X0355029Y0101632D01*
X0352934Y0102500D01*
X0350666Y0102500D01*
X0348571Y0101632D01*
X0346968Y0100029D01*
X0346956Y0100000D01*
X0331163Y0100000D01*
X0329987Y0099513D01*
X0329087Y0098613D01*
X0327825Y0097350D01*
X0324501Y0097350D01*
X0321250Y0094099D01*
X0321250Y0090775D01*
X0314087Y0083613D01*
X0313600Y0082437D01*
X0313600Y0051478D01*
X0314087Y0050302D01*
X0314987Y0049402D01*
X0326172Y0038218D01*
X0326172Y0032074D01*
X0327076Y0029890D01*
X0328748Y0028218D01*
X0330933Y0027313D01*
X0333297Y0027313D01*
X0335482Y0028218D01*
X0337153Y0029890D01*
X0338058Y0032074D01*
X0338058Y0041526D01*
X0337153Y0043710D01*
X0335482Y0045382D01*
X0333297Y0046287D01*
X0330933Y0046287D01*
X0328748Y0045382D01*
X0328403Y0045037D01*
X0320000Y0053440D01*
X0320000Y0080475D01*
X0325775Y0086250D01*
X0329099Y0086250D01*
X0332350Y0089501D01*
X0332350Y0092825D01*
X0333125Y0093600D01*
X0346956Y0093600D01*
X0346968Y0093571D01*
X0348571Y0091968D01*
X0350666Y0091100D01*
X0352934Y0091100D01*
X0355029Y0091968D01*
X0356632Y0093571D01*
X0356819Y0094021D01*
X0356925Y0093813D01*
X0357452Y0093087D01*
X0358087Y0092452D01*
X0358813Y0091925D01*
X0359612Y0091518D01*
X0360465Y0091240D01*
X0361351Y0091100D01*
X0361500Y0091100D01*
X0361500Y0096500D01*
X0362100Y0096500D01*
X0362100Y0091100D01*
X0362249Y0091100D01*
X0363135Y0091240D01*
X0363988Y0091518D01*
X0364787Y0091925D01*
X0365513Y0092452D01*
X0366148Y0093087D01*
X0366675Y0093813D01*
X0366781Y0094021D01*
X0366968Y0093571D01*
X0368571Y0091968D01*
X0370666Y0091100D01*
X0372934Y0091100D01*
X0375029Y0091968D01*
X0376632Y0093571D01*
X0376800Y0093976D01*
X0376968Y0093571D01*
X0378571Y0091968D01*
X0380666Y0091100D01*
X0382934Y0091100D01*
X0385029Y0091968D01*
X0386632Y0093571D01*
X0386819Y0094021D01*
X0386925Y0093813D01*
X0387452Y0093087D01*
X0388087Y0092452D01*
X0388813Y0091925D01*
X0389612Y0091518D01*
X0390465Y0091240D01*
X0391351Y0091100D01*
X0391500Y0091100D01*
X0391500Y0096500D01*
X0392100Y0096500D01*
X0392100Y0091100D01*
X0392249Y0091100D01*
X0393135Y0091240D01*
X0393988Y0091518D01*
X0394787Y0091925D01*
X0395513Y0092452D01*
X0396148Y0093087D01*
X0396675Y0093813D01*
X0396781Y0094021D01*
X0396968Y0093571D01*
X0398571Y0091968D01*
X0400666Y0091100D01*
X0402934Y0091100D01*
X0405029Y0091968D01*
X0406632Y0093571D01*
X0406800Y0093976D01*
X0406968Y0093571D01*
X0408571Y0091968D01*
X0410666Y0091100D01*
X0412934Y0091100D01*
X0415029Y0091968D01*
X0416632Y0093571D01*
X0417500Y0095666D01*
X0417500Y0097934D01*
X0416632Y0100029D01*
X0415029Y0101632D01*
X0412934Y0102500D01*
X0410666Y0102500D01*
X0408571Y0101632D01*
X0406968Y0100029D01*
X0406800Y0099624D01*
X0406632Y0100029D01*
X0405029Y0101632D01*
X0405000Y0101644D01*
X0405000Y0103237D01*
X0404513Y0104413D01*
X0403613Y0105313D01*
X0392413Y0116513D01*
X0391237Y0117000D01*
X0308725Y0117000D01*
X0301632Y0124093D01*
X0301800Y0124499D01*
X0302137Y0123684D01*
X0303684Y0122137D01*
X0305706Y0121300D01*
X0307894Y0121300D01*
X0309915Y0122137D01*
X0311463Y0123684D01*
X0311800Y0124499D01*
X0312137Y0123684D01*
X0313684Y0122137D01*
X0315706Y0121300D01*
X0317894Y0121300D01*
X0319915Y0122137D01*
X0321463Y0123684D01*
X0321800Y0124499D01*
X0322137Y0123684D01*
X0323684Y0122137D01*
X0325706Y0121300D01*
X0327894Y0121300D01*
X0329915Y0122137D01*
X0331463Y0123684D01*
X0331800Y0124499D01*
X0332137Y0123684D01*
X0333684Y0122137D01*
X0335706Y0121300D01*
X0337894Y0121300D01*
X0339915Y0122137D01*
X0341463Y0123684D01*
X0342300Y0125706D01*
X0342300Y0127894D01*
X0341463Y0129915D01*
X0339915Y0131463D01*
X0337894Y0132300D01*
X0335706Y0132300D01*
X0333684Y0131463D01*
X0332137Y0129915D01*
X0331800Y0129101D01*
X0331463Y0129915D01*
X0329915Y0131463D01*
X0327894Y0132300D01*
X0325706Y0132300D01*
X0323684Y0131463D01*
X0322137Y0129915D01*
X0321800Y0129101D01*
X0321463Y0129915D01*
X0319915Y0131463D01*
X0317894Y0132300D01*
X0315706Y0132300D01*
X0313684Y0131463D01*
X0312137Y0129915D01*
X0311800Y0129101D01*
X0311463Y0129915D01*
X0309915Y0131463D01*
X0307894Y0132300D01*
X0305706Y0132300D01*
X0303684Y0131463D01*
X0302137Y0129915D01*
X0301800Y0129101D01*
X0301463Y0129915D01*
X0299915Y0131463D01*
X0297894Y0132300D01*
X0295706Y0132300D01*
X0293684Y0131463D01*
X0292137Y0129915D01*
X0291800Y0129101D01*
X0291463Y0129915D01*
X0289915Y0131463D01*
X0287894Y0132300D01*
X0285706Y0132300D01*
X0283684Y0131463D01*
X0282137Y0129915D01*
X0281800Y0129101D01*
X0281463Y0129915D01*
X0279915Y0131463D01*
X0277894Y0132300D01*
X0275706Y0132300D01*
X0273684Y0131463D01*
X0272137Y0129915D01*
X0271800Y0129101D01*
X0271463Y0129915D01*
X0269915Y0131463D01*
X0267894Y0132300D01*
X0265706Y0132300D01*
X0263684Y0131463D01*
X0262137Y0129915D01*
X0261800Y0129101D01*
X0261463Y0129915D01*
X0259915Y0131463D01*
X0257894Y0132300D01*
X0255706Y0132300D01*
X0253684Y0131463D01*
X0252137Y0129915D01*
X0251800Y0129101D01*
X0251463Y0129915D01*
X0249915Y0131463D01*
X0247894Y0132300D01*
X0245706Y0132300D01*
X0243684Y0131463D01*
X0242137Y0129915D01*
X0241800Y0129101D01*
X0241463Y0129915D01*
X0239915Y0131463D01*
X0237894Y0132300D01*
X0235706Y0132300D01*
X0233684Y0131463D01*
X0232137Y0129915D01*
X0231800Y0129101D01*
X0231463Y0129915D01*
X0229915Y0131463D01*
X0227894Y0132300D01*
X0225706Y0132300D01*
X0223684Y0131463D01*
X0222137Y0129915D01*
X0221800Y0129101D01*
X0221504Y0129683D01*
X0220995Y0130383D01*
X0220383Y0130995D01*
X0219683Y0131504D01*
X0218911Y0131897D01*
X0218088Y0132165D01*
X0217233Y0132300D01*
X0216886Y0132300D01*
X0216886Y0126886D01*
X0216714Y0126886D01*
X0216714Y0132300D01*
X0216367Y0132300D01*
X0215512Y0132165D01*
X0214689Y0131897D01*
X0213917Y0131504D01*
X0213217Y0130995D01*
X0212605Y0130383D01*
X0212096Y0129683D01*
X0211800Y0129101D01*
X0211463Y0129915D01*
X0209915Y0131463D01*
X0207894Y0132300D01*
X0205706Y0132300D01*
X0203684Y0131463D01*
X0202137Y0129915D01*
X0201800Y0129101D01*
X0201463Y0129915D01*
X0199915Y0131463D01*
X0197894Y0132300D01*
X0195706Y0132300D01*
X0193684Y0131463D01*
X0192137Y0129915D01*
X0191800Y0129101D01*
X0191463Y0129915D01*
X0189915Y0131463D01*
X0187894Y0132300D01*
X0185706Y0132300D01*
X0183684Y0131463D01*
X0182137Y0129915D01*
X0181300Y0127894D01*
X0181300Y0125706D01*
X0182137Y0123684D01*
X0183684Y0122137D01*
X0185706Y0121300D01*
X0187894Y0121300D01*
X0189915Y0122137D01*
X0191463Y0123684D01*
X0191800Y0124499D01*
X0192137Y0123684D01*
X0193684Y0122137D01*
X0195706Y0121300D01*
X0197894Y0121300D01*
X0199915Y0122137D01*
X0201463Y0123684D01*
X0201800Y0124499D01*
X0202137Y0123684D01*
X0203684Y0122137D01*
X0205706Y0121300D01*
X0207894Y0121300D01*
X0209915Y0122137D01*
X0211463Y0123684D01*
X0211800Y0124499D01*
X0212096Y0123917D01*
X0212605Y0123217D01*
X0213217Y0122605D01*
X0213917Y0122096D01*
X0214689Y0121703D01*
X0215512Y0121435D01*
X0216367Y0121300D01*
X0216714Y0121300D01*
X0216714Y0126714D01*
X0216886Y0126714D01*
X0216886Y0121300D01*
X0217233Y0121300D01*
X0218088Y0121435D01*
X0218911Y0121703D01*
X0219683Y0122096D01*
X0220383Y0122605D01*
X0220995Y0123217D01*
X0221504Y0123917D01*
X0221800Y0124499D01*
X0221968Y0124093D01*
X0214375Y0116500D01*
X0171863Y0116500D01*
X0170687Y0116013D01*
X0159987Y0105313D01*
X0159087Y0104413D01*
X0158600Y0103237D01*
X0158600Y0101644D01*
X0158571Y0101632D01*
X0156968Y0100029D01*
X0156781Y0099579D01*
X0156675Y0099787D01*
X0156148Y0100513D01*
X0155513Y0101148D01*
X0154787Y0101675D01*
X0153988Y0102082D01*
X0153135Y0102360D01*
X0152249Y0102500D01*
X0152100Y0102500D01*
X0152100Y0097100D01*
X0151500Y0097100D01*
X0151500Y0102500D01*
X0151351Y0102500D01*
X0150465Y0102360D01*
X0149612Y0102082D01*
X0148813Y0101675D01*
X0148087Y0101148D01*
X0147452Y0100513D01*
X0146925Y0099787D01*
X0146819Y0099579D01*
X0146632Y0100029D01*
X0145029Y0101632D01*
X0142934Y0102500D01*
X0140666Y0102500D01*
X0138571Y0101632D01*
X0136968Y0100029D01*
X0136800Y0099624D01*
X0136632Y0100029D01*
X0136593Y0100068D01*
X0138913Y0102387D01*
X0139400Y0103563D01*
X0139400Y0114075D01*
X0167925Y0142600D01*
X0200837Y0142600D01*
X0202013Y0143087D01*
X0202913Y0143987D01*
X0258913Y0199987D01*
X0259400Y0201163D01*
X0259400Y0201924D01*
X0259915Y0202137D01*
X0261463Y0203684D01*
X0261800Y0204499D01*
X0262137Y0203684D01*
X0263684Y0202137D01*
X0265706Y0201300D01*
X0267894Y0201300D01*
X0269915Y0202137D01*
X0271463Y0203684D01*
X0271800Y0204499D01*
X0272137Y0203684D01*
X0273684Y0202137D01*
X0275706Y0201300D01*
X0277894Y0201300D01*
X0279915Y0202137D01*
X0281463Y0203684D01*
X0281800Y0204499D01*
X0282137Y0203684D01*
X0283684Y0202137D01*
X0285706Y0201300D01*
X0287894Y0201300D01*
X0289915Y0202137D01*
X0291463Y0203684D01*
X0291800Y0204499D01*
X0292137Y0203684D01*
X0293684Y0202137D01*
X0295706Y0201300D01*
X0297894Y0201300D01*
X0299915Y0202137D01*
X0301463Y0203684D01*
X0301800Y0204499D01*
X0302137Y0203684D01*
X0303684Y0202137D01*
X0305706Y0201300D01*
X0307894Y0201300D01*
X0309915Y0202137D01*
X0311463Y0203684D01*
X0311800Y0204499D01*
X0312137Y0203684D01*
X0313684Y0202137D01*
X0315706Y0201300D01*
X0317894Y0201300D01*
X0319915Y0202137D01*
X0321463Y0203684D01*
X0321800Y0204499D01*
X0322137Y0203684D01*
X0323684Y0202137D01*
X0325706Y0201300D01*
X0327894Y0201300D01*
X0329915Y0202137D01*
X0331463Y0203684D01*
X0331800Y0204499D01*
X0332137Y0203684D01*
X0333684Y0202137D01*
X0335706Y0201300D01*
X0337894Y0201300D01*
X0339915Y0202137D01*
X0341463Y0203684D01*
X0342300Y0205706D01*
X0342300Y0207894D01*
X0342218Y0208092D01*
X0344413Y0210287D01*
X0345313Y0211187D01*
X0345800Y0212363D01*
X0345800Y0240475D01*
X0346239Y0240914D01*
X0346192Y0240800D01*
X0346100Y0240336D01*
X0346100Y0237100D01*
X0351500Y0237100D01*
X0351500Y0242500D01*
X0348264Y0242500D01*
X0347800Y0242408D01*
X0347686Y0242361D01*
X0359925Y0254600D01*
X0365637Y0254600D01*
X0366813Y0255087D01*
X0372825Y0261100D01*
X0372934Y0261100D01*
X0375029Y0261968D01*
X0376632Y0263571D01*
X0376800Y0263976D01*
X0376968Y0263571D01*
X0378571Y0261968D01*
X0379570Y0261554D01*
X0379887Y0260787D01*
X0384687Y0255987D01*
X0385587Y0255087D01*
X0386763Y0254600D01*
X0429637Y0254600D01*
X0430813Y0255087D01*
X0464413Y0288687D01*
X0465313Y0289587D01*
X0465800Y0290763D01*
X0465800Y0291675D01*
X0465957Y0291832D01*
X0466762Y0289890D01*
X0468433Y0288218D01*
X0470618Y0287313D01*
X0472982Y0287313D01*
X0475167Y0288218D01*
X0476838Y0289890D01*
X0477743Y0292074D01*
X0477743Y0301526D01*
X0476838Y0303710D01*
X0475167Y0305382D01*
X0472982Y0306287D01*
X0470618Y0306287D01*
X0468433Y0305382D01*
X0466762Y0303710D01*
X0465857Y0301526D01*
X0465857Y0300782D01*
X0459887Y0294813D01*
X0459400Y0293637D01*
X0459400Y0292725D01*
X0457595Y0290920D01*
X0457623Y0290975D01*
X0457912Y0291865D01*
X0458058Y0292789D01*
X0458058Y0296419D01*
X0452496Y0296419D01*
X0452496Y0297181D01*
X0458058Y0297181D01*
X0458058Y0300811D01*
X0457912Y0301735D01*
X0457623Y0302625D01*
X0457198Y0303458D01*
X0456648Y0304215D01*
X0455987Y0304877D01*
X0455230Y0305426D01*
X0454396Y0305851D01*
X0453507Y0306140D01*
X0452583Y0306287D01*
X0452496Y0306287D01*
X0452496Y0297181D01*
X0451734Y0297181D01*
X0451734Y0306287D01*
X0451647Y0306287D01*
X0450723Y0306140D01*
X0449834Y0305851D01*
X0449000Y0305426D01*
X0448243Y0304877D01*
X0447582Y0304215D01*
X0447032Y0303458D01*
X0446607Y0302625D01*
X0446318Y0301735D01*
X0446172Y0300811D01*
X0446172Y0297181D01*
X0451734Y0297181D01*
X0451734Y0296419D01*
X0452496Y0296419D01*
X0452496Y0287313D01*
X0452583Y0287313D01*
X0453507Y0287460D01*
X0454396Y0287749D01*
X0454451Y0287777D01*
X0427675Y0261000D01*
X0388725Y0261000D01*
X0386393Y0263332D01*
X0386632Y0263571D01*
X0386819Y0264021D01*
X0386925Y0263813D01*
X0387452Y0263087D01*
X0388087Y0262452D01*
X0388813Y0261925D01*
X0389612Y0261518D01*
X0390465Y0261240D01*
X0391351Y0261100D01*
X0391500Y0261100D01*
X0391500Y0266500D01*
X0392100Y0266500D01*
X0392100Y0261100D01*
X0392249Y0261100D01*
X0393135Y0261240D01*
X0393988Y0261518D01*
X0394787Y0261925D01*
X0395513Y0262452D01*
X0396148Y0263087D01*
X0396675Y0263813D01*
X0396781Y0264021D01*
X0396968Y0263571D01*
X0398571Y0261968D01*
X0400666Y0261100D01*
X0402934Y0261100D01*
X0405029Y0261968D01*
X0406632Y0263571D01*
X0406800Y0263976D01*
X0406968Y0263571D01*
X0408571Y0261968D01*
X0410666Y0261100D01*
X0412934Y0261100D01*
X0415029Y0261968D01*
X0416632Y0263571D01*
X0417500Y0265666D01*
X0417500Y0267934D01*
X0416632Y0270029D01*
X0415029Y0271632D01*
X0415000Y0271644D01*
X0415000Y0288149D01*
X0415167Y0288218D01*
X0416838Y0289890D01*
X0417743Y0292074D01*
X0417743Y0301526D01*
X0416838Y0303710D01*
X0415167Y0305382D01*
X0412982Y0306287D01*
X0410618Y0306287D01*
X0408433Y0305382D01*
X0406762Y0303710D01*
X0405857Y0301526D01*
X0405857Y0292074D01*
X0406762Y0289890D01*
X0408433Y0288218D01*
X0408600Y0288149D01*
X0408600Y0271644D01*
X0408571Y0271632D01*
X0406968Y0270029D01*
X0406800Y0269624D01*
X0406632Y0270029D01*
X0405029Y0271632D01*
X0402934Y0272500D01*
X0400666Y0272500D01*
X0398571Y0271632D01*
X0396968Y0270029D01*
X0396781Y0269579D01*
X0396675Y0269787D01*
X0396148Y0270513D01*
X0395513Y0271148D01*
X0394787Y0271675D01*
X0393988Y0272082D01*
X0393135Y0272360D01*
X0392249Y0272500D01*
X0392100Y0272500D01*
X0392100Y0267100D01*
X0391500Y0267100D01*
X0391500Y0272500D01*
X0391351Y0272500D01*
X0390465Y0272360D01*
X0389612Y0272082D01*
X0388813Y0271675D01*
X0388087Y0271148D01*
X0387452Y0270513D01*
X0386925Y0269787D01*
X0386819Y0269579D01*
X0386632Y0270029D01*
X0385029Y0271632D01*
X0382934Y0272500D01*
X0380666Y0272500D01*
X0378571Y0271632D01*
X0376968Y0270029D01*
X0376800Y0269624D01*
X0376632Y0270029D01*
X0375029Y0271632D01*
X0372934Y0272500D01*
X0370666Y0272500D01*
X0368571Y0271632D01*
X0366968Y0270029D01*
X0366781Y0269579D01*
X0366675Y0269787D01*
X0366148Y0270513D01*
X0365513Y0271148D01*
X0364787Y0271675D01*
X0363988Y0272082D01*
X0363135Y0272360D01*
X0362249Y0272500D01*
X0362100Y0272500D01*
X0362100Y0267100D01*
X0361500Y0267100D01*
X0361500Y0272500D01*
X0361351Y0272500D01*
X0360465Y0272360D01*
X0359612Y0272082D01*
X0358813Y0271675D01*
X0358087Y0271148D01*
X0357452Y0270513D01*
X0356925Y0269787D01*
X0356819Y0269579D01*
X0356632Y0270029D01*
X0355029Y0271632D01*
X0352934Y0272500D01*
X0350666Y0272500D01*
X0348571Y0271632D01*
X0346968Y0270029D01*
X0346100Y0267934D01*
X0346100Y0265666D01*
X0346112Y0265637D01*
X0345475Y0265000D01*
X0331449Y0265000D01*
X0329099Y0267350D01*
X0325775Y0267350D01*
X0314685Y0278440D01*
X0314685Y0288149D01*
X0314852Y0288218D01*
X0316524Y0289890D01*
X0317428Y0292074D01*
X0317428Y0301526D01*
X0316524Y0303710D01*
X0314852Y0305382D01*
X0312667Y0306287D01*
X0310303Y0306287D01*
X0308118Y0305382D01*
X0306447Y0303710D01*
X0305542Y0301526D01*
X0305542Y0292074D01*
X0306447Y0289890D01*
X0308118Y0288218D01*
X0308285Y0288149D01*
X0308285Y0276478D01*
X0308772Y0275302D01*
X0309672Y0274402D01*
X0321250Y0262825D01*
X0321250Y0259501D01*
X0324501Y0256250D01*
X0329099Y0256250D01*
X0331449Y0258600D01*
X0347437Y0258600D01*
X0348613Y0259087D01*
X0350637Y0261112D01*
X0350666Y0261100D01*
X0352934Y0261100D01*
X0355029Y0261968D01*
X0356632Y0263571D01*
X0356819Y0264021D01*
X0356925Y0263813D01*
X0357452Y0263087D01*
X0358087Y0262452D01*
X0358813Y0261925D01*
X0359612Y0261518D01*
X0360465Y0261240D01*
X0361351Y0261100D01*
X0361500Y0261100D01*
X0361500Y0266500D01*
X0362100Y0266500D01*
X0362100Y0261100D01*
X0362249Y0261100D01*
X0363135Y0261240D01*
X0363988Y0261518D01*
X0364404Y0261730D01*
X0363675Y0261000D01*
X0357963Y0261000D01*
X0356787Y0260513D01*
X0355887Y0259613D01*
X0339887Y0243613D01*
X0339400Y0242437D01*
X0339400Y0214325D01*
X0337375Y0212300D01*
X0335706Y0212300D01*
X0333684Y0211463D01*
X0332137Y0209915D01*
X0331800Y0209101D01*
X0331463Y0209915D01*
X0329915Y0211463D01*
X0327894Y0212300D01*
X0325706Y0212300D01*
X0323684Y0211463D01*
X0322137Y0209915D01*
X0321800Y0209101D01*
X0321463Y0209915D01*
X0319915Y0211463D01*
X0317894Y0212300D01*
X0315706Y0212300D01*
X0313684Y0211463D01*
X0312137Y0209915D01*
X0311800Y0209101D01*
X0311463Y0209915D01*
X0309915Y0211463D01*
X0307894Y0212300D01*
X0305706Y0212300D01*
X0303684Y0211463D01*
X0302137Y0209915D01*
X0301800Y0209101D01*
X0301463Y0209915D01*
X0301000Y0210378D01*
X0301000Y0210437D01*
X0300513Y0211613D01*
X0257513Y0254613D01*
X0256613Y0255513D01*
X0255437Y0256000D01*
X0144125Y0256000D01*
X0136593Y0263532D01*
X0136632Y0263571D01*
X0136800Y0263976D01*
X0136968Y0263571D01*
X0138571Y0261968D01*
X0140666Y0261100D01*
X0142934Y0261100D01*
X0145029Y0261968D01*
X0146632Y0263571D01*
X0146819Y0264021D01*
X0146925Y0263813D01*
X0147452Y0263087D01*
X0148087Y0262452D01*
X0148813Y0261925D01*
X0149612Y0261518D01*
X0150465Y0261240D01*
X0151351Y0261100D01*
X0151500Y0261100D01*
X0151500Y0266500D01*
X0152100Y0266500D01*
X0152100Y0261100D01*
X0152249Y0261100D01*
X0153135Y0261240D01*
X0153988Y0261518D01*
X0154787Y0261925D01*
X0155513Y0262452D01*
X0156148Y0263087D01*
X0156675Y0263813D01*
X0156781Y0264021D01*
X0156968Y0263571D01*
X0158571Y0261968D01*
X0160666Y0261100D01*
X0162934Y0261100D01*
X0165029Y0261968D01*
X0166632Y0263571D01*
X0166800Y0263976D01*
X0166968Y0263571D01*
X0168571Y0261968D01*
X0170666Y0261100D01*
X0172934Y0261100D01*
X0175029Y0261968D01*
X0176632Y0263571D01*
X0177500Y0265666D01*
X0177500Y0267934D01*
X0177195Y0268670D01*
X0182813Y0274287D01*
X0183713Y0275187D01*
X0184200Y0276363D01*
X0184200Y0293637D01*
X0183713Y0294813D01*
X0177743Y0300782D01*
X0177743Y0301526D01*
X0176838Y0303710D01*
X0175167Y0305382D01*
X0172982Y0306287D01*
X0170618Y0306287D01*
X0168433Y0305382D01*
X0166762Y0303710D01*
X0165857Y0301526D01*
X0165857Y0292074D01*
X0166762Y0289890D01*
X0168433Y0288218D01*
X0170618Y0287313D01*
X0172982Y0287313D01*
X0175167Y0288218D01*
X0176838Y0289890D01*
X0177643Y0291832D01*
X0177800Y0291675D01*
X0177800Y0278325D01*
X0171975Y0272500D01*
X0170666Y0272500D01*
X0168571Y0271632D01*
X0166968Y0270029D01*
X0166800Y0269624D01*
X0166632Y0270029D01*
X0165029Y0271632D01*
X0162934Y0272500D01*
X0160666Y0272500D01*
X0158571Y0271632D01*
X0156968Y0270029D01*
X0156781Y0269579D01*
X0156675Y0269787D01*
X0156148Y0270513D01*
X0155513Y0271148D01*
X0154787Y0271675D01*
X0153988Y0272082D01*
X0153135Y0272360D01*
X0152249Y0272500D01*
X0152100Y0272500D01*
X0152100Y0267100D01*
X0151500Y0267100D01*
X0151500Y0272500D01*
X0151351Y0272500D01*
X0150465Y0272360D01*
X0149612Y0272082D01*
X0148813Y0271675D01*
X0148087Y0271148D01*
X0147452Y0270513D01*
X0146925Y0269787D01*
X0146819Y0269579D01*
X0146632Y0270029D01*
X0145029Y0271632D01*
X0142934Y0272500D01*
X0140666Y0272500D01*
X0138571Y0271632D01*
X0136968Y0270029D01*
X0136800Y0269624D01*
X0136632Y0270029D01*
X0135029Y0271632D01*
X0132934Y0272500D01*
X0130666Y0272500D01*
X0128571Y0271632D01*
X0126968Y0270029D01*
X0126781Y0269579D01*
X0126675Y0269787D01*
X0126148Y0270513D01*
X0125513Y0271148D01*
X0124787Y0271675D01*
X0123988Y0272082D01*
X0123135Y0272360D01*
X0122249Y0272500D01*
X0122100Y0272500D01*
X0122100Y0267100D01*
X0121500Y0267100D01*
X0121500Y0272500D01*
X0121351Y0272500D01*
X0120465Y0272360D01*
X0119612Y0272082D01*
X0118813Y0271675D01*
X0118087Y0271148D01*
X0117452Y0270513D01*
X0116925Y0269787D01*
X0116819Y0269579D01*
X0116632Y0270029D01*
X0115029Y0271632D01*
X0112934Y0272500D01*
X0110666Y0272500D01*
X0108571Y0271632D01*
X0106968Y0270029D01*
X0106956Y0270000D01*
X0091163Y0270000D01*
X0089987Y0269513D01*
X0089087Y0268613D01*
X0087825Y0267350D01*
X0084501Y0267350D01*
X0081250Y0264099D01*
X0081250Y0259501D01*
X0084501Y0256250D01*
X0087825Y0256250D01*
X0088600Y0255475D01*
X0088600Y0253563D01*
X0089087Y0252387D01*
X0089987Y0251487D01*
X0099400Y0242075D01*
X0099400Y0185363D01*
X0099887Y0184187D01*
X0109220Y0174854D01*
X0108400Y0172874D01*
X0108400Y0170726D01*
X0109222Y0168741D01*
X0110741Y0167222D01*
X0111740Y0166808D01*
X0111727Y0166804D01*
X0110970Y0166418D01*
X0110282Y0165919D01*
X0109681Y0165318D01*
X0109182Y0164630D01*
X0108796Y0163873D01*
X0108533Y0163065D01*
X0108400Y0162225D01*
X0108400Y0162000D01*
X0116600Y0162000D01*
X0116600Y0161600D01*
X0117000Y0161600D01*
X0117000Y0162000D01*
X0125200Y0162000D01*
X0125200Y0162225D01*
X0125067Y0163065D01*
X0124804Y0163873D01*
X0124418Y0164630D01*
X0123919Y0165318D01*
X0123318Y0165919D01*
X0122630Y0166418D01*
X0121873Y0166804D01*
X0121860Y0166808D01*
X0122859Y0167222D01*
X0124378Y0168741D01*
X0125200Y0170726D01*
X0125200Y0172874D01*
X0124378Y0174859D01*
X0122859Y0176378D01*
X0120874Y0177200D01*
X0115925Y0177200D01*
X0105800Y0187325D01*
X0105800Y0244037D01*
X0105313Y0245213D01*
X0095000Y0255525D01*
X0095000Y0257437D01*
X0094513Y0258613D01*
X0092350Y0260775D01*
X0092350Y0262825D01*
X0093125Y0263600D01*
X0106956Y0263600D01*
X0106968Y0263571D01*
X0108571Y0261968D01*
X0110666Y0261100D01*
X0112934Y0261100D01*
X0115029Y0261968D01*
X0116632Y0263571D01*
X0116819Y0264021D01*
X0116925Y0263813D01*
X0117452Y0263087D01*
X0118087Y0262452D01*
X0118813Y0261925D01*
X0119612Y0261518D01*
X0120465Y0261240D01*
X0121351Y0261100D01*
X0121500Y0261100D01*
X0121500Y0266500D01*
X0122100Y0266500D01*
X0122100Y0261100D01*
X0122249Y0261100D01*
X0123135Y0261240D01*
X0123988Y0261518D01*
X0124787Y0261925D01*
X0125513Y0262452D01*
X0126148Y0263087D01*
X0126675Y0263813D01*
X0126781Y0264021D01*
X0126968Y0263571D01*
X0128571Y0261968D01*
X0129485Y0261589D01*
X0140987Y0250087D01*
X0142163Y0249600D01*
X0253475Y0249600D01*
X0292648Y0210426D01*
X0292137Y0209915D01*
X0291800Y0209101D01*
X0291463Y0209915D01*
X0289915Y0211463D01*
X0287894Y0212300D01*
X0285706Y0212300D01*
X0283684Y0211463D01*
X0282137Y0209915D01*
X0281800Y0209101D01*
X0281463Y0209915D01*
X0279915Y0211463D01*
X0277894Y0212300D01*
X0275706Y0212300D01*
X0273684Y0211463D01*
X0272137Y0209915D01*
X0271800Y0209101D01*
X0271463Y0209915D01*
X0269915Y0211463D01*
X0269000Y0211842D01*
X0269000Y0212037D01*
X0268513Y0213213D01*
X0252513Y0229213D01*
X0251613Y0230113D01*
X0250437Y0230600D01*
X0129525Y0230600D01*
X0126593Y0233532D01*
X0126632Y0233571D01*
X0126800Y0233976D01*
X0126968Y0233571D01*
X0128571Y0231968D01*
X0130666Y0231100D01*
X0132934Y0231100D01*
X0135029Y0231968D01*
X0136632Y0233571D01*
X0136819Y0234021D01*
X0136925Y0233813D01*
X0137452Y0233087D01*
X0138087Y0232452D01*
X0138813Y0231925D01*
X0139612Y0231518D01*
X0140465Y0231240D01*
X0141351Y0231100D01*
X0141500Y0231100D01*
X0141500Y0236500D01*
X0142100Y0236500D01*
X0142100Y0231100D01*
X0142249Y0231100D01*
X0143135Y0231240D01*
X0143988Y0231518D01*
X0144787Y0231925D01*
X0145513Y0232452D01*
X0146148Y0233087D01*
X0146675Y0233813D01*
X0146781Y0234021D01*
X0146968Y0233571D01*
X0148571Y0231968D01*
X0150666Y0231100D01*
X0152934Y0231100D01*
X0155029Y0231968D01*
X0156632Y0233571D01*
X0156800Y0233976D01*
X0156968Y0233571D01*
X0158571Y0231968D01*
X0160666Y0231100D01*
X0162934Y0231100D01*
X0165029Y0231968D01*
X0166632Y0233571D01*
X0166819Y0234021D01*
X0166925Y0233813D01*
X0167452Y0233087D01*
X0168087Y0232452D01*
X0168813Y0231925D01*
X0169612Y0231518D01*
X0170465Y0231240D01*
X0171351Y0231100D01*
X0171500Y0231100D01*
X0171500Y0236500D01*
X0172100Y0236500D01*
X0172100Y0237100D01*
X0171500Y0237100D01*
X0171500Y0242500D01*
X0171351Y0242500D01*
X0170465Y0242360D01*
X0169612Y0242082D01*
X0168813Y0241675D01*
X0168087Y0241148D01*
X0167452Y0240513D01*
X0166925Y0239787D01*
X0166819Y0239579D01*
X0166632Y0240029D01*
X0165029Y0241632D01*
X0162934Y0242500D01*
X0160666Y0242500D01*
X0158571Y0241632D01*
X0156968Y0240029D01*
X0156800Y0239624D01*
X0156632Y0240029D01*
X0155029Y0241632D01*
X0152934Y0242500D01*
X0150666Y0242500D01*
X0148571Y0241632D01*
X0146968Y0240029D01*
X0146781Y0239579D01*
X0146675Y0239787D01*
X0146148Y0240513D01*
X0145513Y0241148D01*
X0144787Y0241675D01*
X0143988Y0242082D01*
X0143135Y0242360D01*
X0142249Y0242500D01*
X0142100Y0242500D01*
X0142100Y0237100D01*
X0141500Y0237100D01*
X0141500Y0242500D01*
X0141351Y0242500D01*
X0140465Y0242360D01*
X0139612Y0242082D01*
X0138813Y0241675D01*
X0138087Y0241148D01*
X0137452Y0240513D01*
X0136925Y0239787D01*
X0136819Y0239579D01*
X0136632Y0240029D01*
X0135029Y0241632D01*
X0132934Y0242500D01*
X0130666Y0242500D01*
X0128571Y0241632D01*
X0126968Y0240029D01*
X0126800Y0239624D01*
X0126632Y0240029D01*
X0125029Y0241632D01*
X0122934Y0242500D01*
X0120666Y0242500D01*
X0118571Y0241632D01*
X0117463Y0240524D01*
X0117408Y0240800D01*
X0117227Y0241237D01*
X0116964Y0241630D01*
X0116630Y0241964D01*
X0116237Y0242227D01*
X0115800Y0242408D01*
X0115336Y0242500D01*
X0112100Y0242500D01*
X0112100Y0237100D01*
X0111500Y0237100D01*
X0111500Y0242500D01*
X0108264Y0242500D01*
X0107800Y0242408D01*
X0107363Y0242227D01*
X0106970Y0241964D01*
X0106636Y0241630D01*
X0106373Y0241237D01*
X0106192Y0240800D01*
X0106100Y0240336D01*
X0106100Y0237100D01*
X0111500Y0237100D01*
X0111500Y0236500D01*
X0112100Y0236500D01*
X0112100Y0231100D01*
X0115336Y0231100D01*
X0115800Y0231192D01*
X0116237Y0231373D01*
X0116630Y0231636D01*
X0116964Y0231970D01*
X0117227Y0232363D01*
X0117408Y0232800D01*
X0117463Y0233076D01*
X0118571Y0231968D01*
X0119485Y0231589D01*
X0126387Y0224687D01*
X0127563Y0224200D01*
X0248475Y0224200D01*
X0262448Y0210226D01*
X0262137Y0209915D01*
X0261800Y0209101D01*
X0261463Y0209915D01*
X0259915Y0211463D01*
X0257894Y0212300D01*
X0255706Y0212300D01*
X0253684Y0211463D01*
X0252137Y0209915D01*
X0251800Y0209101D01*
X0251463Y0209915D01*
X0249915Y0211463D01*
X0247894Y0212300D01*
X0245706Y0212300D01*
X0243684Y0211463D01*
X0242137Y0209915D01*
X0241800Y0209101D01*
X0241463Y0209915D01*
X0239915Y0211463D01*
X0237894Y0212300D01*
X0235706Y0212300D01*
X0233684Y0211463D01*
X0232137Y0209915D01*
X0231800Y0209101D01*
X0231463Y0209915D01*
X0229915Y0211463D01*
X0227894Y0212300D01*
X0225706Y0212300D01*
X0223684Y0211463D01*
X0222137Y0209915D01*
X0221300Y0207894D01*
X0221300Y0205706D01*
X0222137Y0203684D01*
X0223684Y0202137D01*
X0225706Y0201300D01*
X0227894Y0201300D01*
X0229915Y0202137D01*
X0231463Y0203684D01*
X0231800Y0204499D01*
X0232137Y0203684D01*
X0233684Y0202137D01*
X0235706Y0201300D01*
X0237894Y0201300D01*
X0239915Y0202137D01*
X0241463Y0203684D01*
X0241800Y0204499D01*
X0242137Y0203684D01*
X0243684Y0202137D01*
X0245706Y0201300D01*
X0247894Y0201300D01*
X0249915Y0202137D01*
X0251463Y0203684D01*
X0251800Y0204499D01*
X0252137Y0203684D01*
X0252848Y0202974D01*
X0198875Y0149000D01*
X0165963Y0149000D01*
X0164787Y0148513D01*
X0134387Y0118113D01*
X0133487Y0117213D01*
X0133000Y0116037D01*
X0133000Y0105525D01*
X0129485Y0102011D01*
X0128571Y0101632D01*
X0126968Y0100029D01*
X0126781Y0099579D01*
X0126675Y0099787D01*
X0126148Y0100513D01*
X0125513Y0101148D01*
X0124787Y0101675D01*
X0123988Y0102082D01*
X0123135Y0102360D01*
X0122249Y0102500D01*
X0122100Y0102500D01*
X0122100Y0097100D01*
X0121500Y0097100D01*
X0121500Y0102500D01*
X0121351Y0102500D01*
X0120465Y0102360D01*
X0119612Y0102082D01*
X0118813Y0101675D01*
X0118087Y0101148D01*
X0117452Y0100513D01*
X0116925Y0099787D01*
X0116819Y0099579D01*
X0116632Y0100029D01*
X0115029Y0101632D01*
X0112934Y0102500D01*
X0110666Y0102500D01*
X0108571Y0101632D01*
X0106968Y0100029D01*
X0106956Y0100000D01*
X0091363Y0100000D01*
X0090187Y0099513D01*
X0089287Y0098613D01*
X0088025Y0097350D01*
X0084501Y0097350D01*
X0081250Y0094099D01*
X0081250Y0090775D01*
X0074087Y0083613D01*
X0073600Y0082437D01*
X0073600Y0051478D01*
X0074087Y0050302D01*
X0074987Y0049402D01*
X0086172Y0038218D01*
X0086172Y0032074D01*
X0087076Y0029890D01*
X0088748Y0028218D01*
X0090933Y0027313D01*
X0093297Y0027313D01*
X0095482Y0028218D01*
X0097153Y0029890D01*
X0098058Y0032074D01*
X0098058Y0041526D01*
X0097153Y0043710D01*
X0095482Y0045382D01*
X0093297Y0046287D01*
X0090933Y0046287D01*
X0088748Y0045382D01*
X0088403Y0045037D01*
X0080000Y0053440D01*
X0080000Y0080475D01*
X0085775Y0086250D01*
X0089099Y0086250D01*
X0092350Y0089501D01*
X0092350Y0092625D01*
X0093325Y0093600D01*
X0106956Y0093600D01*
X0106968Y0093571D01*
X0108571Y0091968D01*
X0110666Y0091100D01*
X0112934Y0091100D01*
X0115029Y0091968D01*
X0116632Y0093571D01*
X0116819Y0094021D01*
X0116925Y0093813D01*
X0117452Y0093087D01*
X0118087Y0092452D01*
X0118813Y0091925D01*
X0119612Y0091518D01*
X0120465Y0091240D01*
X0121351Y0091100D01*
X0121500Y0091100D01*
X0121500Y0096500D01*
X0122100Y0096500D01*
X0122100Y0091100D01*
X0122249Y0091100D01*
X0123135Y0091240D01*
X0123988Y0091518D01*
X0124787Y0091925D01*
X0125513Y0092452D01*
X0126148Y0093087D01*
X0126675Y0093813D01*
X0126781Y0094021D01*
X0126968Y0093571D01*
X0128571Y0091968D01*
X0130666Y0091100D01*
X0132934Y0091100D01*
X0135029Y0091968D01*
X0136632Y0093571D01*
X0136800Y0093976D01*
X0136968Y0093571D01*
X0138571Y0091968D01*
X0140666Y0091100D01*
X0142934Y0091100D01*
X0145029Y0091968D01*
X0146632Y0093571D01*
X0146819Y0094021D01*
X0146925Y0093813D01*
X0147452Y0093087D01*
X0148087Y0092452D01*
X0148813Y0091925D01*
X0149612Y0091518D01*
X0150465Y0091240D01*
X0151351Y0091100D01*
X0151500Y0091100D01*
X0151500Y0096500D01*
X0152100Y0096500D01*
X0152100Y0091100D01*
X0152249Y0091100D01*
X0153135Y0091240D01*
X0153988Y0091518D01*
X0154787Y0091925D01*
X0155513Y0092452D01*
X0156148Y0093087D01*
X0156675Y0093813D01*
X0156781Y0094021D01*
X0156968Y0093571D01*
X0158571Y0091968D01*
X0160666Y0091100D01*
X0162934Y0091100D01*
X0165029Y0091968D01*
X0166632Y0093571D01*
X0166800Y0093976D01*
X0166968Y0093571D01*
X0168571Y0091968D01*
X0170666Y0091100D01*
X0172934Y0091100D01*
X0175029Y0091968D01*
X0176600Y0093539D01*
X0176600Y0093125D01*
X0166875Y0083400D01*
X0130763Y0083400D01*
X0129587Y0082913D01*
X0119987Y0073313D01*
X0119087Y0072413D01*
X0118804Y0071729D01*
X0118571Y0071632D01*
X0117463Y0070524D01*
X0117408Y0070800D01*
X0117227Y0071237D01*
X0116964Y0071630D01*
X0116630Y0071964D01*
X0116237Y0072227D01*
X0115800Y0072408D01*
X0115336Y0072500D01*
X0112100Y0072500D01*
X0112100Y0067100D01*
X0111500Y0067100D01*
X0111500Y0072500D01*
X0108264Y0072500D01*
X0107800Y0072408D01*
X0107363Y0072227D01*
X0106970Y0071964D01*
X0106636Y0071630D01*
X0106373Y0071237D01*
X0106192Y0070800D01*
X0106100Y0070336D01*
X0106100Y0067100D01*
X0111500Y0067100D01*
X0111500Y0066500D01*
X0112100Y0066500D01*
X0112100Y0061100D01*
X0115336Y0061100D01*
X0115800Y0061192D01*
X0116237Y0061373D01*
X0116630Y0061636D01*
X0116964Y0061970D01*
X0117227Y0062363D01*
X0117408Y0062800D01*
X0117463Y0063076D01*
X0118571Y0061968D01*
X0120666Y0061100D01*
X0122934Y0061100D01*
X0125029Y0061968D01*
X0126632Y0063571D01*
X0126800Y0063976D01*
X0126968Y0063571D01*
X0128571Y0061968D01*
X0130052Y0061354D01*
X0130287Y0060787D01*
X0143087Y0047987D01*
X0143987Y0047087D01*
X0145163Y0046600D01*
X0155675Y0046600D01*
X0158600Y0043675D01*
X0158600Y0028363D01*
X0159087Y0027187D01*
X0159009Y0027376D02*
X0153449Y0027376D01*
X0153297Y0027313D02*
X0155482Y0028218D01*
X0157153Y0029890D01*
X0158058Y0032074D01*
X0158058Y0041526D01*
X0157153Y0043710D01*
X0155482Y0045382D01*
X0153297Y0046287D01*
X0150933Y0046287D01*
X0148748Y0045382D01*
X0147076Y0043710D01*
X0146172Y0041526D01*
X0146172Y0032074D01*
X0147076Y0029890D01*
X0148748Y0028218D01*
X0150933Y0027313D01*
X0153297Y0027313D01*
X0150781Y0027376D02*
X0132349Y0027376D01*
X0131953Y0027313D02*
X0132877Y0027460D01*
X0133766Y0027749D01*
X0134600Y0028174D01*
X0135357Y0028723D01*
X0136018Y0029385D01*
X0136568Y0030142D01*
X0136993Y0030975D01*
X0137282Y0031865D01*
X0137428Y0032789D01*
X0137428Y0036419D01*
X0131866Y0036419D01*
X0131866Y0027313D01*
X0131953Y0027313D01*
X0131866Y0027376D02*
X0131104Y0027376D01*
X0131104Y0027313D02*
X0131104Y0036419D01*
X0125542Y0036419D01*
X0125542Y0032789D01*
X0125688Y0031865D01*
X0125977Y0030975D01*
X0126402Y0030142D01*
X0126952Y0029385D01*
X0127613Y0028723D01*
X0128370Y0028174D01*
X0129204Y0027749D01*
X0130093Y0027460D01*
X0131017Y0027313D01*
X0131104Y0027313D01*
X0130621Y0027376D02*
X0113134Y0027376D01*
X0112982Y0027313D02*
X0115167Y0028218D01*
X0116838Y0029890D01*
X0117743Y0032074D01*
X0117743Y0041526D01*
X0116838Y0043710D01*
X0115167Y0045382D01*
X0112982Y0046287D01*
X0110618Y0046287D01*
X0108433Y0045382D01*
X0106762Y0043710D01*
X0105857Y0041526D01*
X0105857Y0032074D01*
X0106762Y0029890D01*
X0108433Y0028218D01*
X0110618Y0027313D01*
X0112982Y0027313D01*
X0110466Y0027376D02*
X0093449Y0027376D01*
X0090781Y0027376D02*
X0072349Y0027376D01*
X0071866Y0027376D02*
X0071104Y0027376D01*
X0071104Y0028975D02*
X0071866Y0028975D01*
X0071866Y0030573D02*
X0071104Y0030573D01*
X0071104Y0032172D02*
X0071866Y0032172D01*
X0071866Y0033770D02*
X0071104Y0033770D01*
X0071104Y0035369D02*
X0071866Y0035369D01*
X0071104Y0037181D02*
X0065542Y0037181D01*
X0065542Y0040811D01*
X0065688Y0041735D01*
X0065977Y0042625D01*
X0066402Y0043458D01*
X0066952Y0044215D01*
X0067613Y0044877D01*
X0068370Y0045426D01*
X0069204Y0045851D01*
X0070093Y0046140D01*
X0071017Y0046287D01*
X0071104Y0046287D01*
X0071104Y0037181D01*
X0071104Y0038566D02*
X0071866Y0038566D01*
X0071866Y0040164D02*
X0071104Y0040164D01*
X0071104Y0041763D02*
X0071866Y0041763D01*
X0071866Y0043361D02*
X0071104Y0043361D01*
X0071104Y0044960D02*
X0071866Y0044960D01*
X0067728Y0044960D02*
X0055589Y0044960D01*
X0056983Y0043361D02*
X0066352Y0043361D01*
X0065697Y0041763D02*
X0057645Y0041763D01*
X0057743Y0040164D02*
X0065542Y0040164D01*
X0065542Y0038566D02*
X0057743Y0038566D01*
X0045857Y0038566D02*
X0038058Y0038566D01*
X0038058Y0036967D02*
X0045857Y0036967D01*
X0045857Y0035369D02*
X0038058Y0035369D01*
X0038058Y0033770D02*
X0045857Y0033770D01*
X0045857Y0032172D02*
X0038058Y0032172D01*
X0037436Y0030573D02*
X0046479Y0030573D01*
X0047677Y0028975D02*
X0036238Y0028975D01*
X0027992Y0028975D02*
X0006600Y0028975D01*
X0006600Y0030573D02*
X0026793Y0030573D01*
X0026172Y0032172D02*
X0006600Y0032172D01*
X0006600Y0033770D02*
X0026172Y0033770D01*
X0026172Y0035369D02*
X0006600Y0035369D01*
X0006600Y0036967D02*
X0026172Y0036967D01*
X0026172Y0038566D02*
X0006600Y0038566D01*
X0006600Y0040164D02*
X0026172Y0040164D01*
X0026270Y0041763D02*
X0006600Y0041763D01*
X0006600Y0043361D02*
X0026932Y0043361D01*
X0006600Y0048157D02*
X0076233Y0048157D01*
X0074634Y0049755D02*
X0006600Y0049755D01*
X0006600Y0051354D02*
X0073652Y0051354D01*
X0073600Y0052952D02*
X0006600Y0052952D01*
X0006600Y0054551D02*
X0073600Y0054551D01*
X0073600Y0056149D02*
X0006600Y0056149D01*
X0006600Y0057748D02*
X0073600Y0057748D01*
X0073600Y0059346D02*
X0006600Y0059346D01*
X0006600Y0060945D02*
X0073600Y0060945D01*
X0073600Y0062543D02*
X0006600Y0062543D01*
X0006600Y0064142D02*
X0073600Y0064142D01*
X0073600Y0065740D02*
X0006600Y0065740D01*
X0006600Y0067339D02*
X0073600Y0067339D01*
X0073600Y0068937D02*
X0006600Y0068937D01*
X0006600Y0070536D02*
X0073600Y0070536D01*
X0073600Y0072134D02*
X0006600Y0072134D01*
X0006600Y0073733D02*
X0073600Y0073733D01*
X0073600Y0075332D02*
X0006600Y0075332D01*
X0006600Y0076930D02*
X0073600Y0076930D01*
X0073600Y0078529D02*
X0006600Y0078529D01*
X0006600Y0080127D02*
X0073600Y0080127D01*
X0073600Y0081726D02*
X0006600Y0081726D01*
X0006600Y0083324D02*
X0073968Y0083324D01*
X0075397Y0084923D02*
X0006600Y0084923D01*
X0006600Y0086521D02*
X0076996Y0086521D01*
X0078594Y0088120D02*
X0006600Y0088120D01*
X0006600Y0089718D02*
X0080193Y0089718D01*
X0081250Y0091317D02*
X0006600Y0091317D01*
X0006600Y0092915D02*
X0081250Y0092915D01*
X0081665Y0094514D02*
X0006600Y0094514D01*
X0006600Y0096112D02*
X0083263Y0096112D01*
X0088385Y0097711D02*
X0006600Y0097711D01*
X0006600Y0099309D02*
X0089984Y0099309D01*
X0092000Y0096800D02*
X0111800Y0096800D01*
X0115753Y0100908D02*
X0117847Y0100908D01*
X0121500Y0100908D02*
X0122100Y0100908D01*
X0122100Y0099309D02*
X0121500Y0099309D01*
X0121500Y0097711D02*
X0122100Y0097711D01*
X0122100Y0096112D02*
X0121500Y0096112D01*
X0121500Y0094514D02*
X0122100Y0094514D01*
X0122100Y0092915D02*
X0121500Y0092915D01*
X0121500Y0091317D02*
X0122100Y0091317D01*
X0123370Y0091317D02*
X0130143Y0091317D01*
X0127624Y0092915D02*
X0125976Y0092915D01*
X0129800Y0097800D02*
X0131400Y0096200D01*
X0131800Y0096800D01*
X0129800Y0097800D02*
X0136200Y0104200D01*
X0136200Y0115400D01*
X0166600Y0145800D01*
X0200200Y0145800D01*
X0256200Y0201800D01*
X0256200Y0206600D01*
X0256800Y0206800D01*
X0260991Y0203212D02*
X0262609Y0203212D01*
X0264948Y0201614D02*
X0259400Y0201614D01*
X0258924Y0200015D02*
X0343485Y0200015D01*
X0343898Y0199020D02*
X0346520Y0196398D01*
X0349946Y0194979D01*
X0353654Y0194979D01*
X0357080Y0196398D01*
X0359702Y0199020D01*
X0361121Y0202446D01*
X0361121Y0206154D01*
X0359702Y0209580D01*
X0357080Y0212202D01*
X0353654Y0213621D01*
X0349946Y0213621D01*
X0346520Y0212202D01*
X0343898Y0209580D01*
X0342479Y0206154D01*
X0342479Y0202446D01*
X0343898Y0199020D01*
X0344501Y0198417D02*
X0257342Y0198417D01*
X0255744Y0196818D02*
X0346099Y0196818D01*
X0349364Y0195220D02*
X0254145Y0195220D01*
X0252547Y0193621D02*
X0516921Y0193621D01*
X0516921Y0192023D02*
X0250948Y0192023D01*
X0249350Y0190424D02*
X0516921Y0190424D01*
X0516921Y0188826D02*
X0247751Y0188826D01*
X0246153Y0187227D02*
X0516921Y0187227D01*
X0516921Y0185629D02*
X0244554Y0185629D01*
X0242956Y0184030D02*
X0516921Y0184030D01*
X0516921Y0182432D02*
X0241357Y0182432D01*
X0239759Y0180833D02*
X0516921Y0180833D01*
X0516921Y0179235D02*
X0238160Y0179235D01*
X0236562Y0177636D02*
X0516921Y0177636D01*
X0516921Y0176038D02*
X0234963Y0176038D01*
X0233365Y0174439D02*
X0516921Y0174439D01*
X0516921Y0172841D02*
X0231766Y0172841D01*
X0230168Y0171242D02*
X0516921Y0171242D01*
X0516921Y0169644D02*
X0228569Y0169644D01*
X0226971Y0168045D02*
X0516921Y0168045D01*
X0516921Y0166447D02*
X0225372Y0166447D01*
X0223774Y0164848D02*
X0516921Y0164848D01*
X0516921Y0163250D02*
X0222175Y0163250D01*
X0220577Y0161651D02*
X0516921Y0161651D01*
X0516921Y0160053D02*
X0218978Y0160053D01*
X0217380Y0158454D02*
X0516921Y0158454D01*
X0516921Y0156856D02*
X0215781Y0156856D01*
X0214183Y0155257D02*
X0516921Y0155257D01*
X0516921Y0153659D02*
X0212584Y0153659D01*
X0210986Y0152060D02*
X0516921Y0152060D01*
X0516921Y0150462D02*
X0209387Y0150462D01*
X0207789Y0148863D02*
X0516921Y0148863D01*
X0516921Y0147265D02*
X0206190Y0147265D01*
X0204591Y0145666D02*
X0516921Y0145666D01*
X0516921Y0144068D02*
X0202993Y0144068D01*
X0200336Y0150462D02*
X0006600Y0150462D01*
X0006600Y0152060D02*
X0038468Y0152060D01*
X0039812Y0151700D02*
X0043788Y0151700D01*
X0047628Y0152729D01*
X0051072Y0154717D01*
X0053883Y0157528D01*
X0055871Y0160972D01*
X0056900Y0164812D01*
X0056900Y0168788D01*
X0055871Y0172628D01*
X0053883Y0176072D01*
X0051072Y0178883D01*
X0047628Y0180871D01*
X0043788Y0181900D01*
X0039812Y0181900D01*
X0035972Y0180871D01*
X0032528Y0178883D01*
X0029717Y0176072D01*
X0027729Y0172628D01*
X0026700Y0168788D01*
X0026700Y0164812D01*
X0027729Y0160972D01*
X0029717Y0157528D01*
X0032528Y0154717D01*
X0035972Y0152729D01*
X0039812Y0151700D01*
X0045132Y0152060D02*
X0201935Y0152060D01*
X0203533Y0153659D02*
X0049238Y0153659D01*
X0051612Y0155257D02*
X0205132Y0155257D01*
X0206730Y0156856D02*
X0121991Y0156856D01*
X0121873Y0156796D02*
X0122630Y0157182D01*
X0123318Y0157681D01*
X0123919Y0158282D01*
X0124418Y0158970D01*
X0124804Y0159727D01*
X0125067Y0160535D01*
X0125200Y0161375D01*
X0125200Y0161600D01*
X0117000Y0161600D01*
X0117000Y0156400D01*
X0120225Y0156400D01*
X0121065Y0156533D01*
X0121873Y0156796D01*
X0124044Y0158454D02*
X0208329Y0158454D01*
X0209927Y0160053D02*
X0124910Y0160053D01*
X0125007Y0163250D02*
X0213124Y0163250D01*
X0214723Y0164848D02*
X0124260Y0164848D01*
X0122575Y0166447D02*
X0216321Y0166447D01*
X0217920Y0168045D02*
X0123682Y0168045D01*
X0124752Y0169644D02*
X0219518Y0169644D01*
X0221117Y0171242D02*
X0125200Y0171242D01*
X0125200Y0172841D02*
X0222715Y0172841D01*
X0224314Y0174439D02*
X0124552Y0174439D01*
X0123199Y0176038D02*
X0225912Y0176038D01*
X0227511Y0177636D02*
X0115489Y0177636D01*
X0113891Y0179235D02*
X0229109Y0179235D01*
X0230708Y0180833D02*
X0112292Y0180833D01*
X0110694Y0182432D02*
X0232306Y0182432D01*
X0233905Y0184030D02*
X0109095Y0184030D01*
X0107497Y0185629D02*
X0235503Y0185629D01*
X0237102Y0187227D02*
X0105898Y0187227D01*
X0105800Y0188826D02*
X0238700Y0188826D01*
X0240299Y0190424D02*
X0105800Y0190424D01*
X0105800Y0192023D02*
X0241897Y0192023D01*
X0243496Y0193621D02*
X0176413Y0193621D01*
X0177080Y0193898D02*
X0179702Y0196520D01*
X0181121Y0199946D01*
X0181121Y0203654D01*
X0179702Y0207080D01*
X0177080Y0209702D01*
X0173654Y0211121D01*
X0169946Y0211121D01*
X0166520Y0209702D01*
X0163898Y0207080D01*
X0162479Y0203654D01*
X0162479Y0199946D01*
X0163898Y0196520D01*
X0166520Y0193898D01*
X0169946Y0192479D01*
X0173654Y0192479D01*
X0177080Y0193898D01*
X0178402Y0195220D02*
X0245094Y0195220D01*
X0246693Y0196818D02*
X0179826Y0196818D01*
X0180488Y0198417D02*
X0248291Y0198417D01*
X0249890Y0200015D02*
X0181121Y0200015D01*
X0181121Y0201614D02*
X0224948Y0201614D01*
X0222609Y0203212D02*
X0181121Y0203212D01*
X0180642Y0204811D02*
X0221671Y0204811D01*
X0221300Y0206409D02*
X0179980Y0206409D01*
X0178774Y0208008D02*
X0221347Y0208008D01*
X0222009Y0209606D02*
X0177176Y0209606D01*
X0166424Y0209606D02*
X0105800Y0209606D01*
X0105800Y0208008D02*
X0164826Y0208008D01*
X0163620Y0206409D02*
X0105800Y0206409D01*
X0105800Y0204811D02*
X0162958Y0204811D01*
X0162479Y0203212D02*
X0105800Y0203212D01*
X0105800Y0201614D02*
X0162479Y0201614D01*
X0162479Y0200015D02*
X0105800Y0200015D01*
X0105800Y0198417D02*
X0163112Y0198417D01*
X0163774Y0196818D02*
X0105800Y0196818D01*
X0105800Y0195220D02*
X0165198Y0195220D01*
X0167187Y0193621D02*
X0105800Y0193621D01*
X0099400Y0193621D02*
X0006600Y0193621D01*
X0006600Y0192023D02*
X0099400Y0192023D01*
X0099400Y0190424D02*
X0006600Y0190424D01*
X0006600Y0188826D02*
X0099400Y0188826D01*
X0099400Y0187227D02*
X0006600Y0187227D01*
X0006600Y0185629D02*
X0099400Y0185629D01*
X0100044Y0184030D02*
X0006600Y0184030D01*
X0006600Y0182432D02*
X0101643Y0182432D01*
X0103241Y0180833D02*
X0047694Y0180833D01*
X0050462Y0179235D02*
X0104840Y0179235D01*
X0106438Y0177636D02*
X0052318Y0177636D01*
X0053903Y0176038D02*
X0108037Y0176038D01*
X0109048Y0174439D02*
X0054825Y0174439D01*
X0055748Y0172841D02*
X0108400Y0172841D01*
X0108400Y0171242D02*
X0056242Y0171242D01*
X0056671Y0169644D02*
X0108848Y0169644D01*
X0109918Y0168045D02*
X0056900Y0168045D01*
X0056900Y0166447D02*
X0111025Y0166447D01*
X0109340Y0164848D02*
X0056900Y0164848D01*
X0056481Y0163250D02*
X0108593Y0163250D01*
X0108400Y0161600D02*
X0108400Y0161375D01*
X0108533Y0160535D01*
X0108796Y0159727D01*
X0109182Y0158970D01*
X0109681Y0158282D01*
X0110282Y0157681D01*
X0110970Y0157182D01*
X0111727Y0156796D01*
X0112535Y0156533D01*
X0113375Y0156400D01*
X0116600Y0156400D01*
X0116600Y0161600D01*
X0108400Y0161600D01*
X0108690Y0160053D02*
X0055340Y0160053D01*
X0056053Y0161651D02*
X0116600Y0161651D01*
X0117000Y0161651D02*
X0211526Y0161651D01*
X0179702Y0137080D02*
X0177080Y0139702D01*
X0173654Y0141121D01*
X0169946Y0141121D01*
X0166520Y0139702D01*
X0163898Y0137080D01*
X0162479Y0133654D01*
X0162479Y0129946D01*
X0163898Y0126520D01*
X0166520Y0123898D01*
X0169946Y0122479D01*
X0173654Y0122479D01*
X0177080Y0123898D01*
X0179702Y0126520D01*
X0181121Y0129946D01*
X0181121Y0133654D01*
X0179702Y0137080D01*
X0179109Y0137673D02*
X0348261Y0137673D01*
X0349946Y0138371D02*
X0346520Y0136952D01*
X0343898Y0134330D01*
X0342479Y0130904D01*
X0342479Y0127196D01*
X0343898Y0123770D01*
X0346520Y0121148D01*
X0349946Y0119729D01*
X0353654Y0119729D01*
X0357080Y0121148D01*
X0359702Y0123770D01*
X0361121Y0127196D01*
X0361121Y0130904D01*
X0359702Y0134330D01*
X0357080Y0136952D01*
X0353654Y0138371D01*
X0349946Y0138371D01*
X0345643Y0136075D02*
X0180119Y0136075D01*
X0180781Y0134476D02*
X0344044Y0134476D01*
X0343296Y0132878D02*
X0181121Y0132878D01*
X0181121Y0131279D02*
X0183501Y0131279D01*
X0182040Y0129681D02*
X0181011Y0129681D01*
X0181378Y0128082D02*
X0180349Y0128082D01*
X0179666Y0126484D02*
X0181300Y0126484D01*
X0181640Y0124885D02*
X0178068Y0124885D01*
X0175605Y0123287D02*
X0182535Y0123287D01*
X0184768Y0121688D02*
X0147014Y0121688D01*
X0145415Y0120090D02*
X0217964Y0120090D01*
X0218866Y0121688D02*
X0219563Y0121688D01*
X0221046Y0123287D02*
X0221161Y0123287D01*
X0216886Y0123287D02*
X0216714Y0123287D01*
X0216714Y0124885D02*
X0216886Y0124885D01*
X0216886Y0126484D02*
X0216714Y0126484D01*
X0216714Y0128082D02*
X0216886Y0128082D01*
X0216886Y0129681D02*
X0216714Y0129681D01*
X0216714Y0131279D02*
X0216886Y0131279D01*
X0219992Y0131279D02*
X0223501Y0131279D01*
X0222040Y0129681D02*
X0221505Y0129681D01*
X0225800Y0126600D02*
X0226800Y0126800D01*
X0225800Y0126600D02*
X0225800Y0123400D01*
X0215700Y0113300D01*
X0172500Y0113300D01*
X0161800Y0102600D01*
X0161800Y0096800D01*
X0165753Y0100908D02*
X0167847Y0100908D01*
X0168571Y0101632D02*
X0166968Y0100029D01*
X0166800Y0099624D01*
X0166632Y0100029D01*
X0165193Y0101468D01*
X0173825Y0110100D01*
X0216337Y0110100D01*
X0217513Y0110587D01*
X0218413Y0111487D01*
X0228460Y0121534D01*
X0229915Y0122137D01*
X0231463Y0123684D01*
X0231800Y0124499D01*
X0232137Y0123684D01*
X0232200Y0123622D01*
X0232200Y0123125D01*
X0189275Y0080200D01*
X0172725Y0080200D01*
X0181125Y0088600D01*
X0181875Y0088600D01*
X0183492Y0089270D01*
X0184730Y0090508D01*
X0185400Y0092125D01*
X0185400Y0093875D01*
X0184730Y0095492D01*
X0183492Y0096730D01*
X0181875Y0097400D01*
X0180125Y0097400D01*
X0178508Y0096730D01*
X0177500Y0095723D01*
X0177500Y0097934D01*
X0176632Y0100029D01*
X0175029Y0101632D01*
X0172934Y0102500D01*
X0170666Y0102500D01*
X0168571Y0101632D01*
X0166232Y0102506D02*
X0211581Y0102506D01*
X0213179Y0104105D02*
X0167830Y0104105D01*
X0169429Y0105703D02*
X0214778Y0105703D01*
X0216376Y0107302D02*
X0171027Y0107302D01*
X0172626Y0108900D02*
X0217975Y0108900D01*
X0217299Y0110499D02*
X0219573Y0110499D01*
X0219023Y0112097D02*
X0221172Y0112097D01*
X0220621Y0113696D02*
X0222770Y0113696D01*
X0222220Y0115294D02*
X0224369Y0115294D01*
X0223818Y0116893D02*
X0225967Y0116893D01*
X0225417Y0118491D02*
X0227566Y0118491D01*
X0227015Y0120090D02*
X0229164Y0120090D01*
X0228832Y0121688D02*
X0230763Y0121688D01*
X0231065Y0123287D02*
X0232200Y0123287D01*
X0235400Y0121800D02*
X0190600Y0077000D01*
X0158600Y0077000D01*
X0152200Y0070600D01*
X0152200Y0067400D01*
X0151800Y0066800D01*
X0149287Y0071929D02*
X0148571Y0071632D01*
X0146968Y0070029D01*
X0146781Y0069579D01*
X0146675Y0069787D01*
X0146148Y0070513D01*
X0145513Y0071148D01*
X0144787Y0071675D01*
X0143988Y0072082D01*
X0143135Y0072360D01*
X0142249Y0072500D01*
X0142100Y0072500D01*
X0142100Y0067100D01*
X0141500Y0067100D01*
X0141500Y0072500D01*
X0141351Y0072500D01*
X0140465Y0072360D01*
X0139612Y0072082D01*
X0138813Y0071675D01*
X0138087Y0071148D01*
X0137452Y0070513D01*
X0136925Y0069787D01*
X0136819Y0069579D01*
X0136632Y0070029D01*
X0135029Y0071632D01*
X0132934Y0072500D01*
X0130666Y0072500D01*
X0128571Y0071632D01*
X0126968Y0070029D01*
X0126800Y0069624D01*
X0126632Y0070029D01*
X0126193Y0070468D01*
X0132725Y0077000D01*
X0154075Y0077000D01*
X0150387Y0073313D01*
X0149487Y0072413D01*
X0149287Y0071929D01*
X0149372Y0072134D02*
X0143828Y0072134D01*
X0142100Y0072134D02*
X0141500Y0072134D01*
X0141500Y0070536D02*
X0142100Y0070536D01*
X0142100Y0068937D02*
X0141500Y0068937D01*
X0141500Y0067339D02*
X0142100Y0067339D01*
X0142100Y0066500D02*
X0142100Y0061100D01*
X0142249Y0061100D01*
X0143135Y0061240D01*
X0143988Y0061518D01*
X0144787Y0061925D01*
X0145513Y0062452D01*
X0146148Y0063087D01*
X0146675Y0063813D01*
X0146781Y0064021D01*
X0146968Y0063571D01*
X0148571Y0061968D01*
X0150666Y0061100D01*
X0152934Y0061100D01*
X0155029Y0061968D01*
X0156632Y0063571D01*
X0156800Y0063976D01*
X0156968Y0063571D01*
X0158571Y0061968D01*
X0158600Y0061956D01*
X0158600Y0052601D01*
X0157637Y0053000D01*
X0147125Y0053000D01*
X0136593Y0063532D01*
X0136632Y0063571D01*
X0136819Y0064021D01*
X0136925Y0063813D01*
X0137452Y0063087D01*
X0138087Y0062452D01*
X0138813Y0061925D01*
X0139612Y0061518D01*
X0140465Y0061240D01*
X0141351Y0061100D01*
X0141500Y0061100D01*
X0141500Y0066500D01*
X0142100Y0066500D01*
X0142100Y0065740D02*
X0141500Y0065740D01*
X0141500Y0064142D02*
X0142100Y0064142D01*
X0142100Y0062543D02*
X0141500Y0062543D01*
X0139181Y0060945D02*
X0158600Y0060945D01*
X0158600Y0059346D02*
X0140779Y0059346D01*
X0142378Y0057748D02*
X0158600Y0057748D01*
X0158600Y0056149D02*
X0143976Y0056149D01*
X0145575Y0054551D02*
X0158600Y0054551D01*
X0158600Y0052952D02*
X0157752Y0052952D01*
X0157000Y0049800D02*
X0161800Y0045000D01*
X0161800Y0029000D01*
X0168200Y0022600D01*
X0214600Y0022600D01*
X0222600Y0030600D01*
X0222600Y0032200D01*
X0229000Y0038600D01*
X0230600Y0038600D01*
X0232200Y0037000D01*
X0231800Y0036800D01*
X0237743Y0036967D02*
X0251104Y0036967D01*
X0251104Y0037181D02*
X0251104Y0036419D01*
X0245542Y0036419D01*
X0245542Y0032789D01*
X0245688Y0031865D01*
X0245977Y0030975D01*
X0246402Y0030142D01*
X0246952Y0029385D01*
X0247613Y0028723D01*
X0248370Y0028174D01*
X0249204Y0027749D01*
X0250093Y0027460D01*
X0251017Y0027313D01*
X0251104Y0027313D01*
X0251104Y0036419D01*
X0251866Y0036419D01*
X0251866Y0027313D01*
X0251953Y0027313D01*
X0252877Y0027460D01*
X0253766Y0027749D01*
X0254600Y0028174D01*
X0255357Y0028723D01*
X0256018Y0029385D01*
X0256568Y0030142D01*
X0256993Y0030975D01*
X0257282Y0031865D01*
X0257428Y0032789D01*
X0257428Y0036419D01*
X0251866Y0036419D01*
X0251866Y0037181D01*
X0251104Y0037181D01*
X0245542Y0037181D01*
X0245542Y0040811D01*
X0245688Y0041735D01*
X0245977Y0042625D01*
X0246402Y0043458D01*
X0246952Y0044215D01*
X0247613Y0044877D01*
X0248370Y0045426D01*
X0249204Y0045851D01*
X0250093Y0046140D01*
X0251017Y0046287D01*
X0251104Y0046287D01*
X0251104Y0037181D01*
X0251866Y0037181D02*
X0251866Y0046287D01*
X0251953Y0046287D01*
X0252877Y0046140D01*
X0253766Y0045851D01*
X0254600Y0045426D01*
X0255357Y0044877D01*
X0256018Y0044215D01*
X0256568Y0043458D01*
X0256993Y0042625D01*
X0257282Y0041735D01*
X0257428Y0040811D01*
X0257428Y0037181D01*
X0251866Y0037181D01*
X0251866Y0036967D02*
X0266172Y0036967D01*
X0266172Y0035369D02*
X0257428Y0035369D01*
X0257428Y0033770D02*
X0266172Y0033770D01*
X0266172Y0032172D02*
X0257331Y0032172D01*
X0256788Y0030573D02*
X0266793Y0030573D01*
X0267076Y0029890D02*
X0266172Y0032074D01*
X0266172Y0041526D01*
X0267076Y0043710D01*
X0268748Y0045382D01*
X0270933Y0046287D01*
X0273297Y0046287D01*
X0275482Y0045382D01*
X0277153Y0043710D01*
X0278058Y0041526D01*
X0278058Y0032074D01*
X0277153Y0029890D01*
X0275482Y0028218D01*
X0273297Y0027313D01*
X0270933Y0027313D01*
X0268748Y0028218D01*
X0267076Y0029890D01*
X0267992Y0028975D02*
X0255608Y0028975D01*
X0252349Y0027376D02*
X0270781Y0027376D01*
X0273449Y0027376D02*
X0290466Y0027376D01*
X0293134Y0027376D02*
X0310621Y0027376D01*
X0311017Y0027313D02*
X0311104Y0027313D01*
X0311104Y0036419D01*
X0305542Y0036419D01*
X0305542Y0032789D01*
X0305688Y0031865D01*
X0305977Y0030975D01*
X0306402Y0030142D01*
X0306952Y0029385D01*
X0307613Y0028723D01*
X0308370Y0028174D01*
X0309204Y0027749D01*
X0310093Y0027460D01*
X0311017Y0027313D01*
X0311104Y0027376D02*
X0311866Y0027376D01*
X0311866Y0027313D02*
X0311953Y0027313D01*
X0312877Y0027460D01*
X0313766Y0027749D01*
X0314600Y0028174D01*
X0315357Y0028723D01*
X0316018Y0029385D01*
X0316568Y0030142D01*
X0316993Y0030975D01*
X0317282Y0031865D01*
X0317428Y0032789D01*
X0317428Y0036419D01*
X0311866Y0036419D01*
X0311866Y0027313D01*
X0312349Y0027376D02*
X0330781Y0027376D01*
X0333449Y0027376D02*
X0350466Y0027376D01*
X0350618Y0027313D02*
X0352982Y0027313D01*
X0355167Y0028218D01*
X0356838Y0029890D01*
X0357743Y0032074D01*
X0357743Y0041526D01*
X0356838Y0043710D01*
X0355167Y0045382D01*
X0352982Y0046287D01*
X0350618Y0046287D01*
X0348433Y0045382D01*
X0346762Y0043710D01*
X0345857Y0041526D01*
X0345857Y0032074D01*
X0346762Y0029890D01*
X0348433Y0028218D01*
X0350618Y0027313D01*
X0353134Y0027376D02*
X0370621Y0027376D01*
X0371017Y0027313D02*
X0371104Y0027313D01*
X0371104Y0036419D01*
X0365542Y0036419D01*
X0365542Y0032789D01*
X0365688Y0031865D01*
X0365977Y0030975D01*
X0366402Y0030142D01*
X0366952Y0029385D01*
X0367613Y0028723D01*
X0368370Y0028174D01*
X0369204Y0027749D01*
X0370093Y0027460D01*
X0371017Y0027313D01*
X0371104Y0027376D02*
X0371866Y0027376D01*
X0371866Y0027313D02*
X0371953Y0027313D01*
X0372877Y0027460D01*
X0373766Y0027749D01*
X0374600Y0028174D01*
X0375357Y0028723D01*
X0376018Y0029385D01*
X0376568Y0030142D01*
X0376993Y0030975D01*
X0377282Y0031865D01*
X0377428Y0032789D01*
X0377428Y0036419D01*
X0371866Y0036419D01*
X0371866Y0027313D01*
X0372349Y0027376D02*
X0390781Y0027376D01*
X0390933Y0027313D02*
X0393297Y0027313D01*
X0395482Y0028218D01*
X0397153Y0029890D01*
X0398058Y0032074D01*
X0398058Y0041526D01*
X0397153Y0043710D01*
X0395482Y0045382D01*
X0393297Y0046287D01*
X0390933Y0046287D01*
X0388748Y0045382D01*
X0387076Y0043710D01*
X0386172Y0041526D01*
X0386172Y0032074D01*
X0387076Y0029890D01*
X0388748Y0028218D01*
X0390933Y0027313D01*
X0393449Y0027376D02*
X0410466Y0027376D01*
X0410618Y0027313D02*
X0412982Y0027313D01*
X0415167Y0028218D01*
X0416838Y0029890D01*
X0417743Y0032074D01*
X0417743Y0041526D01*
X0416838Y0043710D01*
X0415167Y0045382D01*
X0413079Y0046247D01*
X0405000Y0054325D01*
X0405000Y0061956D01*
X0405029Y0061968D01*
X0406632Y0063571D01*
X0406819Y0064021D01*
X0406925Y0063813D01*
X0407452Y0063087D01*
X0408087Y0062452D01*
X0408813Y0061925D01*
X0409612Y0061518D01*
X0410465Y0061240D01*
X0411351Y0061100D01*
X0411500Y0061100D01*
X0411500Y0066500D01*
X0412100Y0066500D01*
X0412100Y0067100D01*
X0411500Y0067100D01*
X0411500Y0072500D01*
X0411351Y0072500D01*
X0410465Y0072360D01*
X0409612Y0072082D01*
X0408813Y0071675D01*
X0408087Y0071148D01*
X0407452Y0070513D01*
X0406925Y0069787D01*
X0406819Y0069579D01*
X0406632Y0070029D01*
X0405029Y0071632D01*
X0402934Y0072500D01*
X0400666Y0072500D01*
X0398571Y0071632D01*
X0396968Y0070029D01*
X0396800Y0069624D01*
X0396632Y0070029D01*
X0395029Y0071632D01*
X0392934Y0072500D01*
X0390666Y0072500D01*
X0388571Y0071632D01*
X0386968Y0070029D01*
X0386781Y0069579D01*
X0386675Y0069787D01*
X0386148Y0070513D01*
X0385513Y0071148D01*
X0384787Y0071675D01*
X0383988Y0072082D01*
X0383135Y0072360D01*
X0382249Y0072500D01*
X0382100Y0072500D01*
X0382100Y0067100D01*
X0381500Y0067100D01*
X0381500Y0072500D01*
X0381351Y0072500D01*
X0380465Y0072360D01*
X0379612Y0072082D01*
X0378813Y0071675D01*
X0378087Y0071148D01*
X0377452Y0070513D01*
X0376925Y0069787D01*
X0376819Y0069579D01*
X0376727Y0069801D01*
X0380725Y0073800D01*
X0427675Y0073800D01*
X0459400Y0042075D01*
X0459400Y0039563D01*
X0459887Y0038387D01*
X0465857Y0032418D01*
X0465857Y0032074D01*
X0466762Y0029890D01*
X0468433Y0028218D01*
X0470618Y0027313D01*
X0472982Y0027313D01*
X0475167Y0028218D01*
X0476838Y0029890D01*
X0477743Y0032074D01*
X0477743Y0041526D01*
X0476838Y0043710D01*
X0475167Y0045382D01*
X0472982Y0046287D01*
X0470618Y0046287D01*
X0468433Y0045382D01*
X0466762Y0043710D01*
X0465857Y0041526D01*
X0465857Y0041469D01*
X0465800Y0041525D01*
X0465800Y0044037D01*
X0465313Y0045213D01*
X0464413Y0046113D01*
X0430813Y0079713D01*
X0429637Y0080200D01*
X0378763Y0080200D01*
X0377587Y0079713D01*
X0376687Y0078813D01*
X0370287Y0072413D01*
X0370252Y0072329D01*
X0368571Y0071632D01*
X0366968Y0070029D01*
X0366800Y0069624D01*
X0366632Y0070029D01*
X0365029Y0071632D01*
X0362934Y0072500D01*
X0360666Y0072500D01*
X0358571Y0071632D01*
X0357463Y0070524D01*
X0357408Y0070800D01*
X0357227Y0071237D01*
X0356964Y0071630D01*
X0356630Y0071964D01*
X0356237Y0072227D01*
X0355800Y0072408D01*
X0355336Y0072500D01*
X0352100Y0072500D01*
X0352100Y0067100D01*
X0351500Y0067100D01*
X0351500Y0072500D01*
X0348264Y0072500D01*
X0347800Y0072408D01*
X0347363Y0072227D01*
X0346970Y0071964D01*
X0346636Y0071630D01*
X0346373Y0071237D01*
X0346192Y0070800D01*
X0346100Y0070336D01*
X0346100Y0067100D01*
X0351500Y0067100D01*
X0351500Y0066500D01*
X0352100Y0066500D01*
X0352100Y0061100D01*
X0355336Y0061100D01*
X0355800Y0061192D01*
X0356237Y0061373D01*
X0356630Y0061636D01*
X0356964Y0061970D01*
X0357227Y0062363D01*
X0357408Y0062800D01*
X0357463Y0063076D01*
X0358571Y0061968D01*
X0360666Y0061100D01*
X0362934Y0061100D01*
X0365029Y0061968D01*
X0366632Y0063571D01*
X0366800Y0063976D01*
X0366968Y0063571D01*
X0368571Y0061968D01*
X0370666Y0061100D01*
X0372934Y0061100D01*
X0375029Y0061968D01*
X0376632Y0063571D01*
X0376819Y0064021D01*
X0376925Y0063813D01*
X0377452Y0063087D01*
X0378087Y0062452D01*
X0378813Y0061925D01*
X0379612Y0061518D01*
X0380465Y0061240D01*
X0381351Y0061100D01*
X0381500Y0061100D01*
X0381500Y0066500D01*
X0382100Y0066500D01*
X0382100Y0061100D01*
X0382249Y0061100D01*
X0383135Y0061240D01*
X0383988Y0061518D01*
X0384787Y0061925D01*
X0385513Y0062452D01*
X0386148Y0063087D01*
X0386675Y0063813D01*
X0386781Y0064021D01*
X0386968Y0063571D01*
X0388571Y0061968D01*
X0390666Y0061100D01*
X0392934Y0061100D01*
X0395029Y0061968D01*
X0396632Y0063571D01*
X0396800Y0063976D01*
X0396968Y0063571D01*
X0398571Y0061968D01*
X0398600Y0061956D01*
X0398600Y0052363D01*
X0399087Y0051187D01*
X0399987Y0050287D01*
X0399987Y0050287D01*
X0406704Y0043571D01*
X0405857Y0041526D01*
X0405857Y0032074D01*
X0406762Y0029890D01*
X0408433Y0028218D01*
X0410618Y0027313D01*
X0413134Y0027376D02*
X0430621Y0027376D01*
X0431017Y0027313D02*
X0431104Y0027313D01*
X0431104Y0036419D01*
X0425542Y0036419D01*
X0425542Y0032789D01*
X0425688Y0031865D01*
X0425977Y0030975D01*
X0426402Y0030142D01*
X0426952Y0029385D01*
X0427613Y0028723D01*
X0428370Y0028174D01*
X0429204Y0027749D01*
X0430093Y0027460D01*
X0431017Y0027313D01*
X0431104Y0027376D02*
X0431866Y0027376D01*
X0431866Y0027313D02*
X0431953Y0027313D01*
X0432877Y0027460D01*
X0433766Y0027749D01*
X0434600Y0028174D01*
X0435357Y0028723D01*
X0436018Y0029385D01*
X0436568Y0030142D01*
X0436993Y0030975D01*
X0437282Y0031865D01*
X0437428Y0032789D01*
X0437428Y0036419D01*
X0431866Y0036419D01*
X0431866Y0027313D01*
X0432349Y0027376D02*
X0450781Y0027376D01*
X0450933Y0027313D02*
X0453297Y0027313D01*
X0455482Y0028218D01*
X0457153Y0029890D01*
X0458058Y0032074D01*
X0458058Y0041526D01*
X0457153Y0043710D01*
X0455482Y0045382D01*
X0453297Y0046287D01*
X0450933Y0046287D01*
X0448748Y0045382D01*
X0447076Y0043710D01*
X0446172Y0041526D01*
X0446172Y0032074D01*
X0447076Y0029890D01*
X0448748Y0028218D01*
X0450933Y0027313D01*
X0453449Y0027376D02*
X0470466Y0027376D01*
X0473134Y0027376D02*
X0490621Y0027376D01*
X0491017Y0027313D02*
X0491104Y0027313D01*
X0491104Y0036419D01*
X0485542Y0036419D01*
X0485542Y0032789D01*
X0485688Y0031865D01*
X0485977Y0030975D01*
X0486402Y0030142D01*
X0486952Y0029385D01*
X0487613Y0028723D01*
X0488370Y0028174D01*
X0489204Y0027749D01*
X0490093Y0027460D01*
X0491017Y0027313D01*
X0491104Y0027376D02*
X0491866Y0027376D01*
X0491866Y0027313D02*
X0491953Y0027313D01*
X0492877Y0027460D01*
X0493766Y0027749D01*
X0494600Y0028174D01*
X0495357Y0028723D01*
X0496018Y0029385D01*
X0496568Y0030142D01*
X0496993Y0030975D01*
X0497282Y0031865D01*
X0497428Y0032789D01*
X0497428Y0036419D01*
X0491866Y0036419D01*
X0491866Y0027313D01*
X0492349Y0027376D02*
X0516921Y0027376D01*
X0516921Y0025778D02*
X0222303Y0025778D01*
X0223902Y0027376D02*
X0230466Y0027376D01*
X0233134Y0027376D02*
X0250621Y0027376D01*
X0251104Y0027376D02*
X0251866Y0027376D01*
X0251866Y0028975D02*
X0251104Y0028975D01*
X0251104Y0030573D02*
X0251866Y0030573D01*
X0251866Y0032172D02*
X0251104Y0032172D01*
X0251104Y0033770D02*
X0251866Y0033770D01*
X0251866Y0035369D02*
X0251104Y0035369D01*
X0251104Y0038566D02*
X0251866Y0038566D01*
X0251866Y0040164D02*
X0251104Y0040164D01*
X0251104Y0041763D02*
X0251866Y0041763D01*
X0251866Y0043361D02*
X0251104Y0043361D01*
X0251104Y0044960D02*
X0251866Y0044960D01*
X0255242Y0044960D02*
X0268326Y0044960D01*
X0266932Y0043361D02*
X0256618Y0043361D01*
X0257273Y0041763D02*
X0266270Y0041763D01*
X0266172Y0040164D02*
X0257428Y0040164D01*
X0257428Y0038566D02*
X0266172Y0038566D01*
X0275904Y0044960D02*
X0288011Y0044960D01*
X0286617Y0043361D02*
X0277298Y0043361D01*
X0277960Y0041763D02*
X0285955Y0041763D01*
X0285857Y0040164D02*
X0278058Y0040164D01*
X0278058Y0038566D02*
X0285857Y0038566D01*
X0285857Y0036967D02*
X0278058Y0036967D01*
X0278058Y0035369D02*
X0285857Y0035369D01*
X0285857Y0033770D02*
X0278058Y0033770D01*
X0278058Y0032172D02*
X0285857Y0032172D01*
X0286479Y0030573D02*
X0277436Y0030573D01*
X0276238Y0028975D02*
X0287677Y0028975D01*
X0293000Y0033800D02*
X0291400Y0035400D01*
X0291800Y0036800D01*
X0293000Y0033800D02*
X0294600Y0033800D01*
X0301000Y0040200D01*
X0301000Y0078600D01*
X0328200Y0105800D01*
X0337800Y0105800D01*
X0341860Y0104105D02*
X0362170Y0104105D01*
X0360571Y0105703D02*
X0342200Y0105703D01*
X0341940Y0107302D02*
X0358973Y0107302D01*
X0360200Y0110600D02*
X0371400Y0099400D01*
X0369800Y0097800D01*
X0371400Y0096200D01*
X0371800Y0096800D01*
X0375753Y0100908D02*
X0377847Y0100908D01*
X0378571Y0101632D02*
X0376968Y0100029D01*
X0376800Y0099624D01*
X0376632Y0100029D01*
X0375029Y0101632D01*
X0372934Y0102500D01*
X0372825Y0102500D01*
X0364725Y0110600D01*
X0389275Y0110600D01*
X0398407Y0101468D01*
X0396968Y0100029D01*
X0396781Y0099579D01*
X0396675Y0099787D01*
X0396148Y0100513D01*
X0395513Y0101148D01*
X0394787Y0101675D01*
X0393988Y0102082D01*
X0393135Y0102360D01*
X0392249Y0102500D01*
X0392100Y0102500D01*
X0392100Y0097100D01*
X0391500Y0097100D01*
X0391500Y0102500D01*
X0391351Y0102500D01*
X0390465Y0102360D01*
X0389612Y0102082D01*
X0388813Y0101675D01*
X0388087Y0101148D01*
X0387452Y0100513D01*
X0386925Y0099787D01*
X0386819Y0099579D01*
X0386632Y0100029D01*
X0385029Y0101632D01*
X0382934Y0102500D01*
X0380666Y0102500D01*
X0378571Y0101632D01*
X0372819Y0102506D02*
X0397368Y0102506D01*
X0397847Y0100908D02*
X0395753Y0100908D01*
X0395770Y0104105D02*
X0371221Y0104105D01*
X0369622Y0105703D02*
X0394171Y0105703D01*
X0392573Y0107302D02*
X0368024Y0107302D01*
X0366425Y0108900D02*
X0390974Y0108900D01*
X0389376Y0110499D02*
X0364827Y0110499D01*
X0360200Y0110600D02*
X0299400Y0110600D01*
X0288200Y0121800D01*
X0288200Y0126600D01*
X0286800Y0126800D01*
X0290099Y0131279D02*
X0293501Y0131279D01*
X0292040Y0129681D02*
X0291560Y0129681D01*
X0296800Y0126800D02*
X0297800Y0126600D01*
X0297800Y0123400D01*
X0307400Y0113800D01*
X0390600Y0113800D01*
X0401800Y0102600D01*
X0401800Y0096800D01*
X0405753Y0100908D02*
X0407847Y0100908D01*
X0405000Y0102506D02*
X0516921Y0102506D01*
X0516921Y0100908D02*
X0415753Y0100908D01*
X0416930Y0099309D02*
X0516921Y0099309D01*
X0516921Y0097711D02*
X0417500Y0097711D01*
X0417500Y0096112D02*
X0516921Y0096112D01*
X0516921Y0094514D02*
X0417023Y0094514D01*
X0415976Y0092915D02*
X0516921Y0092915D01*
X0516921Y0091317D02*
X0413457Y0091317D01*
X0410143Y0091317D02*
X0403457Y0091317D01*
X0405976Y0092915D02*
X0407624Y0092915D01*
X0400143Y0091317D02*
X0393370Y0091317D01*
X0392100Y0091317D02*
X0391500Y0091317D01*
X0390230Y0091317D02*
X0383457Y0091317D01*
X0385976Y0092915D02*
X0387624Y0092915D01*
X0391500Y0092915D02*
X0392100Y0092915D01*
X0392100Y0094514D02*
X0391500Y0094514D01*
X0391500Y0096112D02*
X0392100Y0096112D01*
X0392100Y0097711D02*
X0391500Y0097711D01*
X0391500Y0099309D02*
X0392100Y0099309D01*
X0392100Y0100908D02*
X0391500Y0100908D01*
X0387847Y0100908D02*
X0385753Y0100908D01*
X0380143Y0091317D02*
X0373457Y0091317D01*
X0375976Y0092915D02*
X0377624Y0092915D01*
X0370143Y0091317D02*
X0363370Y0091317D01*
X0362100Y0091317D02*
X0361500Y0091317D01*
X0360230Y0091317D02*
X0353457Y0091317D01*
X0355976Y0092915D02*
X0357624Y0092915D01*
X0361500Y0092915D02*
X0362100Y0092915D01*
X0362100Y0094514D02*
X0361500Y0094514D01*
X0361500Y0096112D02*
X0362100Y0096112D01*
X0362100Y0097711D02*
X0361500Y0097711D01*
X0361500Y0099309D02*
X0362100Y0099309D01*
X0362100Y0100908D02*
X0361500Y0100908D01*
X0363768Y0102506D02*
X0340729Y0102506D01*
X0347847Y0100908D02*
X0327833Y0100908D01*
X0329432Y0102506D02*
X0334871Y0102506D01*
X0329784Y0099309D02*
X0326235Y0099309D01*
X0324636Y0097711D02*
X0328185Y0097711D01*
X0331800Y0096800D02*
X0351800Y0096800D01*
X0355753Y0100908D02*
X0357847Y0100908D01*
X0365976Y0092915D02*
X0367624Y0092915D01*
X0378587Y0080127D02*
X0320000Y0080127D01*
X0320000Y0078529D02*
X0376403Y0078529D01*
X0374805Y0076930D02*
X0329519Y0076930D01*
X0329099Y0077350D02*
X0326800Y0077350D01*
X0326800Y0071800D01*
X0326800Y0071800D01*
X0332350Y0071800D01*
X0332350Y0074099D01*
X0329099Y0077350D01*
X0326800Y0077350D02*
X0324501Y0077350D01*
X0321250Y0074099D01*
X0321250Y0071800D01*
X0326800Y0071800D01*
X0326800Y0071800D01*
X0326800Y0071800D01*
X0326800Y0077350D01*
X0326800Y0076930D02*
X0326800Y0076930D01*
X0326800Y0075332D02*
X0326800Y0075332D01*
X0326800Y0073733D02*
X0326800Y0073733D01*
X0326800Y0072134D02*
X0326800Y0072134D01*
X0326800Y0071800D02*
X0321250Y0071800D01*
X0321250Y0069501D01*
X0324501Y0066250D01*
X0326800Y0066250D01*
X0329099Y0066250D01*
X0332350Y0069501D01*
X0332350Y0071800D01*
X0326800Y0071800D01*
X0326800Y0066250D01*
X0326800Y0071800D01*
X0326800Y0071800D01*
X0326800Y0070536D02*
X0326800Y0070536D01*
X0326800Y0068937D02*
X0326800Y0068937D01*
X0326800Y0067339D02*
X0326800Y0067339D01*
X0330188Y0067339D02*
X0346100Y0067339D01*
X0346100Y0066500D02*
X0346100Y0063264D01*
X0346192Y0062800D01*
X0346373Y0062363D01*
X0346636Y0061970D01*
X0346970Y0061636D01*
X0347363Y0061373D01*
X0347800Y0061192D01*
X0348264Y0061100D01*
X0351500Y0061100D01*
X0351500Y0066500D01*
X0346100Y0066500D01*
X0346100Y0065740D02*
X0320000Y0065740D01*
X0320000Y0064142D02*
X0346100Y0064142D01*
X0346298Y0062543D02*
X0320000Y0062543D01*
X0320000Y0060945D02*
X0398600Y0060945D01*
X0398600Y0059346D02*
X0320000Y0059346D01*
X0320000Y0057748D02*
X0398600Y0057748D01*
X0398600Y0056149D02*
X0320000Y0056149D01*
X0320000Y0054551D02*
X0398600Y0054551D01*
X0398600Y0052952D02*
X0320488Y0052952D01*
X0322087Y0051354D02*
X0399018Y0051354D01*
X0400519Y0049755D02*
X0323685Y0049755D01*
X0325284Y0048157D02*
X0402118Y0048157D01*
X0403716Y0046558D02*
X0326882Y0046558D01*
X0322627Y0041763D02*
X0317273Y0041763D01*
X0317282Y0041735D02*
X0316993Y0042625D01*
X0316568Y0043458D01*
X0316018Y0044215D01*
X0315357Y0044877D01*
X0314600Y0045426D01*
X0313766Y0045851D01*
X0312877Y0046140D01*
X0311953Y0046287D01*
X0311866Y0046287D01*
X0311866Y0037181D01*
X0311104Y0037181D01*
X0311104Y0036419D01*
X0311866Y0036419D01*
X0311866Y0037181D01*
X0317428Y0037181D01*
X0317428Y0040811D01*
X0317282Y0041735D01*
X0317428Y0040164D02*
X0324225Y0040164D01*
X0325824Y0038566D02*
X0317428Y0038566D01*
X0317428Y0035369D02*
X0326172Y0035369D01*
X0326172Y0036967D02*
X0311866Y0036967D01*
X0311104Y0036967D02*
X0302293Y0036967D01*
X0303787Y0038566D02*
X0305542Y0038566D01*
X0305542Y0037181D02*
X0311104Y0037181D01*
X0311104Y0046287D01*
X0311017Y0046287D01*
X0310093Y0046140D01*
X0309204Y0045851D01*
X0308370Y0045426D01*
X0307613Y0044877D01*
X0306952Y0044215D01*
X0306402Y0043458D01*
X0305977Y0042625D01*
X0305688Y0041735D01*
X0305542Y0040811D01*
X0305542Y0037181D01*
X0305542Y0035369D02*
X0300694Y0035369D01*
X0299096Y0033770D02*
X0305542Y0033770D01*
X0305639Y0032172D02*
X0297743Y0032172D01*
X0297121Y0030573D02*
X0306182Y0030573D01*
X0307362Y0028975D02*
X0295923Y0028975D01*
X0311104Y0028975D02*
X0311866Y0028975D01*
X0311866Y0030573D02*
X0311104Y0030573D01*
X0311104Y0032172D02*
X0311866Y0032172D01*
X0311866Y0033770D02*
X0311104Y0033770D01*
X0311104Y0035369D02*
X0311866Y0035369D01*
X0311866Y0038566D02*
X0311104Y0038566D01*
X0311104Y0040164D02*
X0311866Y0040164D01*
X0311866Y0041763D02*
X0311104Y0041763D01*
X0311104Y0043361D02*
X0311866Y0043361D01*
X0311866Y0044960D02*
X0311104Y0044960D01*
X0307728Y0044960D02*
X0304200Y0044960D01*
X0304200Y0046558D02*
X0317831Y0046558D01*
X0319430Y0044960D02*
X0315242Y0044960D01*
X0316618Y0043361D02*
X0321028Y0043361D01*
X0316233Y0048157D02*
X0304200Y0048157D01*
X0304200Y0049755D02*
X0314634Y0049755D01*
X0313652Y0051354D02*
X0304200Y0051354D01*
X0304200Y0052952D02*
X0313600Y0052952D01*
X0313600Y0054551D02*
X0304200Y0054551D01*
X0304200Y0056149D02*
X0313600Y0056149D01*
X0313600Y0057748D02*
X0304200Y0057748D01*
X0304200Y0059346D02*
X0313600Y0059346D01*
X0313600Y0060945D02*
X0304200Y0060945D01*
X0304200Y0062543D02*
X0313600Y0062543D01*
X0313600Y0064142D02*
X0304200Y0064142D01*
X0304200Y0065740D02*
X0313600Y0065740D01*
X0313600Y0067339D02*
X0304200Y0067339D01*
X0304200Y0068937D02*
X0313600Y0068937D01*
X0313600Y0070536D02*
X0304200Y0070536D01*
X0304200Y0072134D02*
X0313600Y0072134D01*
X0313600Y0073733D02*
X0304200Y0073733D01*
X0304200Y0075332D02*
X0313600Y0075332D01*
X0313600Y0076930D02*
X0304200Y0076930D01*
X0305454Y0078529D02*
X0313600Y0078529D01*
X0313600Y0080127D02*
X0307053Y0080127D01*
X0308651Y0081726D02*
X0313600Y0081726D01*
X0313968Y0083324D02*
X0310250Y0083324D01*
X0311848Y0084923D02*
X0315397Y0084923D01*
X0316996Y0086521D02*
X0313447Y0086521D01*
X0315045Y0088120D02*
X0318594Y0088120D01*
X0320193Y0089718D02*
X0316644Y0089718D01*
X0318242Y0091317D02*
X0321250Y0091317D01*
X0321250Y0092915D02*
X0319841Y0092915D01*
X0321439Y0094514D02*
X0321665Y0094514D01*
X0323038Y0096112D02*
X0323263Y0096112D01*
X0326800Y0091800D02*
X0331800Y0096800D01*
X0332441Y0092915D02*
X0347624Y0092915D01*
X0350143Y0091317D02*
X0332350Y0091317D01*
X0332350Y0089718D02*
X0516921Y0089718D01*
X0516921Y0088120D02*
X0330968Y0088120D01*
X0329370Y0086521D02*
X0516921Y0086521D01*
X0516921Y0084923D02*
X0324448Y0084923D01*
X0322850Y0083324D02*
X0516921Y0083324D01*
X0516921Y0081726D02*
X0321251Y0081726D01*
X0316800Y0081800D02*
X0326800Y0091800D01*
X0317184Y0099309D02*
X0217435Y0099309D01*
X0219033Y0100908D02*
X0318782Y0100908D01*
X0320381Y0102506D02*
X0220632Y0102506D01*
X0222230Y0104105D02*
X0321979Y0104105D01*
X0323578Y0105703D02*
X0223829Y0105703D01*
X0225427Y0107302D02*
X0325176Y0107302D01*
X0315585Y0097711D02*
X0215836Y0097711D01*
X0214238Y0096112D02*
X0313987Y0096112D01*
X0312388Y0094514D02*
X0212639Y0094514D01*
X0211041Y0092915D02*
X0310790Y0092915D01*
X0309191Y0091317D02*
X0209442Y0091317D01*
X0207844Y0089718D02*
X0307593Y0089718D01*
X0305994Y0088120D02*
X0206245Y0088120D01*
X0204647Y0086521D02*
X0304396Y0086521D01*
X0302797Y0084923D02*
X0203048Y0084923D01*
X0201450Y0083324D02*
X0301199Y0083324D01*
X0299600Y0081726D02*
X0199851Y0081726D01*
X0198253Y0080127D02*
X0298169Y0080127D01*
X0297800Y0078529D02*
X0196654Y0078529D01*
X0195056Y0076930D02*
X0297800Y0076930D01*
X0297800Y0075332D02*
X0193457Y0075332D01*
X0190800Y0081726D02*
X0174251Y0081726D01*
X0175850Y0083324D02*
X0192399Y0083324D01*
X0193997Y0084923D02*
X0177448Y0084923D01*
X0179047Y0086521D02*
X0195596Y0086521D01*
X0197194Y0088120D02*
X0180645Y0088120D01*
X0183941Y0089718D02*
X0198793Y0089718D01*
X0200391Y0091317D02*
X0185065Y0091317D01*
X0185400Y0092915D02*
X0201990Y0092915D01*
X0203588Y0094514D02*
X0185136Y0094514D01*
X0184110Y0096112D02*
X0205187Y0096112D01*
X0206785Y0097711D02*
X0177500Y0097711D01*
X0177500Y0096112D02*
X0177890Y0096112D01*
X0176930Y0099309D02*
X0208384Y0099309D01*
X0209982Y0100908D02*
X0175753Y0100908D01*
X0163575Y0108900D02*
X0139400Y0108900D01*
X0139400Y0107302D02*
X0161976Y0107302D01*
X0160378Y0105703D02*
X0139400Y0105703D01*
X0139400Y0104105D02*
X0158960Y0104105D01*
X0158600Y0102506D02*
X0138962Y0102506D01*
X0137847Y0100908D02*
X0137433Y0100908D01*
X0133000Y0105703D02*
X0006600Y0105703D01*
X0006600Y0104105D02*
X0131579Y0104105D01*
X0129981Y0102506D02*
X0006600Y0102506D01*
X0006600Y0100908D02*
X0107847Y0100908D01*
X0107624Y0092915D02*
X0092641Y0092915D01*
X0092350Y0091317D02*
X0110143Y0091317D01*
X0113457Y0091317D02*
X0120230Y0091317D01*
X0117624Y0092915D02*
X0115976Y0092915D01*
X0125753Y0100908D02*
X0127847Y0100908D01*
X0133000Y0107302D02*
X0006600Y0107302D01*
X0006600Y0108900D02*
X0133000Y0108900D01*
X0133000Y0110499D02*
X0006600Y0110499D01*
X0006600Y0112097D02*
X0133000Y0112097D01*
X0133000Y0113696D02*
X0006600Y0113696D01*
X0006600Y0115294D02*
X0133000Y0115294D01*
X0133355Y0116893D02*
X0006600Y0116893D01*
X0006600Y0118491D02*
X0134766Y0118491D01*
X0136364Y0120090D02*
X0006600Y0120090D01*
X0006600Y0121688D02*
X0137963Y0121688D01*
X0139561Y0123287D02*
X0006600Y0123287D01*
X0006600Y0124885D02*
X0141160Y0124885D01*
X0142758Y0126484D02*
X0006600Y0126484D01*
X0006600Y0128082D02*
X0144357Y0128082D01*
X0145955Y0129681D02*
X0006600Y0129681D01*
X0006600Y0131279D02*
X0147554Y0131279D01*
X0149152Y0132878D02*
X0006600Y0132878D01*
X0006600Y0134476D02*
X0150751Y0134476D01*
X0152349Y0136075D02*
X0006600Y0136075D01*
X0006600Y0137673D02*
X0153948Y0137673D01*
X0155546Y0139272D02*
X0006600Y0139272D01*
X0006600Y0140870D02*
X0157145Y0140870D01*
X0158744Y0142469D02*
X0006600Y0142469D01*
X0006600Y0144068D02*
X0160342Y0144068D01*
X0161941Y0145666D02*
X0006600Y0145666D01*
X0006600Y0147265D02*
X0163539Y0147265D01*
X0165633Y0148863D02*
X0006600Y0148863D01*
X0006600Y0153659D02*
X0034362Y0153659D01*
X0031988Y0155257D02*
X0006600Y0155257D01*
X0006600Y0156856D02*
X0030390Y0156856D01*
X0029183Y0158454D02*
X0006600Y0158454D01*
X0006600Y0160053D02*
X0028260Y0160053D01*
X0027547Y0161651D02*
X0006600Y0161651D01*
X0006600Y0163250D02*
X0027119Y0163250D01*
X0026700Y0164848D02*
X0006600Y0164848D01*
X0006600Y0166447D02*
X0026700Y0166447D01*
X0026700Y0168045D02*
X0006600Y0168045D01*
X0006600Y0169644D02*
X0026929Y0169644D01*
X0027358Y0171242D02*
X0006600Y0171242D01*
X0006600Y0172841D02*
X0027852Y0172841D01*
X0028775Y0174439D02*
X0006600Y0174439D01*
X0006600Y0176038D02*
X0029697Y0176038D01*
X0031282Y0177636D02*
X0006600Y0177636D01*
X0006600Y0179235D02*
X0033138Y0179235D01*
X0035906Y0180833D02*
X0006600Y0180833D01*
X0006600Y0195220D02*
X0099400Y0195220D01*
X0099400Y0196818D02*
X0006600Y0196818D01*
X0006600Y0198417D02*
X0099400Y0198417D01*
X0099400Y0200015D02*
X0006600Y0200015D01*
X0006600Y0201614D02*
X0099400Y0201614D01*
X0099400Y0203212D02*
X0006600Y0203212D01*
X0006600Y0204811D02*
X0099400Y0204811D01*
X0099400Y0206409D02*
X0006600Y0206409D01*
X0006600Y0208008D02*
X0099400Y0208008D01*
X0099400Y0209606D02*
X0006600Y0209606D01*
X0006600Y0211205D02*
X0099400Y0211205D01*
X0099400Y0212803D02*
X0006600Y0212803D01*
X0006600Y0214402D02*
X0099400Y0214402D01*
X0099400Y0216001D02*
X0006600Y0216001D01*
X0006600Y0217599D02*
X0099400Y0217599D01*
X0099400Y0219198D02*
X0006600Y0219198D01*
X0006600Y0220796D02*
X0099400Y0220796D01*
X0099400Y0222395D02*
X0006600Y0222395D01*
X0006600Y0223993D02*
X0099400Y0223993D01*
X0099400Y0225592D02*
X0006600Y0225592D01*
X0006600Y0227190D02*
X0099400Y0227190D01*
X0099400Y0228789D02*
X0006600Y0228789D01*
X0006600Y0230387D02*
X0099400Y0230387D01*
X0099400Y0231986D02*
X0006600Y0231986D01*
X0006600Y0233584D02*
X0099400Y0233584D01*
X0099400Y0235183D02*
X0006600Y0235183D01*
X0006600Y0236781D02*
X0083970Y0236781D01*
X0084501Y0236250D02*
X0081250Y0239501D01*
X0081250Y0241800D01*
X0086800Y0241800D01*
X0086800Y0241800D01*
X0086800Y0247350D01*
X0089099Y0247350D01*
X0092350Y0244099D01*
X0092350Y0241800D01*
X0086800Y0241800D01*
X0086800Y0241800D01*
X0086800Y0241800D01*
X0086800Y0247350D01*
X0084501Y0247350D01*
X0081250Y0244099D01*
X0081250Y0241800D01*
X0086800Y0241800D01*
X0092350Y0241800D01*
X0092350Y0239501D01*
X0089099Y0236250D01*
X0086800Y0236250D01*
X0086800Y0241800D01*
X0086800Y0241800D01*
X0086800Y0236250D01*
X0084501Y0236250D01*
X0086800Y0236781D02*
X0086800Y0236781D01*
X0086800Y0238380D02*
X0086800Y0238380D01*
X0086800Y0239978D02*
X0086800Y0239978D01*
X0086800Y0241577D02*
X0086800Y0241577D01*
X0086800Y0243175D02*
X0086800Y0243175D01*
X0086800Y0244774D02*
X0086800Y0244774D01*
X0086800Y0246372D02*
X0086800Y0246372D01*
X0090077Y0246372D02*
X0095102Y0246372D01*
X0093504Y0247971D02*
X0006600Y0247971D01*
X0006600Y0249569D02*
X0091905Y0249569D01*
X0090307Y0251168D02*
X0006600Y0251168D01*
X0006600Y0252766D02*
X0088930Y0252766D01*
X0088600Y0254365D02*
X0006600Y0254365D01*
X0006600Y0255963D02*
X0088111Y0255963D01*
X0091800Y0256800D02*
X0086800Y0261800D01*
X0091800Y0266800D01*
X0111800Y0266800D01*
X0108182Y0262357D02*
X0092350Y0262357D01*
X0092367Y0260759D02*
X0130316Y0260759D01*
X0131914Y0259160D02*
X0093965Y0259160D01*
X0094948Y0257562D02*
X0133513Y0257562D01*
X0135111Y0255963D02*
X0095000Y0255963D01*
X0096161Y0254365D02*
X0136710Y0254365D01*
X0138308Y0252766D02*
X0097759Y0252766D01*
X0099358Y0251168D02*
X0139907Y0251168D01*
X0142800Y0252800D02*
X0129800Y0265800D01*
X0131400Y0267400D01*
X0131800Y0266800D01*
X0128182Y0262357D02*
X0125383Y0262357D01*
X0126748Y0263956D02*
X0126808Y0263956D01*
X0122100Y0263956D02*
X0121500Y0263956D01*
X0121500Y0265554D02*
X0122100Y0265554D01*
X0122100Y0267153D02*
X0121500Y0267153D01*
X0121500Y0268751D02*
X0122100Y0268751D01*
X0122100Y0270350D02*
X0121500Y0270350D01*
X0121500Y0271948D02*
X0122100Y0271948D01*
X0124251Y0271948D02*
X0129335Y0271948D01*
X0127289Y0270350D02*
X0126266Y0270350D01*
X0134265Y0271948D02*
X0139335Y0271948D01*
X0137289Y0270350D02*
X0136311Y0270350D01*
X0144265Y0271948D02*
X0149349Y0271948D01*
X0151500Y0271948D02*
X0152100Y0271948D01*
X0152100Y0270350D02*
X0151500Y0270350D01*
X0151500Y0268751D02*
X0152100Y0268751D01*
X0152100Y0267153D02*
X0151500Y0267153D01*
X0151500Y0265554D02*
X0152100Y0265554D01*
X0152100Y0263956D02*
X0151500Y0263956D01*
X0151500Y0262357D02*
X0152100Y0262357D01*
X0155383Y0262357D02*
X0158182Y0262357D01*
X0156808Y0263956D02*
X0156748Y0263956D01*
X0148217Y0262357D02*
X0145418Y0262357D01*
X0146792Y0263956D02*
X0146852Y0263956D01*
X0147334Y0270350D02*
X0146311Y0270350D01*
X0154251Y0271948D02*
X0159335Y0271948D01*
X0157289Y0270350D02*
X0156266Y0270350D01*
X0164265Y0271948D02*
X0169335Y0271948D01*
X0167289Y0270350D02*
X0166311Y0270350D01*
X0166792Y0263956D02*
X0166808Y0263956D01*
X0168182Y0262357D02*
X0165418Y0262357D01*
X0171800Y0266800D02*
X0173000Y0267400D01*
X0173000Y0269000D01*
X0181000Y0277000D01*
X0181000Y0293000D01*
X0174600Y0299400D01*
X0173000Y0299400D01*
X0171400Y0297800D01*
X0171800Y0296800D01*
X0165857Y0297525D02*
X0158058Y0297525D01*
X0158058Y0297181D02*
X0158058Y0300811D01*
X0157912Y0301735D01*
X0157623Y0302625D01*
X0157198Y0303458D01*
X0156648Y0304215D01*
X0155987Y0304877D01*
X0155230Y0305426D01*
X0154396Y0305851D01*
X0153507Y0306140D01*
X0152583Y0306287D01*
X0152496Y0306287D01*
X0152496Y0297181D01*
X0158058Y0297181D01*
X0158058Y0296419D02*
X0152496Y0296419D01*
X0152496Y0297181D01*
X0151734Y0297181D01*
X0151734Y0306287D01*
X0151647Y0306287D01*
X0150723Y0306140D01*
X0149834Y0305851D01*
X0149000Y0305426D01*
X0148243Y0304877D01*
X0147582Y0304215D01*
X0147032Y0303458D01*
X0146607Y0302625D01*
X0146318Y0301735D01*
X0146172Y0300811D01*
X0146172Y0297181D01*
X0151734Y0297181D01*
X0151734Y0296419D01*
X0152496Y0296419D01*
X0152496Y0287313D01*
X0152583Y0287313D01*
X0153507Y0287460D01*
X0154396Y0287749D01*
X0155230Y0288174D01*
X0155987Y0288723D01*
X0156648Y0289385D01*
X0157198Y0290142D01*
X0157623Y0290975D01*
X0157912Y0291865D01*
X0158058Y0292789D01*
X0158058Y0296419D01*
X0158058Y0295926D02*
X0165857Y0295926D01*
X0165857Y0294328D02*
X0158058Y0294328D01*
X0158049Y0292729D02*
X0165857Y0292729D01*
X0166248Y0291131D02*
X0157673Y0291131D01*
X0156755Y0289532D02*
X0167120Y0289532D01*
X0169121Y0287934D02*
X0154759Y0287934D01*
X0152496Y0287934D02*
X0151734Y0287934D01*
X0151734Y0287313D02*
X0151734Y0296419D01*
X0146172Y0296419D01*
X0146172Y0292789D01*
X0146318Y0291865D01*
X0146607Y0290975D01*
X0147032Y0290142D01*
X0147582Y0289385D01*
X0148243Y0288723D01*
X0149000Y0288174D01*
X0149834Y0287749D01*
X0150723Y0287460D01*
X0151647Y0287313D01*
X0151734Y0287313D01*
X0151734Y0289532D02*
X0152496Y0289532D01*
X0152496Y0291131D02*
X0151734Y0291131D01*
X0151734Y0292729D02*
X0152496Y0292729D01*
X0152496Y0294328D02*
X0151734Y0294328D01*
X0151734Y0295926D02*
X0152496Y0295926D01*
X0152496Y0297525D02*
X0151734Y0297525D01*
X0151734Y0299123D02*
X0152496Y0299123D01*
X0152496Y0300722D02*
X0151734Y0300722D01*
X0151734Y0302320D02*
X0152496Y0302320D01*
X0152496Y0303919D02*
X0151734Y0303919D01*
X0151734Y0305517D02*
X0152496Y0305517D01*
X0155052Y0305517D02*
X0168760Y0305517D01*
X0166970Y0303919D02*
X0156864Y0303919D01*
X0157722Y0302320D02*
X0166186Y0302320D01*
X0165857Y0300722D02*
X0158058Y0300722D01*
X0158058Y0299123D02*
X0165857Y0299123D01*
X0174840Y0305517D02*
X0188445Y0305517D01*
X0188118Y0305382D02*
X0186447Y0303710D01*
X0185542Y0301526D01*
X0185542Y0292074D01*
X0186447Y0289890D01*
X0188118Y0288218D01*
X0190303Y0287313D01*
X0192667Y0287313D01*
X0194852Y0288218D01*
X0196524Y0289890D01*
X0197428Y0292074D01*
X0197428Y0301526D01*
X0196524Y0303710D01*
X0194852Y0305382D01*
X0192667Y0306287D01*
X0190303Y0306287D01*
X0188118Y0305382D01*
X0186655Y0303919D02*
X0176630Y0303919D01*
X0177414Y0302320D02*
X0185871Y0302320D01*
X0185542Y0300722D02*
X0177804Y0300722D01*
X0179402Y0299123D02*
X0185542Y0299123D01*
X0185542Y0297525D02*
X0181001Y0297525D01*
X0182599Y0295926D02*
X0185542Y0295926D01*
X0185542Y0294328D02*
X0183914Y0294328D01*
X0184200Y0292729D02*
X0185542Y0292729D01*
X0185933Y0291131D02*
X0184200Y0291131D01*
X0184200Y0289532D02*
X0186805Y0289532D01*
X0188806Y0287934D02*
X0184200Y0287934D01*
X0184200Y0286335D02*
X0308285Y0286335D01*
X0308285Y0284737D02*
X0184200Y0284737D01*
X0184200Y0283138D02*
X0308285Y0283138D01*
X0308285Y0281539D02*
X0184200Y0281539D01*
X0184200Y0279941D02*
X0308285Y0279941D01*
X0308285Y0278342D02*
X0184200Y0278342D01*
X0184200Y0276744D02*
X0308285Y0276744D01*
X0308929Y0275145D02*
X0183671Y0275145D01*
X0182072Y0273547D02*
X0310528Y0273547D01*
X0312126Y0271948D02*
X0180474Y0271948D01*
X0178875Y0270350D02*
X0313725Y0270350D01*
X0315323Y0268751D02*
X0177277Y0268751D01*
X0177500Y0267153D02*
X0316922Y0267153D01*
X0318520Y0265554D02*
X0177454Y0265554D01*
X0176792Y0263956D02*
X0320119Y0263956D01*
X0321250Y0262357D02*
X0175418Y0262357D01*
X0173021Y0273547D02*
X0006600Y0273547D01*
X0006600Y0275145D02*
X0174620Y0275145D01*
X0176218Y0276744D02*
X0006600Y0276744D01*
X0006600Y0278342D02*
X0177800Y0278342D01*
X0177800Y0279941D02*
X0006600Y0279941D01*
X0006600Y0281539D02*
X0177800Y0281539D01*
X0177800Y0283138D02*
X0006600Y0283138D01*
X0006600Y0284737D02*
X0177800Y0284737D01*
X0177800Y0286335D02*
X0006600Y0286335D01*
X0006600Y0287934D02*
X0029471Y0287934D01*
X0029834Y0287749D02*
X0030723Y0287460D01*
X0031647Y0287313D01*
X0031734Y0287313D01*
X0031734Y0296419D01*
X0032496Y0296419D01*
X0032496Y0297181D01*
X0038058Y0297181D01*
X0038058Y0300811D01*
X0037912Y0301735D01*
X0037623Y0302625D01*
X0037198Y0303458D01*
X0036648Y0304215D01*
X0035987Y0304877D01*
X0035230Y0305426D01*
X0034396Y0305851D01*
X0033507Y0306140D01*
X0032583Y0306287D01*
X0032496Y0306287D01*
X0032496Y0297181D01*
X0031734Y0297181D01*
X0031734Y0306287D01*
X0031647Y0306287D01*
X0030723Y0306140D01*
X0029834Y0305851D01*
X0029000Y0305426D01*
X0028243Y0304877D01*
X0027582Y0304215D01*
X0027032Y0303458D01*
X0026607Y0302625D01*
X0026318Y0301735D01*
X0026172Y0300811D01*
X0026172Y0297181D01*
X0031734Y0297181D01*
X0031734Y0296419D01*
X0026172Y0296419D01*
X0026172Y0292789D01*
X0026318Y0291865D01*
X0026607Y0290975D01*
X0027032Y0290142D01*
X0027582Y0289385D01*
X0028243Y0288723D01*
X0029000Y0288174D01*
X0029834Y0287749D01*
X0031734Y0287934D02*
X0032496Y0287934D01*
X0032496Y0287313D02*
X0032583Y0287313D01*
X0033507Y0287460D01*
X0034396Y0287749D01*
X0035230Y0288174D01*
X0035987Y0288723D01*
X0036648Y0289385D01*
X0037198Y0290142D01*
X0037623Y0290975D01*
X0037912Y0291865D01*
X0038058Y0292789D01*
X0038058Y0296419D01*
X0032496Y0296419D01*
X0032496Y0287313D01*
X0032496Y0289532D02*
X0031734Y0289532D01*
X0031734Y0291131D02*
X0032496Y0291131D01*
X0032496Y0292729D02*
X0031734Y0292729D01*
X0031734Y0294328D02*
X0032496Y0294328D01*
X0032496Y0295926D02*
X0031734Y0295926D01*
X0031734Y0297525D02*
X0032496Y0297525D01*
X0032496Y0299123D02*
X0031734Y0299123D01*
X0031734Y0300722D02*
X0032496Y0300722D01*
X0032496Y0302320D02*
X0031734Y0302320D01*
X0031734Y0303919D02*
X0032496Y0303919D01*
X0032496Y0305517D02*
X0031734Y0305517D01*
X0029178Y0305517D02*
X0006600Y0305517D01*
X0006600Y0303919D02*
X0027366Y0303919D01*
X0026508Y0302320D02*
X0006600Y0302320D01*
X0006600Y0300722D02*
X0026172Y0300722D01*
X0026172Y0299123D02*
X0006600Y0299123D01*
X0006600Y0297525D02*
X0026172Y0297525D01*
X0026172Y0295926D02*
X0006600Y0295926D01*
X0006600Y0294328D02*
X0026172Y0294328D01*
X0026181Y0292729D02*
X0006600Y0292729D01*
X0006600Y0291131D02*
X0026557Y0291131D01*
X0027475Y0289532D02*
X0006600Y0289532D01*
X0006600Y0271948D02*
X0109335Y0271948D01*
X0107289Y0270350D02*
X0006600Y0270350D01*
X0006600Y0268751D02*
X0089226Y0268751D01*
X0084304Y0267153D02*
X0006600Y0267153D01*
X0006600Y0265554D02*
X0082705Y0265554D01*
X0081250Y0263956D02*
X0006600Y0263956D01*
X0006600Y0262357D02*
X0081250Y0262357D01*
X0081250Y0260759D02*
X0006600Y0260759D01*
X0006600Y0259160D02*
X0081591Y0259160D01*
X0083189Y0257562D02*
X0006600Y0257562D01*
X0006600Y0246372D02*
X0083523Y0246372D01*
X0081925Y0244774D02*
X0006600Y0244774D01*
X0006600Y0243175D02*
X0081250Y0243175D01*
X0081250Y0241577D02*
X0006600Y0241577D01*
X0006600Y0239978D02*
X0081250Y0239978D01*
X0082371Y0238380D02*
X0006600Y0238380D01*
X0034759Y0287934D02*
X0049121Y0287934D01*
X0048433Y0288218D02*
X0050618Y0287313D01*
X0052982Y0287313D01*
X0055167Y0288218D01*
X0056838Y0289890D01*
X0057743Y0292074D01*
X0057743Y0301526D01*
X0056838Y0303710D01*
X0055167Y0305382D01*
X0052982Y0306287D01*
X0050618Y0306287D01*
X0048433Y0305382D01*
X0046762Y0303710D01*
X0045857Y0301526D01*
X0045857Y0292074D01*
X0046762Y0289890D01*
X0048433Y0288218D01*
X0047120Y0289532D02*
X0036755Y0289532D01*
X0037673Y0291131D02*
X0046248Y0291131D01*
X0045857Y0292729D02*
X0038049Y0292729D01*
X0038058Y0294328D02*
X0045857Y0294328D01*
X0045857Y0295926D02*
X0038058Y0295926D01*
X0038058Y0297525D02*
X0045857Y0297525D01*
X0045857Y0299123D02*
X0038058Y0299123D01*
X0038058Y0300722D02*
X0045857Y0300722D01*
X0046186Y0302320D02*
X0037722Y0302320D01*
X0036864Y0303919D02*
X0046970Y0303919D01*
X0048760Y0305517D02*
X0035052Y0305517D01*
X0054840Y0305517D02*
X0068445Y0305517D01*
X0068118Y0305382D02*
X0066447Y0303710D01*
X0065542Y0301526D01*
X0065542Y0292074D01*
X0066447Y0289890D01*
X0068118Y0288218D01*
X0070303Y0287313D01*
X0072667Y0287313D01*
X0074852Y0288218D01*
X0076524Y0289890D01*
X0077428Y0292074D01*
X0077428Y0301526D01*
X0076524Y0303710D01*
X0074852Y0305382D01*
X0072667Y0306287D01*
X0070303Y0306287D01*
X0068118Y0305382D01*
X0066655Y0303919D02*
X0056630Y0303919D01*
X0057414Y0302320D02*
X0065871Y0302320D01*
X0065542Y0300722D02*
X0057743Y0300722D01*
X0057743Y0299123D02*
X0065542Y0299123D01*
X0065542Y0297525D02*
X0057743Y0297525D01*
X0057743Y0295926D02*
X0065542Y0295926D01*
X0065542Y0294328D02*
X0057743Y0294328D01*
X0057743Y0292729D02*
X0065542Y0292729D01*
X0065933Y0291131D02*
X0057352Y0291131D01*
X0056480Y0289532D02*
X0066805Y0289532D01*
X0068806Y0287934D02*
X0054479Y0287934D01*
X0074164Y0287934D02*
X0089471Y0287934D01*
X0089834Y0287749D02*
X0090723Y0287460D01*
X0091647Y0287313D01*
X0091734Y0287313D01*
X0091734Y0296419D01*
X0092496Y0296419D01*
X0092496Y0297181D01*
X0098058Y0297181D01*
X0098058Y0300811D01*
X0097912Y0301735D01*
X0097623Y0302625D01*
X0097198Y0303458D01*
X0096648Y0304215D01*
X0095987Y0304877D01*
X0095230Y0305426D01*
X0094396Y0305851D01*
X0093507Y0306140D01*
X0092583Y0306287D01*
X0092496Y0306287D01*
X0092496Y0297181D01*
X0091734Y0297181D01*
X0091734Y0306287D01*
X0091647Y0306287D01*
X0090723Y0306140D01*
X0089834Y0305851D01*
X0089000Y0305426D01*
X0088243Y0304877D01*
X0087582Y0304215D01*
X0087032Y0303458D01*
X0086607Y0302625D01*
X0086318Y0301735D01*
X0086172Y0300811D01*
X0086172Y0297181D01*
X0091734Y0297181D01*
X0091734Y0296419D01*
X0086172Y0296419D01*
X0086172Y0292789D01*
X0086318Y0291865D01*
X0086607Y0290975D01*
X0087032Y0290142D01*
X0087582Y0289385D01*
X0088243Y0288723D01*
X0089000Y0288174D01*
X0089834Y0287749D01*
X0091734Y0287934D02*
X0092496Y0287934D01*
X0092496Y0287313D02*
X0092583Y0287313D01*
X0093507Y0287460D01*
X0094396Y0287749D01*
X0095230Y0288174D01*
X0095987Y0288723D01*
X0096648Y0289385D01*
X0097198Y0290142D01*
X0097623Y0290975D01*
X0097912Y0291865D01*
X0098058Y0292789D01*
X0098058Y0296419D01*
X0092496Y0296419D01*
X0092496Y0287313D01*
X0092496Y0289532D02*
X0091734Y0289532D01*
X0091734Y0291131D02*
X0092496Y0291131D01*
X0092496Y0292729D02*
X0091734Y0292729D01*
X0091734Y0294328D02*
X0092496Y0294328D01*
X0092496Y0295926D02*
X0091734Y0295926D01*
X0091734Y0297525D02*
X0092496Y0297525D01*
X0092496Y0299123D02*
X0091734Y0299123D01*
X0091734Y0300722D02*
X0092496Y0300722D01*
X0092496Y0302320D02*
X0091734Y0302320D01*
X0091734Y0303919D02*
X0092496Y0303919D01*
X0092496Y0305517D02*
X0091734Y0305517D01*
X0089178Y0305517D02*
X0074525Y0305517D01*
X0076315Y0303919D02*
X0087366Y0303919D01*
X0086508Y0302320D02*
X0077099Y0302320D01*
X0077428Y0300722D02*
X0086172Y0300722D01*
X0086172Y0299123D02*
X0077428Y0299123D01*
X0077428Y0297525D02*
X0086172Y0297525D01*
X0086172Y0295926D02*
X0077428Y0295926D01*
X0077428Y0294328D02*
X0086172Y0294328D01*
X0086181Y0292729D02*
X0077428Y0292729D01*
X0077037Y0291131D02*
X0086557Y0291131D01*
X0087475Y0289532D02*
X0076165Y0289532D01*
X0094759Y0287934D02*
X0109121Y0287934D01*
X0108433Y0288218D02*
X0110618Y0287313D01*
X0112982Y0287313D01*
X0115167Y0288218D01*
X0116838Y0289890D01*
X0117743Y0292074D01*
X0117743Y0301526D01*
X0116838Y0303710D01*
X0115167Y0305382D01*
X0112982Y0306287D01*
X0110618Y0306287D01*
X0108433Y0305382D01*
X0106762Y0303710D01*
X0105857Y0301526D01*
X0105857Y0292074D01*
X0106762Y0289890D01*
X0108433Y0288218D01*
X0107120Y0289532D02*
X0096755Y0289532D01*
X0097673Y0291131D02*
X0106248Y0291131D01*
X0105857Y0292729D02*
X0098049Y0292729D01*
X0098058Y0294328D02*
X0105857Y0294328D01*
X0105857Y0295926D02*
X0098058Y0295926D01*
X0098058Y0297525D02*
X0105857Y0297525D01*
X0105857Y0299123D02*
X0098058Y0299123D01*
X0098058Y0300722D02*
X0105857Y0300722D01*
X0106186Y0302320D02*
X0097722Y0302320D01*
X0096864Y0303919D02*
X0106970Y0303919D01*
X0108760Y0305517D02*
X0095052Y0305517D01*
X0114840Y0305517D02*
X0128445Y0305517D01*
X0128118Y0305382D02*
X0126447Y0303710D01*
X0125542Y0301526D01*
X0125542Y0292074D01*
X0126447Y0289890D01*
X0128118Y0288218D01*
X0130303Y0287313D01*
X0132667Y0287313D01*
X0134852Y0288218D01*
X0136524Y0289890D01*
X0137428Y0292074D01*
X0137428Y0301526D01*
X0136524Y0303710D01*
X0134852Y0305382D01*
X0132667Y0306287D01*
X0130303Y0306287D01*
X0128118Y0305382D01*
X0126655Y0303919D02*
X0116630Y0303919D01*
X0117414Y0302320D02*
X0125871Y0302320D01*
X0125542Y0300722D02*
X0117743Y0300722D01*
X0117743Y0299123D02*
X0125542Y0299123D01*
X0125542Y0297525D02*
X0117743Y0297525D01*
X0117743Y0295926D02*
X0125542Y0295926D01*
X0125542Y0294328D02*
X0117743Y0294328D01*
X0117743Y0292729D02*
X0125542Y0292729D01*
X0125933Y0291131D02*
X0117352Y0291131D01*
X0116480Y0289532D02*
X0126805Y0289532D01*
X0128806Y0287934D02*
X0114479Y0287934D01*
X0134164Y0287934D02*
X0149471Y0287934D01*
X0147475Y0289532D02*
X0136165Y0289532D01*
X0137037Y0291131D02*
X0146557Y0291131D01*
X0146181Y0292729D02*
X0137428Y0292729D01*
X0137428Y0294328D02*
X0146172Y0294328D01*
X0146172Y0295926D02*
X0137428Y0295926D01*
X0137428Y0297525D02*
X0146172Y0297525D01*
X0146172Y0299123D02*
X0137428Y0299123D01*
X0137428Y0300722D02*
X0146172Y0300722D01*
X0146508Y0302320D02*
X0137099Y0302320D01*
X0136315Y0303919D02*
X0147366Y0303919D01*
X0149178Y0305517D02*
X0134525Y0305517D01*
X0174479Y0287934D02*
X0177800Y0287934D01*
X0177800Y0289532D02*
X0176480Y0289532D01*
X0177352Y0291131D02*
X0177800Y0291131D01*
X0194164Y0287934D02*
X0209471Y0287934D01*
X0209834Y0287749D02*
X0210723Y0287460D01*
X0211647Y0287313D01*
X0211734Y0287313D01*
X0211734Y0296419D01*
X0212496Y0296419D01*
X0212496Y0297181D01*
X0218058Y0297181D01*
X0218058Y0300811D01*
X0217912Y0301735D01*
X0217623Y0302625D01*
X0217198Y0303458D01*
X0216648Y0304215D01*
X0215987Y0304877D01*
X0215230Y0305426D01*
X0214396Y0305851D01*
X0213507Y0306140D01*
X0212583Y0306287D01*
X0212496Y0306287D01*
X0212496Y0297181D01*
X0211734Y0297181D01*
X0211734Y0306287D01*
X0211647Y0306287D01*
X0210723Y0306140D01*
X0209834Y0305851D01*
X0209000Y0305426D01*
X0208243Y0304877D01*
X0207582Y0304215D01*
X0207032Y0303458D01*
X0206607Y0302625D01*
X0206318Y0301735D01*
X0206172Y0300811D01*
X0206172Y0297181D01*
X0211734Y0297181D01*
X0211734Y0296419D01*
X0206172Y0296419D01*
X0206172Y0292789D01*
X0206318Y0291865D01*
X0206607Y0290975D01*
X0207032Y0290142D01*
X0207582Y0289385D01*
X0208243Y0288723D01*
X0209000Y0288174D01*
X0209834Y0287749D01*
X0211734Y0287934D02*
X0212496Y0287934D01*
X0212496Y0287313D02*
X0212583Y0287313D01*
X0213507Y0287460D01*
X0214396Y0287749D01*
X0215230Y0288174D01*
X0215987Y0288723D01*
X0216648Y0289385D01*
X0217198Y0290142D01*
X0217623Y0290975D01*
X0217912Y0291865D01*
X0218058Y0292789D01*
X0218058Y0296419D01*
X0212496Y0296419D01*
X0212496Y0287313D01*
X0212496Y0289532D02*
X0211734Y0289532D01*
X0211734Y0291131D02*
X0212496Y0291131D01*
X0212496Y0292729D02*
X0211734Y0292729D01*
X0211734Y0294328D02*
X0212496Y0294328D01*
X0212496Y0295926D02*
X0211734Y0295926D01*
X0211734Y0297525D02*
X0212496Y0297525D01*
X0212496Y0299123D02*
X0211734Y0299123D01*
X0211734Y0300722D02*
X0212496Y0300722D01*
X0212496Y0302320D02*
X0211734Y0302320D01*
X0211734Y0303919D02*
X0212496Y0303919D01*
X0212496Y0305517D02*
X0211734Y0305517D01*
X0209178Y0305517D02*
X0194525Y0305517D01*
X0196315Y0303919D02*
X0207366Y0303919D01*
X0206508Y0302320D02*
X0197099Y0302320D01*
X0197428Y0300722D02*
X0206172Y0300722D01*
X0206172Y0299123D02*
X0197428Y0299123D01*
X0197428Y0297525D02*
X0206172Y0297525D01*
X0206172Y0295926D02*
X0197428Y0295926D01*
X0197428Y0294328D02*
X0206172Y0294328D01*
X0206181Y0292729D02*
X0197428Y0292729D01*
X0197037Y0291131D02*
X0206557Y0291131D01*
X0207475Y0289532D02*
X0196165Y0289532D01*
X0214759Y0287934D02*
X0229121Y0287934D01*
X0228433Y0288218D02*
X0230618Y0287313D01*
X0232982Y0287313D01*
X0235167Y0288218D01*
X0236838Y0289890D01*
X0237743Y0292074D01*
X0237743Y0301526D01*
X0236838Y0303710D01*
X0235167Y0305382D01*
X0232982Y0306287D01*
X0230618Y0306287D01*
X0228433Y0305382D01*
X0226762Y0303710D01*
X0225857Y0301526D01*
X0225857Y0292074D01*
X0226762Y0289890D01*
X0228433Y0288218D01*
X0227120Y0289532D02*
X0216755Y0289532D01*
X0217673Y0291131D02*
X0226248Y0291131D01*
X0225857Y0292729D02*
X0218049Y0292729D01*
X0218058Y0294328D02*
X0225857Y0294328D01*
X0225857Y0295926D02*
X0218058Y0295926D01*
X0218058Y0297525D02*
X0225857Y0297525D01*
X0225857Y0299123D02*
X0218058Y0299123D01*
X0218058Y0300722D02*
X0225857Y0300722D01*
X0226186Y0302320D02*
X0217722Y0302320D01*
X0216864Y0303919D02*
X0226970Y0303919D01*
X0228760Y0305517D02*
X0215052Y0305517D01*
X0234840Y0305517D02*
X0248445Y0305517D01*
X0248118Y0305382D02*
X0246447Y0303710D01*
X0245542Y0301526D01*
X0245542Y0292074D01*
X0246447Y0289890D01*
X0248118Y0288218D01*
X0250303Y0287313D01*
X0252667Y0287313D01*
X0254852Y0288218D01*
X0256524Y0289890D01*
X0257428Y0292074D01*
X0257428Y0301526D01*
X0256524Y0303710D01*
X0254852Y0305382D01*
X0252667Y0306287D01*
X0250303Y0306287D01*
X0248118Y0305382D01*
X0246655Y0303919D02*
X0236630Y0303919D01*
X0237414Y0302320D02*
X0245871Y0302320D01*
X0245542Y0300722D02*
X0237743Y0300722D01*
X0237743Y0299123D02*
X0245542Y0299123D01*
X0245542Y0297525D02*
X0237743Y0297525D01*
X0237743Y0295926D02*
X0245542Y0295926D01*
X0245542Y0294328D02*
X0237743Y0294328D01*
X0237743Y0292729D02*
X0245542Y0292729D01*
X0245933Y0291131D02*
X0237352Y0291131D01*
X0236480Y0289532D02*
X0246805Y0289532D01*
X0248806Y0287934D02*
X0234479Y0287934D01*
X0254164Y0287934D02*
X0269471Y0287934D01*
X0269834Y0287749D02*
X0270723Y0287460D01*
X0271647Y0287313D01*
X0271734Y0287313D01*
X0271734Y0296419D01*
X0272496Y0296419D01*
X0272496Y0297181D01*
X0278058Y0297181D01*
X0278058Y0300811D01*
X0277912Y0301735D01*
X0277623Y0302625D01*
X0277198Y0303458D01*
X0276648Y0304215D01*
X0275987Y0304877D01*
X0275230Y0305426D01*
X0274396Y0305851D01*
X0273507Y0306140D01*
X0272583Y0306287D01*
X0272496Y0306287D01*
X0272496Y0297181D01*
X0271734Y0297181D01*
X0271734Y0306287D01*
X0271647Y0306287D01*
X0270723Y0306140D01*
X0269834Y0305851D01*
X0269000Y0305426D01*
X0268243Y0304877D01*
X0267582Y0304215D01*
X0267032Y0303458D01*
X0266607Y0302625D01*
X0266318Y0301735D01*
X0266172Y0300811D01*
X0266172Y0297181D01*
X0271734Y0297181D01*
X0271734Y0296419D01*
X0266172Y0296419D01*
X0266172Y0292789D01*
X0266318Y0291865D01*
X0266607Y0290975D01*
X0267032Y0290142D01*
X0267582Y0289385D01*
X0268243Y0288723D01*
X0269000Y0288174D01*
X0269834Y0287749D01*
X0271734Y0287934D02*
X0272496Y0287934D01*
X0272496Y0287313D02*
X0272583Y0287313D01*
X0273507Y0287460D01*
X0274396Y0287749D01*
X0275230Y0288174D01*
X0275987Y0288723D01*
X0276648Y0289385D01*
X0277198Y0290142D01*
X0277623Y0290975D01*
X0277912Y0291865D01*
X0278058Y0292789D01*
X0278058Y0296419D01*
X0272496Y0296419D01*
X0272496Y0287313D01*
X0272496Y0289532D02*
X0271734Y0289532D01*
X0271734Y0291131D02*
X0272496Y0291131D01*
X0272496Y0292729D02*
X0271734Y0292729D01*
X0271734Y0294328D02*
X0272496Y0294328D01*
X0272496Y0295926D02*
X0271734Y0295926D01*
X0271734Y0297525D02*
X0272496Y0297525D01*
X0272496Y0299123D02*
X0271734Y0299123D01*
X0271734Y0300722D02*
X0272496Y0300722D01*
X0272496Y0302320D02*
X0271734Y0302320D01*
X0271734Y0303919D02*
X0272496Y0303919D01*
X0272496Y0305517D02*
X0271734Y0305517D01*
X0269178Y0305517D02*
X0254525Y0305517D01*
X0256315Y0303919D02*
X0267366Y0303919D01*
X0266508Y0302320D02*
X0257099Y0302320D01*
X0257428Y0300722D02*
X0266172Y0300722D01*
X0266172Y0299123D02*
X0257428Y0299123D01*
X0257428Y0297525D02*
X0266172Y0297525D01*
X0266172Y0295926D02*
X0257428Y0295926D01*
X0257428Y0294328D02*
X0266172Y0294328D01*
X0266181Y0292729D02*
X0257428Y0292729D01*
X0257037Y0291131D02*
X0266557Y0291131D01*
X0267475Y0289532D02*
X0256165Y0289532D01*
X0274759Y0287934D02*
X0289121Y0287934D01*
X0288433Y0288218D02*
X0290618Y0287313D01*
X0292982Y0287313D01*
X0295167Y0288218D01*
X0296838Y0289890D01*
X0297743Y0292074D01*
X0297743Y0301526D01*
X0296838Y0303710D01*
X0295167Y0305382D01*
X0292982Y0306287D01*
X0290618Y0306287D01*
X0288433Y0305382D01*
X0286762Y0303710D01*
X0285857Y0301526D01*
X0285857Y0292074D01*
X0286762Y0289890D01*
X0288433Y0288218D01*
X0287120Y0289532D02*
X0276755Y0289532D01*
X0277673Y0291131D02*
X0286248Y0291131D01*
X0285857Y0292729D02*
X0278049Y0292729D01*
X0278058Y0294328D02*
X0285857Y0294328D01*
X0285857Y0295926D02*
X0278058Y0295926D01*
X0278058Y0297525D02*
X0285857Y0297525D01*
X0285857Y0299123D02*
X0278058Y0299123D01*
X0278058Y0300722D02*
X0285857Y0300722D01*
X0286186Y0302320D02*
X0277722Y0302320D01*
X0276864Y0303919D02*
X0286970Y0303919D01*
X0288760Y0305517D02*
X0275052Y0305517D01*
X0294840Y0305517D02*
X0308445Y0305517D01*
X0306655Y0303919D02*
X0296630Y0303919D01*
X0297414Y0302320D02*
X0305871Y0302320D01*
X0305542Y0300722D02*
X0297743Y0300722D01*
X0297743Y0299123D02*
X0305542Y0299123D01*
X0305542Y0297525D02*
X0297743Y0297525D01*
X0297743Y0295926D02*
X0305542Y0295926D01*
X0305542Y0294328D02*
X0297743Y0294328D01*
X0297743Y0292729D02*
X0305542Y0292729D01*
X0305933Y0291131D02*
X0297352Y0291131D01*
X0296480Y0289532D02*
X0306805Y0289532D01*
X0308285Y0287934D02*
X0294479Y0287934D01*
X0311485Y0296800D02*
X0311485Y0277115D01*
X0326800Y0261800D01*
X0346800Y0261800D01*
X0351800Y0266800D01*
X0346439Y0268751D02*
X0324374Y0268751D01*
X0322776Y0270350D02*
X0347289Y0270350D01*
X0349335Y0271948D02*
X0321177Y0271948D01*
X0319579Y0273547D02*
X0408600Y0273547D01*
X0408600Y0275145D02*
X0317980Y0275145D01*
X0316382Y0276744D02*
X0408600Y0276744D01*
X0408600Y0278342D02*
X0314783Y0278342D01*
X0314685Y0279941D02*
X0408600Y0279941D01*
X0408600Y0281539D02*
X0314685Y0281539D01*
X0314685Y0283138D02*
X0408600Y0283138D01*
X0408600Y0284737D02*
X0314685Y0284737D01*
X0314685Y0286335D02*
X0408600Y0286335D01*
X0408600Y0287934D02*
X0394759Y0287934D01*
X0394396Y0287749D02*
X0395230Y0288174D01*
X0395987Y0288723D01*
X0396648Y0289385D01*
X0397198Y0290142D01*
X0397623Y0290975D01*
X0397912Y0291865D01*
X0398058Y0292789D01*
X0398058Y0296419D01*
X0392496Y0296419D01*
X0392496Y0297181D01*
X0398058Y0297181D01*
X0398058Y0300811D01*
X0397912Y0301735D01*
X0397623Y0302625D01*
X0397198Y0303458D01*
X0396648Y0304215D01*
X0395987Y0304877D01*
X0395230Y0305426D01*
X0394396Y0305851D01*
X0393507Y0306140D01*
X0392583Y0306287D01*
X0392496Y0306287D01*
X0392496Y0297181D01*
X0391734Y0297181D01*
X0391734Y0306287D01*
X0391647Y0306287D01*
X0390723Y0306140D01*
X0389834Y0305851D01*
X0389000Y0305426D01*
X0388243Y0304877D01*
X0387582Y0304215D01*
X0387032Y0303458D01*
X0386607Y0302625D01*
X0386318Y0301735D01*
X0386172Y0300811D01*
X0386172Y0297181D01*
X0391734Y0297181D01*
X0391734Y0296419D01*
X0392496Y0296419D01*
X0392496Y0287313D01*
X0392583Y0287313D01*
X0393507Y0287460D01*
X0394396Y0287749D01*
X0392496Y0287934D02*
X0391734Y0287934D01*
X0391734Y0287313D02*
X0391734Y0296419D01*
X0386172Y0296419D01*
X0386172Y0292789D01*
X0386318Y0291865D01*
X0386607Y0290975D01*
X0387032Y0290142D01*
X0387582Y0289385D01*
X0388243Y0288723D01*
X0389000Y0288174D01*
X0389834Y0287749D01*
X0390723Y0287460D01*
X0391647Y0287313D01*
X0391734Y0287313D01*
X0391734Y0289532D02*
X0392496Y0289532D01*
X0392496Y0291131D02*
X0391734Y0291131D01*
X0391734Y0292729D02*
X0392496Y0292729D01*
X0392496Y0294328D02*
X0391734Y0294328D01*
X0391734Y0295926D02*
X0392496Y0295926D01*
X0392496Y0297525D02*
X0391734Y0297525D01*
X0391734Y0299123D02*
X0392496Y0299123D01*
X0392496Y0300722D02*
X0391734Y0300722D01*
X0391734Y0302320D02*
X0392496Y0302320D01*
X0392496Y0303919D02*
X0391734Y0303919D01*
X0391734Y0305517D02*
X0392496Y0305517D01*
X0395052Y0305517D02*
X0408760Y0305517D01*
X0406970Y0303919D02*
X0396864Y0303919D01*
X0397722Y0302320D02*
X0406186Y0302320D01*
X0405857Y0300722D02*
X0398058Y0300722D01*
X0398058Y0299123D02*
X0405857Y0299123D01*
X0405857Y0297525D02*
X0398058Y0297525D01*
X0398058Y0295926D02*
X0405857Y0295926D01*
X0405857Y0294328D02*
X0398058Y0294328D01*
X0398049Y0292729D02*
X0405857Y0292729D01*
X0406248Y0291131D02*
X0397673Y0291131D01*
X0396755Y0289532D02*
X0407120Y0289532D01*
X0415000Y0287934D02*
X0428806Y0287934D01*
X0428118Y0288218D02*
X0430303Y0287313D01*
X0432667Y0287313D01*
X0434852Y0288218D01*
X0436524Y0289890D01*
X0437428Y0292074D01*
X0437428Y0301526D01*
X0436524Y0303710D01*
X0434852Y0305382D01*
X0432667Y0306287D01*
X0430303Y0306287D01*
X0428118Y0305382D01*
X0426447Y0303710D01*
X0425542Y0301526D01*
X0425542Y0292074D01*
X0426447Y0289890D01*
X0428118Y0288218D01*
X0426805Y0289532D02*
X0416480Y0289532D01*
X0417352Y0291131D02*
X0425933Y0291131D01*
X0425542Y0292729D02*
X0417743Y0292729D01*
X0417743Y0294328D02*
X0425542Y0294328D01*
X0425542Y0295926D02*
X0417743Y0295926D01*
X0417743Y0297525D02*
X0425542Y0297525D01*
X0425542Y0299123D02*
X0417743Y0299123D01*
X0417743Y0300722D02*
X0425542Y0300722D01*
X0425871Y0302320D02*
X0417414Y0302320D01*
X0416630Y0303919D02*
X0426655Y0303919D01*
X0428445Y0305517D02*
X0414840Y0305517D01*
X0411800Y0296800D02*
X0411800Y0266800D01*
X0417161Y0268751D02*
X0435426Y0268751D01*
X0433827Y0267153D02*
X0417500Y0267153D01*
X0417454Y0265554D02*
X0432229Y0265554D01*
X0430630Y0263956D02*
X0416792Y0263956D01*
X0415418Y0262357D02*
X0429032Y0262357D01*
X0429000Y0257800D02*
X0462600Y0291400D01*
X0462600Y0293000D01*
X0469000Y0299400D01*
X0470600Y0299400D01*
X0472200Y0297800D01*
X0471800Y0296800D01*
X0477743Y0297525D02*
X0485542Y0297525D01*
X0485542Y0299123D02*
X0477743Y0299123D01*
X0477743Y0300722D02*
X0485542Y0300722D01*
X0485542Y0301526D02*
X0485542Y0292074D01*
X0486447Y0289890D01*
X0488118Y0288218D01*
X0490303Y0287313D01*
X0492667Y0287313D01*
X0494852Y0288218D01*
X0496524Y0289890D01*
X0497428Y0292074D01*
X0497428Y0301526D01*
X0496524Y0303710D01*
X0494852Y0305382D01*
X0492667Y0306287D01*
X0490303Y0306287D01*
X0488118Y0305382D01*
X0486447Y0303710D01*
X0485542Y0301526D01*
X0485871Y0302320D02*
X0477414Y0302320D01*
X0476630Y0303919D02*
X0486655Y0303919D01*
X0488445Y0305517D02*
X0474840Y0305517D01*
X0468760Y0305517D02*
X0455052Y0305517D01*
X0456864Y0303919D02*
X0466970Y0303919D01*
X0466186Y0302320D02*
X0457722Y0302320D01*
X0458058Y0300722D02*
X0465796Y0300722D01*
X0464198Y0299123D02*
X0458058Y0299123D01*
X0458058Y0297525D02*
X0462599Y0297525D01*
X0461001Y0295926D02*
X0458058Y0295926D01*
X0458058Y0294328D02*
X0459686Y0294328D01*
X0459400Y0292729D02*
X0458049Y0292729D01*
X0457805Y0291131D02*
X0457673Y0291131D01*
X0452496Y0291131D02*
X0451734Y0291131D01*
X0451734Y0292729D02*
X0452496Y0292729D01*
X0452496Y0294328D02*
X0451734Y0294328D01*
X0451734Y0295926D02*
X0452496Y0295926D01*
X0451734Y0296419D02*
X0451734Y0287313D01*
X0451647Y0287313D01*
X0450723Y0287460D01*
X0449834Y0287749D01*
X0449000Y0288174D01*
X0448243Y0288723D01*
X0447582Y0289385D01*
X0447032Y0290142D01*
X0446607Y0290975D01*
X0446318Y0291865D01*
X0446172Y0292789D01*
X0446172Y0296419D01*
X0451734Y0296419D01*
X0451734Y0297525D02*
X0452496Y0297525D01*
X0452496Y0299123D02*
X0451734Y0299123D01*
X0451734Y0300722D02*
X0452496Y0300722D01*
X0452496Y0302320D02*
X0451734Y0302320D01*
X0451734Y0303919D02*
X0452496Y0303919D01*
X0452496Y0305517D02*
X0451734Y0305517D01*
X0449178Y0305517D02*
X0434525Y0305517D01*
X0436315Y0303919D02*
X0447366Y0303919D01*
X0446508Y0302320D02*
X0437099Y0302320D01*
X0437428Y0300722D02*
X0446172Y0300722D01*
X0446172Y0299123D02*
X0437428Y0299123D01*
X0437428Y0297525D02*
X0446172Y0297525D01*
X0446172Y0295926D02*
X0437428Y0295926D01*
X0437428Y0294328D02*
X0446172Y0294328D01*
X0446181Y0292729D02*
X0437428Y0292729D01*
X0437037Y0291131D02*
X0446557Y0291131D01*
X0447475Y0289532D02*
X0436165Y0289532D01*
X0434164Y0287934D02*
X0449471Y0287934D01*
X0451734Y0287934D02*
X0452496Y0287934D01*
X0452496Y0289532D02*
X0451734Y0289532D01*
X0453010Y0286335D02*
X0415000Y0286335D01*
X0415000Y0284737D02*
X0451411Y0284737D01*
X0449813Y0283138D02*
X0415000Y0283138D01*
X0415000Y0281539D02*
X0448214Y0281539D01*
X0446616Y0279941D02*
X0415000Y0279941D01*
X0415000Y0278342D02*
X0445017Y0278342D01*
X0443418Y0276744D02*
X0415000Y0276744D01*
X0415000Y0275145D02*
X0441820Y0275145D01*
X0440221Y0273547D02*
X0415000Y0273547D01*
X0415000Y0271948D02*
X0438623Y0271948D01*
X0437024Y0270350D02*
X0416311Y0270350D01*
X0408600Y0271948D02*
X0404265Y0271948D01*
X0406311Y0270350D02*
X0407289Y0270350D01*
X0399335Y0271948D02*
X0394251Y0271948D01*
X0392100Y0271948D02*
X0391500Y0271948D01*
X0391500Y0270350D02*
X0392100Y0270350D01*
X0392100Y0268751D02*
X0391500Y0268751D01*
X0391500Y0267153D02*
X0392100Y0267153D01*
X0392100Y0265554D02*
X0391500Y0265554D01*
X0391500Y0263956D02*
X0392100Y0263956D01*
X0392100Y0262357D02*
X0391500Y0262357D01*
X0388217Y0262357D02*
X0387368Y0262357D01*
X0386852Y0263956D02*
X0386792Y0263956D01*
X0382600Y0262600D02*
X0382600Y0265800D01*
X0381800Y0266800D01*
X0382600Y0262600D02*
X0387400Y0257800D01*
X0429000Y0257800D01*
X0431689Y0255963D02*
X0516921Y0255963D01*
X0516921Y0254365D02*
X0359690Y0254365D01*
X0358092Y0252766D02*
X0516921Y0252766D01*
X0516921Y0251168D02*
X0356493Y0251168D01*
X0354895Y0249569D02*
X0516921Y0249569D01*
X0516921Y0247971D02*
X0353296Y0247971D01*
X0351698Y0246372D02*
X0516921Y0246372D01*
X0516921Y0244774D02*
X0350099Y0244774D01*
X0348501Y0243175D02*
X0516921Y0243175D01*
X0516921Y0241577D02*
X0414923Y0241577D01*
X0414787Y0241675D02*
X0413988Y0242082D01*
X0413135Y0242360D01*
X0412249Y0242500D01*
X0412100Y0242500D01*
X0412100Y0237100D01*
X0411500Y0237100D01*
X0411500Y0242500D01*
X0411351Y0242500D01*
X0410465Y0242360D01*
X0409612Y0242082D01*
X0408813Y0241675D01*
X0408087Y0241148D01*
X0407452Y0240513D01*
X0406925Y0239787D01*
X0406819Y0239579D01*
X0406632Y0240029D01*
X0405029Y0241632D01*
X0402934Y0242500D01*
X0400666Y0242500D01*
X0398571Y0241632D01*
X0396968Y0240029D01*
X0396800Y0239624D01*
X0396632Y0240029D01*
X0395029Y0241632D01*
X0392934Y0242500D01*
X0390666Y0242500D01*
X0388571Y0241632D01*
X0386968Y0240029D01*
X0386781Y0239579D01*
X0386675Y0239787D01*
X0386148Y0240513D01*
X0385513Y0241148D01*
X0384787Y0241675D01*
X0383988Y0242082D01*
X0383135Y0242360D01*
X0382249Y0242500D01*
X0382100Y0242500D01*
X0382100Y0237100D01*
X0381500Y0237100D01*
X0381500Y0242500D01*
X0381351Y0242500D01*
X0380465Y0242360D01*
X0379612Y0242082D01*
X0378813Y0241675D01*
X0378087Y0241148D01*
X0377452Y0240513D01*
X0376925Y0239787D01*
X0376819Y0239579D01*
X0376632Y0240029D01*
X0375029Y0241632D01*
X0372934Y0242500D01*
X0370666Y0242500D01*
X0368571Y0241632D01*
X0366968Y0240029D01*
X0366800Y0239624D01*
X0366632Y0240029D01*
X0365029Y0241632D01*
X0362934Y0242500D01*
X0360666Y0242500D01*
X0358571Y0241632D01*
X0357463Y0240524D01*
X0357408Y0240800D01*
X0357227Y0241237D01*
X0356964Y0241630D01*
X0356630Y0241964D01*
X0356237Y0242227D01*
X0355800Y0242408D01*
X0355336Y0242500D01*
X0352100Y0242500D01*
X0352100Y0237100D01*
X0351500Y0237100D01*
X0351500Y0236500D01*
X0352100Y0236500D01*
X0352100Y0231100D01*
X0355336Y0231100D01*
X0355800Y0231192D01*
X0356237Y0231373D01*
X0356630Y0231636D01*
X0356964Y0231970D01*
X0357227Y0232363D01*
X0357408Y0232800D01*
X0357463Y0233076D01*
X0358571Y0231968D01*
X0360666Y0231100D01*
X0362934Y0231100D01*
X0365029Y0231968D01*
X0366632Y0233571D01*
X0366800Y0233976D01*
X0366968Y0233571D01*
X0368571Y0231968D01*
X0370666Y0231100D01*
X0372934Y0231100D01*
X0375029Y0231968D01*
X0376632Y0233571D01*
X0376819Y0234021D01*
X0376925Y0233813D01*
X0377452Y0233087D01*
X0378087Y0232452D01*
X0378813Y0231925D01*
X0379612Y0231518D01*
X0380465Y0231240D01*
X0381351Y0231100D01*
X0381500Y0231100D01*
X0381500Y0236500D01*
X0382100Y0236500D01*
X0382100Y0231100D01*
X0382249Y0231100D01*
X0383135Y0231240D01*
X0383988Y0231518D01*
X0384787Y0231925D01*
X0385513Y0232452D01*
X0386148Y0233087D01*
X0386675Y0233813D01*
X0386781Y0234021D01*
X0386968Y0233571D01*
X0388571Y0231968D01*
X0390666Y0231100D01*
X0392934Y0231100D01*
X0395029Y0231968D01*
X0396632Y0233571D01*
X0396800Y0233976D01*
X0396968Y0233571D01*
X0398571Y0231968D01*
X0400666Y0231100D01*
X0402934Y0231100D01*
X0405029Y0231968D01*
X0406632Y0233571D01*
X0406819Y0234021D01*
X0406925Y0233813D01*
X0407452Y0233087D01*
X0408087Y0232452D01*
X0408813Y0231925D01*
X0409612Y0231518D01*
X0410465Y0231240D01*
X0411351Y0231100D01*
X0411500Y0231100D01*
X0411500Y0236500D01*
X0412100Y0236500D01*
X0412100Y0237100D01*
X0417500Y0237100D01*
X0417500Y0237249D01*
X0417360Y0238135D01*
X0417082Y0238988D01*
X0416675Y0239787D01*
X0416148Y0240513D01*
X0415513Y0241148D01*
X0414787Y0241675D01*
X0416536Y0239978D02*
X0516921Y0239978D01*
X0516921Y0238380D02*
X0417280Y0238380D01*
X0417500Y0236500D02*
X0412100Y0236500D01*
X0412100Y0231100D01*
X0412249Y0231100D01*
X0413135Y0231240D01*
X0413988Y0231518D01*
X0414787Y0231925D01*
X0415513Y0232452D01*
X0416148Y0233087D01*
X0416675Y0233813D01*
X0417082Y0234612D01*
X0417360Y0235465D01*
X0417500Y0236351D01*
X0417500Y0236500D01*
X0417268Y0235183D02*
X0516921Y0235183D01*
X0516921Y0236781D02*
X0412100Y0236781D01*
X0412100Y0235183D02*
X0411500Y0235183D01*
X0411500Y0233584D02*
X0412100Y0233584D01*
X0412100Y0231986D02*
X0411500Y0231986D01*
X0408729Y0231986D02*
X0405047Y0231986D01*
X0406638Y0233584D02*
X0407091Y0233584D01*
X0407064Y0239978D02*
X0406653Y0239978D01*
X0405084Y0241577D02*
X0408677Y0241577D01*
X0411500Y0241577D02*
X0412100Y0241577D01*
X0412100Y0239978D02*
X0411500Y0239978D01*
X0411500Y0238380D02*
X0412100Y0238380D01*
X0416509Y0233584D02*
X0516921Y0233584D01*
X0516921Y0231986D02*
X0414871Y0231986D01*
X0398553Y0231986D02*
X0395047Y0231986D01*
X0396638Y0233584D02*
X0396962Y0233584D01*
X0396947Y0239978D02*
X0396653Y0239978D01*
X0395084Y0241577D02*
X0398516Y0241577D01*
X0388516Y0241577D02*
X0384923Y0241577D01*
X0386536Y0239978D02*
X0386947Y0239978D01*
X0382100Y0239978D02*
X0381500Y0239978D01*
X0381500Y0238380D02*
X0382100Y0238380D01*
X0382100Y0241577D02*
X0381500Y0241577D01*
X0378677Y0241577D02*
X0375084Y0241577D01*
X0376653Y0239978D02*
X0377064Y0239978D01*
X0377091Y0233584D02*
X0376638Y0233584D01*
X0375047Y0231986D02*
X0378729Y0231986D01*
X0381500Y0231986D02*
X0382100Y0231986D01*
X0382100Y0233584D02*
X0381500Y0233584D01*
X0381500Y0235183D02*
X0382100Y0235183D01*
X0384871Y0231986D02*
X0388553Y0231986D01*
X0386962Y0233584D02*
X0386509Y0233584D01*
X0368553Y0231986D02*
X0365047Y0231986D01*
X0366638Y0233584D02*
X0366962Y0233584D01*
X0366947Y0239978D02*
X0366653Y0239978D01*
X0365084Y0241577D02*
X0368516Y0241577D01*
X0358516Y0241577D02*
X0357000Y0241577D01*
X0352100Y0241577D02*
X0351500Y0241577D01*
X0351500Y0239978D02*
X0352100Y0239978D01*
X0352100Y0238380D02*
X0351500Y0238380D01*
X0351500Y0236781D02*
X0345800Y0236781D01*
X0346100Y0236500D02*
X0346100Y0233264D01*
X0346192Y0232800D01*
X0346373Y0232363D01*
X0346636Y0231970D01*
X0346970Y0231636D01*
X0347363Y0231373D01*
X0347800Y0231192D01*
X0348264Y0231100D01*
X0351500Y0231100D01*
X0351500Y0236500D01*
X0346100Y0236500D01*
X0346100Y0235183D02*
X0345800Y0235183D01*
X0345800Y0233584D02*
X0346100Y0233584D01*
X0345800Y0231986D02*
X0346625Y0231986D01*
X0345800Y0230387D02*
X0516921Y0230387D01*
X0516921Y0228789D02*
X0345800Y0228789D01*
X0345800Y0227190D02*
X0516921Y0227190D01*
X0516921Y0225592D02*
X0345800Y0225592D01*
X0345800Y0223993D02*
X0516921Y0223993D01*
X0516921Y0222395D02*
X0345800Y0222395D01*
X0345800Y0220796D02*
X0516921Y0220796D01*
X0516921Y0219198D02*
X0345800Y0219198D01*
X0345800Y0217599D02*
X0516921Y0217599D01*
X0516921Y0216001D02*
X0345800Y0216001D01*
X0345800Y0214402D02*
X0516921Y0214402D01*
X0516921Y0212803D02*
X0355628Y0212803D01*
X0358077Y0211205D02*
X0516921Y0211205D01*
X0516921Y0209606D02*
X0359676Y0209606D01*
X0360353Y0208008D02*
X0516921Y0208008D01*
X0516921Y0206409D02*
X0361015Y0206409D01*
X0361121Y0204811D02*
X0516921Y0204811D01*
X0516921Y0203212D02*
X0361121Y0203212D01*
X0360777Y0201614D02*
X0516921Y0201614D01*
X0516921Y0200015D02*
X0360115Y0200015D01*
X0359099Y0198417D02*
X0516921Y0198417D01*
X0516921Y0196818D02*
X0357501Y0196818D01*
X0354236Y0195220D02*
X0516921Y0195220D01*
X0516921Y0142469D02*
X0167794Y0142469D01*
X0169340Y0140870D02*
X0166196Y0140870D01*
X0166090Y0139272D02*
X0164597Y0139272D01*
X0164491Y0137673D02*
X0162999Y0137673D01*
X0163481Y0136075D02*
X0161400Y0136075D01*
X0162819Y0134476D02*
X0159802Y0134476D01*
X0158203Y0132878D02*
X0162479Y0132878D01*
X0162479Y0131279D02*
X0156605Y0131279D01*
X0155006Y0129681D02*
X0162588Y0129681D01*
X0163251Y0128082D02*
X0153408Y0128082D01*
X0151809Y0126484D02*
X0163934Y0126484D01*
X0165532Y0124885D02*
X0150211Y0124885D01*
X0148612Y0123287D02*
X0167995Y0123287D01*
X0169969Y0115294D02*
X0140620Y0115294D01*
X0139400Y0113696D02*
X0168370Y0113696D01*
X0166772Y0112097D02*
X0139400Y0112097D01*
X0139400Y0110499D02*
X0165173Y0110499D01*
X0157847Y0100908D02*
X0155753Y0100908D01*
X0152100Y0100908D02*
X0151500Y0100908D01*
X0151500Y0099309D02*
X0152100Y0099309D01*
X0152100Y0097711D02*
X0151500Y0097711D01*
X0151500Y0096112D02*
X0152100Y0096112D01*
X0152100Y0094514D02*
X0151500Y0094514D01*
X0151500Y0092915D02*
X0152100Y0092915D01*
X0152100Y0091317D02*
X0151500Y0091317D01*
X0150230Y0091317D02*
X0143457Y0091317D01*
X0145976Y0092915D02*
X0147624Y0092915D01*
X0153370Y0091317D02*
X0160143Y0091317D01*
X0157624Y0092915D02*
X0155976Y0092915D01*
X0163457Y0091317D02*
X0170143Y0091317D01*
X0167624Y0092915D02*
X0165976Y0092915D01*
X0171594Y0088120D02*
X0090968Y0088120D01*
X0092350Y0089718D02*
X0173193Y0089718D01*
X0173457Y0091317D02*
X0174791Y0091317D01*
X0175976Y0092915D02*
X0176390Y0092915D01*
X0181000Y0093000D02*
X0168200Y0080200D01*
X0131400Y0080200D01*
X0121800Y0070600D01*
X0121800Y0066800D01*
X0117475Y0070536D02*
X0117460Y0070536D01*
X0116375Y0072134D02*
X0118972Y0072134D01*
X0120408Y0073733D02*
X0092350Y0073733D01*
X0092350Y0074099D02*
X0089099Y0077350D01*
X0086800Y0077350D01*
X0086800Y0071800D01*
X0086800Y0071800D01*
X0092350Y0071800D01*
X0092350Y0074099D01*
X0091117Y0075332D02*
X0122006Y0075332D01*
X0123605Y0076930D02*
X0089519Y0076930D01*
X0086800Y0076930D02*
X0086800Y0076930D01*
X0086800Y0077350D02*
X0084501Y0077350D01*
X0081250Y0074099D01*
X0081250Y0071800D01*
X0086800Y0071800D01*
X0086800Y0071800D01*
X0086800Y0071800D01*
X0086800Y0077350D01*
X0086800Y0075332D02*
X0086800Y0075332D01*
X0086800Y0073733D02*
X0086800Y0073733D01*
X0086800Y0072134D02*
X0086800Y0072134D01*
X0086800Y0071800D02*
X0081250Y0071800D01*
X0081250Y0069501D01*
X0084501Y0066250D01*
X0086800Y0066250D01*
X0089099Y0066250D01*
X0092350Y0069501D01*
X0092350Y0071800D01*
X0086800Y0071800D01*
X0086800Y0066250D01*
X0086800Y0071800D01*
X0086800Y0071800D01*
X0086800Y0070536D02*
X0086800Y0070536D01*
X0086800Y0068937D02*
X0086800Y0068937D01*
X0086800Y0067339D02*
X0086800Y0067339D01*
X0090188Y0067339D02*
X0106100Y0067339D01*
X0106100Y0066500D02*
X0106100Y0063264D01*
X0106192Y0062800D01*
X0106373Y0062363D01*
X0106636Y0061970D01*
X0106970Y0061636D01*
X0107363Y0061373D01*
X0107800Y0061192D01*
X0108264Y0061100D01*
X0111500Y0061100D01*
X0111500Y0066500D01*
X0106100Y0066500D01*
X0106100Y0065740D02*
X0080000Y0065740D01*
X0080000Y0064142D02*
X0106100Y0064142D01*
X0106298Y0062543D02*
X0080000Y0062543D01*
X0080000Y0060945D02*
X0130222Y0060945D01*
X0131728Y0059346D02*
X0080000Y0059346D01*
X0080000Y0057748D02*
X0133327Y0057748D01*
X0134925Y0056149D02*
X0080000Y0056149D01*
X0080000Y0054551D02*
X0136524Y0054551D01*
X0138122Y0052952D02*
X0080488Y0052952D01*
X0082087Y0051354D02*
X0139721Y0051354D01*
X0141319Y0049755D02*
X0083685Y0049755D01*
X0085284Y0048157D02*
X0142918Y0048157D01*
X0145800Y0049800D02*
X0157000Y0049800D01*
X0155716Y0046558D02*
X0086882Y0046558D01*
X0095904Y0044960D02*
X0108011Y0044960D01*
X0106617Y0043361D02*
X0097298Y0043361D01*
X0097960Y0041763D02*
X0105955Y0041763D01*
X0105857Y0040164D02*
X0098058Y0040164D01*
X0098058Y0038566D02*
X0105857Y0038566D01*
X0105857Y0036967D02*
X0098058Y0036967D01*
X0098058Y0035369D02*
X0105857Y0035369D01*
X0105857Y0033770D02*
X0098058Y0033770D01*
X0098058Y0032172D02*
X0105857Y0032172D01*
X0106479Y0030573D02*
X0097436Y0030573D01*
X0096238Y0028975D02*
X0107677Y0028975D01*
X0115923Y0028975D02*
X0127362Y0028975D01*
X0126182Y0030573D02*
X0117121Y0030573D01*
X0117743Y0032172D02*
X0125639Y0032172D01*
X0125542Y0033770D02*
X0117743Y0033770D01*
X0117743Y0035369D02*
X0125542Y0035369D01*
X0125542Y0037181D02*
X0131104Y0037181D01*
X0131104Y0036419D01*
X0131866Y0036419D01*
X0131866Y0037181D01*
X0131104Y0037181D01*
X0131104Y0046287D01*
X0131017Y0046287D01*
X0130093Y0046140D01*
X0129204Y0045851D01*
X0128370Y0045426D01*
X0127613Y0044877D01*
X0126952Y0044215D01*
X0126402Y0043458D01*
X0125977Y0042625D01*
X0125688Y0041735D01*
X0125542Y0040811D01*
X0125542Y0037181D01*
X0125542Y0038566D02*
X0117743Y0038566D01*
X0117743Y0040164D02*
X0125542Y0040164D01*
X0125697Y0041763D02*
X0117645Y0041763D01*
X0116983Y0043361D02*
X0126352Y0043361D01*
X0127728Y0044960D02*
X0115589Y0044960D01*
X0117743Y0036967D02*
X0131104Y0036967D01*
X0131866Y0036967D02*
X0146172Y0036967D01*
X0146172Y0035369D02*
X0137428Y0035369D01*
X0137428Y0033770D02*
X0146172Y0033770D01*
X0146172Y0032172D02*
X0137331Y0032172D01*
X0136788Y0030573D02*
X0146793Y0030573D01*
X0147992Y0028975D02*
X0135608Y0028975D01*
X0131866Y0028975D02*
X0131104Y0028975D01*
X0131104Y0030573D02*
X0131866Y0030573D01*
X0131866Y0032172D02*
X0131104Y0032172D01*
X0131104Y0033770D02*
X0131866Y0033770D01*
X0131866Y0035369D02*
X0131104Y0035369D01*
X0131866Y0037181D02*
X0137428Y0037181D01*
X0137428Y0040811D01*
X0137282Y0041735D01*
X0136993Y0042625D01*
X0136568Y0043458D01*
X0136018Y0044215D01*
X0135357Y0044877D01*
X0134600Y0045426D01*
X0133766Y0045851D01*
X0132877Y0046140D01*
X0131953Y0046287D01*
X0131866Y0046287D01*
X0131866Y0037181D01*
X0131866Y0038566D02*
X0131104Y0038566D01*
X0131104Y0040164D02*
X0131866Y0040164D01*
X0131866Y0041763D02*
X0131104Y0041763D01*
X0131104Y0043361D02*
X0131866Y0043361D01*
X0131866Y0044960D02*
X0131104Y0044960D01*
X0135242Y0044960D02*
X0148326Y0044960D01*
X0146932Y0043361D02*
X0136618Y0043361D01*
X0137273Y0041763D02*
X0146270Y0041763D01*
X0146172Y0040164D02*
X0137428Y0040164D01*
X0137428Y0038566D02*
X0146172Y0038566D01*
X0155904Y0044960D02*
X0157315Y0044960D01*
X0157298Y0043361D02*
X0158600Y0043361D01*
X0158600Y0041763D02*
X0157960Y0041763D01*
X0158058Y0040164D02*
X0158600Y0040164D01*
X0158600Y0038566D02*
X0158058Y0038566D01*
X0158058Y0036967D02*
X0158600Y0036967D01*
X0158600Y0035369D02*
X0158058Y0035369D01*
X0158058Y0033770D02*
X0158600Y0033770D01*
X0158600Y0032172D02*
X0158058Y0032172D01*
X0158600Y0030573D02*
X0157436Y0030573D01*
X0158600Y0028975D02*
X0156238Y0028975D01*
X0162095Y0024179D02*
X0006600Y0024179D01*
X0006600Y0022581D02*
X0163694Y0022581D01*
X0165292Y0020982D02*
X0006600Y0020982D01*
X0006600Y0019384D02*
X0516921Y0019384D01*
X0516921Y0020982D02*
X0217508Y0020982D01*
X0219106Y0022581D02*
X0516921Y0022581D01*
X0516921Y0024179D02*
X0220705Y0024179D01*
X0216449Y0028975D02*
X0216238Y0028975D01*
X0215482Y0028218D02*
X0217153Y0029890D01*
X0218058Y0032074D01*
X0218058Y0041526D01*
X0217153Y0043710D01*
X0215482Y0045382D01*
X0213297Y0046287D01*
X0210933Y0046287D01*
X0208748Y0045382D01*
X0207076Y0043710D01*
X0206172Y0041526D01*
X0206172Y0032074D01*
X0207076Y0029890D01*
X0208748Y0028218D01*
X0210933Y0027313D01*
X0213297Y0027313D01*
X0215482Y0028218D01*
X0214851Y0027376D02*
X0213449Y0027376D01*
X0210781Y0027376D02*
X0192349Y0027376D01*
X0191953Y0027313D02*
X0192877Y0027460D01*
X0193766Y0027749D01*
X0194600Y0028174D01*
X0195357Y0028723D01*
X0196018Y0029385D01*
X0196568Y0030142D01*
X0196993Y0030975D01*
X0197282Y0031865D01*
X0197428Y0032789D01*
X0197428Y0036419D01*
X0191866Y0036419D01*
X0191866Y0027313D01*
X0191953Y0027313D01*
X0191866Y0027376D02*
X0191104Y0027376D01*
X0191104Y0027313D02*
X0191104Y0036419D01*
X0185542Y0036419D01*
X0185542Y0032789D01*
X0185688Y0031865D01*
X0185977Y0030975D01*
X0186402Y0030142D01*
X0186952Y0029385D01*
X0187613Y0028723D01*
X0188370Y0028174D01*
X0189204Y0027749D01*
X0190093Y0027460D01*
X0191017Y0027313D01*
X0191104Y0027313D01*
X0190621Y0027376D02*
X0173134Y0027376D01*
X0170466Y0027376D02*
X0167949Y0027376D01*
X0167677Y0028975D02*
X0166351Y0028975D01*
X0166479Y0030573D02*
X0165000Y0030573D01*
X0165000Y0032172D02*
X0165857Y0032172D01*
X0165857Y0033770D02*
X0165000Y0033770D01*
X0165000Y0035369D02*
X0165857Y0035369D01*
X0165857Y0036967D02*
X0165000Y0036967D01*
X0165000Y0038566D02*
X0165857Y0038566D01*
X0165857Y0040164D02*
X0165000Y0040164D01*
X0165000Y0041763D02*
X0165955Y0041763D01*
X0166617Y0043361D02*
X0165000Y0043361D01*
X0165000Y0044960D02*
X0165315Y0044960D01*
X0171400Y0043400D02*
X0171400Y0037000D01*
X0171800Y0036800D01*
X0177743Y0036967D02*
X0191104Y0036967D01*
X0191104Y0037181D02*
X0191104Y0036419D01*
X0191866Y0036419D01*
X0191866Y0037181D01*
X0191104Y0037181D01*
X0185542Y0037181D01*
X0185542Y0040811D01*
X0185688Y0041735D01*
X0185977Y0042625D01*
X0186402Y0043458D01*
X0186952Y0044215D01*
X0187613Y0044877D01*
X0188370Y0045426D01*
X0189204Y0045851D01*
X0190093Y0046140D01*
X0191017Y0046287D01*
X0191104Y0046287D01*
X0191104Y0037181D01*
X0191866Y0037181D02*
X0191866Y0046287D01*
X0191953Y0046287D01*
X0192877Y0046140D01*
X0193766Y0045851D01*
X0194600Y0045426D01*
X0195357Y0044877D01*
X0196018Y0044215D01*
X0196568Y0043458D01*
X0196993Y0042625D01*
X0197282Y0041735D01*
X0197428Y0040811D01*
X0197428Y0037181D01*
X0191866Y0037181D01*
X0191866Y0036967D02*
X0206172Y0036967D01*
X0206172Y0035369D02*
X0197428Y0035369D01*
X0197428Y0033770D02*
X0206172Y0033770D01*
X0206172Y0032172D02*
X0197331Y0032172D01*
X0196788Y0030573D02*
X0206793Y0030573D01*
X0207992Y0028975D02*
X0195608Y0028975D01*
X0191866Y0028975D02*
X0191104Y0028975D01*
X0191104Y0030573D02*
X0191866Y0030573D01*
X0191866Y0032172D02*
X0191104Y0032172D01*
X0191104Y0033770D02*
X0191866Y0033770D01*
X0191866Y0035369D02*
X0191104Y0035369D01*
X0191104Y0038566D02*
X0191866Y0038566D01*
X0191866Y0040164D02*
X0191104Y0040164D01*
X0191104Y0041763D02*
X0191866Y0041763D01*
X0191866Y0043361D02*
X0191104Y0043361D01*
X0191104Y0044960D02*
X0191866Y0044960D01*
X0195242Y0044960D02*
X0208326Y0044960D01*
X0206932Y0043361D02*
X0196618Y0043361D01*
X0197273Y0041763D02*
X0206270Y0041763D01*
X0206172Y0040164D02*
X0197428Y0040164D01*
X0197428Y0038566D02*
X0206172Y0038566D01*
X0215904Y0044960D02*
X0228011Y0044960D01*
X0226617Y0043361D02*
X0217298Y0043361D01*
X0217960Y0041763D02*
X0225955Y0041763D01*
X0225857Y0040164D02*
X0218058Y0040164D01*
X0218058Y0038566D02*
X0224440Y0038566D01*
X0222842Y0036967D02*
X0218058Y0036967D01*
X0218058Y0035369D02*
X0221243Y0035369D01*
X0219787Y0033770D02*
X0218058Y0033770D01*
X0218058Y0032172D02*
X0219400Y0032172D01*
X0218048Y0030573D02*
X0217436Y0030573D01*
X0225390Y0028975D02*
X0227677Y0028975D01*
X0226479Y0030573D02*
X0225800Y0030573D01*
X0235923Y0028975D02*
X0247362Y0028975D01*
X0246182Y0030573D02*
X0237121Y0030573D01*
X0237743Y0032172D02*
X0245639Y0032172D01*
X0245542Y0033770D02*
X0237743Y0033770D01*
X0237743Y0035369D02*
X0245542Y0035369D01*
X0245542Y0038566D02*
X0237743Y0038566D01*
X0237743Y0040164D02*
X0245542Y0040164D01*
X0245697Y0041763D02*
X0237645Y0041763D01*
X0236983Y0043361D02*
X0246352Y0043361D01*
X0247728Y0044960D02*
X0235589Y0044960D01*
X0187728Y0044960D02*
X0175589Y0044960D01*
X0176983Y0043361D02*
X0186352Y0043361D01*
X0185697Y0041763D02*
X0177645Y0041763D01*
X0177743Y0040164D02*
X0185542Y0040164D01*
X0185542Y0038566D02*
X0177743Y0038566D01*
X0177743Y0035369D02*
X0185542Y0035369D01*
X0185542Y0033770D02*
X0177743Y0033770D01*
X0177743Y0032172D02*
X0185639Y0032172D01*
X0186182Y0030573D02*
X0177121Y0030573D01*
X0175923Y0028975D02*
X0187362Y0028975D01*
X0171400Y0043400D02*
X0161800Y0053000D01*
X0161800Y0066800D01*
X0159784Y0072134D02*
X0158260Y0072134D01*
X0157475Y0070536D02*
X0156661Y0070536D01*
X0159858Y0073733D02*
X0297800Y0073733D01*
X0297800Y0072134D02*
X0173828Y0072134D01*
X0173988Y0072082D02*
X0173135Y0072360D01*
X0172249Y0072500D01*
X0172100Y0072500D01*
X0172100Y0067100D01*
X0177500Y0067100D01*
X0177500Y0067249D01*
X0177360Y0068135D01*
X0177082Y0068988D01*
X0176675Y0069787D01*
X0176148Y0070513D01*
X0175513Y0071148D01*
X0174787Y0071675D01*
X0173988Y0072082D01*
X0172100Y0072134D02*
X0171500Y0072134D01*
X0171500Y0070536D02*
X0172100Y0070536D01*
X0172100Y0068937D02*
X0171500Y0068937D01*
X0171500Y0067339D02*
X0172100Y0067339D01*
X0172100Y0066500D02*
X0177500Y0066500D01*
X0177500Y0066351D01*
X0177360Y0065465D01*
X0177082Y0064612D01*
X0176675Y0063813D01*
X0176148Y0063087D01*
X0175513Y0062452D01*
X0174787Y0061925D01*
X0173988Y0061518D01*
X0173135Y0061240D01*
X0172249Y0061100D01*
X0172100Y0061100D01*
X0172100Y0066500D01*
X0172100Y0065740D02*
X0171500Y0065740D01*
X0171500Y0064142D02*
X0172100Y0064142D01*
X0172100Y0062543D02*
X0171500Y0062543D01*
X0167996Y0062543D02*
X0165604Y0062543D01*
X0165000Y0060945D02*
X0297800Y0060945D01*
X0297800Y0062543D02*
X0175604Y0062543D01*
X0176843Y0064142D02*
X0297800Y0064142D01*
X0297800Y0065740D02*
X0177403Y0065740D01*
X0177486Y0067339D02*
X0297800Y0067339D01*
X0297800Y0068937D02*
X0177099Y0068937D01*
X0176125Y0070536D02*
X0297800Y0070536D01*
X0297800Y0059346D02*
X0165000Y0059346D01*
X0165000Y0057748D02*
X0297800Y0057748D01*
X0297800Y0056149D02*
X0165000Y0056149D01*
X0165000Y0054551D02*
X0297800Y0054551D01*
X0297800Y0052952D02*
X0166373Y0052952D01*
X0167972Y0051354D02*
X0297800Y0051354D01*
X0297800Y0049755D02*
X0169570Y0049755D01*
X0171169Y0048157D02*
X0297800Y0048157D01*
X0297800Y0046558D02*
X0172767Y0046558D01*
X0157996Y0062543D02*
X0155604Y0062543D01*
X0147996Y0062543D02*
X0145604Y0062543D01*
X0137996Y0062543D02*
X0137582Y0062543D01*
X0133000Y0062600D02*
X0133000Y0065800D01*
X0131800Y0066800D01*
X0129784Y0072134D02*
X0127860Y0072134D01*
X0127475Y0070536D02*
X0126261Y0070536D01*
X0129458Y0073733D02*
X0150808Y0073733D01*
X0150387Y0073313D02*
X0150387Y0073313D01*
X0152406Y0075332D02*
X0131057Y0075332D01*
X0132655Y0076930D02*
X0154005Y0076930D01*
X0147475Y0070536D02*
X0146125Y0070536D01*
X0139772Y0072134D02*
X0133816Y0072134D01*
X0136125Y0070536D02*
X0137475Y0070536D01*
X0133000Y0062600D02*
X0145800Y0049800D01*
X0127996Y0062543D02*
X0125604Y0062543D01*
X0117996Y0062543D02*
X0117302Y0062543D01*
X0112100Y0062543D02*
X0111500Y0062543D01*
X0111500Y0064142D02*
X0112100Y0064142D01*
X0112100Y0065740D02*
X0111500Y0065740D01*
X0111500Y0067339D02*
X0112100Y0067339D01*
X0112100Y0068937D02*
X0111500Y0068937D01*
X0111500Y0070536D02*
X0112100Y0070536D01*
X0112100Y0072134D02*
X0111500Y0072134D01*
X0107225Y0072134D02*
X0092350Y0072134D01*
X0092350Y0070536D02*
X0106140Y0070536D01*
X0106100Y0068937D02*
X0091786Y0068937D01*
X0083412Y0067339D02*
X0080000Y0067339D01*
X0080000Y0068937D02*
X0081814Y0068937D01*
X0081250Y0070536D02*
X0080000Y0070536D01*
X0080000Y0072134D02*
X0081250Y0072134D01*
X0081250Y0073733D02*
X0080000Y0073733D01*
X0080000Y0075332D02*
X0082483Y0075332D01*
X0084081Y0076930D02*
X0080000Y0076930D01*
X0080000Y0078529D02*
X0125203Y0078529D01*
X0126802Y0080127D02*
X0080000Y0080127D01*
X0081251Y0081726D02*
X0128400Y0081726D01*
X0130580Y0083324D02*
X0082850Y0083324D01*
X0084448Y0084923D02*
X0168397Y0084923D01*
X0169996Y0086521D02*
X0089370Y0086521D01*
X0086800Y0091800D02*
X0076800Y0081800D01*
X0076800Y0052115D01*
X0092115Y0036800D01*
X0086172Y0033770D02*
X0077428Y0033770D01*
X0077331Y0032172D02*
X0086172Y0032172D01*
X0086793Y0030573D02*
X0076788Y0030573D01*
X0075608Y0028975D02*
X0087992Y0028975D01*
X0006600Y0017785D02*
X0516921Y0017785D01*
X0516921Y0016187D02*
X0006600Y0016187D01*
X0006600Y0014588D02*
X0516921Y0014588D01*
X0516921Y0012990D02*
X0006600Y0012990D01*
X0006600Y0011391D02*
X0516921Y0011391D01*
X0516921Y0009793D02*
X0006600Y0009793D01*
X0006600Y0008194D02*
X0516921Y0008194D01*
X0516921Y0006600D02*
X0006600Y0006600D01*
X0006600Y0325701D01*
X0516921Y0325701D01*
X0516921Y0006600D01*
X0516921Y0028975D02*
X0495608Y0028975D01*
X0496788Y0030573D02*
X0516921Y0030573D01*
X0516921Y0032172D02*
X0497331Y0032172D01*
X0497428Y0033770D02*
X0516921Y0033770D01*
X0516921Y0035369D02*
X0497428Y0035369D01*
X0497428Y0037181D02*
X0497428Y0040811D01*
X0497282Y0041735D01*
X0496993Y0042625D01*
X0496568Y0043458D01*
X0496018Y0044215D01*
X0495357Y0044877D01*
X0494600Y0045426D01*
X0493766Y0045851D01*
X0492877Y0046140D01*
X0491953Y0046287D01*
X0491866Y0046287D01*
X0491866Y0037181D01*
X0491104Y0037181D01*
X0491104Y0036419D01*
X0491866Y0036419D01*
X0491866Y0037181D01*
X0497428Y0037181D01*
X0497428Y0038566D02*
X0516921Y0038566D01*
X0516921Y0040164D02*
X0497428Y0040164D01*
X0497273Y0041763D02*
X0516921Y0041763D01*
X0516921Y0043361D02*
X0496618Y0043361D01*
X0495242Y0044960D02*
X0516921Y0044960D01*
X0516921Y0046558D02*
X0463967Y0046558D01*
X0465418Y0044960D02*
X0468011Y0044960D01*
X0466617Y0043361D02*
X0465800Y0043361D01*
X0465800Y0041763D02*
X0465955Y0041763D01*
X0462600Y0040200D02*
X0469000Y0033800D01*
X0470600Y0033800D01*
X0472200Y0035400D01*
X0471800Y0036800D01*
X0477743Y0036967D02*
X0491104Y0036967D01*
X0491104Y0037181D02*
X0485542Y0037181D01*
X0485542Y0040811D01*
X0485688Y0041735D01*
X0485977Y0042625D01*
X0486402Y0043458D01*
X0486952Y0044215D01*
X0487613Y0044877D01*
X0488370Y0045426D01*
X0489204Y0045851D01*
X0490093Y0046140D01*
X0491017Y0046287D01*
X0491104Y0046287D01*
X0491104Y0037181D01*
X0491866Y0036967D02*
X0516921Y0036967D01*
X0516921Y0048157D02*
X0462369Y0048157D01*
X0460770Y0049755D02*
X0516921Y0049755D01*
X0516921Y0051354D02*
X0459172Y0051354D01*
X0457573Y0052952D02*
X0516921Y0052952D01*
X0516921Y0054551D02*
X0455975Y0054551D01*
X0454376Y0056149D02*
X0516921Y0056149D01*
X0516921Y0057748D02*
X0452778Y0057748D01*
X0451179Y0059346D02*
X0516921Y0059346D01*
X0516921Y0060945D02*
X0449581Y0060945D01*
X0447982Y0062543D02*
X0516921Y0062543D01*
X0516921Y0064142D02*
X0446384Y0064142D01*
X0444785Y0065740D02*
X0516921Y0065740D01*
X0516921Y0067339D02*
X0443187Y0067339D01*
X0441588Y0068937D02*
X0516921Y0068937D01*
X0516921Y0070536D02*
X0439989Y0070536D01*
X0438391Y0072134D02*
X0516921Y0072134D01*
X0516921Y0073733D02*
X0436792Y0073733D01*
X0435194Y0075332D02*
X0516921Y0075332D01*
X0516921Y0076930D02*
X0433595Y0076930D01*
X0431997Y0078529D02*
X0516921Y0078529D01*
X0516921Y0080127D02*
X0429813Y0080127D01*
X0429000Y0077000D02*
X0462600Y0043400D01*
X0462600Y0040200D01*
X0459400Y0040164D02*
X0458058Y0040164D01*
X0458058Y0038566D02*
X0459813Y0038566D01*
X0461307Y0036967D02*
X0458058Y0036967D01*
X0458058Y0035369D02*
X0462906Y0035369D01*
X0464504Y0033770D02*
X0458058Y0033770D01*
X0458058Y0032172D02*
X0465857Y0032172D01*
X0466479Y0030573D02*
X0457436Y0030573D01*
X0456238Y0028975D02*
X0467677Y0028975D01*
X0475923Y0028975D02*
X0487362Y0028975D01*
X0486182Y0030573D02*
X0477121Y0030573D01*
X0477743Y0032172D02*
X0485639Y0032172D01*
X0485542Y0033770D02*
X0477743Y0033770D01*
X0477743Y0035369D02*
X0485542Y0035369D01*
X0485542Y0038566D02*
X0477743Y0038566D01*
X0477743Y0040164D02*
X0485542Y0040164D01*
X0485697Y0041763D02*
X0477645Y0041763D01*
X0476983Y0043361D02*
X0486352Y0043361D01*
X0487728Y0044960D02*
X0475589Y0044960D01*
X0491104Y0044960D02*
X0491866Y0044960D01*
X0491866Y0043361D02*
X0491104Y0043361D01*
X0491104Y0041763D02*
X0491866Y0041763D01*
X0491866Y0040164D02*
X0491104Y0040164D01*
X0491104Y0038566D02*
X0491866Y0038566D01*
X0491866Y0035369D02*
X0491104Y0035369D01*
X0491104Y0033770D02*
X0491866Y0033770D01*
X0491866Y0032172D02*
X0491104Y0032172D01*
X0491104Y0030573D02*
X0491866Y0030573D01*
X0491866Y0028975D02*
X0491104Y0028975D01*
X0459400Y0041763D02*
X0457960Y0041763D01*
X0458113Y0043361D02*
X0457298Y0043361D01*
X0456515Y0044960D02*
X0455904Y0044960D01*
X0454916Y0046558D02*
X0412767Y0046558D01*
X0411169Y0048157D02*
X0453318Y0048157D01*
X0451719Y0049755D02*
X0409570Y0049755D01*
X0407972Y0051354D02*
X0450121Y0051354D01*
X0448522Y0052952D02*
X0406373Y0052952D01*
X0405000Y0054551D02*
X0446924Y0054551D01*
X0445325Y0056149D02*
X0405000Y0056149D01*
X0405000Y0057748D02*
X0443727Y0057748D01*
X0442128Y0059346D02*
X0405000Y0059346D01*
X0405000Y0060945D02*
X0440530Y0060945D01*
X0438931Y0062543D02*
X0415604Y0062543D01*
X0415513Y0062452D02*
X0416148Y0063087D01*
X0416675Y0063813D01*
X0417082Y0064612D01*
X0417360Y0065465D01*
X0417500Y0066351D01*
X0417500Y0066500D01*
X0412100Y0066500D01*
X0412100Y0061100D01*
X0412249Y0061100D01*
X0413135Y0061240D01*
X0413988Y0061518D01*
X0414787Y0061925D01*
X0415513Y0062452D01*
X0416843Y0064142D02*
X0437333Y0064142D01*
X0435734Y0065740D02*
X0417403Y0065740D01*
X0417500Y0067100D02*
X0412100Y0067100D01*
X0412100Y0072500D01*
X0412249Y0072500D01*
X0413135Y0072360D01*
X0413988Y0072082D01*
X0414787Y0071675D01*
X0415513Y0071148D01*
X0416148Y0070513D01*
X0416675Y0069787D01*
X0417082Y0068988D01*
X0417360Y0068135D01*
X0417500Y0067249D01*
X0417500Y0067100D01*
X0417486Y0067339D02*
X0434136Y0067339D01*
X0432537Y0068937D02*
X0417099Y0068937D01*
X0416125Y0070536D02*
X0430939Y0070536D01*
X0429340Y0072134D02*
X0413828Y0072134D01*
X0412100Y0072134D02*
X0411500Y0072134D01*
X0411500Y0070536D02*
X0412100Y0070536D01*
X0412100Y0068937D02*
X0411500Y0068937D01*
X0411500Y0067339D02*
X0412100Y0067339D01*
X0412100Y0065740D02*
X0411500Y0065740D01*
X0411500Y0064142D02*
X0412100Y0064142D01*
X0412100Y0062543D02*
X0411500Y0062543D01*
X0407996Y0062543D02*
X0405604Y0062543D01*
X0397996Y0062543D02*
X0395604Y0062543D01*
X0387996Y0062543D02*
X0385604Y0062543D01*
X0382100Y0062543D02*
X0381500Y0062543D01*
X0381500Y0064142D02*
X0382100Y0064142D01*
X0382100Y0065740D02*
X0381500Y0065740D01*
X0381500Y0067339D02*
X0382100Y0067339D01*
X0382100Y0068937D02*
X0381500Y0068937D01*
X0381500Y0070536D02*
X0382100Y0070536D01*
X0382100Y0072134D02*
X0381500Y0072134D01*
X0379772Y0072134D02*
X0379060Y0072134D01*
X0377475Y0070536D02*
X0377461Y0070536D01*
X0373000Y0070600D02*
X0373000Y0067400D01*
X0371800Y0066800D01*
X0373000Y0070600D02*
X0379400Y0077000D01*
X0429000Y0077000D01*
X0427741Y0073733D02*
X0380658Y0073733D01*
X0383828Y0072134D02*
X0389784Y0072134D01*
X0387475Y0070536D02*
X0386125Y0070536D01*
X0393816Y0072134D02*
X0399784Y0072134D01*
X0397475Y0070536D02*
X0396125Y0070536D01*
X0401800Y0066800D02*
X0401800Y0053000D01*
X0411400Y0043400D01*
X0411400Y0037000D01*
X0411800Y0036800D01*
X0417743Y0036967D02*
X0431104Y0036967D01*
X0431104Y0037181D02*
X0431104Y0036419D01*
X0431866Y0036419D01*
X0431866Y0037181D01*
X0431104Y0037181D01*
X0425542Y0037181D01*
X0425542Y0040811D01*
X0425688Y0041735D01*
X0425977Y0042625D01*
X0426402Y0043458D01*
X0426952Y0044215D01*
X0427613Y0044877D01*
X0428370Y0045426D01*
X0429204Y0045851D01*
X0430093Y0046140D01*
X0431017Y0046287D01*
X0431104Y0046287D01*
X0431104Y0037181D01*
X0431866Y0037181D02*
X0431866Y0046287D01*
X0431953Y0046287D01*
X0432877Y0046140D01*
X0433766Y0045851D01*
X0434600Y0045426D01*
X0435357Y0044877D01*
X0436018Y0044215D01*
X0436568Y0043458D01*
X0436993Y0042625D01*
X0437282Y0041735D01*
X0437428Y0040811D01*
X0437428Y0037181D01*
X0431866Y0037181D01*
X0431866Y0036967D02*
X0446172Y0036967D01*
X0446172Y0035369D02*
X0437428Y0035369D01*
X0437428Y0033770D02*
X0446172Y0033770D01*
X0446172Y0032172D02*
X0437331Y0032172D01*
X0436788Y0030573D02*
X0446793Y0030573D01*
X0447992Y0028975D02*
X0435608Y0028975D01*
X0431866Y0028975D02*
X0431104Y0028975D01*
X0431104Y0030573D02*
X0431866Y0030573D01*
X0431866Y0032172D02*
X0431104Y0032172D01*
X0431104Y0033770D02*
X0431866Y0033770D01*
X0431866Y0035369D02*
X0431104Y0035369D01*
X0431104Y0038566D02*
X0431866Y0038566D01*
X0431866Y0040164D02*
X0431104Y0040164D01*
X0431104Y0041763D02*
X0431866Y0041763D01*
X0431866Y0043361D02*
X0431104Y0043361D01*
X0431104Y0044960D02*
X0431866Y0044960D01*
X0435242Y0044960D02*
X0448326Y0044960D01*
X0446932Y0043361D02*
X0436618Y0043361D01*
X0437273Y0041763D02*
X0446270Y0041763D01*
X0446172Y0040164D02*
X0437428Y0040164D01*
X0437428Y0038566D02*
X0446172Y0038566D01*
X0427728Y0044960D02*
X0415589Y0044960D01*
X0416983Y0043361D02*
X0426352Y0043361D01*
X0425697Y0041763D02*
X0417645Y0041763D01*
X0417743Y0040164D02*
X0425542Y0040164D01*
X0425542Y0038566D02*
X0417743Y0038566D01*
X0417743Y0035369D02*
X0425542Y0035369D01*
X0425542Y0033770D02*
X0417743Y0033770D01*
X0417743Y0032172D02*
X0425639Y0032172D01*
X0426182Y0030573D02*
X0417121Y0030573D01*
X0415923Y0028975D02*
X0427362Y0028975D01*
X0407677Y0028975D02*
X0396238Y0028975D01*
X0397436Y0030573D02*
X0406479Y0030573D01*
X0405857Y0032172D02*
X0398058Y0032172D01*
X0398058Y0033770D02*
X0405857Y0033770D01*
X0405857Y0035369D02*
X0398058Y0035369D01*
X0398058Y0036967D02*
X0405857Y0036967D01*
X0405857Y0038566D02*
X0398058Y0038566D01*
X0398058Y0040164D02*
X0405857Y0040164D01*
X0405955Y0041763D02*
X0397960Y0041763D01*
X0397298Y0043361D02*
X0406617Y0043361D01*
X0405315Y0044960D02*
X0395904Y0044960D01*
X0388326Y0044960D02*
X0375242Y0044960D01*
X0375357Y0044877D02*
X0374600Y0045426D01*
X0373766Y0045851D01*
X0372877Y0046140D01*
X0371953Y0046287D01*
X0371866Y0046287D01*
X0371866Y0037181D01*
X0371104Y0037181D01*
X0371104Y0036419D01*
X0371866Y0036419D01*
X0371866Y0037181D01*
X0377428Y0037181D01*
X0377428Y0040811D01*
X0377282Y0041735D01*
X0376993Y0042625D01*
X0376568Y0043458D01*
X0376018Y0044215D01*
X0375357Y0044877D01*
X0376618Y0043361D02*
X0386932Y0043361D01*
X0386270Y0041763D02*
X0377273Y0041763D01*
X0377428Y0040164D02*
X0386172Y0040164D01*
X0386172Y0038566D02*
X0377428Y0038566D01*
X0377428Y0035369D02*
X0386172Y0035369D01*
X0386172Y0036967D02*
X0371866Y0036967D01*
X0371104Y0036967D02*
X0357743Y0036967D01*
X0357743Y0035369D02*
X0365542Y0035369D01*
X0365542Y0033770D02*
X0357743Y0033770D01*
X0357743Y0032172D02*
X0365639Y0032172D01*
X0366182Y0030573D02*
X0357121Y0030573D01*
X0355923Y0028975D02*
X0367362Y0028975D01*
X0371104Y0028975D02*
X0371866Y0028975D01*
X0371866Y0030573D02*
X0371104Y0030573D01*
X0371104Y0032172D02*
X0371866Y0032172D01*
X0371866Y0033770D02*
X0371104Y0033770D01*
X0371104Y0035369D02*
X0371866Y0035369D01*
X0371104Y0037181D02*
X0365542Y0037181D01*
X0365542Y0040811D01*
X0365688Y0041735D01*
X0365977Y0042625D01*
X0366402Y0043458D01*
X0366952Y0044215D01*
X0367613Y0044877D01*
X0368370Y0045426D01*
X0369204Y0045851D01*
X0370093Y0046140D01*
X0371017Y0046287D01*
X0371104Y0046287D01*
X0371104Y0037181D01*
X0371104Y0038566D02*
X0371866Y0038566D01*
X0371866Y0040164D02*
X0371104Y0040164D01*
X0371104Y0041763D02*
X0371866Y0041763D01*
X0371866Y0043361D02*
X0371104Y0043361D01*
X0371104Y0044960D02*
X0371866Y0044960D01*
X0367728Y0044960D02*
X0355589Y0044960D01*
X0356983Y0043361D02*
X0366352Y0043361D01*
X0365697Y0041763D02*
X0357645Y0041763D01*
X0357743Y0040164D02*
X0365542Y0040164D01*
X0365542Y0038566D02*
X0357743Y0038566D01*
X0348011Y0044960D02*
X0335904Y0044960D01*
X0337298Y0043361D02*
X0346617Y0043361D01*
X0345955Y0041763D02*
X0337960Y0041763D01*
X0338058Y0040164D02*
X0345857Y0040164D01*
X0345857Y0038566D02*
X0338058Y0038566D01*
X0338058Y0036967D02*
X0345857Y0036967D01*
X0345857Y0035369D02*
X0338058Y0035369D01*
X0338058Y0033770D02*
X0345857Y0033770D01*
X0345857Y0032172D02*
X0338058Y0032172D01*
X0337436Y0030573D02*
X0346479Y0030573D01*
X0347677Y0028975D02*
X0336238Y0028975D01*
X0327992Y0028975D02*
X0315608Y0028975D01*
X0316788Y0030573D02*
X0326793Y0030573D01*
X0326172Y0032172D02*
X0317331Y0032172D01*
X0317428Y0033770D02*
X0326172Y0033770D01*
X0332115Y0036800D02*
X0316800Y0052115D01*
X0316800Y0081800D01*
X0320000Y0076930D02*
X0324081Y0076930D01*
X0322483Y0075332D02*
X0320000Y0075332D01*
X0320000Y0073733D02*
X0321250Y0073733D01*
X0321250Y0072134D02*
X0320000Y0072134D01*
X0320000Y0070536D02*
X0321250Y0070536D01*
X0321814Y0068937D02*
X0320000Y0068937D01*
X0320000Y0067339D02*
X0323412Y0067339D01*
X0331786Y0068937D02*
X0346100Y0068937D01*
X0346140Y0070536D02*
X0332350Y0070536D01*
X0332350Y0072134D02*
X0347225Y0072134D01*
X0351500Y0072134D02*
X0352100Y0072134D01*
X0352100Y0070536D02*
X0351500Y0070536D01*
X0351500Y0068937D02*
X0352100Y0068937D01*
X0352100Y0067339D02*
X0351500Y0067339D01*
X0351500Y0065740D02*
X0352100Y0065740D01*
X0352100Y0064142D02*
X0351500Y0064142D01*
X0351500Y0062543D02*
X0352100Y0062543D01*
X0357302Y0062543D02*
X0357996Y0062543D01*
X0365604Y0062543D02*
X0367996Y0062543D01*
X0375604Y0062543D02*
X0377996Y0062543D01*
X0369784Y0072134D02*
X0363816Y0072134D01*
X0366125Y0070536D02*
X0367475Y0070536D01*
X0371608Y0073733D02*
X0332350Y0073733D01*
X0331117Y0075332D02*
X0373206Y0075332D01*
X0359784Y0072134D02*
X0356375Y0072134D01*
X0357460Y0070536D02*
X0357475Y0070536D01*
X0395976Y0092915D02*
X0397624Y0092915D01*
X0404640Y0104105D02*
X0516921Y0104105D01*
X0516921Y0105703D02*
X0403222Y0105703D01*
X0401624Y0107302D02*
X0516921Y0107302D01*
X0516921Y0108900D02*
X0400025Y0108900D01*
X0398427Y0110499D02*
X0516921Y0110499D01*
X0516921Y0112097D02*
X0396828Y0112097D01*
X0395230Y0113696D02*
X0516921Y0113696D01*
X0516921Y0115294D02*
X0393631Y0115294D01*
X0391495Y0116893D02*
X0516921Y0116893D01*
X0516921Y0118491D02*
X0307234Y0118491D01*
X0305636Y0120090D02*
X0349074Y0120090D01*
X0345979Y0121688D02*
X0338832Y0121688D01*
X0341065Y0123287D02*
X0344381Y0123287D01*
X0343436Y0124885D02*
X0341960Y0124885D01*
X0342300Y0126484D02*
X0342774Y0126484D01*
X0342479Y0128082D02*
X0342222Y0128082D01*
X0342479Y0129681D02*
X0341560Y0129681D01*
X0342634Y0131279D02*
X0340099Y0131279D01*
X0333501Y0131279D02*
X0330099Y0131279D01*
X0331560Y0129681D02*
X0332040Y0129681D01*
X0332535Y0123287D02*
X0331065Y0123287D01*
X0328832Y0121688D02*
X0334768Y0121688D01*
X0324768Y0121688D02*
X0318832Y0121688D01*
X0321065Y0123287D02*
X0322535Y0123287D01*
X0314768Y0121688D02*
X0308832Y0121688D01*
X0311065Y0123287D02*
X0312535Y0123287D01*
X0304768Y0121688D02*
X0304037Y0121688D01*
X0302535Y0123287D02*
X0302439Y0123287D01*
X0302040Y0129681D02*
X0301560Y0129681D01*
X0300099Y0131279D02*
X0303501Y0131279D01*
X0310099Y0131279D02*
X0313501Y0131279D01*
X0312040Y0129681D02*
X0311560Y0129681D01*
X0320099Y0131279D02*
X0323501Y0131279D01*
X0322040Y0129681D02*
X0321560Y0129681D01*
X0294976Y0110499D02*
X0228624Y0110499D01*
X0227026Y0108900D02*
X0296574Y0108900D01*
X0293377Y0112097D02*
X0230223Y0112097D01*
X0231821Y0113696D02*
X0291779Y0113696D01*
X0290180Y0115294D02*
X0233420Y0115294D01*
X0235018Y0116893D02*
X0288582Y0116893D01*
X0286983Y0118491D02*
X0236617Y0118491D01*
X0238155Y0120090D02*
X0285445Y0120090D01*
X0284768Y0121688D02*
X0278832Y0121688D01*
X0281065Y0123287D02*
X0282535Y0123287D01*
X0274768Y0121688D02*
X0268832Y0121688D01*
X0271065Y0123287D02*
X0272535Y0123287D01*
X0272040Y0129681D02*
X0271560Y0129681D01*
X0270099Y0131279D02*
X0273501Y0131279D01*
X0280099Y0131279D02*
X0283501Y0131279D01*
X0282040Y0129681D02*
X0281560Y0129681D01*
X0263501Y0131279D02*
X0260099Y0131279D01*
X0261560Y0129681D02*
X0262040Y0129681D01*
X0262535Y0123287D02*
X0261065Y0123287D01*
X0258832Y0121688D02*
X0264768Y0121688D01*
X0254768Y0121688D02*
X0248832Y0121688D01*
X0251065Y0123287D02*
X0252535Y0123287D01*
X0252040Y0129681D02*
X0251560Y0129681D01*
X0250099Y0131279D02*
X0253501Y0131279D01*
X0243501Y0131279D02*
X0240099Y0131279D01*
X0241560Y0129681D02*
X0242040Y0129681D01*
X0236800Y0126800D02*
X0235400Y0126600D01*
X0235400Y0121800D01*
X0238832Y0121688D02*
X0244768Y0121688D01*
X0242535Y0123287D02*
X0241065Y0123287D01*
X0232040Y0129681D02*
X0231560Y0129681D01*
X0230099Y0131279D02*
X0233501Y0131279D01*
X0216886Y0121688D02*
X0216714Y0121688D01*
X0214734Y0121688D02*
X0208832Y0121688D01*
X0211065Y0123287D02*
X0212554Y0123287D01*
X0216366Y0118491D02*
X0143817Y0118491D01*
X0142218Y0116893D02*
X0214767Y0116893D01*
X0204768Y0121688D02*
X0198832Y0121688D01*
X0201065Y0123287D02*
X0202535Y0123287D01*
X0194768Y0121688D02*
X0188832Y0121688D01*
X0191065Y0123287D02*
X0192535Y0123287D01*
X0192040Y0129681D02*
X0191560Y0129681D01*
X0190099Y0131279D02*
X0193501Y0131279D01*
X0200099Y0131279D02*
X0203501Y0131279D01*
X0202040Y0129681D02*
X0201560Y0129681D01*
X0210099Y0131279D02*
X0213608Y0131279D01*
X0212095Y0129681D02*
X0211560Y0129681D01*
X0177510Y0139272D02*
X0516921Y0139272D01*
X0516921Y0140870D02*
X0174260Y0140870D01*
X0117000Y0156856D02*
X0116600Y0156856D01*
X0116600Y0158454D02*
X0117000Y0158454D01*
X0117000Y0160053D02*
X0116600Y0160053D01*
X0111609Y0156856D02*
X0053210Y0156856D01*
X0054417Y0158454D02*
X0109556Y0158454D01*
X0116800Y0171800D02*
X0102600Y0186000D01*
X0102600Y0243400D01*
X0091800Y0254200D01*
X0091800Y0256800D01*
X0100956Y0249569D02*
X0253505Y0249569D01*
X0255104Y0247971D02*
X0102555Y0247971D01*
X0104153Y0246372D02*
X0256702Y0246372D01*
X0258301Y0244774D02*
X0105495Y0244774D01*
X0105800Y0243175D02*
X0259899Y0243175D01*
X0261498Y0241577D02*
X0174923Y0241577D01*
X0174787Y0241675D02*
X0173988Y0242082D01*
X0173135Y0242360D01*
X0172249Y0242500D01*
X0172100Y0242500D01*
X0172100Y0237100D01*
X0177500Y0237100D01*
X0177500Y0237249D01*
X0177360Y0238135D01*
X0177082Y0238988D01*
X0176675Y0239787D01*
X0176148Y0240513D01*
X0175513Y0241148D01*
X0174787Y0241675D01*
X0176536Y0239978D02*
X0263096Y0239978D01*
X0264695Y0238380D02*
X0177280Y0238380D01*
X0177500Y0236500D02*
X0172100Y0236500D01*
X0172100Y0231100D01*
X0172249Y0231100D01*
X0173135Y0231240D01*
X0173988Y0231518D01*
X0174787Y0231925D01*
X0175513Y0232452D01*
X0176148Y0233087D01*
X0176675Y0233813D01*
X0177082Y0234612D01*
X0177360Y0235465D01*
X0177500Y0236351D01*
X0177500Y0236500D01*
X0177268Y0235183D02*
X0267892Y0235183D01*
X0266293Y0236781D02*
X0172100Y0236781D01*
X0172100Y0235183D02*
X0171500Y0235183D01*
X0171500Y0233584D02*
X0172100Y0233584D01*
X0172100Y0231986D02*
X0171500Y0231986D01*
X0168729Y0231986D02*
X0165047Y0231986D01*
X0166638Y0233584D02*
X0167091Y0233584D01*
X0167064Y0239978D02*
X0166653Y0239978D01*
X0165084Y0241577D02*
X0168677Y0241577D01*
X0171500Y0241577D02*
X0172100Y0241577D01*
X0172100Y0239978D02*
X0171500Y0239978D01*
X0171500Y0238380D02*
X0172100Y0238380D01*
X0176509Y0233584D02*
X0269490Y0233584D01*
X0271089Y0231986D02*
X0174871Y0231986D01*
X0158553Y0231986D02*
X0155047Y0231986D01*
X0156638Y0233584D02*
X0156962Y0233584D01*
X0156947Y0239978D02*
X0156653Y0239978D01*
X0155084Y0241577D02*
X0158516Y0241577D01*
X0148516Y0241577D02*
X0144923Y0241577D01*
X0146536Y0239978D02*
X0146947Y0239978D01*
X0142100Y0239978D02*
X0141500Y0239978D01*
X0141500Y0238380D02*
X0142100Y0238380D01*
X0142100Y0241577D02*
X0141500Y0241577D01*
X0138677Y0241577D02*
X0135084Y0241577D01*
X0136653Y0239978D02*
X0137064Y0239978D01*
X0137091Y0233584D02*
X0136638Y0233584D01*
X0135047Y0231986D02*
X0138729Y0231986D01*
X0141500Y0231986D02*
X0142100Y0231986D01*
X0142100Y0233584D02*
X0141500Y0233584D01*
X0141500Y0235183D02*
X0142100Y0235183D01*
X0144871Y0231986D02*
X0148553Y0231986D01*
X0146962Y0233584D02*
X0146509Y0233584D01*
X0128553Y0231986D02*
X0128140Y0231986D01*
X0126962Y0233584D02*
X0126638Y0233584D01*
X0121800Y0236800D02*
X0121800Y0237000D01*
X0120200Y0235400D01*
X0128200Y0227400D01*
X0249800Y0227400D01*
X0265800Y0211400D01*
X0265800Y0208200D01*
X0266800Y0206800D01*
X0268652Y0201614D02*
X0274948Y0201614D01*
X0272609Y0203212D02*
X0270991Y0203212D01*
X0271591Y0209606D02*
X0272009Y0209606D01*
X0273427Y0211205D02*
X0270173Y0211205D01*
X0268682Y0212803D02*
X0290271Y0212803D01*
X0290173Y0211205D02*
X0291870Y0211205D01*
X0292009Y0209606D02*
X0291591Y0209606D01*
X0296800Y0206800D02*
X0297800Y0208200D01*
X0297800Y0209800D01*
X0254800Y0252800D01*
X0142800Y0252800D01*
X0142564Y0257562D02*
X0323189Y0257562D01*
X0321591Y0259160D02*
X0140965Y0259160D01*
X0139367Y0260759D02*
X0321250Y0260759D01*
X0330411Y0257562D02*
X0353836Y0257562D01*
X0352238Y0255963D02*
X0255525Y0255963D01*
X0257761Y0254365D02*
X0350639Y0254365D01*
X0349041Y0252766D02*
X0259359Y0252766D01*
X0260958Y0251168D02*
X0347442Y0251168D01*
X0345844Y0249569D02*
X0262556Y0249569D01*
X0264155Y0247971D02*
X0344245Y0247971D01*
X0342647Y0246372D02*
X0330077Y0246372D01*
X0329099Y0247350D02*
X0332350Y0244099D01*
X0332350Y0241800D01*
X0326800Y0241800D01*
X0326800Y0241800D01*
X0326800Y0247350D01*
X0329099Y0247350D01*
X0326800Y0247350D02*
X0324501Y0247350D01*
X0321250Y0244099D01*
X0321250Y0241800D01*
X0326800Y0241800D01*
X0326800Y0241800D01*
X0326800Y0241800D01*
X0326800Y0247350D01*
X0326800Y0246372D02*
X0326800Y0246372D01*
X0326800Y0244774D02*
X0326800Y0244774D01*
X0326800Y0243175D02*
X0326800Y0243175D01*
X0326800Y0241800D02*
X0321250Y0241800D01*
X0321250Y0239501D01*
X0324501Y0236250D01*
X0326800Y0236250D01*
X0329099Y0236250D01*
X0332350Y0239501D01*
X0332350Y0241800D01*
X0326800Y0241800D01*
X0326800Y0236250D01*
X0326800Y0241800D01*
X0326800Y0241800D01*
X0326800Y0241577D02*
X0326800Y0241577D01*
X0326800Y0239978D02*
X0326800Y0239978D01*
X0326800Y0238380D02*
X0326800Y0238380D01*
X0326800Y0236781D02*
X0326800Y0236781D01*
X0329630Y0236781D02*
X0339400Y0236781D01*
X0339400Y0235183D02*
X0276943Y0235183D01*
X0275344Y0236781D02*
X0323970Y0236781D01*
X0322371Y0238380D02*
X0273746Y0238380D01*
X0272147Y0239978D02*
X0321250Y0239978D01*
X0321250Y0241577D02*
X0270549Y0241577D01*
X0268950Y0243175D02*
X0321250Y0243175D01*
X0321925Y0244774D02*
X0267352Y0244774D01*
X0265753Y0246372D02*
X0323523Y0246372D01*
X0331675Y0244774D02*
X0341048Y0244774D01*
X0339706Y0243175D02*
X0332350Y0243175D01*
X0332350Y0241577D02*
X0339400Y0241577D01*
X0339400Y0239978D02*
X0332350Y0239978D01*
X0331229Y0238380D02*
X0339400Y0238380D01*
X0342600Y0241800D02*
X0358600Y0257800D01*
X0365000Y0257800D01*
X0371400Y0264200D01*
X0369800Y0265800D01*
X0371400Y0267400D01*
X0371800Y0266800D01*
X0375418Y0262357D02*
X0378182Y0262357D01*
X0376808Y0263956D02*
X0376792Y0263956D01*
X0379916Y0260759D02*
X0372484Y0260759D01*
X0370886Y0259160D02*
X0381514Y0259160D01*
X0383113Y0257562D02*
X0369287Y0257562D01*
X0367689Y0255963D02*
X0384711Y0255963D01*
X0395383Y0262357D02*
X0398182Y0262357D01*
X0396808Y0263956D02*
X0396748Y0263956D01*
X0396266Y0270350D02*
X0397289Y0270350D01*
X0389349Y0271948D02*
X0384265Y0271948D01*
X0386311Y0270350D02*
X0387334Y0270350D01*
X0379335Y0271948D02*
X0374265Y0271948D01*
X0376311Y0270350D02*
X0377289Y0270350D01*
X0369335Y0271948D02*
X0364251Y0271948D01*
X0362100Y0271948D02*
X0361500Y0271948D01*
X0361500Y0270350D02*
X0362100Y0270350D01*
X0362100Y0268751D02*
X0361500Y0268751D01*
X0361500Y0267153D02*
X0362100Y0267153D01*
X0362100Y0265554D02*
X0361500Y0265554D01*
X0361500Y0263956D02*
X0362100Y0263956D01*
X0362100Y0262357D02*
X0361500Y0262357D01*
X0358217Y0262357D02*
X0355418Y0262357D01*
X0356792Y0263956D02*
X0356852Y0263956D01*
X0357381Y0260759D02*
X0350284Y0260759D01*
X0348686Y0259160D02*
X0355435Y0259160D01*
X0346029Y0265554D02*
X0330894Y0265554D01*
X0329296Y0267153D02*
X0346100Y0267153D01*
X0354265Y0271948D02*
X0359349Y0271948D01*
X0357334Y0270350D02*
X0356311Y0270350D01*
X0366266Y0270350D02*
X0367289Y0270350D01*
X0370303Y0287313D02*
X0372667Y0287313D01*
X0374852Y0288218D01*
X0376524Y0289890D01*
X0377428Y0292074D01*
X0377428Y0301526D01*
X0376524Y0303710D01*
X0374852Y0305382D01*
X0372667Y0306287D01*
X0370303Y0306287D01*
X0368118Y0305382D01*
X0366447Y0303710D01*
X0365542Y0301526D01*
X0365542Y0292074D01*
X0366447Y0289890D01*
X0368118Y0288218D01*
X0370303Y0287313D01*
X0368806Y0287934D02*
X0354479Y0287934D01*
X0355167Y0288218D02*
X0356838Y0289890D01*
X0357743Y0292074D01*
X0357743Y0301526D01*
X0356838Y0303710D01*
X0355167Y0305382D01*
X0352982Y0306287D01*
X0350618Y0306287D01*
X0348433Y0305382D01*
X0346762Y0303710D01*
X0345857Y0301526D01*
X0345857Y0292074D01*
X0346762Y0289890D01*
X0348433Y0288218D01*
X0350618Y0287313D01*
X0352982Y0287313D01*
X0355167Y0288218D01*
X0356480Y0289532D02*
X0366805Y0289532D01*
X0365933Y0291131D02*
X0357352Y0291131D01*
X0357743Y0292729D02*
X0365542Y0292729D01*
X0365542Y0294328D02*
X0357743Y0294328D01*
X0357743Y0295926D02*
X0365542Y0295926D01*
X0365542Y0297525D02*
X0357743Y0297525D01*
X0357743Y0299123D02*
X0365542Y0299123D01*
X0365542Y0300722D02*
X0357743Y0300722D01*
X0357414Y0302320D02*
X0365871Y0302320D01*
X0366655Y0303919D02*
X0356630Y0303919D01*
X0354840Y0305517D02*
X0368445Y0305517D01*
X0374525Y0305517D02*
X0389178Y0305517D01*
X0387366Y0303919D02*
X0376315Y0303919D01*
X0377099Y0302320D02*
X0386508Y0302320D01*
X0386172Y0300722D02*
X0377428Y0300722D01*
X0377428Y0299123D02*
X0386172Y0299123D01*
X0386172Y0297525D02*
X0377428Y0297525D01*
X0377428Y0295926D02*
X0386172Y0295926D01*
X0386172Y0294328D02*
X0377428Y0294328D01*
X0377428Y0292729D02*
X0386181Y0292729D01*
X0386557Y0291131D02*
X0377037Y0291131D01*
X0376165Y0289532D02*
X0387475Y0289532D01*
X0389471Y0287934D02*
X0374164Y0287934D01*
X0349121Y0287934D02*
X0334759Y0287934D01*
X0334396Y0287749D02*
X0335230Y0288174D01*
X0335987Y0288723D01*
X0336648Y0289385D01*
X0337198Y0290142D01*
X0337623Y0290975D01*
X0337912Y0291865D01*
X0338058Y0292789D01*
X0338058Y0296419D01*
X0332496Y0296419D01*
X0332496Y0297181D01*
X0338058Y0297181D01*
X0338058Y0300811D01*
X0337912Y0301735D01*
X0337623Y0302625D01*
X0337198Y0303458D01*
X0336648Y0304215D01*
X0335987Y0304877D01*
X0335230Y0305426D01*
X0334396Y0305851D01*
X0333507Y0306140D01*
X0332583Y0306287D01*
X0332496Y0306287D01*
X0332496Y0297181D01*
X0331734Y0297181D01*
X0331734Y0306287D01*
X0331647Y0306287D01*
X0330723Y0306140D01*
X0329834Y0305851D01*
X0329000Y0305426D01*
X0328243Y0304877D01*
X0327582Y0304215D01*
X0327032Y0303458D01*
X0326607Y0302625D01*
X0326318Y0301735D01*
X0326172Y0300811D01*
X0326172Y0297181D01*
X0331734Y0297181D01*
X0331734Y0296419D01*
X0332496Y0296419D01*
X0332496Y0287313D01*
X0332583Y0287313D01*
X0333507Y0287460D01*
X0334396Y0287749D01*
X0332496Y0287934D02*
X0331734Y0287934D01*
X0331734Y0287313D02*
X0331734Y0296419D01*
X0326172Y0296419D01*
X0326172Y0292789D01*
X0326318Y0291865D01*
X0326607Y0290975D01*
X0327032Y0290142D01*
X0327582Y0289385D01*
X0328243Y0288723D01*
X0329000Y0288174D01*
X0329834Y0287749D01*
X0330723Y0287460D01*
X0331647Y0287313D01*
X0331734Y0287313D01*
X0331734Y0289532D02*
X0332496Y0289532D01*
X0332496Y0291131D02*
X0331734Y0291131D01*
X0331734Y0292729D02*
X0332496Y0292729D01*
X0332496Y0294328D02*
X0331734Y0294328D01*
X0331734Y0295926D02*
X0332496Y0295926D01*
X0332496Y0297525D02*
X0331734Y0297525D01*
X0331734Y0299123D02*
X0332496Y0299123D01*
X0332496Y0300722D02*
X0331734Y0300722D01*
X0331734Y0302320D02*
X0332496Y0302320D01*
X0332496Y0303919D02*
X0331734Y0303919D01*
X0331734Y0305517D02*
X0332496Y0305517D01*
X0335052Y0305517D02*
X0348760Y0305517D01*
X0346970Y0303919D02*
X0336864Y0303919D01*
X0337722Y0302320D02*
X0346186Y0302320D01*
X0345857Y0300722D02*
X0338058Y0300722D01*
X0338058Y0299123D02*
X0345857Y0299123D01*
X0345857Y0297525D02*
X0338058Y0297525D01*
X0338058Y0295926D02*
X0345857Y0295926D01*
X0345857Y0294328D02*
X0338058Y0294328D01*
X0338049Y0292729D02*
X0345857Y0292729D01*
X0346248Y0291131D02*
X0337673Y0291131D01*
X0336755Y0289532D02*
X0347120Y0289532D01*
X0329471Y0287934D02*
X0314685Y0287934D01*
X0316165Y0289532D02*
X0327475Y0289532D01*
X0326557Y0291131D02*
X0317037Y0291131D01*
X0317428Y0292729D02*
X0326181Y0292729D01*
X0326172Y0294328D02*
X0317428Y0294328D01*
X0317428Y0295926D02*
X0326172Y0295926D01*
X0326172Y0297525D02*
X0317428Y0297525D01*
X0317428Y0299123D02*
X0326172Y0299123D01*
X0326172Y0300722D02*
X0317428Y0300722D01*
X0317099Y0302320D02*
X0326508Y0302320D01*
X0327366Y0303919D02*
X0316315Y0303919D01*
X0314525Y0305517D02*
X0329178Y0305517D01*
X0405418Y0262357D02*
X0408182Y0262357D01*
X0406808Y0263956D02*
X0406792Y0263956D01*
X0433287Y0257562D02*
X0516921Y0257562D01*
X0516921Y0259160D02*
X0434886Y0259160D01*
X0436484Y0260759D02*
X0516921Y0260759D01*
X0516921Y0262357D02*
X0438083Y0262357D01*
X0439681Y0263956D02*
X0516921Y0263956D01*
X0516921Y0265554D02*
X0441280Y0265554D01*
X0442878Y0267153D02*
X0516921Y0267153D01*
X0516921Y0268751D02*
X0444477Y0268751D01*
X0446075Y0270350D02*
X0516921Y0270350D01*
X0516921Y0271948D02*
X0447674Y0271948D01*
X0449272Y0273547D02*
X0516921Y0273547D01*
X0516921Y0275145D02*
X0450871Y0275145D01*
X0452469Y0276744D02*
X0516921Y0276744D01*
X0516921Y0278342D02*
X0454068Y0278342D01*
X0455666Y0279941D02*
X0516921Y0279941D01*
X0516921Y0281539D02*
X0457265Y0281539D01*
X0458863Y0283138D02*
X0516921Y0283138D01*
X0516921Y0284737D02*
X0460462Y0284737D01*
X0462060Y0286335D02*
X0516921Y0286335D01*
X0516921Y0287934D02*
X0494164Y0287934D01*
X0496165Y0289532D02*
X0516921Y0289532D01*
X0516921Y0291131D02*
X0497037Y0291131D01*
X0497428Y0292729D02*
X0516921Y0292729D01*
X0516921Y0294328D02*
X0497428Y0294328D01*
X0497428Y0295926D02*
X0516921Y0295926D01*
X0516921Y0297525D02*
X0497428Y0297525D01*
X0497428Y0299123D02*
X0516921Y0299123D01*
X0516921Y0300722D02*
X0497428Y0300722D01*
X0497099Y0302320D02*
X0516921Y0302320D01*
X0516921Y0303919D02*
X0496315Y0303919D01*
X0494525Y0305517D02*
X0516921Y0305517D01*
X0516921Y0307116D02*
X0006600Y0307116D01*
X0006600Y0308714D02*
X0516921Y0308714D01*
X0516921Y0310313D02*
X0006600Y0310313D01*
X0006600Y0311911D02*
X0516921Y0311911D01*
X0516921Y0313510D02*
X0006600Y0313510D01*
X0006600Y0315108D02*
X0516921Y0315108D01*
X0516921Y0316707D02*
X0006600Y0316707D01*
X0006600Y0318305D02*
X0516921Y0318305D01*
X0516921Y0319904D02*
X0006600Y0319904D01*
X0006600Y0321502D02*
X0516921Y0321502D01*
X0516921Y0323101D02*
X0006600Y0323101D01*
X0006600Y0324699D02*
X0516921Y0324699D01*
X0485542Y0295926D02*
X0477743Y0295926D01*
X0477743Y0294328D02*
X0485542Y0294328D01*
X0485542Y0292729D02*
X0477743Y0292729D01*
X0477352Y0291131D02*
X0485933Y0291131D01*
X0486805Y0289532D02*
X0476480Y0289532D01*
X0474479Y0287934D02*
X0488806Y0287934D01*
X0469121Y0287934D02*
X0463659Y0287934D01*
X0465258Y0289532D02*
X0467120Y0289532D01*
X0466248Y0291131D02*
X0465800Y0291131D01*
X0358553Y0231986D02*
X0356975Y0231986D01*
X0352100Y0231986D02*
X0351500Y0231986D01*
X0351500Y0233584D02*
X0352100Y0233584D01*
X0352100Y0235183D02*
X0351500Y0235183D01*
X0346100Y0238380D02*
X0345800Y0238380D01*
X0345800Y0239978D02*
X0346100Y0239978D01*
X0342600Y0241800D02*
X0342600Y0213000D01*
X0337800Y0208200D01*
X0336800Y0206800D01*
X0341929Y0204811D02*
X0342479Y0204811D01*
X0342479Y0203212D02*
X0340991Y0203212D01*
X0342823Y0201614D02*
X0338652Y0201614D01*
X0334948Y0201614D02*
X0328652Y0201614D01*
X0330991Y0203212D02*
X0332609Y0203212D01*
X0324948Y0201614D02*
X0318652Y0201614D01*
X0320991Y0203212D02*
X0322609Y0203212D01*
X0314948Y0201614D02*
X0308652Y0201614D01*
X0310991Y0203212D02*
X0312609Y0203212D01*
X0304948Y0201614D02*
X0298652Y0201614D01*
X0300991Y0203212D02*
X0302609Y0203212D01*
X0294948Y0201614D02*
X0288652Y0201614D01*
X0290991Y0203212D02*
X0292609Y0203212D01*
X0284948Y0201614D02*
X0278652Y0201614D01*
X0280991Y0203212D02*
X0282609Y0203212D01*
X0282009Y0209606D02*
X0281591Y0209606D01*
X0280173Y0211205D02*
X0283427Y0211205D01*
X0287074Y0216001D02*
X0265725Y0216001D01*
X0264126Y0217599D02*
X0285475Y0217599D01*
X0283877Y0219198D02*
X0262528Y0219198D01*
X0260929Y0220796D02*
X0282278Y0220796D01*
X0280680Y0222395D02*
X0259331Y0222395D01*
X0257732Y0223993D02*
X0279081Y0223993D01*
X0277483Y0225592D02*
X0256134Y0225592D01*
X0254535Y0227190D02*
X0275884Y0227190D01*
X0274286Y0228789D02*
X0252937Y0228789D01*
X0250950Y0230387D02*
X0272687Y0230387D01*
X0278541Y0233584D02*
X0339400Y0233584D01*
X0339400Y0231986D02*
X0280140Y0231986D01*
X0281738Y0230387D02*
X0339400Y0230387D01*
X0339400Y0228789D02*
X0283337Y0228789D01*
X0284935Y0227190D02*
X0339400Y0227190D01*
X0339400Y0225592D02*
X0286534Y0225592D01*
X0288132Y0223993D02*
X0339400Y0223993D01*
X0339400Y0222395D02*
X0289731Y0222395D01*
X0291329Y0220796D02*
X0339400Y0220796D01*
X0339400Y0219198D02*
X0292928Y0219198D01*
X0294526Y0217599D02*
X0339400Y0217599D01*
X0339400Y0216001D02*
X0296125Y0216001D01*
X0297723Y0214402D02*
X0339400Y0214402D01*
X0337878Y0212803D02*
X0299322Y0212803D01*
X0300682Y0211205D02*
X0303427Y0211205D01*
X0302009Y0209606D02*
X0301591Y0209606D01*
X0310173Y0211205D02*
X0313427Y0211205D01*
X0312009Y0209606D02*
X0311591Y0209606D01*
X0320173Y0211205D02*
X0323427Y0211205D01*
X0322009Y0209606D02*
X0321591Y0209606D01*
X0330173Y0211205D02*
X0333427Y0211205D01*
X0332009Y0209606D02*
X0331591Y0209606D01*
X0342253Y0208008D02*
X0343247Y0208008D01*
X0343732Y0209606D02*
X0343924Y0209606D01*
X0345320Y0211205D02*
X0345523Y0211205D01*
X0345800Y0212803D02*
X0347972Y0212803D01*
X0342585Y0206409D02*
X0342300Y0206409D01*
X0288673Y0214402D02*
X0267323Y0214402D01*
X0261470Y0211205D02*
X0260173Y0211205D01*
X0259871Y0212803D02*
X0105800Y0212803D01*
X0105800Y0211205D02*
X0223427Y0211205D01*
X0230173Y0211205D02*
X0233427Y0211205D01*
X0232009Y0209606D02*
X0231591Y0209606D01*
X0240173Y0211205D02*
X0243427Y0211205D01*
X0242009Y0209606D02*
X0241591Y0209606D01*
X0250173Y0211205D02*
X0253427Y0211205D01*
X0252009Y0209606D02*
X0251591Y0209606D01*
X0261591Y0209606D02*
X0262009Y0209606D01*
X0258273Y0214402D02*
X0105800Y0214402D01*
X0105800Y0216001D02*
X0256674Y0216001D01*
X0255075Y0217599D02*
X0105800Y0217599D01*
X0105800Y0219198D02*
X0253477Y0219198D01*
X0251878Y0220796D02*
X0105800Y0220796D01*
X0105800Y0222395D02*
X0250280Y0222395D01*
X0248681Y0223993D02*
X0105800Y0223993D01*
X0105800Y0225592D02*
X0125483Y0225592D01*
X0123884Y0227190D02*
X0105800Y0227190D01*
X0105800Y0228789D02*
X0122286Y0228789D01*
X0120687Y0230387D02*
X0105800Y0230387D01*
X0105800Y0231986D02*
X0106625Y0231986D01*
X0106636Y0231970D02*
X0106970Y0231636D01*
X0107363Y0231373D01*
X0107800Y0231192D01*
X0108264Y0231100D01*
X0111500Y0231100D01*
X0111500Y0236500D01*
X0106100Y0236500D01*
X0106100Y0233264D01*
X0106192Y0232800D01*
X0106373Y0232363D01*
X0106636Y0231970D01*
X0106100Y0233584D02*
X0105800Y0233584D01*
X0105800Y0235183D02*
X0106100Y0235183D01*
X0105800Y0236781D02*
X0111500Y0236781D01*
X0111500Y0235183D02*
X0112100Y0235183D01*
X0112100Y0233584D02*
X0111500Y0233584D01*
X0111500Y0231986D02*
X0112100Y0231986D01*
X0116975Y0231986D02*
X0118553Y0231986D01*
X0112100Y0238380D02*
X0111500Y0238380D01*
X0111500Y0239978D02*
X0112100Y0239978D01*
X0112100Y0241577D02*
X0111500Y0241577D01*
X0106600Y0241577D02*
X0105800Y0241577D01*
X0105800Y0239978D02*
X0106100Y0239978D01*
X0106100Y0238380D02*
X0105800Y0238380D01*
X0099400Y0238380D02*
X0091229Y0238380D01*
X0092350Y0239978D02*
X0099400Y0239978D01*
X0099400Y0241577D02*
X0092350Y0241577D01*
X0092350Y0243175D02*
X0098299Y0243175D01*
X0096701Y0244774D02*
X0091675Y0244774D01*
X0089630Y0236781D02*
X0099400Y0236781D01*
X0117000Y0241577D02*
X0118516Y0241577D01*
X0125084Y0241577D02*
X0128516Y0241577D01*
X0126947Y0239978D02*
X0126653Y0239978D01*
X0122100Y0262357D02*
X0121500Y0262357D01*
X0118217Y0262357D02*
X0115418Y0262357D01*
X0116792Y0263956D02*
X0116852Y0263956D01*
X0117334Y0270350D02*
X0116311Y0270350D01*
X0114265Y0271948D02*
X0119349Y0271948D01*
X0136792Y0263956D02*
X0136808Y0263956D01*
X0137768Y0262357D02*
X0138182Y0262357D01*
X0228652Y0201614D02*
X0234948Y0201614D01*
X0232609Y0203212D02*
X0230991Y0203212D01*
X0238652Y0201614D02*
X0244948Y0201614D01*
X0242609Y0203212D02*
X0240991Y0203212D01*
X0248652Y0201614D02*
X0251488Y0201614D01*
X0250991Y0203212D02*
X0252609Y0203212D01*
X0355339Y0137673D02*
X0516921Y0137673D01*
X0516921Y0136075D02*
X0357957Y0136075D01*
X0359556Y0134476D02*
X0516921Y0134476D01*
X0516921Y0132878D02*
X0360304Y0132878D01*
X0360966Y0131279D02*
X0516921Y0131279D01*
X0516921Y0129681D02*
X0361121Y0129681D01*
X0361121Y0128082D02*
X0516921Y0128082D01*
X0516921Y0126484D02*
X0360826Y0126484D01*
X0360164Y0124885D02*
X0516921Y0124885D01*
X0516921Y0123287D02*
X0359219Y0123287D01*
X0357621Y0121688D02*
X0516921Y0121688D01*
X0516921Y0120090D02*
X0354526Y0120090D01*
X0403816Y0072134D02*
X0409772Y0072134D01*
X0407475Y0070536D02*
X0406125Y0070536D01*
X0386172Y0033770D02*
X0377428Y0033770D01*
X0377331Y0032172D02*
X0386172Y0032172D01*
X0386793Y0030573D02*
X0376788Y0030573D01*
X0375608Y0028975D02*
X0387992Y0028975D01*
X0306352Y0043361D02*
X0304200Y0043361D01*
X0304200Y0041763D02*
X0305697Y0041763D01*
X0305542Y0040164D02*
X0304200Y0040164D01*
X0297800Y0041763D02*
X0297645Y0041763D01*
X0297800Y0043361D02*
X0296983Y0043361D01*
X0297800Y0044960D02*
X0295589Y0044960D01*
X0169772Y0072134D02*
X0163816Y0072134D01*
X0166125Y0070536D02*
X0167475Y0070536D01*
X0140143Y0091317D02*
X0133457Y0091317D01*
X0135976Y0092915D02*
X0137624Y0092915D01*
X0145753Y0100908D02*
X0147847Y0100908D01*
X0092000Y0096800D02*
X0088200Y0093000D01*
X0086800Y0091800D01*
D19*
X0031800Y0096800D03*
X0031800Y0121800D03*
X0031800Y0146800D03*
X0031800Y0221800D03*
X0031800Y0246800D03*
X0031800Y0271800D03*
X0194300Y0104300D03*
X0321800Y0119300D03*
X0491800Y0116800D03*
X0491800Y0141800D03*
X0491800Y0166800D03*
X0491800Y0191800D03*
X0491800Y0216800D03*
X0491800Y0241800D03*
X0491800Y0266800D03*
X0491800Y0091800D03*
X0491800Y0066800D03*
X0031800Y0071800D03*
D20*
X0060855Y0080540D03*
X0041800Y0166800D03*
X0040855Y0205540D03*
X0060855Y0257706D03*
X0454556Y0257706D03*
X0454556Y0080540D03*
D21*
X0337800Y0105800D03*
X0181000Y0093000D03*
M02*
