G75*
%MOIN*%
%OFA0B0*%
%FSLAX25Y25*%
%IPPOS*%
%LPD*%
%AMOC8*
5,1,8,0,0,1.08239X$1,22.5*
%
%ADD10C,0.00000*%
%ADD11C,0.00500*%
%ADD12C,0.01600*%
%ADD13C,0.00600*%
%ADD14R,0.07400X0.07400*%
%ADD15C,0.07400*%
%ADD16C,0.14643*%
%ADD17C,0.07000*%
%ADD18OC8,0.07100*%
%ADD19C,0.06800*%
%ADD20C,0.07887*%
%ADD21C,0.04762*%
%ADD22C,0.26200*%
%ADD23C,0.04800*%
D10*
X0001800Y0001800D02*
X0001800Y0330501D01*
X0521721Y0330501D01*
X0521721Y0001800D01*
X0001800Y0001800D01*
D11*
X0185300Y0113791D02*
X0188803Y0113791D01*
X0188803Y0114958D02*
X0188803Y0112623D01*
X0188219Y0116306D02*
X0188803Y0116890D01*
X0188803Y0118058D01*
X0188219Y0118642D01*
X0187635Y0118642D01*
X0187051Y0118058D01*
X0187051Y0116890D01*
X0186468Y0116306D01*
X0185884Y0116306D01*
X0185300Y0116890D01*
X0185300Y0118058D01*
X0185884Y0118642D01*
X0185300Y0119989D02*
X0186468Y0121157D01*
X0186468Y0120573D02*
X0186468Y0122325D01*
X0185300Y0122325D02*
X0188803Y0122325D01*
X0188803Y0120573D01*
X0188219Y0119989D01*
X0187051Y0119989D01*
X0186468Y0120573D01*
X0195300Y0118399D02*
X0195884Y0118983D01*
X0195300Y0118399D02*
X0195300Y0117232D01*
X0195884Y0116648D01*
X0196468Y0116648D01*
X0197051Y0117232D01*
X0197051Y0117815D01*
X0197051Y0117232D02*
X0197635Y0116648D01*
X0198219Y0116648D01*
X0198803Y0117232D01*
X0198803Y0118399D01*
X0198219Y0118983D01*
X0198803Y0115300D02*
X0196468Y0115300D01*
X0195300Y0114132D01*
X0196468Y0112965D01*
X0198803Y0112965D01*
X0204800Y0113549D02*
X0205384Y0112965D01*
X0204800Y0113549D02*
X0204800Y0114716D01*
X0205384Y0115300D01*
X0207719Y0115300D01*
X0208303Y0114716D01*
X0208303Y0113549D01*
X0207719Y0112965D01*
X0208303Y0116648D02*
X0204800Y0116648D01*
X0208303Y0118983D01*
X0204800Y0118983D01*
X0214800Y0116741D02*
X0214800Y0115573D01*
X0215384Y0114989D01*
X0216551Y0114989D01*
X0216551Y0116157D01*
X0215384Y0117325D02*
X0214800Y0116741D01*
X0215384Y0117325D02*
X0217719Y0117325D01*
X0218303Y0116741D01*
X0218303Y0115573D01*
X0217719Y0114989D01*
X0218303Y0113642D02*
X0214800Y0111306D01*
X0218303Y0111306D01*
X0218303Y0109958D02*
X0218303Y0108207D01*
X0217719Y0107623D01*
X0215384Y0107623D01*
X0214800Y0108207D01*
X0214800Y0109958D01*
X0218303Y0109958D01*
X0221800Y0110117D02*
X0224135Y0107782D01*
X0224719Y0107782D01*
X0225303Y0108365D01*
X0225303Y0109533D01*
X0224719Y0110117D01*
X0224719Y0111465D02*
X0225303Y0112049D01*
X0225303Y0113216D01*
X0224719Y0113800D01*
X0222384Y0113800D01*
X0221800Y0113216D01*
X0221800Y0112049D01*
X0222384Y0111465D01*
X0221800Y0110117D02*
X0221800Y0107782D01*
X0227800Y0112049D02*
X0227800Y0113216D01*
X0228384Y0113800D01*
X0230719Y0111465D01*
X0228384Y0111465D01*
X0227800Y0112049D01*
X0228384Y0113800D02*
X0230719Y0113800D01*
X0231303Y0113216D01*
X0231303Y0112049D01*
X0230719Y0111465D01*
X0232300Y0110617D02*
X0232300Y0108282D01*
X0232300Y0109449D02*
X0235803Y0109449D01*
X0234635Y0110617D01*
X0235219Y0111965D02*
X0235803Y0112549D01*
X0235803Y0113716D01*
X0235219Y0114300D01*
X0232884Y0114300D01*
X0232300Y0113716D01*
X0232300Y0112549D01*
X0232884Y0111965D01*
X0232300Y0115648D02*
X0234635Y0115648D01*
X0235803Y0116815D01*
X0234635Y0117983D01*
X0232300Y0117983D01*
X0232884Y0119331D02*
X0235219Y0119331D01*
X0235803Y0119915D01*
X0235803Y0121666D01*
X0232300Y0121666D01*
X0232300Y0119915D01*
X0232884Y0119331D01*
X0234051Y0117983D02*
X0234051Y0115648D01*
X0231303Y0116315D02*
X0230135Y0115148D01*
X0227800Y0115148D01*
X0229551Y0115148D02*
X0229551Y0117483D01*
X0230135Y0117483D02*
X0231303Y0116315D01*
X0230135Y0117483D02*
X0227800Y0117483D01*
X0225303Y0116315D02*
X0224135Y0115148D01*
X0221800Y0115148D01*
X0223551Y0115148D02*
X0223551Y0117483D01*
X0224135Y0117483D02*
X0225303Y0116315D01*
X0224135Y0117483D02*
X0221800Y0117483D01*
X0222384Y0118831D02*
X0224719Y0118831D01*
X0225303Y0119415D01*
X0225303Y0121166D01*
X0221800Y0121166D01*
X0221800Y0119415D01*
X0222384Y0118831D01*
X0218303Y0113642D02*
X0214800Y0113642D01*
X0238300Y0113132D02*
X0241803Y0113132D01*
X0240635Y0114300D01*
X0240635Y0115648D02*
X0238300Y0115648D01*
X0238300Y0114300D02*
X0238300Y0111965D01*
X0240051Y0115648D02*
X0240051Y0117983D01*
X0240635Y0117983D02*
X0241803Y0116815D01*
X0240635Y0115648D01*
X0240635Y0117983D02*
X0238300Y0117983D01*
X0244800Y0118489D02*
X0244800Y0120825D01*
X0247135Y0118489D01*
X0247719Y0118489D01*
X0248303Y0119073D01*
X0248303Y0120241D01*
X0247719Y0120825D01*
X0247135Y0122173D02*
X0244800Y0122173D01*
X0246551Y0122173D02*
X0246551Y0124508D01*
X0247135Y0124508D02*
X0248303Y0123340D01*
X0247135Y0122173D01*
X0247135Y0124508D02*
X0244800Y0124508D01*
X0244800Y0117142D02*
X0248303Y0114806D01*
X0247719Y0113458D02*
X0248303Y0112875D01*
X0248303Y0111707D01*
X0247719Y0111123D01*
X0247135Y0111123D01*
X0246551Y0111707D01*
X0245968Y0111123D01*
X0245384Y0111123D01*
X0244800Y0111707D01*
X0244800Y0112875D01*
X0245384Y0113458D01*
X0246551Y0112291D02*
X0246551Y0111707D01*
X0246551Y0109775D02*
X0246551Y0107440D01*
X0244800Y0108024D02*
X0248303Y0108024D01*
X0246551Y0109775D01*
X0254800Y0109191D02*
X0254800Y0108024D01*
X0255384Y0107440D01*
X0257719Y0107440D01*
X0258303Y0108024D01*
X0258303Y0109191D01*
X0257719Y0109775D01*
X0257135Y0109775D01*
X0256551Y0109191D01*
X0256551Y0107440D01*
X0254800Y0109191D02*
X0255384Y0109775D01*
X0255384Y0111123D02*
X0254800Y0111707D01*
X0254800Y0112875D01*
X0255384Y0113458D01*
X0256551Y0112291D02*
X0256551Y0111707D01*
X0255968Y0111123D01*
X0255384Y0111123D01*
X0256551Y0111707D02*
X0257135Y0111123D01*
X0257719Y0111123D01*
X0258303Y0111707D01*
X0258303Y0112875D01*
X0257719Y0113458D01*
X0258303Y0114806D02*
X0254800Y0117142D01*
X0255384Y0118489D02*
X0254800Y0119073D01*
X0254800Y0120241D01*
X0255384Y0120825D01*
X0254800Y0122173D02*
X0257135Y0122173D01*
X0258303Y0123340D01*
X0257135Y0124508D01*
X0254800Y0124508D01*
X0256551Y0124508D02*
X0256551Y0122173D01*
X0257719Y0120825D02*
X0258303Y0120241D01*
X0258303Y0119073D01*
X0257719Y0118489D01*
X0257135Y0118489D01*
X0256551Y0119073D01*
X0255968Y0118489D01*
X0255384Y0118489D01*
X0256551Y0119073D02*
X0256551Y0119657D01*
X0265300Y0119073D02*
X0268803Y0119073D01*
X0267051Y0120825D01*
X0267051Y0118489D01*
X0265300Y0117142D02*
X0268803Y0114806D01*
X0268219Y0113458D02*
X0268803Y0112875D01*
X0268803Y0111707D01*
X0268219Y0111123D01*
X0267635Y0111123D01*
X0267051Y0111707D01*
X0266468Y0111123D01*
X0265884Y0111123D01*
X0265300Y0111707D01*
X0265300Y0112875D01*
X0265884Y0113458D01*
X0267051Y0112291D02*
X0267051Y0111707D01*
X0267051Y0109775D02*
X0265884Y0109775D01*
X0265300Y0109191D01*
X0265300Y0108024D01*
X0265884Y0107440D01*
X0266468Y0107440D01*
X0267051Y0108024D01*
X0267051Y0109775D01*
X0268219Y0108608D01*
X0268803Y0107440D01*
X0274800Y0108365D02*
X0278303Y0108365D01*
X0276551Y0110117D01*
X0276551Y0107782D01*
X0278303Y0111465D02*
X0274800Y0113800D01*
X0275384Y0115148D02*
X0274800Y0115732D01*
X0274800Y0116899D01*
X0275384Y0117483D01*
X0276551Y0117483D02*
X0277135Y0116315D01*
X0277135Y0115732D01*
X0276551Y0115148D01*
X0275384Y0115148D01*
X0276551Y0117483D02*
X0278303Y0117483D01*
X0278303Y0115148D01*
X0277135Y0118831D02*
X0274800Y0118831D01*
X0276551Y0118831D02*
X0276551Y0121166D01*
X0277135Y0121166D02*
X0278303Y0119999D01*
X0277135Y0118831D01*
X0277135Y0121166D02*
X0274800Y0121166D01*
X0268803Y0123340D02*
X0267635Y0124508D01*
X0265300Y0124508D01*
X0267051Y0124508D02*
X0267051Y0122173D01*
X0267635Y0122173D02*
X0265300Y0122173D01*
X0267635Y0122173D02*
X0268803Y0123340D01*
X0284800Y0118924D02*
X0285384Y0119508D01*
X0284800Y0118924D02*
X0284800Y0117756D01*
X0285384Y0117173D01*
X0285968Y0117173D01*
X0286551Y0117756D01*
X0286551Y0118924D01*
X0287135Y0119508D01*
X0287719Y0119508D01*
X0288303Y0118924D01*
X0288303Y0117756D01*
X0287719Y0117173D01*
X0287719Y0115825D02*
X0285384Y0115825D01*
X0284800Y0115241D01*
X0284800Y0114073D01*
X0285384Y0113489D01*
X0285968Y0112142D02*
X0288303Y0109806D01*
X0288303Y0112142D02*
X0284800Y0112142D01*
X0286551Y0111558D02*
X0284800Y0109806D01*
X0284800Y0108458D02*
X0288303Y0106123D01*
X0288303Y0104775D02*
X0286551Y0104775D01*
X0287135Y0103608D01*
X0287135Y0103024D01*
X0286551Y0102440D01*
X0285384Y0102440D01*
X0284800Y0103024D01*
X0284800Y0104191D01*
X0285384Y0104775D01*
X0288303Y0104775D02*
X0288303Y0102440D01*
X0295300Y0102721D02*
X0298803Y0102721D01*
X0297635Y0103889D01*
X0298803Y0105237D02*
X0295300Y0107572D01*
X0295300Y0108860D02*
X0295300Y0110028D01*
X0295300Y0109444D02*
X0298803Y0109444D01*
X0298803Y0110028D02*
X0298803Y0108860D01*
X0298219Y0111376D02*
X0298803Y0111959D01*
X0298803Y0113127D01*
X0298219Y0113711D01*
X0297635Y0113711D01*
X0297051Y0113127D01*
X0297051Y0111959D01*
X0296468Y0111376D01*
X0295884Y0111376D01*
X0295300Y0111959D01*
X0295300Y0113127D01*
X0295884Y0113711D01*
X0295884Y0115059D02*
X0298219Y0115059D01*
X0298803Y0115643D01*
X0298803Y0116810D01*
X0298219Y0117394D01*
X0295884Y0117394D01*
X0295300Y0116810D01*
X0295300Y0115643D01*
X0295884Y0115059D01*
X0295300Y0118742D02*
X0298803Y0118742D01*
X0297635Y0119909D01*
X0298803Y0121077D01*
X0295300Y0121077D01*
X0288303Y0115241D02*
X0287719Y0115825D01*
X0288303Y0115241D02*
X0288303Y0114073D01*
X0287719Y0113489D01*
X0295300Y0103889D02*
X0295300Y0101554D01*
X0295884Y0100206D02*
X0296468Y0100206D01*
X0297051Y0099622D01*
X0297051Y0098455D01*
X0296468Y0097871D01*
X0295884Y0097871D01*
X0295300Y0098455D01*
X0295300Y0099622D01*
X0295884Y0100206D01*
X0297051Y0099622D02*
X0297635Y0100206D01*
X0298219Y0100206D01*
X0298803Y0099622D01*
X0298803Y0098455D01*
X0298219Y0097871D01*
X0297635Y0097871D01*
X0297051Y0098455D01*
X0305300Y0098455D02*
X0305884Y0097871D01*
X0308219Y0097871D01*
X0308803Y0098455D01*
X0308803Y0099622D01*
X0308219Y0100206D01*
X0307635Y0100206D01*
X0307051Y0099622D01*
X0307051Y0097871D01*
X0305300Y0098455D02*
X0305300Y0099622D01*
X0305884Y0100206D01*
X0305300Y0101554D02*
X0305300Y0103889D01*
X0305300Y0102721D02*
X0308803Y0102721D01*
X0307635Y0103889D01*
X0308803Y0105237D02*
X0305300Y0107572D01*
X0305884Y0108920D02*
X0308219Y0108920D01*
X0308803Y0109504D01*
X0308803Y0110672D01*
X0308219Y0111255D01*
X0305884Y0111255D01*
X0305300Y0110672D01*
X0305300Y0109504D01*
X0305884Y0108920D01*
X0305884Y0112603D02*
X0305300Y0113187D01*
X0305300Y0114355D01*
X0305884Y0114939D01*
X0307051Y0114355D02*
X0307051Y0113187D01*
X0306468Y0112603D01*
X0305884Y0112603D01*
X0307051Y0114355D02*
X0307635Y0114939D01*
X0308219Y0114939D01*
X0308803Y0114355D01*
X0308803Y0113187D01*
X0308219Y0112603D01*
X0308803Y0116226D02*
X0308803Y0117394D01*
X0308803Y0116810D02*
X0305300Y0116810D01*
X0305300Y0117394D02*
X0305300Y0116226D01*
X0305300Y0118742D02*
X0308803Y0118742D01*
X0307635Y0119909D01*
X0308803Y0121077D01*
X0305300Y0121077D01*
X0314800Y0120008D02*
X0318303Y0120008D01*
X0318303Y0118256D01*
X0317719Y0117673D01*
X0316551Y0117673D01*
X0315968Y0118256D01*
X0315968Y0120008D01*
X0315968Y0118840D02*
X0314800Y0117673D01*
X0314800Y0116325D02*
X0318303Y0113989D01*
X0318303Y0116325D02*
X0314800Y0113989D01*
X0314800Y0112642D02*
X0318303Y0110306D01*
X0317135Y0108958D02*
X0318303Y0107791D01*
X0314800Y0107791D01*
X0314800Y0108958D02*
X0314800Y0106623D01*
X0315384Y0105275D02*
X0314800Y0104691D01*
X0314800Y0103524D01*
X0315384Y0102940D01*
X0315968Y0102940D01*
X0316551Y0103524D01*
X0316551Y0105275D01*
X0315384Y0105275D01*
X0316551Y0105275D02*
X0317719Y0104108D01*
X0318303Y0102940D01*
X0325884Y0110275D02*
X0328219Y0107940D01*
X0328803Y0107940D01*
X0328803Y0110275D01*
X0328803Y0112791D02*
X0325300Y0112791D01*
X0325300Y0113958D02*
X0325300Y0111623D01*
X0325300Y0110275D02*
X0325884Y0110275D01*
X0328803Y0112791D02*
X0327635Y0113958D01*
X0328803Y0115306D02*
X0325300Y0117642D01*
X0325300Y0118989D02*
X0328803Y0121325D01*
X0328803Y0122673D02*
X0328803Y0125008D01*
X0328803Y0123840D02*
X0325300Y0123840D01*
X0325300Y0121325D02*
X0328803Y0118989D01*
X0334800Y0118983D02*
X0334800Y0116648D01*
X0334800Y0115300D02*
X0334800Y0112965D01*
X0334800Y0114132D02*
X0338303Y0114132D01*
X0337135Y0115300D01*
X0337135Y0116648D02*
X0337719Y0116648D01*
X0338303Y0117232D01*
X0338303Y0118399D01*
X0337719Y0118983D01*
X0337135Y0116648D02*
X0334800Y0118983D01*
X0335384Y0210098D02*
X0334800Y0210682D01*
X0334800Y0211850D01*
X0335384Y0212434D01*
X0334800Y0213782D02*
X0334800Y0216117D01*
X0337135Y0213782D01*
X0337719Y0213782D01*
X0338303Y0214365D01*
X0338303Y0215533D01*
X0337719Y0216117D01*
X0338303Y0217465D02*
X0334800Y0219800D01*
X0334800Y0221148D02*
X0337135Y0221148D01*
X0338303Y0222315D01*
X0337135Y0223483D01*
X0334800Y0223483D01*
X0335384Y0224831D02*
X0334800Y0225415D01*
X0334800Y0227166D01*
X0338303Y0227166D01*
X0338303Y0225415D01*
X0337719Y0224831D01*
X0335384Y0224831D01*
X0336551Y0223483D02*
X0336551Y0221148D01*
X0335968Y0228514D02*
X0335384Y0228514D01*
X0334800Y0229098D01*
X0334800Y0230266D01*
X0335384Y0230849D01*
X0336551Y0230266D02*
X0336551Y0229098D01*
X0335968Y0228514D01*
X0337719Y0228514D02*
X0338303Y0229098D01*
X0338303Y0230266D01*
X0337719Y0230849D01*
X0337135Y0230849D01*
X0336551Y0230266D01*
X0328803Y0230266D02*
X0328803Y0229098D01*
X0328219Y0228514D01*
X0327051Y0229098D02*
X0326468Y0228514D01*
X0325884Y0228514D01*
X0325300Y0229098D01*
X0325300Y0230266D01*
X0325884Y0230849D01*
X0327051Y0230266D02*
X0327051Y0229098D01*
X0327051Y0230266D02*
X0327635Y0230849D01*
X0328219Y0230849D01*
X0328803Y0230266D01*
X0328219Y0227166D02*
X0325884Y0227166D01*
X0325300Y0226582D01*
X0325300Y0225415D01*
X0325884Y0224831D01*
X0325300Y0223483D02*
X0325300Y0221148D01*
X0325300Y0219800D02*
X0328803Y0217465D01*
X0328219Y0216117D02*
X0328803Y0215533D01*
X0328803Y0214365D01*
X0328219Y0213782D01*
X0327635Y0213782D01*
X0325300Y0216117D01*
X0325300Y0213782D01*
X0325300Y0212434D02*
X0327635Y0210098D01*
X0328219Y0210098D01*
X0328803Y0210682D01*
X0328803Y0211850D01*
X0328219Y0212434D01*
X0325300Y0212434D02*
X0325300Y0210098D01*
X0318303Y0213940D02*
X0317719Y0215108D01*
X0316551Y0216275D01*
X0316551Y0214524D01*
X0315968Y0213940D01*
X0315384Y0213940D01*
X0314800Y0214524D01*
X0314800Y0215691D01*
X0315384Y0216275D01*
X0316551Y0216275D01*
X0316551Y0217623D02*
X0316551Y0219958D01*
X0317135Y0219958D02*
X0318303Y0218791D01*
X0317135Y0217623D01*
X0314800Y0217623D01*
X0314800Y0219958D02*
X0317135Y0219958D01*
X0318303Y0221306D02*
X0314800Y0223642D01*
X0314800Y0225573D02*
X0318303Y0225573D01*
X0316551Y0227325D01*
X0316551Y0224989D01*
X0314800Y0228673D02*
X0314800Y0231008D01*
X0314800Y0229840D02*
X0318303Y0229840D01*
X0317135Y0231008D01*
X0308303Y0230424D02*
X0308303Y0229256D01*
X0307719Y0228673D01*
X0307135Y0228673D01*
X0306551Y0229256D01*
X0305968Y0228673D01*
X0305384Y0228673D01*
X0304800Y0229256D01*
X0304800Y0230424D01*
X0305384Y0231008D01*
X0306551Y0229840D02*
X0306551Y0229256D01*
X0307719Y0231008D02*
X0308303Y0230424D01*
X0307719Y0227325D02*
X0308303Y0226741D01*
X0308303Y0225573D01*
X0307719Y0224989D01*
X0307135Y0224989D01*
X0304800Y0227325D01*
X0304800Y0224989D01*
X0304800Y0223642D02*
X0308303Y0221306D01*
X0307135Y0219958D02*
X0308303Y0218791D01*
X0307135Y0217623D01*
X0304800Y0217623D01*
X0304800Y0216275D02*
X0305384Y0216275D01*
X0307719Y0213940D01*
X0308303Y0213940D01*
X0308303Y0216275D01*
X0306551Y0217623D02*
X0306551Y0219958D01*
X0307135Y0219958D02*
X0304800Y0219958D01*
X0298303Y0218791D02*
X0297135Y0217623D01*
X0294800Y0217623D01*
X0295384Y0216275D02*
X0295968Y0216275D01*
X0296551Y0215691D01*
X0296551Y0214524D01*
X0295968Y0213940D01*
X0295384Y0213940D01*
X0294800Y0214524D01*
X0294800Y0215691D01*
X0295384Y0216275D01*
X0296551Y0215691D02*
X0297135Y0216275D01*
X0297719Y0216275D01*
X0298303Y0215691D01*
X0298303Y0214524D01*
X0297719Y0213940D01*
X0297135Y0213940D01*
X0296551Y0214524D01*
X0296551Y0217623D02*
X0296551Y0219958D01*
X0297135Y0219958D02*
X0298303Y0218791D01*
X0297135Y0219958D02*
X0294800Y0219958D01*
X0294800Y0223642D02*
X0298303Y0221306D01*
X0298303Y0224989D02*
X0298303Y0227325D01*
X0296551Y0227325D01*
X0297135Y0226157D01*
X0297135Y0225573D01*
X0296551Y0224989D01*
X0295384Y0224989D01*
X0294800Y0225573D01*
X0294800Y0226741D01*
X0295384Y0227325D01*
X0294800Y0228673D02*
X0294800Y0231008D01*
X0294800Y0229840D02*
X0298303Y0229840D01*
X0297135Y0231008D01*
X0288803Y0230424D02*
X0288803Y0229256D01*
X0288219Y0228673D01*
X0287635Y0228673D01*
X0287051Y0229256D01*
X0286468Y0228673D01*
X0285884Y0228673D01*
X0285300Y0229256D01*
X0285300Y0230424D01*
X0285884Y0231008D01*
X0287051Y0229840D02*
X0287051Y0229256D01*
X0288219Y0231008D02*
X0288803Y0230424D01*
X0288219Y0227325D02*
X0288803Y0226741D01*
X0288803Y0225573D01*
X0288219Y0224989D01*
X0287635Y0224989D01*
X0287051Y0225573D01*
X0286468Y0224989D01*
X0285884Y0224989D01*
X0285300Y0225573D01*
X0285300Y0226741D01*
X0285884Y0227325D01*
X0287051Y0226157D02*
X0287051Y0225573D01*
X0285300Y0223642D02*
X0288803Y0221306D01*
X0287635Y0219958D02*
X0288803Y0218791D01*
X0287635Y0217623D01*
X0285300Y0217623D01*
X0285884Y0216275D02*
X0285300Y0215691D01*
X0285300Y0214524D01*
X0285884Y0213940D01*
X0288219Y0213940D01*
X0288803Y0214524D01*
X0288803Y0215691D01*
X0288219Y0216275D01*
X0287635Y0216275D01*
X0287051Y0215691D01*
X0287051Y0213940D01*
X0287051Y0217623D02*
X0287051Y0219958D01*
X0287635Y0219958D02*
X0285300Y0219958D01*
X0278303Y0219949D02*
X0274800Y0219949D01*
X0274800Y0218782D02*
X0274800Y0221117D01*
X0274800Y0222465D02*
X0277135Y0222465D01*
X0278303Y0223632D01*
X0277135Y0224800D01*
X0274800Y0224800D01*
X0276551Y0224800D02*
X0276551Y0222465D01*
X0277135Y0221117D02*
X0278303Y0219949D01*
X0277719Y0217434D02*
X0278303Y0216850D01*
X0278303Y0215682D01*
X0277719Y0215098D01*
X0275384Y0217434D01*
X0274800Y0216850D01*
X0274800Y0215682D01*
X0275384Y0215098D01*
X0277719Y0215098D01*
X0277719Y0217434D02*
X0275384Y0217434D01*
X0268303Y0216266D02*
X0264800Y0216266D01*
X0264800Y0217434D02*
X0264800Y0215098D01*
X0267135Y0217434D02*
X0268303Y0216266D01*
X0268303Y0219949D02*
X0264800Y0219949D01*
X0264800Y0218782D02*
X0264800Y0221117D01*
X0264800Y0222465D02*
X0267135Y0222465D01*
X0268303Y0223632D01*
X0267135Y0224800D01*
X0264800Y0224800D01*
X0266551Y0224800D02*
X0266551Y0222465D01*
X0267135Y0221117D02*
X0268303Y0219949D01*
X0268303Y0226148D02*
X0264800Y0228483D01*
X0264800Y0229831D02*
X0264800Y0232166D01*
X0267135Y0229831D01*
X0267719Y0229831D01*
X0268303Y0230415D01*
X0268303Y0231582D01*
X0267719Y0232166D01*
X0268303Y0234682D02*
X0264800Y0234682D01*
X0264800Y0235849D02*
X0264800Y0233514D01*
X0267135Y0235849D02*
X0268303Y0234682D01*
X0274800Y0235849D02*
X0277135Y0233514D01*
X0277719Y0233514D01*
X0278303Y0234098D01*
X0278303Y0235266D01*
X0277719Y0235849D01*
X0274800Y0235849D02*
X0274800Y0233514D01*
X0274800Y0232166D02*
X0275384Y0232166D01*
X0277719Y0229831D01*
X0278303Y0229831D01*
X0278303Y0232166D01*
X0274800Y0228483D02*
X0278303Y0226148D01*
X0258303Y0226148D02*
X0254800Y0228483D01*
X0255384Y0229831D02*
X0254800Y0230415D01*
X0254800Y0231582D01*
X0255384Y0232166D01*
X0254800Y0233514D02*
X0254800Y0235849D01*
X0254800Y0234682D02*
X0258303Y0234682D01*
X0257135Y0235849D01*
X0257719Y0232166D02*
X0258303Y0231582D01*
X0258303Y0230415D01*
X0257719Y0229831D01*
X0257135Y0229831D01*
X0256551Y0230415D01*
X0255968Y0229831D01*
X0255384Y0229831D01*
X0256551Y0230415D02*
X0256551Y0230999D01*
X0256551Y0224800D02*
X0256551Y0222465D01*
X0257135Y0222465D02*
X0254800Y0222465D01*
X0254800Y0221117D02*
X0254800Y0218782D01*
X0254800Y0219949D02*
X0258303Y0219949D01*
X0257135Y0221117D01*
X0257135Y0222465D02*
X0258303Y0223632D01*
X0257135Y0224800D01*
X0254800Y0224800D01*
X0248803Y0225825D02*
X0245884Y0225825D01*
X0245300Y0225241D01*
X0245300Y0224073D01*
X0245884Y0223489D01*
X0248803Y0223489D01*
X0248219Y0222142D02*
X0247635Y0222142D01*
X0247051Y0221558D01*
X0247051Y0220390D01*
X0246468Y0219806D01*
X0245884Y0219806D01*
X0245300Y0220390D01*
X0245300Y0221558D01*
X0245884Y0222142D01*
X0248219Y0222142D02*
X0248803Y0221558D01*
X0248803Y0220390D01*
X0248219Y0219806D01*
X0248803Y0218458D02*
X0248803Y0216707D01*
X0248219Y0216123D01*
X0247635Y0216123D01*
X0247051Y0216707D01*
X0247051Y0218458D01*
X0245300Y0218458D02*
X0248803Y0218458D01*
X0247051Y0216707D02*
X0246468Y0216123D01*
X0245884Y0216123D01*
X0245300Y0216707D01*
X0245300Y0218458D01*
X0238303Y0218148D02*
X0238303Y0220483D01*
X0234800Y0220483D01*
X0234800Y0218148D01*
X0234800Y0216800D02*
X0237135Y0216800D01*
X0237135Y0215049D01*
X0236551Y0214465D01*
X0234800Y0214465D01*
X0236551Y0219315D02*
X0236551Y0220483D01*
X0228303Y0220974D02*
X0227135Y0219806D01*
X0224800Y0219806D01*
X0226551Y0219806D02*
X0226551Y0222142D01*
X0227135Y0222142D02*
X0228303Y0220974D01*
X0227135Y0222142D02*
X0224800Y0222142D01*
X0225384Y0223489D02*
X0224800Y0224073D01*
X0224800Y0225825D01*
X0228303Y0225825D01*
X0228303Y0224073D01*
X0227719Y0223489D01*
X0227135Y0223489D01*
X0226551Y0224073D01*
X0226551Y0225825D01*
X0226551Y0224073D02*
X0225968Y0223489D01*
X0225384Y0223489D01*
X0228303Y0218458D02*
X0228303Y0216123D01*
X0228303Y0217291D02*
X0224800Y0217291D01*
X0254800Y0217434D02*
X0254800Y0215098D01*
X0257135Y0215098D02*
X0254800Y0217434D01*
X0257719Y0217434D02*
X0258303Y0216850D01*
X0258303Y0215682D01*
X0257719Y0215098D01*
X0257135Y0215098D01*
X0325300Y0223483D02*
X0328803Y0223483D01*
X0328219Y0224831D02*
X0328803Y0225415D01*
X0328803Y0226582D01*
X0328219Y0227166D01*
X0337719Y0212434D02*
X0338303Y0211850D01*
X0338303Y0210682D01*
X0337719Y0210098D01*
X0337135Y0210098D01*
X0336551Y0210682D01*
X0335968Y0210098D01*
X0335384Y0210098D01*
X0336551Y0210682D02*
X0336551Y0211266D01*
D12*
X0501800Y0211205D02*
X0506800Y0211205D01*
X0506800Y0211800D02*
X0506800Y0191800D01*
X0501800Y0191800D01*
X0501800Y0211800D01*
X0506800Y0211800D01*
X0506800Y0209606D02*
X0501800Y0209606D01*
X0501800Y0208008D02*
X0506800Y0208008D01*
X0506800Y0206409D02*
X0501800Y0206409D01*
X0501800Y0204811D02*
X0506800Y0204811D01*
X0506800Y0203212D02*
X0501800Y0203212D01*
X0501800Y0201614D02*
X0506800Y0201614D01*
X0506800Y0200015D02*
X0501800Y0200015D01*
X0501800Y0198417D02*
X0506800Y0198417D01*
X0506800Y0196818D02*
X0501800Y0196818D01*
X0501800Y0195220D02*
X0506800Y0195220D01*
X0506800Y0193621D02*
X0501800Y0193621D01*
X0501800Y0192023D02*
X0506800Y0192023D01*
X0511800Y0192023D02*
X0516800Y0192023D01*
X0516800Y0191800D02*
X0511800Y0191800D01*
X0511800Y0211800D01*
X0516800Y0211800D01*
X0516800Y0191800D01*
X0516800Y0193621D02*
X0511800Y0193621D01*
X0511800Y0195220D02*
X0516800Y0195220D01*
X0516800Y0196818D02*
X0511800Y0196818D01*
X0511800Y0198417D02*
X0516800Y0198417D01*
X0516800Y0200015D02*
X0511800Y0200015D01*
X0511800Y0201614D02*
X0516800Y0201614D01*
X0516800Y0203212D02*
X0511800Y0203212D01*
X0511800Y0204811D02*
X0516800Y0204811D01*
X0516800Y0206409D02*
X0511800Y0206409D01*
X0511800Y0208008D02*
X0516800Y0208008D01*
X0516800Y0209606D02*
X0511800Y0209606D01*
X0511800Y0211205D02*
X0516800Y0211205D01*
X0516800Y0286800D02*
X0511800Y0286800D01*
X0511800Y0306800D01*
X0516800Y0306800D01*
X0516800Y0286800D01*
X0516800Y0287934D02*
X0511800Y0287934D01*
X0511800Y0289532D02*
X0516800Y0289532D01*
X0516800Y0291131D02*
X0511800Y0291131D01*
X0511800Y0292729D02*
X0516800Y0292729D01*
X0516800Y0294328D02*
X0511800Y0294328D01*
X0511800Y0295926D02*
X0516800Y0295926D01*
X0516800Y0297525D02*
X0511800Y0297525D01*
X0511800Y0299123D02*
X0516800Y0299123D01*
X0516800Y0300722D02*
X0511800Y0300722D01*
X0511800Y0302320D02*
X0516800Y0302320D01*
X0516800Y0303919D02*
X0511800Y0303919D01*
X0511800Y0305517D02*
X0516800Y0305517D01*
X0506800Y0305517D02*
X0501800Y0305517D01*
X0501800Y0306800D02*
X0506800Y0306800D01*
X0506800Y0286800D01*
X0501800Y0286800D01*
X0501800Y0306800D01*
X0501800Y0303919D02*
X0506800Y0303919D01*
X0506800Y0302320D02*
X0501800Y0302320D01*
X0501800Y0300722D02*
X0506800Y0300722D01*
X0506800Y0299123D02*
X0501800Y0299123D01*
X0501800Y0297525D02*
X0506800Y0297525D01*
X0506800Y0295926D02*
X0501800Y0295926D01*
X0501800Y0294328D02*
X0506800Y0294328D01*
X0506800Y0292729D02*
X0501800Y0292729D01*
X0501800Y0291131D02*
X0506800Y0291131D01*
X0506800Y0289532D02*
X0501800Y0289532D01*
X0501800Y0287934D02*
X0506800Y0287934D01*
X0466800Y0321800D02*
X0446800Y0321800D01*
X0446800Y0326800D01*
X0466800Y0326800D01*
X0466800Y0321800D01*
X0466800Y0323101D02*
X0446800Y0323101D01*
X0446800Y0324699D02*
X0466800Y0324699D01*
X0466800Y0326298D02*
X0446800Y0326298D01*
X0406800Y0326298D02*
X0386800Y0326298D01*
X0386800Y0326800D02*
X0386800Y0321800D01*
X0406800Y0321800D01*
X0406800Y0326800D01*
X0386800Y0326800D01*
X0386800Y0324699D02*
X0406800Y0324699D01*
X0406800Y0323101D02*
X0386800Y0323101D01*
X0346800Y0323101D02*
X0326800Y0323101D01*
X0326800Y0321800D02*
X0326800Y0326800D01*
X0346800Y0326800D01*
X0346800Y0321800D01*
X0326800Y0321800D01*
X0326800Y0324699D02*
X0346800Y0324699D01*
X0346800Y0326298D02*
X0326800Y0326298D01*
X0286800Y0326298D02*
X0266800Y0326298D01*
X0266800Y0326800D02*
X0266800Y0321800D01*
X0286800Y0321800D01*
X0286800Y0326800D01*
X0266800Y0326800D01*
X0266800Y0324699D02*
X0286800Y0324699D01*
X0286800Y0323101D02*
X0266800Y0323101D01*
X0226800Y0323101D02*
X0206800Y0323101D01*
X0206800Y0321800D02*
X0206800Y0326800D01*
X0226800Y0326800D01*
X0226800Y0321800D01*
X0206800Y0321800D01*
X0206800Y0324699D02*
X0226800Y0324699D01*
X0226800Y0326298D02*
X0206800Y0326298D01*
X0166800Y0326298D02*
X0146800Y0326298D01*
X0146800Y0326800D02*
X0146800Y0321800D01*
X0166800Y0321800D01*
X0166800Y0326800D01*
X0146800Y0326800D01*
X0146800Y0324699D02*
X0166800Y0324699D01*
X0166800Y0323101D02*
X0146800Y0323101D01*
X0106800Y0323101D02*
X0086800Y0323101D01*
X0086800Y0321800D02*
X0086800Y0326800D01*
X0106800Y0326800D01*
X0106800Y0321800D01*
X0086800Y0321800D01*
X0086800Y0324699D02*
X0106800Y0324699D01*
X0106800Y0326298D02*
X0086800Y0326298D01*
X0046800Y0326298D02*
X0026800Y0326298D01*
X0026800Y0326800D02*
X0026800Y0321800D01*
X0046800Y0321800D01*
X0046800Y0326800D01*
X0026800Y0326800D01*
X0026800Y0324699D02*
X0046800Y0324699D01*
X0046800Y0323101D02*
X0026800Y0323101D01*
X0021800Y0306800D02*
X0016800Y0306800D01*
X0016800Y0286800D01*
X0021800Y0286800D01*
X0021800Y0306800D01*
X0021800Y0305517D02*
X0016800Y0305517D01*
X0016800Y0303919D02*
X0021800Y0303919D01*
X0021800Y0302320D02*
X0016800Y0302320D01*
X0016800Y0300722D02*
X0021800Y0300722D01*
X0021800Y0299123D02*
X0016800Y0299123D01*
X0016800Y0297525D02*
X0021800Y0297525D01*
X0021800Y0295926D02*
X0016800Y0295926D01*
X0016800Y0294328D02*
X0021800Y0294328D01*
X0021800Y0292729D02*
X0016800Y0292729D01*
X0016800Y0291131D02*
X0021800Y0291131D01*
X0021800Y0289532D02*
X0016800Y0289532D01*
X0016800Y0287934D02*
X0021800Y0287934D01*
X0011800Y0287934D02*
X0006800Y0287934D01*
X0006800Y0286800D02*
X0011800Y0286800D01*
X0011800Y0306800D01*
X0006800Y0306800D01*
X0006800Y0286800D01*
X0006800Y0289532D02*
X0011800Y0289532D01*
X0011800Y0291131D02*
X0006800Y0291131D01*
X0006800Y0292729D02*
X0011800Y0292729D01*
X0011800Y0294328D02*
X0006800Y0294328D01*
X0006800Y0295926D02*
X0011800Y0295926D01*
X0011800Y0297525D02*
X0006800Y0297525D01*
X0006800Y0299123D02*
X0011800Y0299123D01*
X0011800Y0300722D02*
X0006800Y0300722D01*
X0006800Y0302320D02*
X0011800Y0302320D01*
X0011800Y0303919D02*
X0006800Y0303919D01*
X0006800Y0305517D02*
X0011800Y0305517D01*
X0011800Y0216800D02*
X0006800Y0216800D01*
X0006800Y0196800D01*
X0011800Y0196800D01*
X0011800Y0216800D01*
X0011800Y0216001D02*
X0006800Y0216001D01*
X0006800Y0214402D02*
X0011800Y0214402D01*
X0011800Y0212803D02*
X0006800Y0212803D01*
X0006800Y0211205D02*
X0011800Y0211205D01*
X0011800Y0209606D02*
X0006800Y0209606D01*
X0006800Y0208008D02*
X0011800Y0208008D01*
X0011800Y0206409D02*
X0006800Y0206409D01*
X0006800Y0204811D02*
X0011800Y0204811D01*
X0011800Y0203212D02*
X0006800Y0203212D01*
X0006800Y0201614D02*
X0011800Y0201614D01*
X0011800Y0200015D02*
X0006800Y0200015D01*
X0006800Y0198417D02*
X0011800Y0198417D01*
X0011800Y0196818D02*
X0006800Y0196818D01*
X0016800Y0196818D02*
X0021800Y0196818D01*
X0021800Y0196800D02*
X0016800Y0196800D01*
X0016800Y0216800D01*
X0021800Y0216800D01*
X0021800Y0196800D01*
X0021800Y0198417D02*
X0016800Y0198417D01*
X0016800Y0200015D02*
X0021800Y0200015D01*
X0021800Y0201614D02*
X0016800Y0201614D01*
X0016800Y0203212D02*
X0021800Y0203212D01*
X0021800Y0204811D02*
X0016800Y0204811D01*
X0016800Y0206409D02*
X0021800Y0206409D01*
X0021800Y0208008D02*
X0016800Y0208008D01*
X0016800Y0209606D02*
X0021800Y0209606D01*
X0021800Y0211205D02*
X0016800Y0211205D01*
X0016800Y0212803D02*
X0021800Y0212803D01*
X0021800Y0214402D02*
X0016800Y0214402D01*
X0016800Y0216001D02*
X0021800Y0216001D01*
X0021800Y0046800D02*
X0016800Y0046800D01*
X0016800Y0026800D01*
X0021800Y0026800D01*
X0021800Y0046800D01*
X0021800Y0046558D02*
X0016800Y0046558D01*
X0016800Y0044960D02*
X0021800Y0044960D01*
X0021800Y0043361D02*
X0016800Y0043361D01*
X0016800Y0041763D02*
X0021800Y0041763D01*
X0021800Y0040164D02*
X0016800Y0040164D01*
X0016800Y0038566D02*
X0021800Y0038566D01*
X0021800Y0036967D02*
X0016800Y0036967D01*
X0016800Y0035369D02*
X0021800Y0035369D01*
X0021800Y0033770D02*
X0016800Y0033770D01*
X0016800Y0032172D02*
X0021800Y0032172D01*
X0021800Y0030573D02*
X0016800Y0030573D01*
X0016800Y0028975D02*
X0021800Y0028975D01*
X0021800Y0027376D02*
X0016800Y0027376D01*
X0011800Y0027376D02*
X0006800Y0027376D01*
X0006800Y0026800D02*
X0011800Y0026800D01*
X0011800Y0046800D01*
X0006800Y0046800D01*
X0006800Y0026800D01*
X0006800Y0028975D02*
X0011800Y0028975D01*
X0011800Y0030573D02*
X0006800Y0030573D01*
X0006800Y0032172D02*
X0011800Y0032172D01*
X0011800Y0033770D02*
X0006800Y0033770D01*
X0006800Y0035369D02*
X0011800Y0035369D01*
X0011800Y0036967D02*
X0006800Y0036967D01*
X0006800Y0038566D02*
X0011800Y0038566D01*
X0011800Y0040164D02*
X0006800Y0040164D01*
X0006800Y0041763D02*
X0011800Y0041763D01*
X0011800Y0043361D02*
X0006800Y0043361D01*
X0006800Y0044960D02*
X0011800Y0044960D01*
X0011800Y0046558D02*
X0006800Y0046558D01*
X0056800Y0011800D02*
X0056800Y0006800D01*
X0076800Y0006800D01*
X0076800Y0011800D01*
X0056800Y0011800D01*
X0056800Y0011391D02*
X0076800Y0011391D01*
X0076800Y0009793D02*
X0056800Y0009793D01*
X0056800Y0008194D02*
X0076800Y0008194D01*
X0116800Y0008194D02*
X0136800Y0008194D01*
X0136800Y0006800D02*
X0116800Y0006800D01*
X0116800Y0011800D01*
X0136800Y0011800D01*
X0136800Y0006800D01*
X0136800Y0009793D02*
X0116800Y0009793D01*
X0116800Y0011391D02*
X0136800Y0011391D01*
X0176800Y0011391D02*
X0196800Y0011391D01*
X0196800Y0011800D02*
X0196800Y0006800D01*
X0176800Y0006800D01*
X0176800Y0011800D01*
X0196800Y0011800D01*
X0196800Y0009793D02*
X0176800Y0009793D01*
X0176800Y0008194D02*
X0196800Y0008194D01*
X0236800Y0008194D02*
X0256800Y0008194D01*
X0256800Y0006800D02*
X0236800Y0006800D01*
X0236800Y0011800D01*
X0256800Y0011800D01*
X0256800Y0006800D01*
X0256800Y0009793D02*
X0236800Y0009793D01*
X0236800Y0011391D02*
X0256800Y0011391D01*
X0296800Y0011391D02*
X0316800Y0011391D01*
X0316800Y0011800D02*
X0316800Y0006800D01*
X0296800Y0006800D01*
X0296800Y0011800D01*
X0316800Y0011800D01*
X0316800Y0009793D02*
X0296800Y0009793D01*
X0296800Y0008194D02*
X0316800Y0008194D01*
X0356800Y0008194D02*
X0376800Y0008194D01*
X0376800Y0006800D02*
X0356800Y0006800D01*
X0356800Y0011800D01*
X0376800Y0011800D01*
X0376800Y0006800D01*
X0376800Y0009793D02*
X0356800Y0009793D01*
X0356800Y0011391D02*
X0376800Y0011391D01*
X0416800Y0011391D02*
X0436800Y0011391D01*
X0416800Y0011391D01*
X0416800Y0011800D02*
X0416800Y0006800D01*
X0436800Y0006800D01*
X0436800Y0011800D01*
X0416800Y0011800D01*
X0416800Y0006800D01*
X0436800Y0006800D01*
X0436800Y0011800D01*
X0416800Y0011800D01*
X0416800Y0009793D02*
X0436800Y0009793D01*
X0416800Y0009793D01*
X0416800Y0008194D02*
X0436800Y0008194D01*
X0416800Y0008194D01*
X0476800Y0008194D02*
X0496800Y0008194D01*
X0476800Y0008194D01*
X0476800Y0006800D02*
X0476800Y0011800D01*
X0496800Y0011800D01*
X0496800Y0006800D01*
X0476800Y0006800D01*
X0476800Y0011800D01*
X0496800Y0011800D01*
X0496800Y0006800D01*
X0476800Y0006800D01*
X0476800Y0009793D02*
X0496800Y0009793D01*
X0476800Y0009793D01*
X0476800Y0011391D02*
X0496800Y0011391D01*
X0476800Y0011391D01*
X0501800Y0026800D02*
X0506800Y0026800D01*
X0506800Y0046800D01*
X0501800Y0046800D01*
X0501800Y0026800D01*
X0501800Y0027376D02*
X0506800Y0027376D01*
X0506800Y0028975D02*
X0501800Y0028975D01*
X0501800Y0030573D02*
X0506800Y0030573D01*
X0506800Y0032172D02*
X0501800Y0032172D01*
X0501800Y0033770D02*
X0506800Y0033770D01*
X0506800Y0035369D02*
X0501800Y0035369D01*
X0501800Y0036967D02*
X0506800Y0036967D01*
X0506800Y0038566D02*
X0501800Y0038566D01*
X0501800Y0040164D02*
X0506800Y0040164D01*
X0506800Y0041763D02*
X0501800Y0041763D01*
X0501800Y0043361D02*
X0506800Y0043361D01*
X0506800Y0044960D02*
X0501800Y0044960D01*
X0501800Y0046558D02*
X0506800Y0046558D01*
X0511800Y0046558D02*
X0516800Y0046558D01*
X0516800Y0046800D02*
X0511800Y0046800D01*
X0511800Y0026800D01*
X0516800Y0026800D01*
X0516800Y0046800D01*
X0516800Y0044960D02*
X0511800Y0044960D01*
X0511800Y0043361D02*
X0516800Y0043361D01*
X0516800Y0041763D02*
X0511800Y0041763D01*
X0511800Y0040164D02*
X0516800Y0040164D01*
X0516800Y0038566D02*
X0511800Y0038566D01*
X0511800Y0036967D02*
X0516800Y0036967D01*
X0516800Y0035369D02*
X0511800Y0035369D01*
X0511800Y0033770D02*
X0516800Y0033770D01*
X0516800Y0032172D02*
X0511800Y0032172D01*
X0511800Y0030573D02*
X0516800Y0030573D01*
X0516800Y0028975D02*
X0511800Y0028975D01*
X0511800Y0027376D02*
X0516800Y0027376D01*
D13*
X0474925Y0055100D02*
X0470654Y0055100D01*
X0472790Y0055100D02*
X0472790Y0061505D01*
X0470654Y0059370D01*
X0468479Y0059370D02*
X0468479Y0060438D01*
X0467412Y0061505D01*
X0465277Y0061505D01*
X0464209Y0060438D01*
X0468479Y0059370D02*
X0464209Y0055100D01*
X0468479Y0055100D01*
X0454925Y0058303D02*
X0450655Y0058303D01*
X0452790Y0060438D02*
X0452790Y0056168D01*
X0429925Y0058303D02*
X0425655Y0058303D01*
X0414925Y0058303D02*
X0411722Y0058303D01*
X0410654Y0059370D01*
X0410654Y0060438D01*
X0411722Y0061505D01*
X0413857Y0061505D01*
X0414925Y0060438D01*
X0414925Y0056168D01*
X0413857Y0055100D01*
X0411722Y0055100D01*
X0410654Y0056168D01*
X0408479Y0055100D02*
X0404209Y0055100D01*
X0406344Y0055100D02*
X0406344Y0061505D01*
X0404209Y0059370D01*
X0394925Y0058303D02*
X0390655Y0058303D01*
X0392790Y0060438D02*
X0392790Y0056168D01*
X0369925Y0058303D02*
X0365655Y0058303D01*
X0354925Y0059370D02*
X0353857Y0058303D01*
X0351722Y0058303D01*
X0350654Y0059370D01*
X0350654Y0060438D01*
X0351722Y0061505D01*
X0353857Y0061505D01*
X0354925Y0060438D01*
X0354925Y0059370D01*
X0353857Y0058303D02*
X0354925Y0057235D01*
X0354925Y0056168D01*
X0353857Y0055100D01*
X0351722Y0055100D01*
X0350654Y0056168D01*
X0350654Y0057235D01*
X0351722Y0058303D01*
X0348479Y0055100D02*
X0344209Y0055100D01*
X0346344Y0055100D02*
X0346344Y0061505D01*
X0344209Y0059370D01*
X0334925Y0058303D02*
X0330655Y0058303D01*
X0332790Y0060438D02*
X0332790Y0056168D01*
X0309925Y0058303D02*
X0305655Y0058303D01*
X0294925Y0058303D02*
X0294925Y0056168D01*
X0293857Y0055100D01*
X0291722Y0055100D01*
X0290655Y0056168D01*
X0290655Y0058303D02*
X0292790Y0059370D01*
X0293857Y0059370D01*
X0294925Y0058303D01*
X0294925Y0061505D02*
X0290655Y0061505D01*
X0290655Y0058303D01*
X0274925Y0058303D02*
X0270655Y0058303D01*
X0272790Y0060438D02*
X0272790Y0056168D01*
X0249925Y0058303D02*
X0245655Y0058303D01*
X0234925Y0058303D02*
X0230655Y0058303D01*
X0233857Y0061505D01*
X0233857Y0055100D01*
X0214925Y0058303D02*
X0210655Y0058303D01*
X0212790Y0060438D02*
X0212790Y0056168D01*
X0189925Y0058303D02*
X0185655Y0058303D01*
X0179925Y0055100D02*
X0175654Y0055100D01*
X0177790Y0055100D02*
X0177790Y0061505D01*
X0175654Y0059370D01*
X0173479Y0059370D02*
X0173479Y0055100D01*
X0173479Y0058303D02*
X0169209Y0058303D01*
X0169209Y0059370D02*
X0171344Y0061505D01*
X0173479Y0059370D01*
X0169209Y0059370D02*
X0169209Y0055100D01*
X0154925Y0058303D02*
X0150655Y0058303D01*
X0152790Y0060438D02*
X0152790Y0056168D01*
X0129925Y0058303D02*
X0125655Y0058303D01*
X0119925Y0060438D02*
X0115654Y0056168D01*
X0116722Y0055100D01*
X0118857Y0055100D01*
X0119925Y0056168D01*
X0119925Y0060438D01*
X0118857Y0061505D01*
X0116722Y0061505D01*
X0115654Y0060438D01*
X0115654Y0056168D01*
X0113479Y0055100D02*
X0113479Y0059370D01*
X0111344Y0061505D01*
X0109209Y0059370D01*
X0109209Y0055100D01*
X0109209Y0058303D02*
X0113479Y0058303D01*
X0094925Y0058303D02*
X0090655Y0058303D01*
X0092790Y0060438D02*
X0092790Y0056168D01*
X0069925Y0058303D02*
X0065655Y0058303D01*
X0054925Y0059370D02*
X0053857Y0058303D01*
X0054925Y0057235D01*
X0054925Y0056168D01*
X0053857Y0055100D01*
X0051722Y0055100D01*
X0050654Y0056168D01*
X0048479Y0055100D02*
X0044209Y0055100D01*
X0046344Y0055100D02*
X0046344Y0061505D01*
X0044209Y0059370D01*
X0050654Y0060438D02*
X0051722Y0061505D01*
X0053857Y0061505D01*
X0054925Y0060438D01*
X0054925Y0059370D01*
X0053857Y0058303D02*
X0052790Y0058303D01*
X0034925Y0058303D02*
X0030655Y0058303D01*
X0032790Y0060438D02*
X0032790Y0056168D01*
X0058168Y0202100D02*
X0057100Y0203168D01*
X0057100Y0207438D01*
X0058168Y0208505D01*
X0060303Y0208505D01*
X0061370Y0207438D01*
X0061370Y0205303D02*
X0059235Y0205303D01*
X0061370Y0205303D02*
X0061370Y0203168D01*
X0060303Y0202100D01*
X0058168Y0202100D01*
X0063545Y0202100D02*
X0063545Y0208505D01*
X0067816Y0202100D01*
X0067816Y0208505D01*
X0069991Y0208505D02*
X0073194Y0208505D01*
X0074261Y0207438D01*
X0074261Y0203168D01*
X0073194Y0202100D01*
X0069991Y0202100D01*
X0069991Y0208505D01*
X0069235Y0273168D02*
X0069235Y0277438D01*
X0067100Y0275303D02*
X0071370Y0275303D01*
X0057816Y0276370D02*
X0057816Y0277438D01*
X0056748Y0278505D01*
X0054613Y0278505D01*
X0053545Y0277438D01*
X0057816Y0276370D02*
X0053545Y0272100D01*
X0057816Y0272100D01*
X0051370Y0272100D02*
X0047100Y0272100D01*
X0049235Y0272100D02*
X0049235Y0278505D01*
X0047100Y0276370D01*
X0036370Y0275303D02*
X0032100Y0275303D01*
X0092100Y0275303D02*
X0096370Y0275303D01*
X0107100Y0277438D02*
X0108168Y0278505D01*
X0110303Y0278505D01*
X0111370Y0277438D01*
X0111370Y0276370D01*
X0107100Y0272100D01*
X0111370Y0272100D01*
X0113545Y0272100D02*
X0113545Y0273168D01*
X0117816Y0277438D01*
X0117816Y0278505D01*
X0113545Y0278505D01*
X0127100Y0275303D02*
X0131370Y0275303D01*
X0129235Y0277438D02*
X0129235Y0273168D01*
X0152100Y0275303D02*
X0156370Y0275303D01*
X0167100Y0277438D02*
X0168168Y0278505D01*
X0170303Y0278505D01*
X0171370Y0277438D01*
X0171370Y0276370D01*
X0170303Y0275303D01*
X0171370Y0274235D01*
X0171370Y0273168D01*
X0170303Y0272100D01*
X0168168Y0272100D01*
X0167100Y0273168D01*
X0169235Y0275303D02*
X0170303Y0275303D01*
X0173545Y0277438D02*
X0174613Y0278505D01*
X0176748Y0278505D01*
X0177816Y0277438D01*
X0177816Y0276370D01*
X0176748Y0275303D01*
X0177816Y0274235D01*
X0177816Y0273168D01*
X0176748Y0272100D01*
X0174613Y0272100D01*
X0173545Y0273168D01*
X0175681Y0275303D02*
X0176748Y0275303D01*
X0187100Y0275303D02*
X0191370Y0275303D01*
X0189235Y0277438D02*
X0189235Y0273168D01*
X0212100Y0275303D02*
X0216370Y0275303D01*
X0227100Y0276370D02*
X0229235Y0278505D01*
X0229235Y0272100D01*
X0227100Y0272100D02*
X0231370Y0272100D01*
X0233545Y0273168D02*
X0234613Y0272100D01*
X0236748Y0272100D01*
X0237816Y0273168D01*
X0237816Y0275303D01*
X0236748Y0276370D01*
X0235681Y0276370D01*
X0233545Y0275303D01*
X0233545Y0278505D01*
X0237816Y0278505D01*
X0247100Y0275303D02*
X0251370Y0275303D01*
X0249235Y0277438D02*
X0249235Y0273168D01*
X0272100Y0275303D02*
X0276370Y0275303D01*
X0287100Y0277438D02*
X0288168Y0278505D01*
X0290303Y0278505D01*
X0291370Y0277438D01*
X0291370Y0276370D01*
X0290303Y0275303D01*
X0291370Y0274235D01*
X0291370Y0273168D01*
X0290303Y0272100D01*
X0288168Y0272100D01*
X0287100Y0273168D01*
X0289235Y0275303D02*
X0290303Y0275303D01*
X0293545Y0277438D02*
X0294613Y0278505D01*
X0296748Y0278505D01*
X0297816Y0277438D01*
X0297816Y0276370D01*
X0293545Y0272100D01*
X0297816Y0272100D01*
X0307100Y0275303D02*
X0311370Y0275303D01*
X0309235Y0277438D02*
X0309235Y0273168D01*
X0327100Y0275303D02*
X0331370Y0275303D01*
X0347100Y0276370D02*
X0349235Y0278505D01*
X0349235Y0272100D01*
X0347100Y0272100D02*
X0351370Y0272100D01*
X0353545Y0275303D02*
X0357816Y0275303D01*
X0356748Y0278505D02*
X0356748Y0272100D01*
X0353545Y0275303D02*
X0356748Y0278505D01*
X0367100Y0275303D02*
X0371370Y0275303D01*
X0369235Y0277438D02*
X0369235Y0273168D01*
X0392100Y0275303D02*
X0396370Y0275303D01*
X0407100Y0277438D02*
X0408168Y0278505D01*
X0410303Y0278505D01*
X0411370Y0277438D01*
X0411370Y0276370D01*
X0407100Y0272100D01*
X0411370Y0272100D01*
X0413545Y0272100D02*
X0417816Y0276370D01*
X0417816Y0277438D01*
X0416748Y0278505D01*
X0414613Y0278505D01*
X0413545Y0277438D01*
X0413545Y0272100D02*
X0417816Y0272100D01*
X0427100Y0275303D02*
X0431370Y0275303D01*
X0429235Y0277438D02*
X0429235Y0273168D01*
X0452100Y0275303D02*
X0456370Y0275303D01*
X0467100Y0277438D02*
X0468168Y0278505D01*
X0470303Y0278505D01*
X0471370Y0277438D01*
X0471370Y0276370D01*
X0467100Y0272100D01*
X0471370Y0272100D01*
X0473545Y0273168D02*
X0474613Y0272100D01*
X0476748Y0272100D01*
X0477816Y0273168D01*
X0477816Y0274235D01*
X0476748Y0275303D01*
X0475681Y0275303D01*
X0476748Y0275303D02*
X0477816Y0276370D01*
X0477816Y0277438D01*
X0476748Y0278505D01*
X0474613Y0278505D01*
X0473545Y0277438D01*
X0487100Y0275303D02*
X0491370Y0275303D01*
X0489235Y0277438D02*
X0489235Y0273168D01*
X0488194Y0203505D02*
X0484991Y0203505D01*
X0484991Y0197100D01*
X0488194Y0197100D01*
X0489261Y0198168D01*
X0489261Y0202438D01*
X0488194Y0203505D01*
X0482816Y0203505D02*
X0482816Y0197100D01*
X0478545Y0203505D01*
X0478545Y0197100D01*
X0476370Y0198168D02*
X0476370Y0200303D01*
X0474235Y0200303D01*
X0472100Y0202438D02*
X0472100Y0198168D01*
X0473168Y0197100D01*
X0475303Y0197100D01*
X0476370Y0198168D01*
X0476370Y0202438D02*
X0475303Y0203505D01*
X0473168Y0203505D01*
X0472100Y0202438D01*
X0485655Y0058303D02*
X0489925Y0058303D01*
D14*
X0351800Y0066800D03*
X0111800Y0066800D03*
X0111800Y0236800D03*
X0351800Y0236800D03*
D15*
X0361800Y0236800D03*
X0371800Y0236800D03*
X0381800Y0236800D03*
X0391800Y0236800D03*
X0401800Y0236800D03*
X0411800Y0236800D03*
X0411800Y0266800D03*
X0401800Y0266800D03*
X0391800Y0266800D03*
X0381800Y0266800D03*
X0371800Y0266800D03*
X0361800Y0266800D03*
X0351800Y0266800D03*
X0171800Y0266800D03*
X0161800Y0266800D03*
X0151800Y0266800D03*
X0141800Y0266800D03*
X0131800Y0266800D03*
X0121800Y0266800D03*
X0111800Y0266800D03*
X0121800Y0236800D03*
X0131800Y0236800D03*
X0141800Y0236800D03*
X0151800Y0236800D03*
X0161800Y0236800D03*
X0171800Y0236800D03*
X0171800Y0096800D03*
X0161800Y0096800D03*
X0151800Y0096800D03*
X0141800Y0096800D03*
X0131800Y0096800D03*
X0121800Y0096800D03*
X0111800Y0096800D03*
X0121800Y0066800D03*
X0131800Y0066800D03*
X0141800Y0066800D03*
X0151800Y0066800D03*
X0161800Y0066800D03*
X0171800Y0066800D03*
X0351800Y0096800D03*
X0361800Y0096800D03*
X0371800Y0096800D03*
X0381800Y0096800D03*
X0391800Y0096800D03*
X0401800Y0096800D03*
X0411800Y0096800D03*
X0411800Y0066800D03*
X0401800Y0066800D03*
X0391800Y0066800D03*
X0381800Y0066800D03*
X0371800Y0066800D03*
X0361800Y0066800D03*
D16*
X0351800Y0129050D03*
X0351800Y0204300D03*
X0171800Y0201800D03*
X0171800Y0131800D03*
D17*
X0186800Y0126800D03*
X0196800Y0126800D03*
X0206800Y0126800D03*
X0216800Y0126800D03*
X0226800Y0126800D03*
X0236800Y0126800D03*
X0246800Y0126800D03*
X0256800Y0126800D03*
X0266800Y0126800D03*
X0276800Y0126800D03*
X0286800Y0126800D03*
X0296800Y0126800D03*
X0306800Y0126800D03*
X0316800Y0126800D03*
X0326800Y0126800D03*
X0336800Y0126800D03*
X0336800Y0206800D03*
X0326800Y0206800D03*
X0316800Y0206800D03*
X0306800Y0206800D03*
X0296800Y0206800D03*
X0286800Y0206800D03*
X0276800Y0206800D03*
X0266800Y0206800D03*
X0256800Y0206800D03*
X0246800Y0206800D03*
X0236800Y0206800D03*
X0226800Y0206800D03*
D18*
X0326800Y0241800D03*
X0326800Y0261800D03*
X0086800Y0261800D03*
X0086800Y0241800D03*
X0086800Y0091800D03*
X0086800Y0071800D03*
X0326800Y0071800D03*
X0326800Y0091800D03*
D19*
X0119800Y0161800D02*
X0113800Y0161800D01*
X0113800Y0171800D02*
X0119800Y0171800D01*
D20*
X0111800Y0293257D02*
X0111800Y0300343D01*
X0092115Y0300343D02*
X0092115Y0293257D01*
X0071485Y0293257D02*
X0071485Y0300343D01*
X0051800Y0300343D02*
X0051800Y0293257D01*
X0032115Y0293257D02*
X0032115Y0300343D01*
X0131485Y0300343D02*
X0131485Y0293257D01*
X0152115Y0293257D02*
X0152115Y0300343D01*
X0171800Y0300343D02*
X0171800Y0293257D01*
X0191485Y0293257D02*
X0191485Y0300343D01*
X0212115Y0300343D02*
X0212115Y0293257D01*
X0231800Y0293257D02*
X0231800Y0300343D01*
X0251485Y0300343D02*
X0251485Y0293257D01*
X0272115Y0293257D02*
X0272115Y0300343D01*
X0291800Y0300343D02*
X0291800Y0293257D01*
X0311485Y0293257D02*
X0311485Y0300343D01*
X0332115Y0300343D02*
X0332115Y0293257D01*
X0351800Y0293257D02*
X0351800Y0300343D01*
X0371485Y0300343D02*
X0371485Y0293257D01*
X0392115Y0293257D02*
X0392115Y0300343D01*
X0411800Y0300343D02*
X0411800Y0293257D01*
X0431485Y0293257D02*
X0431485Y0300343D01*
X0452115Y0300343D02*
X0452115Y0293257D01*
X0471800Y0293257D02*
X0471800Y0300343D01*
X0491485Y0300343D02*
X0491485Y0293257D01*
X0491485Y0040343D02*
X0491485Y0033257D01*
X0471800Y0033257D02*
X0471800Y0040343D01*
X0452115Y0040343D02*
X0452115Y0033257D01*
X0431485Y0033257D02*
X0431485Y0040343D01*
X0411800Y0040343D02*
X0411800Y0033257D01*
X0392115Y0033257D02*
X0392115Y0040343D01*
X0371485Y0040343D02*
X0371485Y0033257D01*
X0351800Y0033257D02*
X0351800Y0040343D01*
X0332115Y0040343D02*
X0332115Y0033257D01*
X0311485Y0033257D02*
X0311485Y0040343D01*
X0291800Y0040343D02*
X0291800Y0033257D01*
X0272115Y0033257D02*
X0272115Y0040343D01*
X0251485Y0040343D02*
X0251485Y0033257D01*
X0231800Y0033257D02*
X0231800Y0040343D01*
X0212115Y0040343D02*
X0212115Y0033257D01*
X0191485Y0033257D02*
X0191485Y0040343D01*
X0171800Y0040343D02*
X0171800Y0033257D01*
X0152115Y0033257D02*
X0152115Y0040343D01*
X0131485Y0040343D02*
X0131485Y0033257D01*
X0111800Y0033257D02*
X0111800Y0040343D01*
X0092115Y0040343D02*
X0092115Y0033257D01*
X0071485Y0033257D02*
X0071485Y0040343D01*
X0051800Y0040343D02*
X0051800Y0033257D01*
X0032115Y0033257D02*
X0032115Y0040343D01*
D21*
X0031800Y0071800D03*
X0031800Y0096800D03*
X0031800Y0121800D03*
X0031800Y0146800D03*
X0031800Y0221800D03*
X0031800Y0246800D03*
X0031800Y0271800D03*
X0194300Y0104300D03*
X0321800Y0119300D03*
X0491800Y0116800D03*
X0491800Y0141800D03*
X0491800Y0166800D03*
X0491800Y0191800D03*
X0491800Y0216800D03*
X0491800Y0241800D03*
X0491800Y0266800D03*
X0491800Y0091800D03*
X0491800Y0066800D03*
D22*
X0454556Y0080540D03*
X0454556Y0257706D03*
X0060855Y0257706D03*
X0040855Y0205540D03*
X0041800Y0166800D03*
X0060855Y0080540D03*
D23*
X0181000Y0093000D03*
X0337800Y0105800D03*
M02*
